<svg width="12" height="13" viewBox="0 0 12 13" fill="none" xmlns="http://www.w3.org/2000/svg">
<path d="M12 3.0714C12 2.61674 11.8194 2.1807 11.4979 1.85921C11.1764 1.53772 10.7404 1.35711 10.2857 1.35711H9.85714V0.940587C9.85714 0.709962 9.67982 0.512014 9.4492 0.500497C9.39125 0.497705 9.33334 0.506707 9.27897 0.526957C9.22461 0.547208 9.17492 0.578285 9.13292 0.618306C9.09092 0.658327 9.05749 0.706459 9.03464 0.759784C9.01179 0.81311 9.00001 0.870519 9 0.928534V1.35711H3V0.940587C3 0.709962 2.82268 0.512014 2.59205 0.500497C2.53411 0.497705 2.4762 0.506707 2.42183 0.526957C2.36747 0.547208 2.31778 0.578285 2.27578 0.618306C2.23378 0.658327 2.20034 0.706459 2.17749 0.759784C2.15465 0.81311 2.14286 0.870519 2.14286 0.928534V1.35711H1.71429C1.25963 1.35711 0.823594 1.53772 0.502103 1.85921C0.180612 2.1807 0 2.61674 0 3.0714V3.39283C0 3.42124 0.0112883 3.4485 0.0313814 3.46859C0.0514746 3.48868 0.0787268 3.49997 0.107143 3.49997H11.8929C11.9213 3.49997 11.9485 3.48868 11.9686 3.46859C11.9887 3.4485 12 3.42124 12 3.39283V3.0714ZM0 10.7857C0 11.2404 0.180612 11.6764 0.502103 11.9979C0.823594 12.3194 1.25963 12.5 1.71429 12.5H10.2857C10.7404 12.5 11.1764 12.3194 11.4979 11.9979C11.8194 11.6764 12 11.2404 12 10.7857V4.43747C12 4.41616 11.9915 4.39572 11.9765 4.38065C11.9614 4.36558 11.941 4.35712 11.9196 4.35712H0.0803571C0.0590451 4.35712 0.038606 4.36558 0.0235361 4.38065C0.00846622 4.39572 0 4.41616 0 4.43747V10.7857ZM9.21429 5.21426C9.34143 5.21426 9.46572 5.25197 9.57144 5.3226C9.67716 5.39324 9.75955 5.49364 9.80821 5.61111C9.85686 5.72858 9.8696 5.85783 9.84479 5.98254C9.81999 6.10724 9.75876 6.22179 9.66885 6.31169C9.57895 6.4016 9.4644 6.46282 9.3397 6.48763C9.215 6.51243 9.08574 6.4997 8.96828 6.45105C8.85081 6.40239 8.75041 6.31999 8.67977 6.21427C8.60913 6.10856 8.57143 5.98427 8.57143 5.85712C8.57143 5.68662 8.63916 5.52311 8.75972 5.40255C8.88028 5.28199 9.04379 5.21426 9.21429 5.21426ZM9.21429 7.35713C9.34143 7.35713 9.46572 7.39483 9.57144 7.46547C9.67716 7.53611 9.75955 7.63651 9.80821 7.75397C9.85686 7.87144 9.8696 8.0007 9.84479 8.1254C9.81999 8.2501 9.75876 8.36465 9.66885 8.45456C9.57895 8.54446 9.4644 8.60569 9.3397 8.63049C9.215 8.6553 9.08574 8.64257 8.96828 8.59391C8.85081 8.54525 8.75041 8.46286 8.67977 8.35714C8.60913 8.25142 8.57143 8.12713 8.57143 7.99999C8.57143 7.82949 8.63916 7.66598 8.75972 7.54542C8.88028 7.42486 9.04379 7.35713 9.21429 7.35713ZM7.07143 5.21426C7.19857 5.21426 7.32286 5.25197 7.42858 5.3226C7.5343 5.39324 7.61669 5.49364 7.66535 5.61111C7.71401 5.72858 7.72674 5.85783 7.70193 5.98254C7.67713 6.10724 7.6159 6.22179 7.526 6.31169C7.43609 6.4016 7.32155 6.46282 7.19684 6.48763C7.07214 6.51243 6.94288 6.4997 6.82542 6.45105C6.70795 6.40239 6.60755 6.31999 6.53691 6.21427C6.46627 6.10856 6.42857 5.98427 6.42857 5.85712C6.42857 5.68662 6.4963 5.52311 6.61686 5.40255C6.73742 5.28199 6.90093 5.21426 7.07143 5.21426ZM7.07143 7.35713C7.19857 7.35713 7.32286 7.39483 7.42858 7.46547C7.5343 7.53611 7.61669 7.63651 7.66535 7.75397C7.71401 7.87144 7.72674 8.0007 7.70193 8.1254C7.67713 8.2501 7.6159 8.36465 7.526 8.45456C7.43609 8.54446 7.32155 8.60569 7.19684 8.63049C7.07214 8.6553 6.94288 8.64257 6.82542 8.59391C6.70795 8.54525 6.60755 8.46286 6.53691 8.35714C6.46627 8.25142 6.42857 8.12713 6.42857 7.99999C6.42857 7.82949 6.4963 7.66598 6.61686 7.54542C6.73742 7.42486 6.90093 7.35713 7.07143 7.35713ZM7.07143 9.49999C7.19857 9.49999 7.32286 9.53769 7.42858 9.60833C7.5343 9.67897 7.61669 9.77937 7.66535 9.89684C7.71401 10.0143 7.72674 10.1436 7.70193 10.2683C7.67713 10.393 7.6159 10.5075 7.526 10.5974C7.43609 10.6873 7.32155 10.7486 7.19684 10.7734C7.07214 10.7982 6.94288 10.7854 6.82542 10.7368C6.70795 10.6881 6.60755 10.6057 6.53691 10.5C6.46627 10.3943 6.42857 10.27 6.42857 10.1428C6.42857 9.97235 6.4963 9.80884 6.61686 9.68828C6.73742 9.56772 6.90093 9.49999 7.07143 9.49999ZM4.92857 7.35713C5.05572 7.35713 5.18001 7.39483 5.28572 7.46547C5.39144 7.53611 5.47384 7.63651 5.52249 7.75397C5.57115 7.87144 5.58388 8.0007 5.55908 8.1254C5.53427 8.2501 5.47305 8.36465 5.38314 8.45456C5.29323 8.54446 5.17869 8.60569 5.05399 8.63049C4.92928 8.6553 4.80003 8.64257 4.68256 8.59391C4.56509 8.54525 4.46469 8.46286 4.39406 8.35714C4.32342 8.25142 4.28571 8.12713 4.28571 7.99999C4.28571 7.82949 4.35344 7.66598 4.474 7.54542C4.59456 7.42486 4.75808 7.35713 4.92857 7.35713ZM4.92857 9.49999C5.05572 9.49999 5.18001 9.53769 5.28572 9.60833C5.39144 9.67897 5.47384 9.77937 5.52249 9.89684C5.57115 10.0143 5.58388 10.1436 5.55908 10.2683C5.53427 10.393 5.47305 10.5075 5.38314 10.5974C5.29323 10.6873 5.17869 10.7486 5.05399 10.7734C4.92928 10.7982 4.80003 10.7854 4.68256 10.7368C4.56509 10.6881 4.46469 10.6057 4.39406 10.5C4.32342 10.3943 4.28571 10.27 4.28571 10.1428C4.28571 9.97235 4.35344 9.80884 4.474 9.68828C4.59456 9.56772 4.75808 9.49999 4.92857 9.49999ZM2.78571 7.35713C2.91286 7.35713 3.03715 7.39483 3.14287 7.46547C3.24858 7.53611 3.33098 7.63651 3.37964 7.75397C3.42829 7.87144 3.44102 8.0007 3.41622 8.1254C3.39141 8.2501 3.33019 8.36465 3.24028 8.45456C3.15038 8.54446 3.03583 8.60569 2.91113 8.63049C2.78643 8.6553 2.65717 8.64257 2.5397 8.59391C2.42224 8.54525 2.32184 8.46286 2.2512 8.35714C2.18056 8.25142 2.14286 8.12713 2.14286 7.99999C2.14286 7.82949 2.21059 7.66598 2.33115 7.54542C2.4517 7.42486 2.61522 7.35713 2.78571 7.35713ZM2.78571 9.49999C2.91286 9.49999 3.03715 9.53769 3.14287 9.60833C3.24858 9.67897 3.33098 9.77937 3.37964 9.89684C3.42829 10.0143 3.44102 10.1436 3.41622 10.2683C3.39141 10.393 3.33019 10.5075 3.24028 10.5974C3.15038 10.6873 3.03583 10.7486 2.91113 10.7734C2.78643 10.7982 2.65717 10.7854 2.5397 10.7368C2.42224 10.6881 2.32184 10.6057 2.2512 10.5C2.18056 10.3943 2.14286 10.27 2.14286 10.1428C2.14286 9.97235 2.21059 9.80884 2.33115 9.68828C2.4517 9.56772 2.61522 9.49999 2.78571 9.49999Z" fill="white"/>
</svg>
