<svg width="12" height="13" viewBox="0 0 12 13" fill="none" xmlns="http://www.w3.org/2000/svg">
<path d="M10.0714 0.5H1.92857C1.41726 0.500611 0.927046 0.719623 0.565492 1.10899C0.203938 1.49835 0.000567183 2.02626 0 2.5769V8.11531C0.000567183 8.66595 0.203938 9.19386 0.565492 9.58322C0.927046 9.97258 1.41726 10.1916 1.92857 10.1922H2.57143V12.0383C2.57141 12.1261 2.59462 12.212 2.63834 12.2861C2.68206 12.3601 2.74448 12.4192 2.81828 12.4565C2.89208 12.4937 2.9742 12.5074 3.05501 12.4962C3.13583 12.4849 3.21198 12.4491 3.27455 12.3929L5.72518 10.1922H10.0714C10.5827 10.1916 11.073 9.97258 11.4345 9.58322C11.7961 9.19386 11.9994 8.66595 12 8.11531V2.5769C11.9994 2.02626 11.7961 1.49835 11.4345 1.10899C11.073 0.719623 10.5827 0.500611 10.0714 0.5ZM3.42857 6.26917C3.25904 6.26917 3.09332 6.21503 2.95237 6.11361C2.81141 6.01218 2.70155 5.86801 2.63667 5.69935C2.5718 5.53068 2.55483 5.34508 2.5879 5.16602C2.62097 4.98696 2.70261 4.82249 2.82248 4.6934C2.94235 4.5643 3.09508 4.47639 3.26135 4.44077C3.42762 4.40516 3.59996 4.42344 3.75659 4.4933C3.91321 4.56317 4.04708 4.68148 4.14126 4.83327C4.23544 4.98507 4.28571 5.16354 4.28571 5.3461C4.28571 5.59092 4.19541 5.8257 4.03466 5.99881C3.87392 6.17192 3.6559 6.26917 3.42857 6.26917ZM6 6.26917C5.83047 6.26917 5.66475 6.21503 5.5238 6.11361C5.38284 6.01218 5.27298 5.86801 5.2081 5.69935C5.14323 5.53068 5.12625 5.34508 5.15933 5.16602C5.1924 4.98696 5.27403 4.82249 5.39391 4.6934C5.51378 4.5643 5.66651 4.47639 5.83278 4.44077C5.99905 4.40516 6.17139 4.42344 6.32801 4.4933C6.48464 4.56317 6.6185 4.68148 6.71269 4.83327C6.80687 4.98507 6.85714 5.16354 6.85714 5.3461C6.85714 5.59092 6.76684 5.8257 6.60609 5.99881C6.44535 6.17192 6.22733 6.26917 6 6.26917ZM8.57143 6.26917C8.4019 6.26917 8.23618 6.21503 8.09523 6.11361C7.95427 6.01218 7.84441 5.86801 7.77953 5.69935C7.71466 5.53068 7.69768 5.34508 7.73076 5.16602C7.76383 4.98696 7.84546 4.82249 7.96534 4.6934C8.08521 4.5643 8.23794 4.47639 8.40421 4.44077C8.57048 4.40516 8.74282 4.42344 8.89944 4.4933C9.05607 4.56317 9.18993 4.68148 9.28412 4.83327C9.3783 4.98507 9.42857 5.16354 9.42857 5.3461C9.42857 5.59092 9.33827 5.8257 9.17752 5.99881C9.01677 6.17192 8.79876 6.26917 8.57143 6.26917Z" fill="white"/>
</svg>
