<svg width="12" height="13" viewBox="0 0 12 13" fill="none" xmlns="http://www.w3.org/2000/svg">
<path d="M4.62497 0.5H0.874969C0.392486 0.5 0 0.892486 0 1.37497V3.62497C0 4.10754 0.392486 4.50003 0.874969 4.50003H4.62497C5.10754 4.50003 5.50003 4.10754 5.50003 3.62497V1.37497C5.50003 0.892486 5.10754 0.5 4.62497 0.5Z" fill="white"/>
<path d="M4.62497 5.5H0.874969C0.392486 5.5 0 5.89249 0 6.37506V11.6251C0 12.1075 0.392486 12.5 0.874969 12.5H4.62497C5.10754 12.5 5.50003 12.1075 5.50003 11.6251V6.37506C5.50003 5.89249 5.10754 5.5 4.62497 5.5Z" fill="white"/>
<path d="M11.1251 8.5H7.37506C6.89249 8.5 6.5 8.89249 6.5 9.37506V11.6251C6.5 12.1075 6.89249 12.5 7.37506 12.5H11.1251C11.6075 12.5 12 12.1075 12 11.6251V9.37506C12 8.89249 11.6075 8.5 11.1251 8.5Z" fill="white"/>
<path d="M11.1251 0.5H7.37506C6.89249 0.5 6.5 0.892486 6.5 1.37497V6.62497C6.5 7.10754 6.89249 7.50003 7.37506 7.50003H11.1251C11.6075 7.50003 12 7.10754 12 6.62497V1.37497C12 0.892486 11.6075 0.5 11.1251 0.5V0.5Z" fill="white"/>
</svg>
