<svg width="6" height="19" viewBox="0 0 6 19" fill="none" xmlns="http://www.w3.org/2000/svg">
<path d="M5.07662 9.07692C5.07662 7.92989 4.14677 7.00004 2.99974 7.00004C1.85271 7.00004 0.922852 7.92989 0.922852 9.07692C0.922852 10.224 1.85271 11.1538 2.99974 11.1538C4.14677 11.1538 5.07662 10.224 5.07662 9.07692Z" fill="white"/>
<path d="M5.07662 2.15383C5.07662 1.00679 4.14677 0.0769412 2.99974 0.0769411C1.85271 0.0769411 0.922852 1.00679 0.922852 2.15383C0.922852 3.30086 1.85271 4.23071 2.99974 4.23071C4.14677 4.23071 5.07662 3.30086 5.07662 2.15383Z" fill="white"/>
<path d="M5.07662 15.9998C5.07662 14.8527 4.14677 13.9229 2.99974 13.9229C1.85271 13.9229 0.922852 14.8527 0.922852 15.9998C0.922852 17.1468 1.85271 18.0767 2.99974 18.0767C4.14677 18.0767 5.07662 17.1468 5.07662 15.9998Z" fill="white"/>
</svg>
