<svg width="16" height="16" viewBox="0 0 16 16" fill="none" xmlns="http://www.w3.org/2000/svg">
<path d="M0 2C0 0.895431 0.895431 0 2 0H14C15.1046 0 16 0.895431 16 2V14C16 15.1046 15.1046 16 14 16H2C0.895431 16 0 15.1046 0 14V2Z" fill="#1D1D42"/>
<g clip-path="url(#clip0_787_2)">
<path d="M6.42593 3.52148H5.21605C5.09673 3.52148 5 3.61742 5 3.73577V6.91577C5 7.09468 5.20797 7.19481 5.34969 7.08413L6.55957 6.13941C6.6116 6.09878 6.64198 6.03673 6.64198 5.97105V3.73577C6.64198 3.61742 6.54525 3.52148 6.42593 3.52148Z" fill="white"/>
<path d="M6.42593 12.5H5.21605C5.09673 12.5 5 12.404 5 12.2857V9.08577C5 8.90661 5.20852 8.80656 5.35015 8.91777L6.56003 9.86776C6.61179 9.90841 6.64198 9.9703 6.64198 10.0358V12.2857C6.64198 12.404 6.54525 12.5 6.42593 12.5Z" fill="white"/>
<path d="M11.515 3.5H9.955C9.89343 3.5 9.83475 3.52607 9.79376 3.57167L6.6964 7.01669C6.66111 7.05594 6.6416 7.10671 6.6416 7.15931V8.85519C6.6416 9.05167 6.88596 9.14456 7.01836 8.99842L11.6757 3.85751C11.8007 3.71957 11.702 3.5 11.515 3.5Z" fill="white"/>
<path d="M10.3502 12.1668L8.37777 9.23596C8.30436 9.12687 8.15025 9.1082 8.05253 9.19657L7.75356 9.4669L7.39375 9.79222C7.32038 9.85857 7.30204 9.96595 7.34927 10.0525L8.6229 12.3877C8.66065 12.457 8.73358 12.5001 8.81292 12.5001H10.1705C10.3431 12.5001 10.446 12.3092 10.3502 12.1668Z" fill="white"/>
</g>
<defs>
<clipPath id="clip0_787_2">
<rect width="7" height="9" fill="white" transform="translate(5 3.5)"/>
</clipPath>
</defs>
</svg>
