<svg width="50" height="50" viewBox="0 0 50 50" fill="none" xmlns="http://www.w3.org/2000/svg">
<path d="M3.31734 0.703613H6.73011C7.59801 0.703613 8.43036 1.07301 9.04406 1.73054C9.65776 2.38807 10.0025 3.27988 10.0025 4.20977V49.3515C10.0025 49.4678 9.95943 49.5792 9.88272 49.6614C9.806 49.7436 9.70196 49.7898 9.59347 49.7898H0.453974C0.345486 49.7898 0.241442 49.7436 0.16473 49.6614C0.088018 49.5792 0.0449219 49.4678 0.0449219 49.3515V4.20977C0.0449219 3.27988 0.389691 2.38807 1.00339 1.73054C1.61708 1.07301 2.44944 0.703613 3.31734 0.703613Z" fill="white"/>
<path d="M16.407 13.8407H19.6794C20.5473 13.8407 21.3797 14.2101 21.9934 14.8677C22.607 15.5252 22.9518 16.417 22.9518 17.3469V49.3515C22.9518 49.4677 22.9087 49.5792 22.832 49.6614C22.7553 49.7436 22.6513 49.7897 22.5428 49.7897H13.5436C13.4351 49.7897 13.3311 49.7436 13.2544 49.6614C13.1777 49.5792 13.1346 49.4677 13.1346 49.3515V17.3469C13.1346 16.417 13.4793 15.5252 14.093 14.8677C14.7067 14.2101 15.5391 13.8407 16.407 13.8407Z" fill="white"/>
<path d="M29.3563 26.0647H32.7691C33.637 26.0647 34.4693 26.4341 35.083 27.0917C35.6967 27.7492 36.0415 28.641 36.0415 29.5709V49.3515C36.0415 49.4678 35.9984 49.5793 35.9217 49.6615C35.8449 49.7437 35.7409 49.7898 35.6324 49.7898H26.4929C26.3844 49.7898 26.2804 49.7437 26.2037 49.6615C26.127 49.5793 26.0839 49.4678 26.0839 49.3515V29.5709C26.0839 28.641 26.4286 27.7492 27.0423 27.0917C27.656 26.4341 28.4884 26.0647 29.3563 26.0647Z" fill="white"/>
<path d="M42.5863 6.23308H45.8587C46.7266 6.23308 47.559 6.60248 48.1727 7.26001C48.7864 7.91754 49.1311 8.80934 49.1311 9.73923V49.3514C49.1311 49.4676 49.088 49.5791 49.0113 49.6613C48.9346 49.7435 48.8306 49.7896 48.7221 49.7896H39.7229C39.6145 49.7896 39.5104 49.7435 39.4337 49.6613C39.357 49.5791 39.3139 49.4676 39.3139 49.3514V9.73923C39.3139 8.80934 39.6587 7.91754 40.2724 7.26001C40.886 6.60248 41.7184 6.23308 42.5863 6.23308Z" fill="white"/>
</svg>
