<svg width="9" height="9" viewBox="0 0 9 9" fill="none" xmlns="http://www.w3.org/2000/svg">
<g opacity="0.6">
<path d="M5.8112 5.88163C5.92217 5.49298 5.99558 5.04143 6.02355 4.6079C6.02417 4.59658 6.02246 4.58525 6.01851 4.57461C6.01457 4.56398 6.00849 4.55426 6.00063 4.54608C5.99278 4.53789 5.98333 4.53141 5.97287 4.52702C5.96241 4.52264 5.95116 4.52045 5.93982 4.5206H4.60564C4.59472 4.5205 4.58388 4.52255 4.57375 4.52664C4.56362 4.53073 4.5544 4.53677 4.5466 4.54443C4.53881 4.55208 4.5326 4.5612 4.52833 4.57125C4.52406 4.5813 4.52181 4.5921 4.52171 4.60302V5.6413C4.52195 5.66227 4.53008 5.68239 4.54449 5.69763C4.55889 5.71287 4.57852 5.72212 4.59944 5.72354C4.97542 5.75392 5.34692 5.82564 5.70719 5.93739C5.72838 5.94376 5.75123 5.94147 5.77073 5.93101C5.79023 5.92056 5.80478 5.9028 5.8112 5.88163ZM5.48883 6.49783C5.203 6.41438 4.91014 6.35726 4.6139 6.32717C4.60246 6.32589 4.59087 6.327 4.57989 6.33044C4.5689 6.33388 4.55875 6.33957 4.55007 6.34715C4.5414 6.35472 4.5344 6.36402 4.52952 6.37444C4.52464 6.38487 4.52198 6.3962 4.52171 6.40771V7.63262C4.52216 7.64723 4.52642 7.66147 4.53407 7.67393C4.54171 7.68639 4.55248 7.69663 4.5653 7.70365C4.57813 7.71067 4.59256 7.71422 4.60718 7.71394C4.62179 7.71367 4.63608 7.70958 4.64863 7.70209C4.94716 7.52804 5.19312 7.23571 5.41542 6.84912C5.45184 6.78604 5.50723 6.67733 5.54065 6.61086C5.54584 6.60017 5.5486 6.58846 5.54873 6.57658C5.54886 6.56469 5.54636 6.55293 5.54141 6.54212C5.53645 6.53132 5.52917 6.52174 5.52008 6.51409C5.51099 6.50643 5.50032 6.50088 5.48883 6.49783ZM3.83115 6.33054C3.53528 6.35869 3.24264 6.41412 2.95697 6.49614C2.90741 6.51041 2.88656 6.57876 2.9091 6.62363C2.9427 6.69047 2.9842 6.7759 3.01968 6.83973C3.26376 7.27157 3.52361 7.54381 3.79398 7.70209C3.80653 7.70958 3.82082 7.71367 3.83544 7.71394C3.85005 7.71422 3.86449 7.71067 3.87731 7.70365C3.89013 7.69663 3.9009 7.68639 3.90855 7.67393C3.91619 7.66147 3.92045 7.64723 3.9209 7.63262V6.40715C3.92081 6.39596 3.91832 6.38492 3.91359 6.37478C3.90886 6.36464 3.90201 6.35563 3.8935 6.34837C3.885 6.34111 3.87502 6.33576 3.86427 6.33268C3.85351 6.32961 3.84222 6.32888 3.83115 6.33054ZM3.83697 4.5206H2.5028C2.49147 4.52045 2.48024 4.52264 2.46979 4.52701C2.45934 4.53138 2.4499 4.53785 2.44205 4.54601C2.4342 4.55418 2.42811 4.56387 2.42416 4.57448C2.4202 4.58509 2.41847 4.59641 2.41906 4.60772C2.44685 5.04068 2.51988 5.49316 2.63047 5.88144C2.63361 5.89206 2.63882 5.90196 2.64581 5.91056C2.6528 5.91915 2.66142 5.92628 2.67118 5.93152C2.68095 5.93676 2.69165 5.94001 2.70268 5.94108C2.7137 5.94215 2.72483 5.94102 2.73542 5.93776C3.09567 5.82601 3.46718 5.75448 3.84317 5.72448C3.86413 5.7231 3.8838 5.71387 3.89824 5.69863C3.91269 5.68338 3.92085 5.66324 3.92109 5.64224V4.60321C3.92101 4.59226 3.91878 4.58142 3.91451 4.57134C3.91023 4.56125 3.90401 4.5521 3.8962 4.54443C3.88838 4.53675 3.87913 4.53069 3.86896 4.52661C3.8588 4.52252 3.84793 4.52047 3.83697 4.5206ZM4.61427 2.11322C4.91032 2.08548 5.20281 2.02799 5.48733 1.94161C5.49875 1.93853 5.50935 1.93297 5.51838 1.92533C5.52742 1.91769 5.53466 1.90816 5.53961 1.89742C5.54455 1.88667 5.54707 1.87497 5.54699 1.86314C5.54691 1.85131 5.54424 1.83964 5.53915 1.82896C5.50554 1.76193 5.45898 1.66599 5.42331 1.60197C5.19256 1.18891 4.93252 0.900707 4.64901 0.7383C4.63645 0.730862 4.62217 0.726821 4.60757 0.726575C4.59298 0.726328 4.57857 0.729883 4.56577 0.736892C4.55296 0.7439 4.5422 0.75412 4.53454 0.766547C4.52688 0.778974 4.52259 0.79318 4.52209 0.807769V2.03249C4.52236 2.044 4.52502 2.05534 4.5299 2.06578C4.53478 2.07621 4.54177 2.08552 4.55044 2.09311C4.55911 2.1007 4.56926 2.10641 4.58025 2.10987C4.59123 2.11333 4.60282 2.11447 4.61427 2.11322ZM4.60564 3.91979H5.93982C5.95106 3.91998 5.96222 3.91787 5.97261 3.91358C5.98301 3.9093 5.99242 3.90293 6.00026 3.89488C6.0081 3.88682 6.01422 3.87725 6.01822 3.86675C6.02223 3.85624 6.02404 3.84503 6.02355 3.8338C5.99577 3.40628 5.92461 2.93633 5.81402 2.55294C5.81079 2.5424 5.8055 2.5326 5.79847 2.52411C5.79144 2.51561 5.7828 2.50859 5.77305 2.50344C5.7633 2.4983 5.75263 2.49513 5.74165 2.49412C5.73067 2.49311 5.71959 2.49427 5.70907 2.49755C5.35233 2.60532 4.98077 2.69338 4.59963 2.72286C4.5788 2.72404 4.55919 2.73306 4.54474 2.7481C4.53028 2.76315 4.52206 2.78311 4.52171 2.80397V3.83868C4.52211 3.86056 4.53117 3.88138 4.5469 3.89659C4.56263 3.9118 4.58376 3.92014 4.60564 3.91979ZM3.79398 0.738488C3.50446 0.899393 3.2463 1.19717 3.01536 1.6091C2.9795 1.67313 2.9367 1.76137 2.90271 1.82821C2.89766 1.8389 2.89501 1.85056 2.89495 1.86238C2.89488 1.87419 2.89741 1.88588 2.90235 1.89662C2.90729 1.90736 2.91452 1.91688 2.92354 1.92453C2.93255 1.93217 2.94313 1.93775 2.95453 1.94086C3.23893 2.02882 3.53182 2.08653 3.82834 2.11303C3.83977 2.11428 3.85135 2.11315 3.86232 2.1097C3.8733 2.10625 3.88344 2.10056 3.8921 2.09299C3.90077 2.08542 3.90777 2.07613 3.91266 2.06572C3.91755 2.0553 3.92023 2.04399 3.92052 2.03249V0.807957C3.91993 0.793447 3.9156 0.779336 3.90795 0.766992C3.9003 0.754648 3.88959 0.74449 3.87686 0.737501C3.86413 0.730513 3.84981 0.726932 3.83529 0.727105C3.82077 0.727277 3.80654 0.731198 3.79398 0.738488ZM3.84298 2.72304C3.46184 2.69394 3.0899 2.60589 2.73355 2.49774C2.72302 2.49446 2.71195 2.49329 2.70097 2.49431C2.68999 2.49532 2.67931 2.49849 2.66956 2.50363C2.65981 2.50878 2.65117 2.5158 2.64414 2.52429C2.63711 2.53279 2.63183 2.54259 2.62859 2.55313C2.518 2.93652 2.44685 3.40647 2.41906 3.83398C2.41857 3.84522 2.42038 3.85643 2.42439 3.86693C2.4284 3.87744 2.43451 3.88701 2.44235 3.89507C2.4502 3.90312 2.45961 3.90949 2.47 3.91377C2.48039 3.91805 2.49156 3.92016 2.5028 3.91997H3.83697C3.84784 3.92015 3.85863 3.91818 3.86873 3.91417C3.87883 3.91017 3.88805 3.90421 3.89584 3.89664C3.90364 3.88908 3.90987 3.88004 3.91417 3.87006C3.91846 3.86008 3.92075 3.84935 3.9209 3.83849V2.80415C3.92055 2.78329 3.91233 2.76334 3.89788 2.74829C3.88342 2.73325 3.86381 2.72423 3.84298 2.72304Z" fill="#2D74FF"/>
<path d="M7.19415 1.24649C6.80432 0.852802 6.34054 0.540017 5.82946 0.326107C5.31838 0.112197 4.77007 0.00137637 4.21603 1.27396e-05C3.662 -0.00135089 3.11315 0.106769 2.60102 0.318161C2.08889 0.529553 1.62358 0.84005 1.23182 1.23182C0.84005 1.62358 0.529553 2.08889 0.318161 2.60102C0.106769 3.11315 -0.00135089 3.662 1.27396e-05 4.21603C0.00137637 4.77007 0.112197 5.31838 0.326107 5.82946C0.540017 6.34054 0.852802 6.80432 1.24649 7.19415C1.63632 7.58784 2.1001 7.90063 2.61118 8.11454C3.12226 8.32845 3.67057 8.43927 4.22461 8.44063C4.77865 8.44199 5.3275 8.33387 5.83962 8.12248C6.35175 7.91109 6.81706 7.60059 7.20883 7.20883C7.60059 6.81706 7.91109 6.35175 8.12248 5.83962C8.33387 5.3275 8.44199 4.77865 8.44063 4.22461C8.43927 3.67057 8.32845 3.12226 8.11454 2.61118C7.90063 2.1001 7.58784 1.63632 7.19415 1.24649ZM2.72956 7.5032C2.64496 7.3844 2.56675 7.26118 2.49524 7.13407C2.45769 7.06479 2.40437 6.96021 2.36888 6.88755C2.36075 6.87031 2.3491 6.85497 2.3347 6.84249C2.32029 6.83001 2.30343 6.82068 2.28521 6.8151C2.26699 6.80951 2.2478 6.8078 2.22887 6.81006C2.20995 6.81231 2.1917 6.8185 2.17531 6.82822C2.09457 6.87347 1.98755 6.93562 1.91001 6.9865C1.7474 6.86289 1.59898 6.72165 1.46748 6.56537C1.64934 6.437 1.84015 6.32181 2.03844 6.22065C2.07336 6.20187 2.09044 6.18047 2.07937 6.14217C1.93409 5.63935 1.84536 5.12189 1.81482 4.5994C1.81391 4.5785 1.80504 4.55875 1.79003 4.54419C1.77501 4.52963 1.755 4.52137 1.73409 4.5211H0.668773C0.659717 4.52121 0.650929 4.51803 0.644028 4.51217C0.637128 4.5063 0.63258 4.49814 0.631222 4.48918C0.619423 4.40007 0.614152 4.31021 0.615451 4.22032C0.614167 4.13061 0.619564 4.04093 0.631597 3.95202C0.632955 3.94307 0.637503 3.93491 0.644404 3.92904C0.651304 3.92318 0.660092 3.92 0.669148 3.9201H1.73446C1.77746 3.9201 1.81276 3.89532 1.81501 3.85195C1.84514 3.33163 1.9333 2.8163 2.07786 2.31556C2.08325 2.29728 2.08209 2.2777 2.07458 2.26019C2.06707 2.24267 2.05369 2.22833 2.03675 2.21962C1.84272 2.1202 1.65555 2.00792 1.47649 1.88354C1.6073 1.72729 1.75278 1.58394 1.91095 1.45546C1.98755 1.50578 2.08744 1.56267 2.16742 1.60773C2.18505 1.61775 2.20454 1.62404 2.2247 1.62622C2.24486 1.6284 2.26525 1.62642 2.28461 1.6204C2.30397 1.61438 2.32189 1.60445 2.33726 1.59123C2.35262 1.578 2.36511 1.56176 2.37395 1.54352C2.40925 1.47086 2.44905 1.38993 2.48773 1.32047C2.55955 1.19178 2.63814 1.067 2.72317 0.946648C3.19132 0.7261 3.70283 0.612944 4.22032 0.615451C4.76368 0.615451 5.26987 0.746878 5.7323 0.962044C5.81396 1.07669 5.88918 1.19578 5.95761 1.31878C6.00624 1.40627 6.05787 1.51348 6.10143 1.60641C6.1061 1.61631 6.11275 1.62515 6.12096 1.63239C6.12917 1.63964 6.13876 1.64513 6.14917 1.64854C6.15957 1.65195 6.17056 1.6532 6.18146 1.65222C6.19236 1.65124 6.20295 1.64805 6.21258 1.64284C6.31359 1.5882 6.42305 1.5253 6.51937 1.46203C6.67798 1.59178 6.82384 1.73638 6.95495 1.89387C6.78079 2.01465 6.59849 2.12324 6.40934 2.21887C6.39236 2.22758 6.37897 2.24197 6.37149 2.25953C6.36402 2.27709 6.36293 2.29672 6.36841 2.315C6.51532 2.81234 6.60261 3.32537 6.62845 3.84331C6.62946 3.86409 6.63839 3.88368 6.65341 3.89807C6.66843 3.91246 6.68839 3.92055 6.70919 3.92067L7.77225 3.91935C7.7813 3.91925 7.79009 3.92242 7.79699 3.92829C7.80389 3.93415 7.80844 3.94232 7.8098 3.95127C7.8317 4.12972 7.8317 4.31017 7.8098 4.48862C7.80852 4.49764 7.80401 4.5059 7.7971 4.51184C7.79019 4.51778 7.78136 4.52101 7.77225 4.52092H6.70825C6.68732 4.52114 6.66728 4.52938 6.65226 4.54395C6.63723 4.55852 6.62838 4.5783 6.62751 4.59921C6.59827 5.11618 6.51092 5.62822 6.3671 6.12565C6.36166 6.14414 6.36278 6.16394 6.37028 6.1817C6.37777 6.19946 6.39117 6.21408 6.40822 6.22309C6.50209 6.27172 6.60667 6.32598 6.69679 6.38118C6.78691 6.43638 6.8761 6.49533 6.96209 6.55654C6.83199 6.71329 6.6874 6.85743 6.53026 6.98706C6.48444 6.95683 6.43 6.92247 6.38306 6.89431C6.35076 6.87554 6.29125 6.8423 6.2582 6.82371C6.18648 6.78354 6.11025 6.81358 6.07439 6.88755C6.03853 6.96153 5.9837 7.06761 5.9454 7.13632C5.87482 7.26267 5.79741 7.38508 5.71353 7.50301C5.25128 7.71949 4.76368 7.82519 4.22032 7.82519C3.67696 7.82519 3.19199 7.71949 2.72956 7.5032Z" fill="#2D74FF"/>
</g>
</svg>
