<svg width="83" height="93" viewBox="0 0 83 93" fill="none" xmlns="http://www.w3.org/2000/svg">
<path d="M82.4525 0.694961C82.0737 0.276759 81.5293 0.0400391 80.9612 0.0400391H2.03911C1.47099 0.0400391 0.926534 0.276759 0.547784 0.694961C0.161142 1.11316 -0.0282331 1.6734 0.0270018 2.24152L7.13645 81.8816C7.20747 82.718 7.79138 83.4124 8.59622 83.6491L40.9399 92.8811C41.1135 92.9364 41.3029 92.96 41.4922 92.96C41.6816 92.96 41.8631 92.9364 42.0446 92.8811L74.4119 83.6491C75.2168 83.4124 75.7928 82.718 75.8717 81.8816L82.9733 2.24152C83.0285 1.6734 82.8391 1.11316 82.4525 0.694961ZM65.4324 28.1543H27.4311L28.3386 38.4358H64.5171L61.8027 68.8226L41.4844 74.9615L41.2871 74.8984L21.2054 68.8147L20.1086 56.4343H29.9483L30.3743 61.2397L41.6027 63.5911L52.6259 61.2397L53.8016 48.236H19.3748L16.6999 18.3305H66.3083L65.4324 28.1543Z" fill="white"/>
</svg>
