<svg width="9" height="12" viewBox="0 0 9 12" fill="none" xmlns="http://www.w3.org/2000/svg">
<path d="M6.46951 0.909357H5.5915C5.48194 0.905966 5.3878 0.830636 5.36044 0.724526C5.27724 0.292271 4.89157 -0.014974 4.45165 0.000563738C4.00908 -0.00719037 3.6253 0.305038 3.54286 0.739946C3.51438 0.843137 3.41877 0.913248 3.3118 0.909386H2.4646V2.44974H6.46951V0.909357Z" fill="white"/>
<path d="M8.93421 11.2912V2.46504C8.93515 2.11625 8.65314 1.83274 8.30435 1.8318C8.28837 1.83177 8.2724 1.83233 8.25644 1.83348H6.93173V2.61906C6.93173 2.7423 6.85472 2.91174 6.73148 2.91174H2.18746C2.06422 2.91174 2.00263 2.7423 2.00263 2.61906V1.83351H0.677911C0.330067 1.80798 0.0273624 2.06929 0.00185936 2.41716C0.000680029 2.43311 0.00011987 2.44909 0.000178837 2.46507V11.2913C-0.00843029 11.674 0.294864 11.9912 0.677587 11.9998C0.677705 11.9998 0.677823 11.9998 0.677941 11.9998H8.25647C8.6392 11.9914 8.94264 11.6743 8.93424 11.2916C8.93421 11.2915 8.93421 11.2914 8.93421 11.2912ZM3.21949 9.25799L2.01802 10.3825C1.9796 10.4284 1.92379 10.4563 1.86399 10.4595C1.79963 10.4569 1.73881 10.4293 1.69455 10.3825L1.06302 9.7355C0.979083 9.64151 0.985953 9.4976 1.07841 9.41204C1.16825 9.32397 1.31204 9.32397 1.40187 9.41204L1.86397 9.90494L2.91142 8.91911C3.01644 8.84664 3.16035 8.873 3.23282 8.97802C3.29196 9.0637 3.28648 9.17833 3.21949 9.25799ZM3.21949 6.79342L2.01802 7.91789C1.9796 7.96385 1.92379 7.99174 1.86399 7.9949C1.79963 7.99236 1.73881 7.96471 1.69455 7.91789L1.06302 7.27094C0.979083 7.17694 0.985953 7.03303 1.07841 6.94747C1.16825 6.85941 1.31204 6.85941 1.40187 6.94747L1.86397 7.44038L2.91142 6.45454C3.01644 6.38207 3.16035 6.40843 3.23282 6.51345C3.29196 6.59913 3.28648 6.71376 3.21949 6.79342ZM3.21949 4.32886L2.01802 5.45332C1.9796 5.49928 1.92379 5.52718 1.86399 5.53033C1.79963 5.52779 1.73881 5.50014 1.69455 5.45332L1.06302 4.80637C0.979083 4.71238 0.985953 4.56847 1.07841 4.48291C1.16825 4.39484 1.31204 4.39484 1.40187 4.48291L1.86397 4.97581L2.91142 3.98998C3.01644 3.91751 3.16035 3.94386 3.23282 4.04888C3.29196 4.13456 3.28648 4.24919 3.21949 4.32886ZM7.70192 10.1514H4.15909C4.03149 10.1514 3.92803 10.0479 3.92803 9.92033C3.92803 9.79273 4.03149 9.68927 4.15909 9.68927H7.70189C7.8295 9.68927 7.93295 9.79273 7.93295 9.92033C7.93295 10.0479 7.82953 10.1514 7.70192 10.1514ZM7.70192 7.68683H4.15909C4.03149 7.68683 3.92803 7.58337 3.92803 7.45577C3.92803 7.32816 4.03149 7.22471 4.15909 7.22471H7.70189C7.8295 7.22471 7.93295 7.32816 7.93295 7.45577C7.93295 7.58337 7.82953 7.68683 7.70192 7.68683ZM7.70192 5.22226H4.15909C4.03149 5.22226 3.92803 5.1188 3.92803 4.9912C3.92803 4.8636 4.03149 4.76014 4.15909 4.76014H7.70189C7.8295 4.76014 7.93295 4.8636 7.93295 4.9912C7.93295 5.11883 7.82953 5.22226 7.70192 5.22226Z" fill="white"/>
</svg>
