<svg width="85" height="85" viewBox="0 0 85 85" fill="none" xmlns="http://www.w3.org/2000/svg">
<path d="M79.5387 0.0800781H5.46938C2.49461 0.0800781 0.0800781 2.49461 0.0800781 5.46938V79.5308C0.0800781 82.5055 2.49461 84.9201 5.46938 84.9201H79.5308C82.5055 84.9201 84.9201 82.5055 84.9201 79.5387V5.46938C84.9201 2.49461 82.5055 0.0800781 79.5387 0.0800781ZM46.5401 65.0909C46.5401 73.163 41.8057 76.8401 34.8935 76.8401C28.6441 76.8401 24.1386 72.6502 22.3001 68.7601L28.652 64.9173C29.8751 67.0873 31.7373 68.7601 34.4201 68.7601C36.9845 68.7601 38.4601 67.758 38.4601 63.86V38.4601H46.5401V65.0909ZM64.0652 76.8401C56.9084 76.8401 52.8447 73.2341 50.5801 68.7601L56.6401 64.7201C58.2892 67.4187 60.0883 69.9989 63.8916 69.9989C67.0873 69.9989 68.7601 68.405 68.7601 66.1956C68.7601 63.5602 67.0241 62.6212 63.5128 61.0825L61.5875 60.254C56.0246 57.8868 52.3239 54.9199 52.3239 48.639C52.3239 42.863 56.7348 38.4601 63.6154 38.4601C68.5155 38.4601 72.0347 40.1645 74.5755 44.6305L68.5786 48.4891C67.253 46.114 65.8327 45.1829 63.6154 45.1829C61.3587 45.1829 59.9305 46.619 59.9305 48.4891C59.9305 50.801 61.3587 51.7321 64.6648 53.1682L66.5902 53.9967C73.1473 56.7979 76.8401 59.6622 76.8401 66.1009C76.8401 73.0368 71.3877 76.8401 64.0652 76.8401Z" fill="white"/>
</svg>
