<svg width="324" height="420" viewBox="0 0 324 420" fill="none" xmlns="http://www.w3.org/2000/svg">
<path d="M66 1H10C4.47715 1 0 5.47716 0 11V159.4C0 167.749 9.62596 172.422 16.1858 167.257L72.1858 123.17C74.5942 121.274 76 118.378 76 115.313V11C76 5.47715 71.5229 1 66 1Z" fill="white"/>
<path d="M66 420H10C4.47715 420 0 415.523 0 410V260.671C0 252.31 9.65139 247.641 16.2071 252.831L72.2071 297.164C74.6029 299.061 76 301.949 76 305.005V410C76 415.523 71.5229 420 66 420Z" fill="white"/>
<path d="M301.571 0H229.363C226.513 0 223.797 1.21674 221.9 3.34446L78.5365 164.112C76.9028 165.944 76 168.313 76 170.768V249.909C76 259.078 87.3102 263.413 93.4383 256.593L309.009 16.6837C314.793 10.2466 310.224 0 301.571 0Z" fill="white"/>
<path d="M247.62 404.448L156.326 267.675C152.928 262.584 145.795 261.713 141.272 265.837L127.434 278.452L110.78 293.634C107.384 296.73 106.535 301.741 108.721 305.782L167.672 414.758C169.419 417.988 172.795 420 176.467 420H239.302C247.292 420 252.055 411.093 247.62 404.448Z" fill="white"/>
</svg>
