<svg id="logo_1" data-name="logo 1" xmlns="http://www.w3.org/2000/svg" viewBox="0 0 178.35 68.66"><defs><style>.cls-1{fill:#ffffff;}</style></defs><path class="cls-1" d="M17.93,9.24,8.76,62.5a2.58,2.58,0,0,0,1.74,3.08,2.52,2.52,0,0,0,3.08-1.75l9.17-53.26A2.58,2.58,0,0,0,21,7.49a2.52,2.52,0,0,0-3.07,1.75Z"/><path class="cls-1" d="M69.94,44.54a154.31,154.31,0,0,1-2.71,17.88A2.55,2.55,0,0,0,69,65.49a2.52,2.52,0,0,0,3.07-1.74,19.25,19.25,0,0,1,4.08-7.49,44.55,44.55,0,0,1,3.29-3.44c.57-.55,1.16-1.09,1.75-1.63l.88-.79.44-.39c.33-.27.29-.27-.11,0H81.05l-.18-.1L80,49l.12.18-.35-1.27v.21c0,3.22,5,3.23,5,0a3,3,0,0,0-3.37-3c-1.38.16-2.34,1.23-3.32,2.11-1.51,1.36-3,2.75-4.39,4.25a25.82,25.82,0,0,0-6.45,10.91l4.82,1.33a168.28,168.28,0,0,0,2.89-19.21,2.52,2.52,0,0,0-2.5-2.5,2.55,2.55,0,0,0-2.5,2.5Z"/><path class="cls-1" d="M123.82,9.46a256.56,256.56,0,0,0-15,56.06l4.91.66A17.34,17.34,0,0,1,122,50.35a8.62,8.62,0,0,1,4.33-1.58c1.21,0,1.51.7,1.52,1.67,0,2.74-2.16,5.35-4.32,6.87a13.32,13.32,0,0,1-9.71,2.45,2.58,2.58,0,0,0-3.08,1.75,2.53,2.53,0,0,0,1.75,3.08,18.36,18.36,0,0,0,13-2.56c3.69-2.36,6.88-6.14,7.34-10.62a7.17,7.17,0,0,0-1.91-5.9c-1.94-1.89-4.83-2-7.31-1.32a20.91,20.91,0,0,0-10.65,7.92,21.77,21.77,0,0,0-4.16,14.07,2.52,2.52,0,0,0,2.17,2.46,2.47,2.47,0,0,0,2.74-1.79,256,256,0,0,1,15-56.06,2.52,2.52,0,0,0-1.75-3.07,2.56,2.56,0,0,0-3.08,1.74Z"/><path class="cls-1" d="M146.87,10a315.09,315.09,0,0,0-12.7,54.47l4.91.67c.82-10.47,9.88-17.74,17.4-23.87a2.52,2.52,0,0,0,0-3.54,2.54,2.54,0,0,0-3.53,0C144.17,44.9,135,53.12,134.08,65.16c-.21,2.77,4.52,3.46,4.91.66a315.09,315.09,0,0,1,12.7-54.47c1-3.07-3.82-4.38-4.82-1.33Z"/><path class="cls-1" d="M139.4,51.33A17.24,17.24,0,0,0,140,59.4c.83,2.49,2.37,5.05,5.12,5.68s5.32-.61,7.42-2.28c.83-.66,1.6-1.41,2.42-2.08l.26-.22c-.2.16-.19.16,0,0s.43-.3.66-.43.45-.25.68-.36c-.5.22.36-.07.46-.1a2.52,2.52,0,0,0,1.75-3.07,2.56,2.56,0,0,0-3.08-1.75A12.93,12.93,0,0,0,150.44,58l-1,.91c-.09.07-.55.43-.21.18l-.57.39c-.2.13-.4.25-.61.36s-.64.29-.24.13a4.79,4.79,0,0,1-.64.21l-.43.1q.39,0,.12,0c-.08,0-.75,0-.42,0s-.6-.2-.21-.06-.56-.32-.2-.1-.25-.22-.31-.29a2.62,2.62,0,0,1-.22-.25c.15.19.17.22.07.07s-.23-.37-.33-.57-.32-.66-.21-.4-.14-.38-.17-.47c-.17-.5-.31-1-.43-1.52-.06-.25-.11-.51-.15-.77s0-.17,0,0c0-.13,0-.26,0-.39a13.74,13.74,0,0,1-.06-1.57c0-.26,0-.53,0-.79,0-.09.11-.91.05-.51a2.56,2.56,0,0,0-1.75-3.07c-1.18-.27-2.87.36-3.07,1.74Z"/><path class="cls-1" d="M60.46,42.78a7.84,7.84,0,0,0-7.15-.12c-2.13,1.05-3.5,3.18-4.51,5.25-2.12,4.3-2.86,9.21-.75,13.67,1,2.2,2.91,4.25,5.51,4.21,2.2,0,4.36-1.52,5.94-2.93a15.32,15.32,0,0,0,4.86-10.25A12.67,12.67,0,0,0,63,45.87,6.43,6.43,0,0,0,56,42.49a2.5,2.5,0,1,0,1.33,4.82c-.36.08.6.06.24,0,0,0,.36.16.21.06l.3.18a3.28,3.28,0,0,1,.79,1.08,7,7,0,0,1,.54,3.48c0,.34,0,.68-.07,1,0-.38-.07.36-.09.47a13.36,13.36,0,0,1-.58,2c-.14.39.14-.28,0,.1a3.73,3.73,0,0,1-.16.35,7.77,7.77,0,0,1-.48.9c-.15.26-.3.51-.47.75,0,0-.33.46-.18.26s-.24.3-.28.34a12.11,12.11,0,0,1-1.35,1.33c-.21.18,0,0,0,0l-.41.3c-.32.21-.64.4-1,.58a3.44,3.44,0,0,1-.56.26c-.22.09-.38.11-.18.08,0,0-.49,0-.18,0,0,0,.26.07.23.12l-.28-.28a3.87,3.87,0,0,1-.54-.77,7.45,7.45,0,0,1-1-3.72,11.81,11.81,0,0,1,.84-4.49,11.79,11.79,0,0,1,2.33-4,2.53,2.53,0,0,1,1.66-.78c-.18,0-.15,0,.18,0a5.44,5.44,0,0,1,.57,0c-.31,0,.14.06.16.07.39.11.07,0,.45.17a2.56,2.56,0,0,0,3.42-.9,2.53,2.53,0,0,0-.9-3.42Z"/><path class="cls-1" d="M100.78,42.78a7.84,7.84,0,0,0-7.15-.12c-2.13,1.05-3.5,3.18-4.52,5.25-2.11,4.3-2.85,9.21-.74,13.67,1,2.2,2.9,4.25,5.51,4.21,2.2,0,4.36-1.52,5.94-2.93a15.31,15.31,0,0,0,4.85-10.25,12.48,12.48,0,0,0-1.32-6.74,6.42,6.42,0,0,0-7.06-3.38,2.5,2.5,0,1,0,1.32,4.82c-.35.08.61.06.25,0,0,0,.36.16.2.06l.3.18a3.14,3.14,0,0,1,.79,1.08,7,7,0,0,1,.55,3.48c0,.34,0,.68-.07,1,0-.38-.07.36-.1.47a13.32,13.32,0,0,1-.57,2c-.14.39.13-.28,0,.1a3.73,3.73,0,0,1-.16.35q-.23.46-.48.9c-.15.26-.31.51-.47.75,0,0-.33.46-.18.26s-.25.3-.28.34A13,13,0,0,1,96,59.57c-.22.18,0,0,0,0l-.41.3c-.32.21-.65.4-1,.58a3.88,3.88,0,0,1-.56.26c-.22.09-.38.11-.18.08,0,0-.49,0-.18,0,0,0,.25.07.23.12l-.28-.28a3.5,3.5,0,0,1-.54-.77,7.45,7.45,0,0,1-1-3.72,11.62,11.62,0,0,1,.84-4.49,11.79,11.79,0,0,1,2.33-4,2.5,2.5,0,0,1,1.66-.78c-.18,0-.16,0,.18,0a5.12,5.12,0,0,1,.56,0c-.31,0,.15.06.17.07.38.11.06,0,.45.17a2.5,2.5,0,0,0,2.52-4.32Z"/><path class="cls-1" d="M174.42,43a7.86,7.86,0,0,0-7.16-.12c-2.12,1.06-3.49,3.18-4.51,5.25-2.12,4.31-2.86,9.22-.75,13.67,1,2.2,2.91,4.25,5.51,4.21,2.2,0,4.37-1.51,6-2.93a15.35,15.35,0,0,0,4.85-10.25A12.52,12.52,0,0,0,177,46.09a6.43,6.43,0,0,0-7.07-3.39,2.5,2.5,0,0,0,1.33,4.82c-.36.09.61.06.24,0,0,0,.36.15.21,0s.26.16.3.18a3.23,3.23,0,0,1,.79,1.09,7.11,7.11,0,0,1,.55,3.47c0,.34,0,.68-.08,1,.05-.39-.07.35-.09.46a14.67,14.67,0,0,1-.57,2c-.15.4.13-.28,0,.11l-.16.34q-.22.46-.48.9t-.48.75l-.18.26-.28.34a11.31,11.31,0,0,1-1.35,1.33c-.21.19,0,0,0,0-.13.11-.27.2-.41.3a10.6,10.6,0,0,1-1,.59,4.32,4.32,0,0,1-.55.25c-.22.09-.39.12-.19.08,0,0-.49,0-.18,0,0,0,.26.06.23.11a3.43,3.43,0,0,0-.27-.28,3.54,3.54,0,0,1-.55-.76,7.73,7.73,0,0,1-1-3.73,11.81,11.81,0,0,1,.84-4.49,11.84,11.84,0,0,1,2.34-4,2.51,2.51,0,0,1,1.65-.79c-.17,0-.15,0,.18,0a5.44,5.44,0,0,1,.57,0c-.31,0,.15.06.17.07.38.11.06,0,.44.17a2.55,2.55,0,0,0,3.42-.9,2.52,2.52,0,0,0-.89-3.42Z"/><path class="cls-1" d="M.71,12.06a6.31,6.31,0,0,0,4.65,1.79,43.15,43.15,0,0,0,5.33-.17A52,52,0,0,0,21.47,11.6a2.5,2.5,0,0,0-1.33-4.82,45.84,45.84,0,0,1-8.75,1.83c-1.51.16-3,.24-4.54.25a13.9,13.9,0,0,1-2,0c.39,0-.31-.08-.39-.1.19.1.15.08-.11-.07.18.13.15.09-.06-.12a2.54,2.54,0,0,0-3.54,0,2.56,2.56,0,0,0,0,3.54Z"/><path class="cls-1" d="M19,35.24A23.91,23.91,0,0,1,39.9,20.91c5.38-.14,10.53,1.81,15.47,3.72,5.27,2,10.46,3.94,16.1,4.53a41.41,41.41,0,0,0,15.85-1.5A41.86,41.86,0,0,0,95,24.53a25.93,25.93,0,0,0,6.73-4.72,10.48,10.48,0,0,0,.86-13.3A14.3,14.3,0,0,0,89.74.05a9.66,9.66,0,0,0-7.48,4.3,8.06,8.06,0,0,0-.48,8c2.62,4.76,10.17,4.38,12-.79a2.52,2.52,0,0,0-1.75-3.07A2.55,2.55,0,0,0,89,10.23c.1-.29-.07.09-.08.12.1-.24,0,0-.09.08.31-.26-.61.29-.22.14a2.06,2.06,0,0,1-1.58,0,1.15,1.15,0,0,1-.83-.65A2.59,2.59,0,0,1,86,8.11c.9-3.74,5.84-3.56,8.59-2.22s5.46,4.61,5,7.68c-.29,1.87-1.76,3.23-3.24,4.27a36.2,36.2,0,0,1-5.94,3.37,37,37,0,0,1-26.76,1.17c-4.63-1.51-9.07-3.57-13.75-5a31.15,31.15,0,0,0-13.76-1.15,28.67,28.67,0,0,0-21.5,16.45,2.59,2.59,0,0,0,.9,3.42,2.52,2.52,0,0,0,3.42-.9Z"/><path class="cls-1" d="M18.16,38.53l.22-.1-1.92.26.21.05-1.1-.64c-.28-.24-.17-.58-.08.18.06.47.11.94.17,1.41.15,1.16.31,2.32.49,3.48.29,1.95.65,3.89,1.05,5.82a84.79,84.79,0,0,0,3.05,11.4c1.21,3.39,3.61,6.5,7.61,5.88A14,14,0,0,0,33,63.89a45.64,45.64,0,0,0,4.53-3.31,44.51,44.51,0,0,0,8.22-9,2.52,2.52,0,0,0-.9-3.42,2.55,2.55,0,0,0-3.42.89,38.59,38.59,0,0,1-8.56,8.88c-.89.66-1.8,1.28-2.74,1.86a10.49,10.49,0,0,1-2.86,1.52c-1.3.31-1.84-1.2-2.22-2.25a84.91,84.91,0,0,1-3.55-14c-.42-2.27-.77-4.54-1-6.83a5.62,5.62,0,0,0-1.19-3.54,3,3,0,0,0-3.66-.53,2.53,2.53,0,0,0-.9,3.43,2.56,2.56,0,0,0,3.42.89Z"/></svg>