<svg width="325" height="422" viewBox="0 0 325 422" fill="none" xmlns="http://www.w3.org/2000/svg">
<path d="M67 2H11C5.47715 2 1 6.47716 1 12V160.4C1 168.749 10.626 173.422 17.1858 168.257L73.1858 124.17C75.5942 122.274 77 119.378 77 116.313V12C77 6.47715 72.5229 2 67 2Z" fill="white" stroke="black"/>
<path d="M67 421H11C5.47715 421 1 416.523 1 411V261.671C1 253.31 10.6514 248.641 17.2071 253.831L73.2071 298.164C75.6029 300.061 77 302.949 77 306.005V411C77 416.523 72.5229 421 67 421Z" fill="white" stroke="black"/>
<path d="M302.571 1H230.363C227.513 1 224.797 2.21674 222.9 4.34446L79.5365 165.112C77.9028 166.944 77 169.313 77 171.768V250.909C77 260.078 88.3102 264.413 94.4383 257.593L310.009 17.6837C315.793 11.2466 311.224 1 302.571 1Z" fill="white" stroke="black"/>
<path d="M248.62 405.448L157.326 268.675C153.928 263.584 146.795 262.713 142.272 266.837L128.434 279.452L111.78 294.634C108.384 297.73 107.535 302.741 109.721 306.782L168.672 415.758C170.419 418.988 173.795 421 177.467 421H240.302C248.292 421 253.055 412.093 248.62 405.448Z" fill="white" stroke="black"/>
</svg>
