<svg width="14" height="14" viewBox="0 0 14 14" fill="none" xmlns="http://www.w3.org/2000/svg">
<path d="M1.401 14C1.18846 13.999 0.984978 13.9138 0.835184 13.763C0.68539 13.6122 0.601504 13.4082 0.60192 13.1956C0.603781 13.1148 0.616392 13.0346 0.639421 12.9572L1.21506 10.875C1.23912 10.7981 1.21193 10.7206 1.17662 10.6594L1.16974 10.6469C1.16724 10.6428 1.15537 10.6263 1.14693 10.6141C1.13849 10.6019 1.12881 10.5887 1.12006 10.5759L1.11412 10.5675C0.387277 9.46588 -0.000106392 8.1751 3.34466e-05 6.85531C-0.00559167 5.05563 0.698485 3.35531 1.9832 2.06531C3.3126 0.733438 5.09076 8.68052e-07 6.99455 8.68052e-07C8.60958 -0.000797065 10.1767 0.548536 11.4378 1.5575C12.6706 2.54969 13.5275 3.9325 13.8506 5.45375C13.9501 5.91589 14.0002 6.38728 14 6.86C14 8.70156 13.2925 10.4313 12.0075 11.7309C10.7112 13.0434 8.97052 13.7641 7.10642 13.7641C6.45016 13.7641 5.61046 13.5966 5.20732 13.4828C4.72231 13.3472 4.26262 13.1703 4.21199 13.1516C4.15841 13.131 4.10155 13.1205 4.04418 13.1203C3.98195 13.1199 3.9203 13.1322 3.86292 13.1562L3.83636 13.1666L1.72757 13.9284C1.624 13.972 1.51331 13.9963 1.401 14Z" fill="url(#paint0_linear_9_670)"/>
<defs>
<linearGradient id="paint0_linear_9_670" x1="5.5" y1="2.66092e-08" x2="7" y2="14" gradientUnits="userSpaceOnUse">
<stop stop-color="#2DE878"/>
<stop offset="1" stop-color="#04AE48"/>
</linearGradient>
</defs>
</svg>
