<svg width="12" height="9" viewBox="0 0 12 9" fill="none" xmlns="http://www.w3.org/2000/svg">
<path d="M10.5 0H1.5C1.10231 0.00040608 0.721022 0.151388 0.43981 0.419818C0.158597 0.688248 0.000425418 1.0522 0 1.43182V7.56818C0.000425418 7.9478 0.158597 8.31175 0.43981 8.58018C0.721022 8.84861 1.10231 8.99959 1.5 9H10.5C10.8977 8.99959 11.279 8.84861 11.5602 8.58018C11.8414 8.31175 11.9996 7.9478 12 7.56818V1.43182C11.9996 1.0522 11.8414 0.688248 11.5602 0.419818C11.279 0.151388 10.8977 0.00040608 10.5 0ZM10.1202 2.36838L6.26304 5.23202C6.18782 5.28783 6.09527 5.31813 6 5.31813C5.90473 5.31813 5.81218 5.28783 5.73696 5.23202L1.87982 2.36838C1.8345 2.33571 1.79644 2.29477 1.76784 2.24794C1.73924 2.20111 1.72068 2.14932 1.71323 2.09558C1.70578 2.04185 1.70959 1.98723 1.72445 1.93491C1.7393 1.88259 1.7649 1.83361 1.79976 1.79082C1.83462 1.74802 1.87804 1.71227 1.92749 1.68563C1.97695 1.65899 2.03146 1.642 2.08786 1.63565C2.14426 1.6293 2.20142 1.6337 2.25601 1.64862C2.31061 1.66353 2.36156 1.68866 2.40589 1.72253L6 4.39082L9.59411 1.72253C9.68398 1.65774 9.79695 1.62933 9.9086 1.64343C10.0202 1.65753 10.1216 1.71302 10.1907 1.79788C10.2598 1.88275 10.2912 1.99018 10.278 2.09694C10.2648 2.2037 10.2081 2.30121 10.1202 2.36838Z" fill="white"/>
</svg>
