<svg width="8" height="5" viewBox="0 0 8 5" fill="none" xmlns="http://www.w3.org/2000/svg">
<path d="M7.61538 0H4.9359C4.83389 0 4.73606 0.0342067 4.66393 0.0950952C4.5918 0.155984 4.55128 0.238566 4.55128 0.324675C4.55128 0.410785 4.5918 0.493367 4.66393 0.554255C4.73606 0.615144 4.83389 0.649351 4.9359 0.649351H6.70513L4.48718 2.52164L2.39744 2.64069C2.30498 2.64729 2.21847 2.68189 2.15385 2.7381L0.153846 4.41558C0.109762 4.44349 0.0732979 4.47907 0.0469218 4.51992C0.0205457 4.56076 0.00487398 4.60591 0.000967662 4.65231C-0.00293865 4.69871 0.0050116 4.74528 0.0242804 4.78886C0.0435491 4.83244 0.0736864 4.87201 0.112651 4.9049C0.151616 4.9378 0.198499 4.96324 0.250125 4.9795C0.301751 4.99577 0.356914 5.00248 0.41188 4.99918C0.466846 4.99589 0.520331 4.98266 0.568713 4.96039C0.617095 4.93812 0.659245 4.90734 0.692308 4.87013L2.58974 3.27922L4.67949 3.16017C4.77194 3.15357 4.85846 3.11898 4.92308 3.06277L7.23077 1.11472V2.58658C7.23077 2.67269 7.27129 2.75527 7.34342 2.81616C7.41555 2.87705 7.51338 2.91126 7.61538 2.91126C7.71739 2.91126 7.81522 2.87705 7.88735 2.81616C7.95948 2.75527 8 2.67269 8 2.58658V0.324675C8 0.238566 7.95948 0.155984 7.88735 0.0950952C7.81522 0.0342067 7.71739 0 7.61538 0Z" fill="#14C25A"/>
</svg>
