<svg width="101" height="101" viewBox="0 0 101 101" fill="none" xmlns="http://www.w3.org/2000/svg">
<path fill-rule="evenodd" clip-rule="evenodd" d="M5 0C2.23858 0 0 2.23857 0 5V96C0 98.7614 2.23857 101 5 101H96C98.7614 101 101 98.7614 101 96V5C101 2.23858 98.7614 0 96 0H5ZM11.3938 44.616V52.536H12.7978C13.5658 52.536 14.1658 52.272 14.5978 51.744C15.0538 51.216 15.2818 50.472 15.2818 49.512V47.64C15.2818 46.68 15.0538 45.936 14.5978 45.408C14.1658 44.88 13.5658 44.616 12.7978 44.616H11.3938ZM12.8338 40.0801V40.08H12.7978H11.3938H11.0338H5.41781V66H11.3938V57.072H12.7978H12.8338V57.0719C14.4273 57.0671 15.8553 56.7432 17.1178 56.1C18.3898 55.428 19.3978 54.528 20.1418 53.4C20.8796 52.2576 21.2516 50.9736 21.2577 49.548H21.2578V49.512V47.64V47.604H21.2577C21.2516 46.1786 20.8796 44.9066 20.1418 43.788C19.3978 42.636 18.3898 41.736 17.1178 41.088C15.8553 40.421 14.4273 40.085 12.8338 40.0801ZM30.4837 55.344V66H24.5077V40.08H30.4837V50.808H35.5237V40.08H41.4997V66H35.5237V55.344H30.4837ZM51.7883 44.616V52.536H53.1923C53.9603 52.536 54.5603 52.272 54.9923 51.744C55.4483 51.216 55.6763 50.472 55.6763 49.512V47.64C55.6763 46.68 55.4483 45.936 54.9923 45.408C54.5603 44.88 53.9603 44.616 53.1923 44.616H51.7883ZM53.2283 40.0801V40.08H53.1923H51.7883H51.4283H45.8123V66H51.7883V57.072H53.1923H53.2283V57.0719C54.8218 57.0671 56.2498 56.7432 57.5123 56.1C58.7843 55.428 59.7923 54.528 60.5363 53.4C61.2741 52.2576 61.6461 50.9736 61.6523 49.548H61.6523V49.512V47.64V47.604H61.6523C61.6461 46.1786 61.2741 44.9066 60.5363 43.788C59.7923 42.636 58.7843 41.736 57.5123 41.088C56.2498 40.421 54.8218 40.085 53.2283 40.0801Z" fill="white"/>
</svg>
