<svg width="11" height="13" viewBox="0 0 11 13" fill="none" xmlns="http://www.w3.org/2000/svg">
<path d="M9.88636 5.64286H5.90909C5.54743 5.64286 5.20059 5.5074 4.94485 5.26628C4.68912 5.02516 4.54545 4.69814 4.54545 4.35714V0.607143C4.54545 0.578727 4.53348 0.551475 4.51217 0.531381C4.49086 0.511288 4.46196 0.5 4.43182 0.5H1.81818C1.33597 0.5 0.873508 0.680612 0.532533 1.0021C0.191558 1.32359 0 1.75963 0 2.21429V10.7857C0 11.2404 0.191558 11.6764 0.532533 11.9979C0.873508 12.3194 1.33597 12.5 1.81818 12.5H8.18182C8.66403 12.5 9.12649 12.3194 9.46747 11.9979C9.80844 11.6764 10 11.2404 10 10.7857V5.75C10 5.72158 9.98803 5.69433 9.96672 5.67424C9.94541 5.65415 9.9165 5.64286 9.88636 5.64286Z" fill="white"/>
<path d="M10.1824 4.36763L6.09688 0.515579C6.08893 0.508132 6.07883 0.503066 6.06784 0.501017C6.05685 0.498969 6.04546 0.500029 6.03511 0.504065C6.02475 0.508101 6.0159 0.514933 6.00965 0.523702C6.0034 0.53247 6.00005 0.542784 6 0.553346V4.0304C6 4.14406 6.04789 4.25307 6.13313 4.33345C6.21838 4.41382 6.33399 4.45897 6.45455 4.45897H10.1423C10.1535 4.45893 10.1645 4.45576 10.1738 4.44987C10.1831 4.44398 10.1903 4.43563 10.1946 4.42587C10.1989 4.41611 10.2 4.40537 10.1978 4.39501C10.1957 4.38465 10.1903 4.37512 10.1824 4.36763Z" fill="white"/>
</svg>
