<svg width="121" height="121" viewBox="0 0 121 121" fill="none" xmlns="http://www.w3.org/2000/svg">
<path fill-rule="evenodd" clip-rule="evenodd" d="M60.5 0C27.0868 0 0 27.0868 0 60.5C0 93.9132 27.0868 121 60.5 121C93.9132 121 121 93.9132 121 60.5C121 27.0868 93.9132 0 60.5 0ZM32.284 73.036C33.364 73.3 34.6 73.432 35.992 73.432C38.32 73.432 40.324 73.132 42.004 72.532C43.684 71.932 44.98 71.068 45.892 69.94C46.804 68.812 47.26 67.468 47.26 65.908C47.26 64.564 46.948 63.472 46.324 62.632C45.7 61.768 44.92 61.06 43.984 60.508C43.048 59.956 42.088 59.476 41.104 59.068C40.312 58.732 39.568 58.42 38.872 58.132C38.2 57.82 37.648 57.484 37.216 57.124C36.784 56.764 36.568 56.344 36.568 55.864C36.568 55.384 36.772 55 37.18 54.712C37.612 54.4 38.164 54.244 38.836 54.244C39.676 54.244 40.324 54.46 40.78 54.892C41.236 55.3 41.464 55.924 41.464 56.764V57.124V57.124C41.464 57.2589 41.5314 57.385 41.6437 57.4598L41.7279 57.516C41.8369 57.5886 41.9669 57.6231 42.0975 57.6141L43.0874 57.5458C44.8065 57.4273 46.1667 56.0735 46.4188 54.3689C46.4232 54.3392 46.4276 54.3096 46.432 54.28C46.6 53.32 46.744 52.552 46.864 51.976L46.9622 51.4853C47.015 51.2209 46.9733 50.9463 46.8441 50.7096V50.7096C46.6957 50.4375 46.4436 50.2369 46.1452 50.1533L45.712 50.032C45.112 49.864 44.296 49.696 43.264 49.528C42.232 49.36 41.056 49.276 39.736 49.276C37.504 49.276 35.56 49.6 33.904 50.248C32.248 50.872 30.952 51.76 30.016 52.912C29.104 54.064 28.648 55.42 28.648 56.98C28.648 58.228 28.912 59.272 29.44 60.112C29.992 60.952 30.688 61.66 31.528 62.236C32.368 62.788 33.244 63.268 34.156 63.676C35.02 64.06 35.848 64.42 36.64 64.756C37.432 65.092 38.068 65.452 38.548 65.836C39.052 66.196 39.304 66.64 39.304 67.168C39.304 67.624 39.088 67.984 38.656 68.248C38.248 68.512 37.672 68.644 36.928 68.644C36.256 68.644 35.68 68.524 35.2 68.284C34.72 68.02 34.36 67.624 34.12 67.096V67.096C33.6527 66.0211 32.7656 65.043 31.5965 65.1265L31.1721 65.1568C30.0629 65.2361 29.1959 66.1384 29.044 67.24V67.24C28.972 67.912 28.888 68.56 28.792 69.184C28.72 69.784 28.648 70.276 28.576 70.66L28.5516 70.7903C28.498 71.076 28.5583 71.3714 28.7196 71.6133V71.6133C28.8374 71.7901 29.0033 71.9295 29.1977 72.015L29.8 72.28C30.4 72.52 31.228 72.772 32.284 73.036ZM49.8539 69.6791C49.1784 70.0305 48.5684 70.5771 48.4942 71.3349V71.3349C48.3917 72.3834 49.2728 73.2642 50.3236 73.1887C50.9374 73.1445 51.5696 73.1056 52.2201 73.072C53.6361 73.024 54.8601 73 55.8921 73C56.9721 73 58.1841 73.012 59.5281 73.036L63.6321 73.108C64.8434 73.1498 65.9638 73.1915 66.9934 73.2333C67.2822 73.245 67.5618 73.1308 67.7594 72.9199V72.9199C67.9078 72.7617 68.0002 72.5592 68.0231 72.3435C68.1358 71.2827 68.2681 70.1335 68.4201 68.896C68.5928 67.644 68.7655 66.5377 68.9382 65.5769C68.9744 65.3755 68.9226 65.1681 68.7948 65.0084V65.0084C68.6504 64.8278 68.4264 64.7297 68.1958 64.7459L65.9737 64.9021C64.8033 64.9844 63.9311 65.911 63.5601 67.024V67.024C63.3921 67.528 63.1641 67.912 62.8761 68.176C62.5881 68.44 62.1921 68.62 61.6881 68.716C61.1841 68.812 60.5481 68.86 59.7801 68.86C59.2761 68.86 58.9041 68.812 58.6641 68.716C58.4241 68.62 58.2561 68.416 58.1601 68.104C58.0881 67.792 58.0521 67.324 58.0521 66.7L58.069 64.5608C58.0731 64.0374 58.469 63.5997 58.9881 63.532V63.532C59.5641 63.46 60.1641 63.424 60.7881 63.424C61.4121 63.424 62.1441 63.436 62.9841 63.46V63.46C64.1837 63.4943 65.2199 62.6136 65.365 61.4223L65.5748 59.6982C65.5986 59.5031 65.5393 59.307 65.4114 59.1578V59.1578C65.266 58.9882 65.0486 58.8983 64.8258 58.9145C64.2878 58.9537 63.6859 58.9928 63.0201 59.032C62.2041 59.08 61.6041 59.104 61.2201 59.104H59.9601C59.5281 59.08 59.1201 59.068 58.7361 59.068V59.068C58.4765 59.068 58.2702 58.8499 58.2846 58.5907L58.4841 55C58.4841 54.9044 58.4873 54.8167 58.4936 54.7369C58.5121 54.501 58.5914 54.2465 58.8039 54.1426C58.8386 54.1257 58.876 54.1115 58.9161 54.1C59.1081 54.052 59.3721 54.028 59.7081 54.028C60.4281 54.028 61.0161 54.064 61.4721 54.136C61.9521 54.184 62.3121 54.28 62.5521 54.424C62.8161 54.568 62.9961 54.772 63.0921 55.036C63.1881 55.276 63.2361 55.6 63.2361 56.008C63.2361 56.176 63.2241 56.392 63.2001 56.656V56.656C63.2001 57.0116 63.4932 57.3185 63.8481 57.2954L66.0455 57.1521C67.2398 57.0742 68.1906 56.1237 68.2881 54.9308C68.296 54.8348 68.304 54.7379 68.3121 54.64C68.4081 53.776 68.5041 52.924 68.6001 52.084C68.6999 51.3855 68.7997 50.7533 68.8995 50.1876C68.9371 49.9745 68.8815 49.7552 68.7451 49.5873V49.5873C68.5873 49.3932 68.3421 49.2925 68.0931 49.316C67.4694 49.3747 66.6785 49.4333 65.7201 49.492C64.5441 49.564 63.2361 49.624 61.7961 49.672C60.3561 49.696 58.8801 49.708 57.3681 49.708H54.6321C53.6001 49.684 52.5801 49.66 51.5721 49.636C51.3426 49.6304 51.1196 49.6255 50.9031 49.6212C49.8077 49.5994 48.8865 50.4222 48.7624 51.5109L48.6882 52.1626C48.6677 52.342 48.7229 52.5219 48.8405 52.6591V52.6591C48.9934 52.8375 49.2316 52.9179 49.4666 52.9129C49.4955 52.9123 49.5254 52.912 49.5561 52.912C49.7481 52.888 49.9041 52.876 50.0241 52.876C50.4321 52.876 50.6961 53.008 50.8161 53.272C50.9361 53.512 50.9961 54.028 50.9961 54.82L50.9601 66.88C50.9601 67.96 50.7921 68.728 50.4561 69.184C50.3159 69.3781 50.1152 69.5431 49.8539 69.6791ZM74.9195 72.1C76.5275 72.988 78.4835 73.432 80.7875 73.432C82.6595 73.432 84.3275 73.156 85.7915 72.604C87.2555 72.028 88.4915 71.2 89.4995 70.12C90.5075 69.04 91.2635 67.72 91.7675 66.16C92.2955 64.576 92.5595 62.776 92.5595 60.76C92.5595 58.216 92.1635 56.104 91.3715 54.424C90.5795 52.72 89.3795 51.436 87.7715 50.572C86.1875 49.708 84.2075 49.276 81.8315 49.276C79.9355 49.276 78.2555 49.552 76.7915 50.104C75.3275 50.632 74.0915 51.436 73.0835 52.516C72.0755 53.572 71.3195 54.88 70.8155 56.44C70.3115 57.976 70.0595 59.752 70.0595 61.768C70.0595 64.264 70.4675 66.388 71.2835 68.14C72.1235 69.868 73.3355 71.188 74.9195 72.1ZM83.1275 68.32C82.7195 68.704 82.1675 68.896 81.4715 68.896C80.7035 68.896 80.0795 68.608 79.5995 68.032C79.1435 67.456 78.8075 66.52 78.5915 65.224C78.3995 63.928 78.3035 62.188 78.3035 60.004C78.3035 58.588 78.3875 57.46 78.5555 56.62C78.7475 55.78 79.0475 55.168 79.4555 54.784C79.8635 54.4 80.4035 54.208 81.0755 54.208C81.8915 54.208 82.5275 54.496 82.9835 55.072C83.4635 55.624 83.7995 56.548 83.9915 57.844C84.2075 59.116 84.3155 60.844 84.3155 63.028C84.3155 64.444 84.2195 65.584 84.0275 66.448C83.8355 67.312 83.5355 67.936 83.1275 68.32Z" fill="white"/>
</svg>
