<svg width="30" height="30" viewBox="0 0 30 30" fill="none" xmlns="http://www.w3.org/2000/svg">
<path d="M14.7222 0C9.91276 0 6 3.8093 6 8.49152C6 13.1737 9.91276 16.983 14.7222 16.983C19.5316 16.983 23.4443 13.1737 23.4443 8.49152C23.4443 3.8093 19.5316 0 14.7222 0ZM14.7222 15.096C10.9815 15.096 7.93826 12.1333 7.93826 8.49152C7.93826 4.84979 10.9815 1.887 14.7222 1.887C18.4628 1.887 21.5061 4.84979 21.5061 8.49152C21.5061 12.1333 18.4628 15.096 14.7222 15.096Z" fill="white"/>
<path d="M14.7222 15.096C10.9815 15.096 7.93826 12.1333 7.93826 8.49152C7.93826 4.84979 10.9815 1.887 14.7222 1.887C18.4628 1.887 21.5061 4.84979 21.5061 8.49152C21.5061 12.1333 18.4628 15.096 14.7222 15.096Z" fill="white"/>
<path d="M26.1977 22.152C23.7337 20.2372 20.4673 19.1826 17 19.1826H13C9.5328 19.1826 6.26627 20.2372 3.80227 22.152C1.35033 24.0575 0 26.5727 0 29.2345C0 29.6572 0.447733 29.9999 1 29.9999H29C29.5523 29.9999 30 29.6572 30 29.2345C30 26.5727 28.6497 24.0575 26.1977 22.152ZM2.044 28.4692C2.545 24.1277 7.2674 20.7134 13 20.7134H17C22.7326 20.7134 27.455 24.1277 27.956 28.4692H2.044Z" fill="white"/>
<path d="M2.044 28.4692C2.545 24.1277 7.2674 20.7134 13 20.7134H17C22.7326 20.7134 27.455 24.1277 27.956 28.4692H2.044Z" fill="white"/>
</svg>
