<svg width="12" height="13" viewBox="0 0 12 13" fill="none" xmlns="http://www.w3.org/2000/svg">
<path d="M7.6 0.5H4.4C4.18783 0.5 3.98434 0.590306 3.83431 0.751051C3.68429 0.911797 3.6 1.12981 3.6 1.35714V12.3929C3.6 12.4213 3.61054 12.4485 3.62929 12.4686C3.64804 12.4887 3.67348 12.5 3.7 12.5H8.3C8.32652 12.5 8.35196 12.4887 8.37071 12.4686C8.38946 12.4485 8.4 12.4213 8.4 12.3929V1.35714C8.4 1.12981 8.31571 0.911797 8.16569 0.751051C8.01566 0.590306 7.81217 0.5 7.6 0.5ZM11.2 4.78571H9.4C9.34696 4.78571 9.29609 4.80829 9.25858 4.84848C9.22107 4.88866 9.2 4.94317 9.2 5V12.2857C9.2 12.3425 9.22107 12.3971 9.25858 12.4372C9.29609 12.4774 9.34696 12.5 9.4 12.5H11.4C11.5591 12.5 11.7117 12.4323 11.8243 12.3117C11.9368 12.1912 12 12.0276 12 11.8571V5.64286C12 5.41553 11.9157 5.19751 11.7657 5.03677C11.6157 4.87602 11.4122 4.78571 11.2 4.78571ZM0.8 3.07143C0.587827 3.07143 0.384344 3.16173 0.234315 3.32248C0.0842855 3.48323 0 3.70124 0 3.92857V11.8571C0 12.0276 0.0632141 12.1912 0.175736 12.3117C0.288258 12.4323 0.44087 12.5 0.6 12.5H2.6C2.65304 12.5 2.70391 12.4774 2.74142 12.4372C2.77893 12.3971 2.8 12.3425 2.8 12.2857V3.28571C2.8 3.22888 2.77893 3.17438 2.74142 3.13419C2.70391 3.094 2.65304 3.07143 2.6 3.07143H0.8Z" fill="white"/>
</svg>
