<svg width="23" height="18" viewBox="0 0 23 18" fill="none" xmlns="http://www.w3.org/2000/svg">
<path opacity="0.3" d="M20.125 0H2.875C2.11275 0.000812161 1.38196 0.302777 0.842969 0.839637C0.303978 1.3765 0.000815384 2.1044 0 2.86364V15.1364C0.000815384 15.8956 0.303978 16.6235 0.842969 17.1604C1.38196 17.6972 2.11275 17.9992 2.875 18H20.125C20.8872 17.9992 21.618 17.6972 22.157 17.1604C22.696 16.6235 22.9992 15.8956 23 15.1364V2.86364C22.9992 2.1044 22.696 1.3765 22.157 0.839637C21.618 0.302777 20.8872 0.000812161 20.125 0ZM19.397 4.73676L12.0042 10.464C11.86 10.5757 11.6826 10.6363 11.5 10.6363C11.3174 10.6363 11.14 10.5757 10.9958 10.464L3.60299 4.73676C3.51613 4.67143 3.44317 4.58955 3.38836 4.49589C3.33354 4.40223 3.29796 4.29865 3.28369 4.19117C3.26941 4.08369 3.27672 3.97446 3.30519 3.86982C3.33366 3.76518 3.38273 3.66722 3.44954 3.58163C3.51635 3.49604 3.59957 3.42454 3.69436 3.37126C3.78916 3.31799 3.89364 3.28401 4.00174 3.2713C4.10983 3.25859 4.21938 3.26741 4.32402 3.29724C4.42867 3.32707 4.52632 3.37731 4.61129 3.44506L11.5 8.78165L18.3887 3.44506C18.561 3.31549 18.7775 3.25866 18.9915 3.28686C19.2055 3.31507 19.3997 3.42603 19.5322 3.59577C19.6647 3.7655 19.7248 3.98036 19.6995 4.19388C19.6742 4.4074 19.5655 4.60242 19.397 4.73676Z" fill="white"/>
</svg>
