<svg width="10" height="13" viewBox="0 0 10 13" fill="none" xmlns="http://www.w3.org/2000/svg">
<path opacity="0.7" d="M8.18182 4.76667H7.72727V2.6C7.72727 1.91044 7.43994 1.24912 6.92847 0.761522C6.41701 0.273928 5.72332 0 5 0C4.27668 0 3.58299 0.273928 3.07153 0.761522C2.56006 1.24912 2.27273 1.91044 2.27273 2.6V4.76667H1.81818C1.33613 4.76717 0.873976 4.94995 0.533115 5.2749C0.192253 5.59986 0.000526379 6.04045 0 6.5V11.2667C0.000526379 11.7262 0.192253 12.1668 0.533115 12.4918C0.873976 12.8167 1.33613 12.9995 1.81818 13H8.18182C8.66387 12.9995 9.12603 12.8167 9.46689 12.4918C9.80775 12.1668 9.99947 11.7262 10 11.2667V6.5C9.99947 6.04045 9.80775 5.59986 9.46689 5.2749C9.12603 4.94995 8.66387 4.76717 8.18182 4.76667ZM6.81818 4.76667H3.18182V2.6C3.18182 2.14029 3.37338 1.69941 3.71435 1.37435C4.05533 1.04929 4.51779 0.866667 5 0.866667C5.48221 0.866667 5.94467 1.04929 6.28565 1.37435C6.62662 1.69941 6.81818 2.14029 6.81818 2.6V4.76667Z" fill="white"/>
</svg>
