<svg width="12" height="13" viewBox="0 0 12 13" fill="none" xmlns="http://www.w3.org/2000/svg">
<path d="M11.8549 4.63533L10.7516 3.53198C10.6626 3.44416 10.5439 3.39288 10.419 3.38825C10.294 3.38362 10.1719 3.42598 10.0766 3.50698C9.92952 3.63217 9.74078 3.69754 9.54778 3.69013C9.35478 3.68272 9.1716 3.60308 9.03456 3.46697C8.89853 3.32993 8.81893 3.1468 8.81152 2.95385C8.80411 2.76089 8.86944 2.5722 8.99455 2.42513C9.07554 2.32986 9.1179 2.2077 9.11327 2.08274C9.10864 1.95778 9.05737 1.83908 8.96955 1.75007L7.86526 0.645464C7.77194 0.552315 7.64547 0.5 7.51362 0.5C7.38177 0.5 7.2553 0.552315 7.16198 0.645464L5.40316 2.40412C5.29457 2.51311 5.21268 2.64575 5.1639 2.79166C5.15441 2.81971 5.13857 2.8452 5.11763 2.86614C5.09669 2.88709 5.0712 2.90292 5.04315 2.91242C4.89719 2.9612 4.76453 3.04319 4.65563 3.15194L0.145456 7.66236C0.0523125 7.75568 0 7.88216 0 8.01401C0 8.14587 0.0523125 8.27234 0.145456 8.36567L1.25 9.46902C1.33901 9.55684 1.4577 9.60812 1.58265 9.61275C1.70761 9.61738 1.82976 9.57502 1.92503 9.49403C2.07175 9.36782 2.26075 9.30172 2.45415 9.30898C2.64755 9.31625 2.83106 9.39633 2.96791 9.53319C3.10476 9.67004 3.18484 9.85356 3.1921 10.047C3.19936 10.2404 3.13327 10.4294 3.00707 10.5761C2.92608 10.6714 2.88372 10.7936 2.88835 10.9185C2.89298 11.0435 2.94426 11.1622 3.03207 11.2512L4.13536 12.3545C4.22869 12.4477 4.35515 12.5 4.487 12.5C4.61885 12.5 4.74532 12.4477 4.83864 12.3545L9.34882 7.84412C9.4575 7.73527 9.53948 7.6027 9.58833 7.45684C9.59778 7.42869 9.61363 7.40312 9.63462 7.38213C9.65562 7.36113 9.68119 7.34528 9.70933 7.33583C9.85516 7.28703 9.98771 7.20514 10.0966 7.09655L11.8552 5.33764C11.948 5.24433 12 5.11805 12 4.98643C12 4.85482 11.9478 4.72858 11.8549 4.63533ZM6.14544 3.89401C6.1083 3.93117 6.06419 3.96064 6.01566 3.98075C5.96712 4.00086 5.91509 4.01121 5.86256 4.01121C5.81002 4.01121 5.75799 4.00086 5.70946 3.98075C5.66092 3.96064 5.61682 3.93117 5.57967 3.89401L5.29191 3.60624C5.21872 3.53084 5.17813 3.42966 5.17892 3.32458C5.17971 3.2195 5.22182 3.11895 5.29614 3.04466C5.37045 2.97037 5.47102 2.92831 5.57609 2.92757C5.68117 2.92682 5.78232 2.96746 5.85768 3.04068L6.14544 3.32821C6.1826 3.36536 6.21207 3.40946 6.23218 3.458C6.25229 3.50654 6.26264 3.55857 6.26264 3.61111C6.26264 3.66365 6.25229 3.71568 6.23218 3.76422C6.21207 3.81276 6.1826 3.85686 6.14544 3.89401ZM7.24549 4.99411C7.17048 5.06908 7.06877 5.11119 6.96272 5.11119C6.85668 5.11119 6.75497 5.06908 6.67996 4.99411L6.40495 4.71909C6.3678 4.68194 6.33834 4.63783 6.31823 4.58929C6.29813 4.54075 6.28778 4.48873 6.28778 4.43619C6.28778 4.38365 6.29813 4.33162 6.31823 4.28308C6.33834 4.23454 6.3678 4.19044 6.40495 4.15329C6.47998 4.07826 6.58174 4.0361 6.68784 4.0361C6.74038 4.0361 6.7924 4.04645 6.84094 4.06656C6.88947 4.08666 6.93358 4.11613 6.97073 4.15329L7.24574 4.42831C7.28302 4.46546 7.31261 4.50959 7.3328 4.55819C7.353 4.6068 7.36341 4.6589 7.36343 4.71153C7.36345 4.76416 7.35309 4.81628 7.33294 4.8649C7.31279 4.91352 7.28324 4.95768 7.24599 4.99486L7.24549 4.99411ZM8.34553 6.09421C8.30838 6.13137 8.26428 6.16084 8.21574 6.18095C8.1672 6.20106 8.11518 6.21141 8.06264 6.21141C8.0101 6.21141 7.95808 6.20106 7.90954 6.18095C7.861 6.16084 7.8169 6.13137 7.77976 6.09421L7.50475 5.81919C7.43155 5.74379 7.39097 5.64262 7.39176 5.53754C7.39255 5.43245 7.43466 5.3319 7.50897 5.25762C7.58329 5.18333 7.68385 5.14126 7.78893 5.14052C7.89401 5.13978 7.99515 5.18041 8.07052 5.25364L8.34553 5.52866C8.38292 5.56575 8.41261 5.60985 8.43292 5.65843C8.45322 5.70702 8.46373 5.75914 8.46385 5.8118C8.46397 5.86446 8.45368 5.91663 8.43359 5.96531C8.4135 6.01398 8.384 6.05821 8.34678 6.09546L8.34553 6.09421ZM9.45632 7.20782C9.41918 7.24497 9.37507 7.27445 9.32654 7.29456C9.278 7.31467 9.22598 7.32502 9.17344 7.32502C9.1209 7.32502 9.06887 7.31467 9.02034 7.29456C8.9718 7.27445 8.9277 7.24497 8.89055 7.20782L8.60454 6.92029C8.5666 6.88325 8.53641 6.83904 8.51571 6.79023C8.49502 6.74142 8.48423 6.68898 8.48397 6.63596C8.48372 6.58294 8.49401 6.5304 8.51424 6.4814C8.53447 6.43239 8.56424 6.38789 8.60182 6.3505C8.6394 6.3131 8.68404 6.28354 8.73314 6.26355C8.78224 6.24356 8.83482 6.23352 8.88784 6.23403C8.94085 6.23454 8.99324 6.24559 9.04194 6.26653C9.09065 6.28746 9.13471 6.31787 9.17156 6.35599L9.45782 6.64326C9.49496 6.68043 9.52441 6.72454 9.5445 6.77309C9.56459 6.82164 9.57491 6.87367 9.57489 6.92622C9.57487 6.97876 9.5645 7.03078 9.54437 7.07931C9.52424 7.12784 9.49474 7.17193 9.45757 7.20906L9.45632 7.20782Z" fill="white"/>
</svg>
