<svg width="12" height="13" viewBox="0 0 12 13" fill="none" xmlns="http://www.w3.org/2000/svg">
<path d="M11.7426 7.64783L11.73 7.63791L10.8846 6.99226C10.8311 6.95102 10.7884 6.89799 10.76 6.83754C10.7316 6.77709 10.7183 6.71094 10.7212 6.64452V6.34296C10.7186 6.27696 10.732 6.21129 10.7604 6.15134C10.7889 6.09138 10.8315 6.03886 10.8849 5.99809L11.73 5.35217L11.7426 5.34226C11.8729 5.23652 11.9604 5.08908 11.9893 4.9263C12.0183 4.76352 11.9868 4.59601 11.9006 4.45374L10.7566 2.52591C10.7553 2.52409 10.7541 2.52217 10.7531 2.52017C10.6664 2.37987 10.532 2.27356 10.3732 2.21971C10.2145 2.16586 10.0413 2.16787 9.88392 2.22539L9.87454 2.22878L8.88079 2.61826C8.81807 2.64296 8.75022 2.65279 8.68283 2.64694C8.61545 2.64109 8.55045 2.61972 8.49321 2.58461C8.40535 2.5307 8.31606 2.47974 8.22535 2.43174C8.16653 2.40068 8.11604 2.35659 8.07793 2.30303C8.03982 2.24947 8.01518 2.18793 8.00597 2.12339L7.85624 1.09061L7.85303 1.07183C7.82043 0.91186 7.73229 0.767697 7.60342 0.663564C7.47455 0.55943 7.3128 0.501674 7.14535 0.5H4.85464C4.68484 0.500529 4.52067 0.559404 4.39107 0.666253C4.26146 0.773102 4.17474 0.921069 4.14616 1.08409L4.14375 1.0987L3.99456 2.13357C3.9854 2.19792 3.96095 2.25931 3.92315 2.31284C3.88534 2.36637 3.83522 2.41057 3.77679 2.44191C3.68581 2.48964 3.59648 2.54027 3.50893 2.59374C3.45179 2.62864 3.38696 2.64984 3.31977 2.6556C3.25258 2.66136 3.18494 2.65151 3.12242 2.62687L2.12786 2.23557L2.11849 2.23191C1.96085 2.17433 1.78746 2.1724 1.62851 2.22645C1.46955 2.2805 1.33508 2.38711 1.24849 2.52774L1.24501 2.53348L0.0993878 4.46261C0.0130388 4.60503 -0.0184771 4.77272 0.0104758 4.93569C0.0394286 5.09866 0.126962 5.24629 0.257423 5.35217L0.270012 5.36209L1.11537 6.00774C1.1689 6.04898 1.21162 6.10201 1.24003 6.16246C1.26843 6.22291 1.28171 6.28906 1.27876 6.35548V6.65704C1.28144 6.72304 1.26801 6.78871 1.23955 6.84866C1.2111 6.90862 1.16845 6.96114 1.1151 7.00191L0.270012 7.64783L0.257423 7.65774C0.127091 7.76348 0.0396289 7.91092 0.0106761 8.0737C-0.0182766 8.23648 0.0131683 8.40399 0.0993878 8.54626L1.2434 10.4741C1.24472 10.4759 1.24588 10.4778 1.24688 10.4798C1.33357 10.6201 1.46797 10.7264 1.62675 10.7803C1.78553 10.8341 1.95866 10.8321 2.11608 10.7746L2.12545 10.7712L3.1184 10.3817C3.18112 10.357 3.24897 10.3472 3.31636 10.3531C3.38374 10.3589 3.44874 10.3803 3.50599 10.4154C3.59384 10.4695 3.68313 10.5204 3.77384 10.5683C3.83266 10.5993 3.88315 10.6434 3.92126 10.697C3.95937 10.7505 3.98401 10.8121 3.99322 10.8766L4.14215 11.9094L4.14536 11.9282C4.17801 12.0884 4.26639 12.2328 4.39559 12.3369C4.52479 12.4411 4.68692 12.4987 4.85464 12.5H7.14535C7.31516 12.4995 7.47932 12.4406 7.60893 12.3337C7.73853 12.2269 7.82526 12.0789 7.85383 11.9159L7.85624 11.9013L8.00544 10.8664C8.01473 10.802 8.03939 10.7405 8.07744 10.6869C8.11548 10.6334 8.16586 10.5893 8.22454 10.5581C8.31615 10.5101 8.40562 10.4592 8.4924 10.4063C8.54955 10.3714 8.61438 10.3502 8.68157 10.3444C8.74876 10.3386 8.81639 10.3485 8.87892 10.3731L9.87347 10.7631L9.88284 10.7668C10.0405 10.8245 10.2139 10.8265 10.3729 10.7724C10.5319 10.7183 10.6663 10.6117 10.7528 10.471C10.7539 10.469 10.7551 10.4671 10.7563 10.4652L11.9003 8.53765C11.9868 8.39525 12.0185 8.22751 11.9896 8.06447C11.9607 7.90142 11.8731 7.75373 11.7426 7.64783ZM8.14044 6.59809C8.12093 7.00206 7.98133 7.39182 7.73859 7.71995C7.49586 8.04809 7.16047 8.30047 6.77319 8.44641C6.38591 8.59234 5.96344 8.62554 5.55715 8.54197C5.15086 8.4584 4.77825 8.26166 4.48464 7.97567C4.19102 7.68968 3.98906 7.32677 3.9033 6.93107C3.81754 6.53536 3.85168 6.12391 4.00157 5.74676C4.15145 5.3696 4.41063 5.04298 4.74759 4.80662C5.08454 4.57026 5.48475 4.43434 5.89955 4.41539C6.19734 4.40262 6.49461 4.45034 6.77244 4.55552C7.05027 4.6607 7.30258 4.82103 7.51335 5.02631C7.72411 5.2316 7.8887 5.47736 7.99666 5.74795C8.10462 6.01855 8.15358 6.30806 8.14044 6.59809Z" fill="white"/>
</svg>
