<svg width="105" height="106" viewBox="0 0 105 106" fill="none" xmlns="http://www.w3.org/2000/svg">
<path fill-rule="evenodd" clip-rule="evenodd" d="M52.5364 3.02091C65.763 3.02612 78.1744 8.17456 87.5104 17.5157C96.8437 26.8595 101.984 39.2761 101.979 52.4845C101.969 79.7371 79.7864 101.912 52.5364 101.912H52.5156C44.2421 101.909 36.1093 99.8334 28.888 95.8933L2.67702 102.768L9.69264 77.1563C5.36452 69.6615 3.08847 61.1563 3.09108 52.4454C3.1041 25.1928 25.2812 3.02091 52.5364 3.02091ZM52.5364 0.416748C23.8489 0.416748 0.499932 23.7553 0.486911 52.4454C0.484307 61.2136 2.69785 69.8543 6.89577 77.5027L0.163995 102.083C-0.0807969 102.982 0.169203 103.94 0.825453 104.602C1.32024 105.102 1.98952 105.375 2.67702 105.375C2.89837 105.375 3.11972 105.346 3.33847 105.289L28.565 98.6746C35.9296 102.497 44.1848 104.516 52.5156 104.518C81.2239 104.518 104.573 81.1772 104.586 52.4871C104.591 38.5834 99.1822 25.5105 89.3567 15.6772C79.526 5.84123 66.4505 0.421956 52.5364 0.416748Z" fill="#FF0099"/>
<path fill-rule="evenodd" clip-rule="evenodd" d="M81.6042 23.4167C73.8437 15.6511 63.5286 11.3725 52.5495 11.3699C29.8828 11.3699 11.4479 29.797 11.4375 52.448C11.4349 60.211 13.6068 67.7683 17.7214 74.3126L18.7005 75.8673L14.5469 91.0261L30.1016 86.948L31.6042 87.8386C37.9115 91.5834 45.1458 93.5626 52.5208 93.5652H52.5365C75.1875 93.5652 93.6224 75.1355 93.6302 52.4819C93.6328 41.5053 89.3646 31.1824 81.6042 23.4167Z" fill="#FF0099"/>
<path fill-rule="evenodd" clip-rule="evenodd" d="M40.1769 31.7837C39.2524 29.7265 38.2785 29.6848 37.3957 29.6483C36.6743 29.6171 35.8514 29.6197 35.0285 29.6197C34.2056 29.6197 32.867 29.9296 31.7342 31.1666C30.6014 32.4035 27.4087 35.3905 27.4087 41.4686C27.4087 47.5468 31.8358 53.4218 32.453 54.2447C33.0701 55.0676 40.9998 67.94 53.5571 72.8931C63.992 77.0077 66.117 76.19 68.3826 75.9843C70.6483 75.7785 75.6925 72.9973 76.7212 70.1119C77.7498 67.2265 77.7498 64.7551 77.4425 64.2395C77.1326 63.7239 76.3097 63.4166 75.0753 62.7968C73.841 62.177 67.7655 59.19 66.6326 58.7785C65.4998 58.3671 64.6769 58.1614 63.8514 59.3983C63.0285 60.6327 60.6613 63.4166 59.9399 64.2395C59.2186 65.065 58.4972 65.1692 57.2629 64.5494C56.0285 63.9296 52.0493 62.6275 47.328 58.4192C43.6561 55.1457 41.1769 51.1015 40.4556 49.8645C39.7342 48.6301 40.3774 47.9608 40.9972 47.3436C41.5519 46.789 42.2316 45.9009 42.8514 45.1796C43.4686 44.4582 43.6743 43.9426 44.0858 43.1197C44.4972 42.2942 44.2915 41.5728 43.9816 40.9556C43.6769 40.3358 41.2759 34.2265 40.1769 31.7837Z" fill="#1D1D42"/>
</svg>
