<svg width="10" height="16" viewBox="0 0 10 16" fill="none" xmlns="http://www.w3.org/2000/svg">
<path d="M3.32855 5.46865V11.134C3.33551 11.5483 3.5154 11.9434 3.82939 12.234C4.14339 12.5247 4.56632 12.6876 5.00691 12.6876C5.4475 12.6876 5.87043 12.5247 6.18443 12.234C6.49842 11.9434 6.67831 11.5483 6.68527 11.134L6.69071 3.7082C6.69528 3.35411 6.62506 3.00269 6.48413 2.67431C6.3432 2.34593 6.13435 2.04713 5.8697 1.79522C5.60506 1.54331 5.28986 1.3433 4.94241 1.2068C4.59495 1.07029 4.22213 1 3.84557 1C3.469 1 3.09619 1.07029 2.74873 1.2068C2.40127 1.3433 2.08608 1.54331 1.82143 1.79522C1.55678 2.04713 1.34793 2.34593 1.207 2.67431C1.06607 3.00269 0.99585 3.35411 1.00042 3.7082V11.184C0.992747 11.6825 1.09053 12.1775 1.28809 12.6401C1.48564 13.1028 1.77903 13.5239 2.15118 13.879C2.52334 14.234 2.96684 14.516 3.45591 14.7084C3.94497 14.9009 4.46984 15 5 15C5.53016 15 6.05503 14.9009 6.54409 14.7084C7.03316 14.516 7.47666 14.234 7.84882 13.879C8.22097 13.5239 8.51436 13.1028 8.71191 12.6401C8.90947 12.1775 9.00725 11.6825 8.99958 11.184V4.19813" stroke="url(#paint0_linear_9_671)" stroke-miterlimit="10" stroke-linecap="round"/>
<defs>
<linearGradient id="paint0_linear_9_671" x1="5" y1="1" x2="5" y2="15" gradientUnits="userSpaceOnUse">
<stop stop-color="#719FF8"/>
<stop offset="1" stop-color="#0845BB"/>
</linearGradient>
</defs>
</svg>
