<svg width="152" height="211" viewBox="0 0 152 211" fill="none" xmlns="http://www.w3.org/2000/svg">
<g opacity="0.17">
<path opacity="0.0417" d="M78.0179 209.981C110.531 209.981 136.888 195.21 136.888 176.989C136.888 158.768 110.531 143.997 78.0179 143.997C45.5049 143.997 19.1479 158.768 19.1479 176.989C19.1479 195.21 45.5049 209.981 78.0179 209.981Z" fill="#190C00"/>
<path opacity="0.0833" d="M78.0178 209.334C109.893 209.334 135.733 194.853 135.733 176.989C135.733 159.125 109.893 144.644 78.0178 144.644C46.1424 144.644 20.3022 159.125 20.3022 176.989C20.3022 194.853 46.1424 209.334 78.0178 209.334Z" fill="#190C00"/>
<path opacity="0.125" d="M78.0182 208.688C109.256 208.688 134.579 194.496 134.579 176.989C134.579 159.483 109.256 145.291 78.0182 145.291C46.7803 145.291 21.457 159.483 21.457 176.989C21.457 194.496 46.7803 208.688 78.0182 208.688Z" fill="#190C00"/>
<path opacity="0.1667" d="M78.0171 208.041C108.617 208.041 133.424 194.138 133.424 176.989C133.424 159.84 108.617 145.938 78.0171 145.938C47.4168 145.938 22.6104 159.84 22.6104 176.989C22.6104 194.138 47.4168 208.041 78.0171 208.041Z" fill="#190C00"/>
<path opacity="0.2083" d="M78.0174 207.393C107.98 207.393 132.27 193.781 132.27 176.989C132.27 160.198 107.98 146.585 78.0174 146.585C48.0547 146.585 23.7651 160.198 23.7651 176.989C23.7651 193.781 48.0547 207.393 78.0174 207.393Z" fill="#190C00"/>
<path opacity="0.25" d="M78.0178 206.746C107.342 206.746 131.115 193.423 131.115 176.989C131.115 160.555 107.342 147.232 78.0178 147.232C48.6932 147.232 24.9209 160.555 24.9209 176.989C24.9209 193.423 48.6932 206.746 78.0178 206.746Z" fill="#190C00"/>
<path opacity="0.2917" d="M78.0182 206.099C106.705 206.099 129.961 193.066 129.961 176.989C129.961 160.912 106.705 147.879 78.0182 147.879C49.3311 147.879 26.0757 160.912 26.0757 176.989C26.0757 193.066 49.3311 206.099 78.0182 206.099Z" fill="#190C00"/>
<path opacity="0.3333" d="M78.0186 205.452C106.068 205.452 128.807 192.709 128.807 176.989C128.807 161.27 106.068 148.526 78.0186 148.526C49.9691 148.526 27.2305 161.27 27.2305 176.989C27.2305 192.709 49.9691 205.452 78.0186 205.452Z" fill="#190C00"/>
<path opacity="0.375" d="M78.0175 204.805C105.429 204.805 127.651 192.351 127.651 176.989C127.651 161.627 105.429 149.173 78.0175 149.173C50.6055 149.173 28.3838 161.627 28.3838 176.989C28.3838 192.351 50.6055 204.805 78.0175 204.805Z" fill="#190C00"/>
<path opacity="0.4167" d="M78.0178 204.158C104.792 204.158 126.497 191.994 126.497 176.989C126.497 161.984 104.792 149.82 78.0178 149.82C51.2435 149.82 29.5386 161.984 29.5386 176.989C29.5386 191.994 51.2435 204.158 78.0178 204.158Z" fill="#190C00"/>
<path opacity="0.4583" d="M78.0177 203.511C104.155 203.511 125.343 191.637 125.343 176.989C125.343 162.341 104.155 150.467 78.0177 150.467C51.8809 150.467 30.6929 162.341 30.6929 176.989C30.6929 191.637 51.8809 203.511 78.0177 203.511Z" fill="#190C00"/>
<path opacity="0.5" d="M78.0171 202.865C103.516 202.865 124.187 191.28 124.187 176.989C124.187 162.699 103.516 151.114 78.0171 151.114C52.5184 151.114 31.8477 162.699 31.8477 176.989C31.8477 191.28 52.5184 202.865 78.0171 202.865Z" fill="#190C00"/>
<path opacity="0.5417" d="M78.0175 202.216C102.879 202.216 123.033 190.922 123.033 176.989C123.033 163.057 102.879 151.762 78.0175 151.762C53.1564 151.762 33.0024 163.057 33.0024 176.989C33.0024 190.922 53.1564 202.216 78.0175 202.216Z" fill="#190C00"/>
<path opacity="0.5833" d="M78.0174 201.569C102.241 201.569 121.878 190.564 121.878 176.989C121.878 163.414 102.241 152.409 78.0174 152.409C53.7938 152.409 34.1567 163.414 34.1567 176.989C34.1567 190.564 53.7938 201.569 78.0174 201.569Z" fill="#190C00"/>
<path opacity="0.625" d="M78.0178 200.922C101.604 200.922 120.724 190.207 120.724 176.989C120.724 163.771 101.604 153.056 78.0178 153.056C54.4318 153.056 35.3115 163.771 35.3115 176.989C35.3115 190.207 54.4318 200.922 78.0178 200.922Z" fill="#190C00"/>
<path opacity="0.6667" d="M78.0167 200.276C100.965 200.276 119.568 189.85 119.568 176.989C119.568 164.129 100.965 153.703 78.0167 153.703C55.0682 153.703 36.4648 164.129 36.4648 176.989C36.4648 189.85 55.0682 200.276 78.0167 200.276Z" fill="#190C00"/>
<path opacity="0.7083" d="M78.0171 199.629C100.328 199.629 118.415 189.493 118.415 176.989C118.415 164.486 100.328 154.35 78.0171 154.35C55.7062 154.35 37.6196 164.486 37.6196 176.989C37.6196 189.493 55.7062 199.629 78.0171 199.629Z" fill="#190C00"/>
<path opacity="0.75" d="M78.0174 198.982C99.6901 198.982 117.259 189.135 117.259 176.989C117.259 164.843 99.6901 154.997 78.0174 154.997C56.3446 154.997 38.7754 164.843 38.7754 176.989C38.7754 189.135 56.3446 198.982 78.0174 198.982Z" fill="#190C00"/>
<path opacity="0.7917" d="M78.0178 198.335C99.053 198.335 116.105 188.778 116.105 176.989C116.105 165.2 99.053 155.644 78.0178 155.644C56.9826 155.644 39.9302 165.2 39.9302 176.989C39.9302 188.778 56.9826 198.335 78.0178 198.335Z" fill="#190C00"/>
<path opacity="0.8333" d="M78.0167 197.687C98.4144 197.687 114.95 188.42 114.95 176.989C114.95 165.558 98.4144 156.291 78.0167 156.291C57.6191 156.291 41.0835 165.558 41.0835 176.989C41.0835 188.42 57.6191 197.687 78.0167 197.687Z" fill="#190C00"/>
<path opacity="0.875" d="M78.0171 197.04C97.7772 197.04 113.796 188.063 113.796 176.989C113.796 165.916 97.7772 156.938 78.0171 156.938C58.257 156.938 42.2383 165.916 42.2383 176.989C42.2383 188.063 58.257 197.04 78.0171 197.04Z" fill="#190C00"/>
<path opacity="0.9167" d="M78.0184 196.393C97.1409 196.393 112.643 187.706 112.643 176.989C112.643 166.273 97.1409 157.585 78.0184 157.585C58.8959 157.585 43.394 166.273 43.394 176.989C43.394 187.706 58.8959 196.393 78.0184 196.393Z" fill="#190C00"/>
<path opacity="0.9583" d="M78.0178 195.746C96.5022 195.746 111.487 187.348 111.487 176.989C111.487 166.63 96.5022 158.232 78.0178 158.232C59.5334 158.232 44.5488 166.63 44.5488 176.989C44.5488 187.348 59.5334 195.746 78.0178 195.746Z" fill="#190C00"/>
<path opacity="0.17" d="M78.0177 195.099C95.8646 195.099 110.332 186.991 110.332 176.989C110.332 166.987 95.8646 158.879 78.0177 158.879C60.1708 158.879 45.7031 166.987 45.7031 176.989C45.7031 186.991 60.1708 195.099 78.0177 195.099Z" fill="#190C00"/>
</g>
<path opacity="0.6" d="M43.573 5.2168C21.168 12.3044 6.00098 25.8968 6.00098 41.5098C6.00098 41.8717 6.01182 42.2445 6.02266 42.6064C6.28884 48.343 8.59766 53.7926 12.5558 58.7205C17.62 52.409 25.3982 46.9377 35.0377 42.7978C37.7398 41.6361 40.5958 40.5858 43.573 39.644V5.2168Z" fill="url(#paint0_linear_681_1107)"/>
<path opacity="0.3" d="M79.0003 0C75.5331 0 72.1281 0.14694 68.79 0.413205V34.8424C72.1281 34.5771 75.5341 34.4321 79.0003 34.4321C96.0986 34.4321 111.834 37.7743 124.283 43.3727C133.316 47.4387 140.615 52.696 145.445 58.7205C149.169 54.0904 151.425 49.0028 151.904 43.6489C151.968 42.9359 151.999 42.2229 151.999 41.5099C151.999 18.5834 119.314 0 79.0003 0Z" fill="url(#paint1_linear_681_1107)"/>
<path d="M42.4278 179.346C42.4278 179.346 37.8772 183.316 34.2839 185.491C30.6905 187.667 27.665 191.639 31.1637 193.342C34.6624 195.044 39.6734 191.261 43.3604 189.937C47.0474 188.612 56.6041 188.068 56.5025 183.221C56.402 178.374 54.3278 176.989 54.3278 176.989L42.4278 179.346Z" fill="url(#paint2_linear_681_1107)"/>
<path d="M112.47 161.169C112.47 161.169 112.446 166.07 109.93 167.124C107.414 168.179 105.473 167.747 105.473 167.747L92.3351 173.624L113.456 188.438C113.456 188.438 114.235 193.975 108.7 193.255C103.164 192.535 102.914 188.797 102.914 188.797L85.7488 178.802L68.8772 190.545C68.8772 190.545 67.4399 195.794 61.9764 196.297C56.5129 196.8 56.0092 191.285 56.0092 191.285L76.2099 174.192L62.9198 169.947C62.9198 169.947 60.476 171.093 57.3844 169.276C54.2938 167.46 54.9405 163.577 57.2405 162.858C59.5404 162.139 87.2788 171.036 87.2788 171.036L112.47 161.169Z" fill="url(#paint3_linear_681_1107)"/>
<path d="M95.563 173.746L112.517 186.786C113.818 187.786 113.757 189.766 112.396 190.684L111.509 191.282C110.708 191.823 109.662 191.831 108.853 191.303L87.0424 177.076C86.2479 176.557 85.2226 176.555 84.426 177.07L61.1131 193.384C60.4151 193.835 59.5338 193.894 58.7826 193.538L57.3009 192.837C55.6496 192.056 55.4386 189.79 56.9174 188.718L74.1744 174.96C75.7685 173.805 75.3722 171.326 73.4971 170.726L57.7494 165.861C55.7679 165.227 55.4751 162.544 57.2713 161.496C57.8401 161.165 58.5194 161.081 59.1513 161.264L82.0462 167.803C82.5382 167.946 83.0626 167.927 83.5427 167.751L108.438 158.354C109.057 158.127 109.742 158.165 110.333 158.458L111.141 158.859C112.976 159.77 112.903 162.412 111.021 163.22L96.0786 169.633C94.3938 170.356 94.1079 172.627 95.563 173.746Z" fill="url(#paint4_linear_681_1107)"/>
<path d="M79.1671 166.966C79.169 166.999 79.171 167.032 79.174 167.065C79.1769 167.094 79.1809 167.124 79.1848 167.152C79.1897 167.185 79.1947 167.218 79.2006 167.251C79.2055 167.28 79.2124 167.309 79.2183 167.338C79.2252 167.369 79.2331 167.402 79.242 167.433C79.2499 167.462 79.2587 167.491 79.2676 167.52C79.2775 167.552 79.2883 167.583 79.2992 167.616C79.309 167.644 79.3199 167.673 79.3317 167.701C79.3445 167.734 79.3593 167.767 79.3731 167.8C79.3859 167.828 79.3987 167.855 79.4115 167.883C79.4273 167.916 79.4451 167.949 79.4628 167.982C79.4776 168.008 79.4914 168.035 79.5072 168.061C79.5298 168.101 79.5545 168.139 79.5791 168.178C79.5939 168.202 79.6087 168.225 79.6255 168.249C79.6551 168.291 79.6866 168.334 79.7181 168.376C79.7319 168.395 79.7448 168.413 79.7595 168.431C79.8128 168.498 79.87 168.564 79.9301 168.631C79.9459 168.647 79.9626 168.664 79.9784 168.681C80.0257 168.731 80.075 168.78 80.1273 168.829C80.1509 168.851 80.1746 168.873 80.1992 168.896C80.2298 168.923 80.2613 168.951 80.2939 168.979C80.3234 169.004 80.354 169.029 80.3846 169.055C80.4181 169.081 80.4526 169.109 80.4871 169.135C80.5196 169.16 80.5512 169.185 80.5847 169.208C80.6212 169.235 80.6576 169.261 80.6961 169.286C80.7306 169.31 80.7651 169.334 80.8016 169.357C80.84 169.383 80.8804 169.408 80.9209 169.432C80.9711 169.464 81.0204 169.495 81.0737 169.525C81.2166 169.608 81.3655 169.685 81.5173 169.758C81.5577 169.777 81.5981 169.796 81.6385 169.815C81.7756 169.878 81.9165 169.939 82.0595 169.994C82.0782 170.001 82.096 170.01 82.1147 170.017C82.2685 170.076 82.4272 170.128 82.5869 170.179C82.6983 170.213 82.8117 170.245 82.926 170.275C83.0118 170.299 83.0966 170.324 83.1843 170.344C83.3036 170.373 83.4259 170.398 83.5481 170.422C83.6368 170.44 83.7236 170.461 83.8133 170.477C83.8498 170.484 83.8872 170.488 83.9247 170.494C84.0755 170.519 84.2273 170.541 84.3801 170.558C84.4245 170.563 84.4689 170.569 84.5132 170.574C84.6907 170.593 84.8681 170.609 85.0476 170.619C85.0801 170.621 85.1136 170.622 85.1461 170.624C85.3305 170.632 85.5158 170.638 85.7002 170.639C85.7189 170.639 85.7366 170.638 85.7554 170.638C85.8934 170.638 86.0314 170.632 86.1694 170.627C86.2808 170.623 86.3922 170.617 86.5026 170.609C86.6042 170.602 86.7057 170.593 86.8073 170.583C86.9167 170.572 87.0261 170.56 87.1355 170.547C87.2805 170.528 87.4244 170.51 87.5673 170.485C87.5782 170.484 87.59 170.483 87.6008 170.481C87.7832 170.449 87.9627 170.412 88.1401 170.371C88.1687 170.364 88.1973 170.358 88.2249 170.352C88.3925 170.312 88.5581 170.268 88.7208 170.219C88.7671 170.205 88.8134 170.191 88.8588 170.176C88.9938 170.133 89.1269 170.088 89.258 170.04C89.2965 170.026 89.3349 170.012 89.3724 169.998C89.4917 169.952 89.607 169.901 89.7214 169.85C89.7776 169.826 89.8357 169.803 89.8909 169.776C90.0566 169.698 90.2182 169.614 90.373 169.525C91.6694 168.776 92.3171 167.793 92.3141 166.811L92.3338 170.362C92.3368 171.344 91.6891 172.328 90.3927 173.076C90.238 173.166 90.0763 173.249 89.9107 173.328C89.8555 173.354 89.7973 173.377 89.7411 173.402C89.6425 173.445 89.5459 173.49 89.4453 173.531C89.4276 173.538 89.4099 173.544 89.3921 173.55C89.3546 173.565 89.3162 173.578 89.2778 173.592C89.1466 173.64 89.0136 173.686 88.8775 173.729C88.8312 173.744 88.7858 173.759 88.7395 173.771C88.7079 173.78 88.6784 173.791 88.6468 173.8C88.5147 173.837 88.3797 173.872 88.2436 173.905C88.215 173.911 88.1864 173.917 88.1578 173.924C88.0918 173.939 88.0267 173.955 87.9607 173.969C87.8473 173.992 87.733 174.013 87.6186 174.033C87.6078 174.035 87.5959 174.036 87.5851 174.038C87.4934 174.053 87.4007 174.068 87.3081 174.081C87.2568 174.088 87.2046 174.092 87.1533 174.099C87.0439 174.113 86.9354 174.124 86.825 174.135C86.7728 174.14 86.7205 174.148 86.6683 174.153C86.619 174.157 86.5697 174.158 86.5204 174.161C86.41 174.169 86.2986 174.175 86.1872 174.179C86.131 174.181 86.0758 174.187 86.0196 174.188C85.9368 174.19 85.8549 174.19 85.7721 174.19C85.7534 174.19 85.7357 174.191 85.7169 174.191C85.5927 174.191 85.4685 174.19 85.3453 174.186C85.2842 174.184 85.224 174.18 85.1629 174.177C85.1304 174.175 85.0968 174.174 85.0643 174.172C84.9145 174.163 84.7646 174.152 84.6158 174.137C84.5872 174.134 84.5586 174.13 84.53 174.127C84.4856 174.122 84.4413 174.117 84.3969 174.112C84.2441 174.093 84.0923 174.072 83.9414 174.047C83.904 174.042 83.8675 174.037 83.83 174.03C83.8123 174.027 83.7946 174.025 83.7768 174.021C83.7048 174.008 83.6358 173.99 83.5649 173.976C83.4426 173.951 83.3204 173.927 83.2011 173.898C83.1134 173.877 83.0286 173.851 82.9428 173.828C82.8294 173.797 82.7151 173.765 82.6037 173.731C82.58 173.723 82.5544 173.718 82.5307 173.71C82.3957 173.666 82.2626 173.619 82.1315 173.569C82.1127 173.562 82.095 173.553 82.0763 173.547C81.9323 173.49 81.7923 173.43 81.6543 173.366C81.6139 173.347 81.5735 173.329 81.534 173.309C81.3822 173.235 81.2334 173.159 81.0904 173.076C81.0638 173.06 81.0362 173.045 81.0106 173.029C80.9859 173.014 80.9623 172.998 80.9386 172.982C80.8982 172.958 80.8588 172.932 80.8203 172.907C80.7838 172.884 80.7493 172.86 80.7148 172.836C80.6774 172.81 80.6399 172.784 80.6044 172.758C80.5709 172.733 80.5384 172.708 80.5058 172.684C80.4713 172.657 80.4368 172.63 80.4033 172.604C80.3718 172.578 80.3422 172.553 80.3116 172.528C80.2801 172.5 80.2485 172.474 80.218 172.446C80.2051 172.434 80.1913 172.423 80.1785 172.411C80.1667 172.401 80.1568 172.39 80.145 172.379C80.0938 172.331 80.0445 172.281 79.9971 172.231C79.9814 172.214 79.9646 172.197 79.9488 172.181C79.8887 172.115 79.8315 172.049 79.7783 171.981C79.7763 171.979 79.7734 171.976 79.7734 171.976C79.7586 171.957 79.7487 171.941 79.7369 171.926C79.7043 171.884 79.6728 171.841 79.6442 171.799C79.6284 171.775 79.6136 171.752 79.5989 171.729C79.5742 171.691 79.5496 171.651 79.5269 171.613C79.521 171.602 79.5131 171.592 79.5072 171.581C79.4983 171.565 79.4914 171.55 79.4825 171.533C79.4648 171.5 79.448 171.467 79.4313 171.434C79.4175 171.407 79.4047 171.379 79.3928 171.351C79.378 171.318 79.3642 171.285 79.3504 171.252C79.3445 171.237 79.3376 171.222 79.3317 171.207C79.3268 171.194 79.3228 171.181 79.3179 171.167C79.3071 171.135 79.2962 171.104 79.2863 171.072C79.2775 171.044 79.2686 171.014 79.2607 170.985C79.2518 170.954 79.2449 170.921 79.2371 170.89C79.2331 170.872 79.2282 170.855 79.2242 170.838C79.2223 170.826 79.2213 170.814 79.2183 170.802C79.2124 170.77 79.2075 170.737 79.2026 170.703C79.1986 170.675 79.1947 170.646 79.1917 170.617C79.1888 170.583 79.1868 170.551 79.1848 170.517C79.1838 170.497 79.1809 170.479 79.1809 170.459C79.1799 170.439 79.1799 170.42 79.1799 170.401L79.1602 166.849C79.1621 166.889 79.1641 166.927 79.1671 166.966Z" fill="url(#paint5_linear_681_1107)"/>
<path d="M81.103 164.136C78.527 165.624 78.5122 168.037 81.0724 169.526C83.6326 171.015 87.7978 171.014 90.3738 169.527C92.9507 168.039 92.9645 165.624 90.4043 164.136C87.8451 162.648 83.68 162.648 81.103 164.136Z" fill="url(#paint6_linear_681_1107)"/>
<path d="M82.2867 152.909C82.2877 152.927 82.2887 152.944 82.2906 152.962C82.2926 152.977 82.2946 152.992 82.2965 153.007C82.2985 153.025 82.3015 153.042 82.3044 153.058C82.3074 153.074 82.3103 153.089 82.3143 153.105C82.3182 153.121 82.3222 153.138 82.3261 153.155C82.3301 153.17 82.335 153.186 82.3399 153.2C82.3448 153.217 82.3508 153.234 82.3567 153.251C82.3616 153.265 82.3675 153.28 82.3734 153.295C82.3803 153.313 82.3872 153.33 82.3951 153.347C82.402 153.362 82.4089 153.377 82.4158 153.391C82.4247 153.408 82.4336 153.425 82.4425 153.443C82.4503 153.457 82.4572 153.471 82.4661 153.485C82.4779 153.506 82.4908 153.526 82.5036 153.547C82.5115 153.559 82.5193 153.571 82.5282 153.584C82.544 153.607 82.5598 153.628 82.5775 153.651C82.5844 153.661 82.5913 153.671 82.5992 153.68C82.6268 153.715 82.6574 153.75 82.6889 153.784C82.6968 153.793 82.7057 153.802 82.7145 153.811C82.7392 153.837 82.7658 153.863 82.7924 153.889C82.8052 153.901 82.8171 153.912 82.8299 153.924C82.8457 153.939 82.8624 153.953 82.8792 153.968C82.895 153.981 82.9107 153.994 82.9265 154.007C82.9442 154.021 82.962 154.036 82.9807 154.049C82.9975 154.062 83.0142 154.075 83.032 154.088C83.0507 154.102 83.0704 154.116 83.0901 154.129C83.1089 154.142 83.1266 154.154 83.1454 154.167C83.1661 154.181 83.1868 154.193 83.2084 154.206C83.2351 154.223 83.2607 154.239 83.2883 154.256C83.3632 154.299 83.4421 154.339 83.5219 154.378C83.5426 154.388 83.5643 154.398 83.586 154.407C83.658 154.441 83.7319 154.473 83.8078 154.502C83.8177 154.506 83.8275 154.51 83.8374 154.514C83.9182 154.545 84.002 154.573 84.0858 154.599C84.144 154.618 84.2041 154.633 84.2643 154.65C84.3096 154.662 84.354 154.676 84.4003 154.687C84.4634 154.701 84.5275 154.714 84.5916 154.728C84.6379 154.738 84.6842 154.748 84.7316 154.757C84.7513 154.76 84.771 154.762 84.7897 154.765C84.8686 154.778 84.9484 154.79 85.0293 154.799C85.0529 154.802 85.0756 154.805 85.0993 154.807C85.1929 154.817 85.2866 154.825 85.3802 154.831C85.398 154.832 85.4147 154.833 85.4325 154.833C85.5291 154.838 85.6267 154.841 85.7243 154.841C85.7342 154.841 85.744 154.841 85.7529 154.841C85.8258 154.841 85.8978 154.838 85.9708 154.835C86.0289 154.833 86.0881 154.831 86.1462 154.827C86.1995 154.823 86.2527 154.819 86.3059 154.813C86.3641 154.807 86.4213 154.801 86.4785 154.793C86.5544 154.783 86.6303 154.773 86.7052 154.761C86.7111 154.76 86.717 154.759 86.7229 154.758C86.8186 154.741 86.9132 154.721 87.0069 154.7C87.0217 154.697 87.0364 154.693 87.0512 154.69C87.1399 154.67 87.2267 154.646 87.3115 154.62C87.3361 154.614 87.3598 154.606 87.3844 154.598C87.4554 154.575 87.5254 154.551 87.5944 154.526C87.6141 154.519 87.6348 154.511 87.6546 154.504C87.7176 154.479 87.7778 154.453 87.8379 154.426C87.8675 154.413 87.8981 154.402 87.9276 154.388C88.0144 154.346 88.1001 154.302 88.181 154.256C88.8632 153.862 89.2033 153.344 89.2023 152.829L89.2132 166.961C89.2141 167.478 88.874 167.995 88.1918 168.388C88.11 168.436 88.0252 168.479 87.9385 168.521C87.9099 168.534 87.8793 168.546 87.8488 168.559C87.7975 168.582 87.7462 168.605 87.693 168.627C87.6841 168.631 87.6743 168.634 87.6644 168.637C87.6447 168.645 87.624 168.652 87.6043 168.659C87.5353 168.684 87.4653 168.708 87.3933 168.731C87.3696 168.739 87.345 168.746 87.3204 168.753C87.3036 168.758 87.2878 168.764 87.2721 168.768C87.2021 168.788 87.1311 168.806 87.0601 168.823C87.0453 168.827 87.0305 168.83 87.0147 168.833C86.9802 168.841 86.9457 168.849 86.9112 168.857C86.8521 168.869 86.792 168.881 86.7318 168.89C86.7259 168.891 86.72 168.892 86.7141 168.893C86.6658 168.901 86.6175 168.909 86.5682 168.916C86.5415 168.92 86.5139 168.922 86.4863 168.925C86.4292 168.932 86.372 168.939 86.3138 168.945C86.2862 168.948 86.2596 168.952 86.231 168.953C86.2054 168.955 86.1788 168.955 86.1531 168.957C86.095 168.961 86.0368 168.964 85.9776 168.967C85.9481 168.968 85.9195 168.971 85.8899 168.972C85.8465 168.973 85.8032 168.973 85.7598 168.973C85.7499 168.973 85.741 168.973 85.7312 168.973C85.6661 168.973 85.6011 168.972 85.536 168.97C85.5045 168.969 85.4719 168.967 85.4404 168.965C85.4226 168.964 85.4059 168.963 85.3881 168.962C85.3093 168.957 85.2304 168.952 85.1525 168.945C85.1377 168.943 85.1229 168.941 85.1072 168.94C85.0835 168.937 85.0608 168.934 85.0372 168.932C84.9563 168.922 84.8765 168.911 84.7976 168.898C84.7779 168.895 84.7582 168.892 84.7394 168.889C84.7306 168.887 84.7207 168.886 84.7109 168.884C84.6734 168.878 84.6369 168.869 84.5995 168.861C84.5354 168.848 84.4713 168.835 84.4082 168.82C84.3619 168.809 84.3175 168.796 84.2722 168.784C84.212 168.767 84.1529 168.751 84.0937 168.733C84.0809 168.729 84.0681 168.726 84.0553 168.722C83.9843 168.699 83.9143 168.673 83.8453 168.648C83.8354 168.644 83.8256 168.64 83.8157 168.636C83.7398 168.606 83.6659 168.575 83.5939 168.541C83.5722 168.531 83.5515 168.522 83.5308 168.512C83.451 168.473 83.3721 168.433 83.2972 168.389C83.2834 168.382 83.2686 168.373 83.2548 168.365C83.242 168.357 83.2291 168.349 83.2163 168.341C83.1956 168.328 83.1739 168.314 83.1542 168.302C83.1355 168.289 83.1168 168.277 83.099 168.264C83.0793 168.25 83.0596 168.238 83.0408 168.224C83.0231 168.211 83.0064 168.198 82.9886 168.185C82.9709 168.171 82.9521 168.158 82.9344 168.143C82.9176 168.13 82.9018 168.116 82.8861 168.102C82.8693 168.088 82.8526 168.074 82.8368 168.059C82.8299 168.053 82.823 168.047 82.8161 168.041C82.8161 168.041 82.8042 168.029 82.7983 168.024C82.7707 167.998 82.7451 167.972 82.7205 167.946C82.7116 167.937 82.7027 167.928 82.6948 167.919C82.6633 167.884 82.6327 167.85 82.6051 167.814C82.6051 167.814 82.6022 167.811 82.6012 167.81C82.5953 167.802 82.5893 167.793 82.5834 167.785C82.5667 167.762 82.5499 167.74 82.5341 167.718C82.5253 167.706 82.5184 167.693 82.5105 167.68C82.4977 167.66 82.4848 167.64 82.473 167.619C82.4701 167.613 82.4661 167.608 82.4631 167.602C82.4582 167.595 82.4543 167.586 82.4543 167.586C82.4405 167.56 82.4316 167.542 82.4227 167.526C82.4158 167.511 82.4089 167.497 82.402 167.482C82.3941 167.464 82.3872 167.448 82.3803 167.43C82.3774 167.422 82.3734 167.414 82.3734 167.414C82.3675 167.399 82.3656 167.392 82.3656 167.392C82.3567 167.369 82.3518 167.352 82.3468 167.335C82.3419 167.32 82.338 167.305 82.333 167.29C82.3281 167.273 82.3242 167.256 82.3212 167.24C82.3192 167.231 82.3163 167.222 82.3143 167.212C82.3143 167.212 82.3123 167.199 82.3113 167.193C82.3084 167.176 82.3054 167.159 82.3034 167.142C82.3015 167.127 82.2995 167.111 82.2975 167.097C82.2956 167.079 82.2946 167.062 82.2936 167.044C82.2926 167.034 82.2916 167.024 82.2916 167.014C82.2916 167.004 82.2916 166.993 82.2906 166.983L82.2798 152.85C82.2837 152.869 82.2857 152.89 82.2867 152.909Z" fill="url(#paint7_linear_681_1107)"/>
<path d="M83.305 151.421C81.9505 152.203 81.9426 153.472 83.2892 154.255C84.6359 155.038 86.8264 155.038 88.1809 154.255C89.5364 153.472 89.5433 152.203 88.1967 151.42C86.85 150.638 84.6595 150.639 83.305 151.421Z" fill="#DCDBDC"/>
<path d="M78.0211 142.641C78.023 142.679 78.025 142.719 78.029 142.757C78.0319 142.791 78.0368 142.825 78.0418 142.859C78.0467 142.897 78.0526 142.936 78.0595 142.974C78.0654 143.009 78.0733 143.042 78.0812 143.077C78.0891 143.114 78.099 143.152 78.1088 143.189C78.1177 143.224 78.1285 143.257 78.1384 143.291C78.1502 143.328 78.162 143.366 78.1749 143.402C78.1867 143.436 78.1995 143.469 78.2123 143.502C78.2281 143.541 78.2439 143.58 78.2616 143.618C78.2764 143.651 78.2912 143.683 78.307 143.716C78.3257 143.754 78.3464 143.793 78.3671 143.831C78.3839 143.863 78.4016 143.893 78.4194 143.925C78.446 143.97 78.4746 144.016 78.5041 144.062C78.5219 144.089 78.5396 144.117 78.5583 144.145C78.5929 144.195 78.6303 144.244 78.6678 144.295C78.6845 144.316 78.6993 144.338 78.7161 144.359C78.7782 144.438 78.8452 144.515 78.9162 144.592C78.9349 144.612 78.9537 144.632 78.9734 144.652C79.0296 144.71 79.0877 144.768 79.1479 144.825C79.1755 144.852 79.2041 144.877 79.2327 144.904C79.2691 144.937 79.3056 144.969 79.3441 145.001C79.3795 145.03 79.4141 145.06 79.4505 145.089C79.49 145.121 79.5304 145.152 79.5708 145.184C79.6083 145.213 79.6467 145.242 79.6861 145.27C79.7285 145.3 79.7719 145.331 79.8163 145.362C79.8567 145.389 79.8981 145.418 79.9395 145.445C79.9848 145.475 80.0322 145.505 80.0795 145.534C80.1386 145.571 80.1968 145.608 80.2579 145.644C80.4255 145.741 80.6 145.831 80.7784 145.917C80.8258 145.939 80.8731 145.961 80.9204 145.984C81.0821 146.059 81.2467 146.129 81.4153 146.195C81.437 146.204 81.4587 146.213 81.4803 146.221C81.6608 146.291 81.8471 146.353 82.0344 146.412C82.1645 146.453 82.2986 146.489 82.4327 146.525C82.5332 146.553 82.6338 146.582 82.7353 146.607C82.8763 146.642 83.0192 146.669 83.1622 146.699C83.2657 146.72 83.3682 146.743 83.4737 146.762C83.5171 146.77 83.5604 146.776 83.6048 146.783C83.7813 146.811 83.9597 146.837 84.1391 146.859C84.1914 146.864 84.2436 146.871 84.2959 146.877C84.5039 146.9 84.7129 146.918 84.9229 146.93C84.9613 146.932 84.9997 146.934 85.0392 146.935C85.2561 146.946 85.473 146.953 85.6898 146.953C85.7115 146.953 85.7332 146.952 85.7539 146.952C85.9166 146.951 86.0782 146.945 86.2409 146.938C86.371 146.933 86.5022 146.927 86.6323 146.918C86.7516 146.91 86.8709 146.899 86.9892 146.888C87.1183 146.875 87.2465 146.862 87.3746 146.845C87.5442 146.823 87.7137 146.801 87.8813 146.773C87.8941 146.771 87.907 146.769 87.9198 146.767C88.1337 146.73 88.3447 146.686 88.5527 146.639C88.5862 146.631 88.6197 146.624 88.6522 146.616C88.8494 146.569 89.0426 146.516 89.2339 146.46C89.2881 146.444 89.3423 146.427 89.3965 146.41C89.5553 146.36 89.712 146.306 89.8658 146.25C89.9102 146.233 89.9565 146.218 90.0009 146.201C90.1408 146.147 90.2759 146.086 90.411 146.026C90.477 145.997 90.545 145.97 90.6101 145.939C90.8043 145.847 90.9946 145.749 91.176 145.644C92.6981 144.764 93.4582 143.61 93.4552 142.457L93.4789 150.794C93.4818 151.947 92.7217 153.101 91.1996 153.981C91.0172 154.086 90.828 154.184 90.6338 154.277C90.5687 154.307 90.5007 154.334 90.4346 154.363C90.3193 154.415 90.2059 154.468 90.0866 154.514C90.0659 154.522 90.0442 154.529 90.0235 154.537C89.9792 154.554 89.9338 154.569 89.8895 154.586C89.7357 154.643 89.5789 154.697 89.4192 154.747C89.365 154.764 89.3118 154.781 89.2575 154.797C89.2211 154.808 89.1856 154.821 89.1491 154.831C88.9933 154.875 88.8356 154.916 88.6759 154.953C88.6424 154.961 88.6089 154.968 88.5753 154.976C88.4985 154.993 88.4216 155.012 88.3437 155.028C88.2106 155.056 88.0765 155.08 87.9425 155.104C87.9296 155.106 87.9168 155.108 87.903 155.11C87.7956 155.128 87.6871 155.145 87.5777 155.161C87.5176 155.17 87.4564 155.174 87.3953 155.182C87.2672 155.199 87.139 155.212 87.0099 155.225C86.9487 155.231 86.8876 155.241 86.8265 155.246C86.7693 155.251 86.7111 155.251 86.653 155.255C86.5229 155.264 86.3927 155.271 86.2616 155.276C86.1956 155.278 86.1305 155.284 86.0654 155.286C85.9688 155.288 85.8722 155.289 85.7756 155.289C85.7539 155.289 85.7332 155.29 85.7115 155.29C85.5656 155.29 85.4207 155.288 85.2748 155.283C85.2028 155.281 85.1319 155.276 85.0609 155.273C85.0224 155.271 84.984 155.269 84.9445 155.267C84.7681 155.256 84.5926 155.244 84.4181 155.226C84.3846 155.223 84.3511 155.218 84.3176 155.214C84.2653 155.208 84.2131 155.202 84.1618 155.196C83.9824 155.174 83.8039 155.149 83.6275 155.12C83.5841 155.113 83.5397 155.107 83.4964 155.099C83.4757 155.095 83.454 155.093 83.4333 155.089C83.3495 155.074 83.2677 155.053 83.1848 155.036C83.0419 155.007 82.898 154.979 82.758 154.944C82.6554 154.92 82.5559 154.89 82.4543 154.862C82.3203 154.826 82.1872 154.79 82.0571 154.749C82.0294 154.74 81.9999 154.733 81.9713 154.724C81.8126 154.673 81.6558 154.617 81.502 154.559C81.4803 154.55 81.4587 154.541 81.437 154.532C81.2684 154.466 81.1038 154.395 80.9421 154.321C80.8948 154.299 80.8474 154.277 80.8001 154.254C80.6217 154.167 80.4462 154.077 80.2796 153.981C80.2481 153.962 80.2165 153.943 80.185 153.925C80.1554 153.908 80.1288 153.889 80.1002 153.871C80.0529 153.842 80.0065 153.813 79.9612 153.783C79.9188 153.756 79.8784 153.727 79.837 153.7C79.7926 153.669 79.7492 153.639 79.7068 153.608C79.6674 153.579 79.629 153.551 79.5915 153.521C79.5511 153.49 79.5107 153.459 79.4712 153.427C79.4348 153.398 79.3993 153.368 79.3638 153.338C79.3263 153.306 79.2889 153.274 79.2534 153.241C79.2386 153.227 79.2218 153.214 79.207 153.201C79.1932 153.188 79.1814 153.175 79.1686 153.162C79.1084 153.105 79.0503 153.047 78.9941 152.989C78.9754 152.969 78.9556 152.949 78.9369 152.929C78.8659 152.852 78.7989 152.775 78.7368 152.696C78.7338 152.693 78.7309 152.689 78.7309 152.689C78.7141 152.667 78.7023 152.648 78.6885 152.631C78.651 152.581 78.6136 152.531 78.5791 152.481C78.5603 152.453 78.5436 152.425 78.5258 152.398C78.4962 152.352 78.4677 152.307 78.441 152.261C78.4341 152.248 78.4253 152.236 78.4184 152.223C78.4075 152.205 78.3996 152.186 78.3898 152.167C78.3691 152.129 78.3484 152.09 78.3296 152.051C78.3139 152.018 78.2991 151.986 78.2843 151.953C78.2665 151.914 78.2508 151.875 78.235 151.836C78.2281 151.818 78.2192 151.801 78.2133 151.783C78.2074 151.768 78.2035 151.752 78.1975 151.736C78.1847 151.699 78.1719 151.662 78.1611 151.625C78.1502 151.59 78.1404 151.557 78.1315 151.522C78.1216 151.485 78.1128 151.447 78.1039 151.41C78.099 151.389 78.093 151.369 78.0891 151.349C78.0861 151.335 78.0852 151.321 78.0822 151.307C78.0753 151.269 78.0694 151.23 78.0644 151.192C78.0595 151.158 78.0546 151.124 78.0516 151.09C78.0477 151.052 78.0457 151.012 78.0428 150.974C78.0418 150.951 78.0388 150.928 78.0378 150.906C78.0368 150.883 78.0369 150.86 78.0369 150.838L78.0132 142.501C78.0161 142.55 78.0191 142.595 78.0211 142.641Z" fill="url(#paint8_linear_681_1107)"/>
<path d="M80.2944 139.319C77.2709 141.066 77.2531 143.898 80.2589 145.646C83.2638 147.393 88.1545 147.393 91.1781 145.647C94.2026 143.899 94.2194 141.066 91.2135 139.319C88.2077 137.573 83.319 137.572 80.2944 139.319Z" fill="#DCDBDC"/>
<path d="M35.9568 93.9355H34.0088V122.082H35.9568V93.9355Z" fill="url(#paint9_linear_681_1107)"/>
<path d="M73.7108 102.246C73.0996 102.246 72.4903 102.071 71.9452 101.721L68.7905 99.6969L69.8424 98.0569L72.9971 100.081C73.4121 100.347 73.9188 100.364 74.3516 100.128C74.7834 99.8912 75.0417 99.4553 75.0417 98.9622V70.8159H76.9897V98.9632C76.9897 100.18 76.3528 101.254 75.2852 101.839C74.7863 102.111 74.2471 102.246 73.7108 102.246Z" fill="url(#paint10_linear_681_1107)"/>
<path d="M126.845 114.825C126.709 115.585 126.25 116.286 125.491 116.725L84.0202 140.322C81.3713 141.832 78.1082 141.794 75.4879 140.234L35.0392 116.121C34.2111 115.633 33.7339 114.835 33.6068 113.996C33.4411 112.847 33.938 111.61 35.0875 110.956L75.8093 87.7781C78.7313 86.1213 82.3246 86.1509 85.2082 87.8757L125.54 111.922C126.611 112.564 127.049 113.743 126.845 114.825Z" fill="url(#paint11_linear_681_1107)"/>
<path d="M126.894 114.825V124.656L126.864 124.676C126.972 125.708 126.523 126.79 125.491 127.385L84.0202 150.982C81.3713 152.491 78.1082 152.453 75.4878 150.894L35.0391 126.78C34.2209 126.293 33.7635 125.514 33.6363 124.685L33.5781 124.656V113.997H33.6067C33.7339 114.835 34.211 115.634 35.0391 116.122L75.4878 140.235C78.1082 141.794 81.3703 141.833 84.0202 140.323L125.491 116.726C126.25 116.287 126.709 115.586 126.845 114.826H126.894V114.825Z" fill="url(#paint12_linear_681_1107)"/>
<path d="M134.569 30.2409L97.283 8.48307C95.4346 7.4042 93.3506 7.53635 91.7298 8.47223L83.3838 13.5204L88.9666 25.5468V74.8553C88.9666 78.2428 90.7647 81.3748 93.6897 83.0819L123.847 100.679L129.201 112.211L138.324 106.784C138.445 106.719 138.562 106.649 138.676 106.574C139.816 105.828 140.616 104.553 140.616 102.995V40.7723C140.616 36.4361 138.313 32.4253 134.569 30.2409Z" fill="url(#paint13_linear_681_1107)"/>
<path d="M84.957 88.3245L125.432 111.943C128.291 113.612 131.883 111.549 131.883 108.237V46.0138C131.883 41.6766 129.58 37.6669 125.836 35.4815L88.5494 13.7236C84.8634 11.5728 80.2339 14.2325 80.2339 18.5016V80.0978C80.2339 83.4853 82.033 86.6174 84.957 88.3245Z" fill="url(#paint14_linear_681_1107)"/>
<path d="M86.9027 155.024C86.2915 155.024 85.6823 154.848 85.1371 154.498L81.9834 152.475L83.0353 150.835L86.189 152.858C86.604 153.125 87.1117 153.142 87.5435 152.906C87.9763 152.669 88.2346 152.233 88.2346 151.739V123.593H90.1826V151.739C90.1826 152.956 89.5458 154.031 88.4771 154.616C87.9793 154.889 87.441 155.024 86.9027 155.024Z" fill="url(#paint15_linear_681_1107)"/>
<path d="M127.936 131.904C127.325 131.904 126.716 131.729 126.171 131.379L123.017 129.355L124.069 127.715L127.223 129.739C127.638 130.006 128.145 130.022 128.577 129.786C129.01 129.549 129.268 129.114 129.268 128.62V100.473H131.216V128.62C131.216 129.836 130.579 130.911 129.512 131.496C129.013 131.769 128.474 131.904 127.936 131.904Z" fill="url(#paint16_linear_681_1107)"/>
<path d="M92.5983 119.596V125.238C92.5983 125.667 92.3943 126.018 92.0828 126.232L91.8678 126.36C91.5268 126.525 91.1088 126.525 90.7282 126.302L86.9102 124.041C86.2378 123.642 85.8188 122.911 85.8188 122.132V116.43C85.8188 115.475 86.5296 114.755 87.3774 114.627C87.757 114.559 88.1562 114.617 88.5368 114.831L90.4069 115.864C91.7604 116.624 92.5983 118.046 92.5983 119.596Z" fill="#3D3D3D"/>
<path d="M38.5662 90.7209V96.3637C38.5662 96.7927 38.3621 97.1428 38.0506 97.3578L37.8357 97.485C37.4946 97.6507 37.0766 97.6507 36.6961 97.4268L32.8779 95.1665C32.2056 94.7671 31.7866 94.0364 31.7866 93.2573V87.5553C31.7866 86.6007 32.4974 85.8798 33.3452 85.7525C33.7248 85.6845 34.124 85.7427 34.5046 85.9567L36.3747 86.9892C37.7282 87.7495 38.5662 89.1716 38.5662 90.7209Z" fill="#3D3D3D"/>
<path d="M78.5032 66.9943V72.6372C78.5032 73.0366 78.3179 73.3679 78.0448 73.5819L78.0547 73.5918L77.9965 73.6214C77.9285 73.6796 77.8506 73.719 77.7727 73.7575L38.0486 97.3566C38.3602 97.1426 38.5642 96.7915 38.5642 96.3625V90.7196C38.5642 89.1703 37.7263 87.7483 36.3727 86.988L34.5026 85.9554C34.123 85.7414 33.7228 85.6833 33.3433 85.7513V85.7414L72.4828 62.3564C73.0279 61.9668 73.7781 61.8495 74.4406 62.2301L76.3107 63.2627C77.6663 64.0131 78.5032 65.4451 78.5032 66.9943Z" fill="url(#paint17_linear_681_1107)"/>
<path d="M79.4893 38.2446C83.7116 37.1588 108.319 49.4662 108.922 52.9661C109.526 56.4651 104.459 72.2734 102.891 79.6342C101.323 86.9949 100.599 94.476 100.599 94.476C100.599 94.476 90.6854 99.8339 78.4532 95.1032C66.221 90.3726 70.9254 81.926 70.9254 81.926C70.9254 81.926 76.2222 47.6566 77.2524 43.4328C78.2836 39.2091 79.4893 38.2446 79.4893 38.2446Z" fill="url(#paint18_linear_681_1107)"/>
<path d="M79.4882 38.2449C79.4882 38.2449 77.8981 39.1679 73.1513 44.084C68.4045 49 59.4226 56.8835 57.8127 56.3746C56.2029 55.8658 45.3568 45.7792 45.3568 45.7792C45.3568 45.7792 45.1872 48.4912 42.6457 49.7633C40.1033 51.0345 38.8325 50.7801 38.8325 50.7801C38.8325 50.7801 49.0852 67.0746 55.5256 67.616C61.9651 68.1574 74.909 56.7819 74.909 56.7819C74.909 56.7819 77.5235 40.2882 79.4882 38.2449Z" fill="url(#paint19_linear_681_1107)"/>
<path d="M108.921 52.9655C106.205 53.1104 102.834 56.6676 102.947 63.2C103.059 69.7323 102.944 78.8554 102.944 78.8554L106.825 87.0071C106.825 87.0071 110.04 85.943 111.053 77.1622C112.067 68.3813 112.868 52.7554 108.921 52.9655Z" fill="url(#paint20_linear_681_1107)"/>
<path d="M102.945 78.8561C102.945 78.8561 105.955 78.2792 107.414 81.0089C108.874 83.7386 107.816 86.9979 106.42 87.1882C105.024 87.3785 91.2512 86.6271 91.2512 86.6271C91.2512 86.6271 92.521 83.3155 91.2512 81.0927C89.9814 78.8709 88.8389 78.8088 88.8389 78.8088L102.945 78.8561Z" fill="url(#paint21_linear_681_1107)"/>
<path d="M91.74 86.6281C91.74 86.6281 91.7075 86.7228 91.6474 86.8766C91.3723 87.5768 90.5166 89.5038 89.5042 89.348C88.2689 89.1576 82.1104 86.4269 81.7309 85.1577C81.3523 83.8875 82.556 82.1736 81.7309 82.0464C80.9057 81.9192 77.0492 84.7998 75.8041 83.8668C74.559 82.9349 82.1952 78.363 83.7715 78.363C85.3479 78.363 90.1765 79.6283 90.1765 79.6283C90.1765 79.6283 91.8899 81.1381 91.7933 83.0138" fill="url(#paint22_linear_681_1107)"/>
<path d="M45.4648 46.8952C45.4648 46.8952 38.9938 39.3471 36.9314 39.2416C34.8701 39.136 32.2793 39.4536 31.8564 40.8283C31.4335 42.203 32.2793 43.7898 28.473 44.4771C24.6667 45.1645 24.719 46.2226 25.618 46.2226C26.5171 46.2226 33.6654 44.7345 34.7114 45.3765C35.7573 46.0185 36.0363 46.6211 35.2891 46.8962C34.5418 47.1713 33.2839 46.8962 33.2839 46.8962C33.2839 46.8962 34.9687 48.8291 37.0902 48.9198C39.2117 49.0105 40.5751 50.5776 40.5751 50.5776C40.5751 50.5776 44.5352 49.7373 45.4648 46.8952Z" fill="url(#paint23_linear_681_1107)"/>
<path d="M86.2015 39.9202C86.2015 39.9202 85.3133 43.857 85.2452 44.0592C85.1782 44.2613 85.1782 50.8628 86.929 50.7947C88.6799 50.7277 96.5862 45.9566 96.9086 44.57C97.231 43.1835 97.9043 34.4263 97.9043 34.4263L86.2015 39.9202Z" fill="url(#paint24_linear_681_1107)"/>
<path d="M85.7845 22.8408C85.7845 22.8408 84.707 26.9501 84.9091 27.5557C85.1112 28.1622 85.334 28.4314 85.334 28.4314C85.334 28.4314 84.5049 29.4422 84.1678 30.1158C83.8306 30.7893 83.2923 36.515 83.2253 37.1886C83.1583 37.8621 85.9511 40.3433 87.4161 40.2141C88.881 40.085 94.2676 40.0179 97.6352 37.4578C101.003 34.8977 103.292 30.1158 102.484 27.2864C101.675 24.4571 96.1535 22.3694 95.6153 22.3694C95.077 22.3694 85.7845 22.8408 85.7845 22.8408Z" fill="url(#paint25_linear_681_1107)"/>
<path d="M84.5966 21.3595C83.8356 22.8644 89.1522 28.028 92.1146 28.1631C95.077 28.2982 97.097 26.4117 97.03 27.3545C96.9629 28.2973 95.8184 30.1158 95.8854 31.2942C95.9524 32.4737 95.6163 33.4835 95.8854 33.8208C96.1545 34.1581 98.1075 30.3179 99.3191 30.5871C100.531 30.8564 98.1745 35.1679 97.9054 36.3129C97.6362 37.4578 101.743 36.9193 104.302 32.9451C106.862 28.9708 107.333 24.7273 106.457 23.9187C105.582 23.11 107.283 18.9809 102.282 16.6437C97.2823 14.3074 86.6403 17.3172 84.5966 21.3595Z" fill="url(#paint26_linear_681_1107)"/>
<path d="M100.599 94.4751C100.599 94.4751 105.335 106.385 96.6785 110.659C88.0229 114.933 68.5606 126.886 68.5606 126.886C68.5606 126.886 66.4243 147.205 62.3893 160.627C58.3543 174.05 55.9814 179.385 55.9814 179.385C55.9814 179.385 54.4237 182.334 47.3879 181.333C41.8702 180.548 41.5034 177.849 41.5034 177.849C41.5034 177.849 49.3359 145.287 49.0983 125.599C49.0983 125.599 51.4672 111.041 78.4524 95.1033C78.4534 95.1033 90.1533 99.8971 100.599 94.4751Z" fill="url(#paint27_linear_681_1107)"/>
<path d="M70.0361 86.0246C70.0361 86.0246 45.6565 84.3008 35.391 89.3559C25.1256 94.411 37.6368 102.298 44.0545 102.728C50.4723 103.158 69.0335 101.291 69.0335 101.291L78.4532 95.1023C78.4532 95.1033 70.9697 92.344 70.0361 86.0246Z" fill="url(#paint28_linear_681_1107)"/>
<path d="M31.4876 92.9064C31.4876 92.9064 42.9055 89.9242 49.0462 98.0118C55.187 106.099 70.0346 128.973 70.0346 128.973C70.0346 128.973 64.2034 128.319 61.8512 130.672C59.499 133.025 59.1599 134.724 59.1599 134.724C59.1599 134.724 27.2564 105.725 31.4876 92.9064Z" fill="url(#paint29_linear_681_1107)"/>
<path d="M97.2083 42.3286L87.2998 47.4005L89.0526 52.9398L98.2987 45.299L97.2083 42.3286Z" fill="url(#paint30_linear_681_1107)"/>
<path d="M86.2017 39.9201L85.346 46.9919L80.5933 48.6092L84.162 38.5L86.2017 39.9201Z" fill="url(#paint31_linear_681_1107)"/>
<path d="M71.0199 129.058C71.0199 129.058 67.5478 126.812 63.9959 128.324C60.4439 129.835 58.5551 134.414 58.5551 134.414C58.5551 134.414 53.0285 141.585 52.6825 144.694C52.3374 147.804 54.317 149.635 54.317 149.635L73.2361 133.105L71.0199 129.058Z" fill="url(#paint32_linear_681_1107)"/>
<path d="M71.6832 132.168C71.4624 132.158 71.2406 132.166 71.0188 132.189C67.2539 132.585 63.3786 137.534 59.6108 140.634C55.6211 143.917 52.9436 146.076 53.8939 148.841C54.8443 151.605 58.4554 150.647 63.2997 146.159C68.1441 141.671 73.5839 137.092 74.1025 134.501C74.619 131.909 71.6832 132.168 71.6832 132.168Z" fill="#646D8E"/>
<path d="M132.537 95.8696V101.512C132.537 101.912 132.352 102.243 132.079 102.457L132.088 102.467L132.03 102.497C131.962 102.555 131.884 102.594 131.806 102.633L92.0823 126.232C92.3938 126.018 92.5979 125.667 92.5979 125.238V119.595C92.5979 118.046 91.76 116.624 90.4064 115.863L88.5363 114.831C88.1567 114.617 87.7565 114.558 87.377 114.627V114.617L126.516 91.2316C127.062 90.8421 127.812 90.7247 128.474 91.1054L130.344 92.1379C131.7 92.8884 132.537 94.3203 132.537 95.8696Z" fill="url(#paint33_linear_681_1107)"/>
<path d="M6.14987 78.5374C6.05422 78.42 6.00098 78.3668 6.00098 78.3668V75.929C6.00098 76.8027 6.04338 77.6755 6.14987 78.5374Z" fill="url(#paint34_linear_681_1107)"/>
<path opacity="0.6" d="M41.5037 77.1177C28.8693 72.8082 18.7143 66.3912 12.5558 58.7197C8.59766 53.7918 6.28884 48.3423 6.02266 42.6057H6.00098V75.9304C6.00098 76.8031 6.04337 77.6759 6.14984 78.5378C7.67689 92.57 21.4736 104.706 41.5028 111.54V77.1177H41.5037Z" fill="url(#paint35_linear_681_1107)"/>
<path opacity="0.6" d="M151.904 73.7912V43.6489C151.425 49.0028 149.169 54.0905 145.446 58.7206C133.944 73.0466 108.515 83.0089 79.0007 83.0089C67.9909 83.0089 57.5499 81.6214 48.1875 79.1392V113.568C57.5499 116.051 67.9889 117.441 79.0007 117.441C119.314 117.441 152 98.8577 152 75.9322C152 75.2172 151.968 74.5042 151.904 73.7912Z" fill="url(#paint36_linear_681_1107)"/>
<path d="M70.9971 88.0857C64.4876 88.0857 59.2104 93.3647 59.2104 99.8763C59.2104 106.388 64.4876 111.667 70.9971 111.667C77.5075 111.667 82.7847 106.388 82.7847 99.8763C82.7837 93.3647 77.5065 88.0857 70.9971 88.0857ZM70.9961 109.248C65.8224 109.248 61.6287 105.053 61.6287 99.8763C61.6287 94.6999 65.8234 90.5048 70.9971 90.5048C76.1707 90.5048 80.3644 94.6999 80.3644 99.8763C80.3644 105.053 76.1707 109.248 70.9961 109.248Z" fill="url(#paint37_linear_681_1107)"/>
<path opacity="0.36" d="M139.328 70.8643V73.6847C128.434 82.7634 111.367 89.2455 91.5664 91.204V88.3727C111.367 86.4142 128.434 79.9321 139.328 70.8643Z" fill="white"/>
<path opacity="0.36" d="M139.328 77.2183V80.0496C128.434 89.1174 111.367 95.5995 91.5664 97.558V94.7267C111.367 92.779 128.434 86.2969 139.328 77.2183Z" fill="white"/>
<path opacity="0.36" d="M139.328 83.572V86.3925C128.434 95.4712 111.367 101.953 91.5664 103.912V101.081C111.367 99.1328 128.434 92.6507 139.328 83.572Z" fill="white"/>
<path opacity="0.36" d="M134.774 93.3047C123.947 100.591 108.803 105.739 91.5654 107.44V110.266C108.804 108.565 123.948 103.416 134.774 96.1301V93.3047Z" fill="white"/>
<g opacity="0.36">
<path opacity="0.36" d="M143.536 84.3265L142.253 85.6046V77.4026L143.536 76.1255V84.3265Z" fill="white"/>
<path opacity="0.36" d="M146.003 82.2239L144.72 83.502V72.7991L146.003 71.522V82.2239Z" fill="white"/>
<path opacity="0.36" d="M148.469 79.3453L147.186 80.6224V66.3052L148.469 65.0271V79.3453Z" fill="white"/>
<path opacity="0.36" d="M150.936 75.6224L149.653 76.9005V68.6985L150.936 67.4204V75.6224Z" fill="white"/>
</g>
<g opacity="0.6">
<path opacity="0.6" d="M30.1555 77.7192C29.1312 77.2557 28.1375 76.7725 27.1772 76.2705V97.5107C28.1335 98.0521 29.1184 98.5787 30.1555 99.0787V77.7192Z" fill="white"/>
<path opacity="0.6" d="M22.2617 94.2956C23.1914 95.0056 24.192 95.6891 25.239 96.3518V83.9457C24.2019 83.3451 23.2091 82.7219 22.2617 82.074V94.2956Z" fill="white"/>
<path opacity="0.6" d="M32.0938 82.0732V99.9624C33.0323 100.373 33.9885 100.771 34.9832 101.147V83.1886C33.9954 82.8346 33.0342 82.4608 32.0938 82.0732Z" fill="white"/>
<path opacity="0.6" d="M15.4085 75.2706C15.0989 74.9205 14.8002 74.5665 14.5124 74.2085C13.768 73.2815 13.1046 72.3377 12.5239 71.3792V77.7252C12.5239 78.3395 12.5555 78.8918 12.6215 79.4342C12.9074 82.0574 13.8676 84.6126 15.4085 87.0425V75.2706Z" fill="white"/>
<path opacity="0.6" d="M20.3234 75.8653C19.2627 75.0488 18.267 74.2026 17.3452 73.3259V89.6609C18.2275 90.7042 19.2193 91.717 20.3234 92.6933V75.8653Z" fill="white"/>
</g>
<path opacity="0.4" d="M22.2611 94.3318C12.4787 89.3556 4.77537 83.1062 0 76.0393V109.488C4.77537 116.557 12.4777 122.81 22.2611 127.789V94.3318Z" fill="url(#paint38_linear_681_1107)"/>
<path opacity="0.4" d="M28.7142 32.1296C20.0733 27.7342 13.2701 22.2136 9.05176 15.9731V45.5178C13.2691 51.7613 20.0724 57.2848 28.7142 61.6821V32.1296Z" fill="url(#paint39_linear_681_1107)"/>
<path opacity="0.6" d="M121.915 34.9104V64.465C132.312 60.1998 140.671 54.4534 146.003 47.7711V18.2195C140.671 24.9018 132.311 30.6472 121.915 34.9104Z" fill="url(#paint40_linear_681_1107)"/>
<path opacity="0.4" d="M0 76.0405V79.6785C4.77636 86.7444 12.4787 92.9947 22.2611 97.971V94.333C12.4787 89.3568 4.77537 83.1064 0 76.0405Z" fill="url(#paint41_linear_681_1107)"/>
<path opacity="0.6" d="M4.9165 90.2297V92.2603C7.58317 96.2059 11.8834 99.695 17.3458 102.473V100.443C11.8834 97.6645 7.58218 94.1744 4.9165 90.2297Z" fill="white"/>
<path opacity="0.6" d="M4.9165 94.4751V96.5056C7.58317 100.451 11.8834 103.94 17.3458 106.718V104.688C11.8834 101.91 7.58218 98.4208 4.9165 94.4751Z" fill="white"/>
<path opacity="0.6" d="M4.9165 98.7214V100.752C7.58317 104.698 11.8834 108.187 17.3458 110.965V108.934C11.8834 106.156 7.58218 102.667 4.9165 98.7214Z" fill="white"/>
<path opacity="0.6" d="M4.9165 102.968V104.999C7.58317 108.944 11.8834 112.433 17.3458 115.211V113.181C11.8834 110.403 7.58218 106.913 4.9165 102.968Z" fill="white"/>
<path opacity="0.6" d="M23.6863 40.6668C23.1746 34.4224 19.8524 29.3604 16.2669 29.3604C12.6804 29.3604 10.1882 34.4224 10.6999 40.6668C11.2115 46.9112 14.5338 51.9732 18.1193 51.9732C21.7057 51.9732 24.1979 46.9112 23.6863 40.6668ZM17.8807 49.0581C15.219 49.0581 12.7544 45.3008 12.3738 40.6668C11.9943 36.0328 13.8437 32.2755 16.5055 32.2755C19.1662 32.2755 21.6318 36.0318 22.0123 40.6668C22.3909 45.3008 20.5415 49.0581 17.8807 49.0581Z" fill="white"/>
<defs>
<linearGradient id="paint0_linear_681_1107" x1="19.2809" y1="16.6658" x2="35.5503" y2="45.9406" gradientUnits="userSpaceOnUse">
<stop stop-color="#4C6FBF"/>
<stop offset="1" stop-color="#8CA3D8"/>
</linearGradient>
<linearGradient id="paint1_linear_681_1107" x1="85.9217" y1="-9.10798" x2="128.768" y2="67.9884" gradientUnits="userSpaceOnUse">
<stop stop-color="#4C6FBF"/>
<stop offset="1" stop-color="#8CA3D8"/>
</linearGradient>
<linearGradient id="paint2_linear_681_1107" x1="30.9403" y1="188.542" x2="52.5935" y2="182.681" gradientUnits="userSpaceOnUse">
<stop stop-color="#4E5883"/>
<stop offset="1" stop-color="#262847"/>
</linearGradient>
<linearGradient id="paint3_linear_681_1107" x1="113.493" y1="178.75" x2="55.2869" y2="178.75" gradientUnits="userSpaceOnUse">
<stop stop-color="#5D6060"/>
<stop offset="1" stop-color="#434444"/>
</linearGradient>
<linearGradient id="paint4_linear_681_1107" x1="113.456" y1="175.988" x2="55.9243" y2="175.988" gradientUnits="userSpaceOnUse">
<stop stop-color="#737677"/>
<stop offset="1" stop-color="#D8DADD"/>
</linearGradient>
<linearGradient id="paint5_linear_681_1107" x1="92.3354" y1="170.502" x2="79.1615" y2="170.502" gradientUnits="userSpaceOnUse">
<stop stop-color="#747777"/>
<stop offset="1" stop-color="#D8DADD"/>
</linearGradient>
<linearGradient id="paint6_linear_681_1107" x1="79.1623" y1="166.831" x2="92.316" y2="166.831" gradientUnits="userSpaceOnUse">
<stop stop-color="#5A5D5D"/>
<stop offset="1" stop-color="#D8DADD"/>
</linearGradient>
<linearGradient id="paint7_linear_681_1107" x1="89.2122" y1="160.902" x2="82.2838" y2="160.902" gradientUnits="userSpaceOnUse">
<stop stop-color="#747777"/>
<stop offset="1" stop-color="#D8DADD"/>
</linearGradient>
<linearGradient id="paint8_linear_681_1107" x1="93.4804" y1="148.876" x2="78.0155" y2="148.876" gradientUnits="userSpaceOnUse">
<stop stop-color="#747777"/>
<stop offset="1" stop-color="#D8DADD"/>
</linearGradient>
<linearGradient id="paint9_linear_681_1107" x1="34.0086" y1="108.008" x2="35.9566" y2="108.008" gradientUnits="userSpaceOnUse">
<stop stop-color="#747777"/>
<stop offset="1" stop-color="#D8DADD"/>
</linearGradient>
<linearGradient id="paint10_linear_681_1107" x1="68.7903" y1="86.5312" x2="76.99" y2="86.5312" gradientUnits="userSpaceOnUse">
<stop stop-color="#747777"/>
<stop offset="1" stop-color="#D8DADD"/>
</linearGradient>
<linearGradient id="paint11_linear_681_1107" x1="83.317" y1="92.9948" x2="76.9942" y2="135.899" gradientUnits="userSpaceOnUse">
<stop stop-color="#5D6060"/>
<stop offset="1" stop-color="#969696"/>
</linearGradient>
<linearGradient id="paint12_linear_681_1107" x1="116.213" y1="133.412" x2="43.966" y2="132.963" gradientUnits="userSpaceOnUse">
<stop stop-color="#5D6060"/>
<stop offset="1" stop-color="#969696"/>
</linearGradient>
<linearGradient id="paint13_linear_681_1107" x1="109.691" y1="16.7962" x2="119.545" y2="95.8326" gradientUnits="userSpaceOnUse">
<stop stop-color="#5D6060"/>
<stop offset="1" stop-color="#969696"/>
</linearGradient>
<linearGradient id="paint14_linear_681_1107" x1="100.133" y1="93.7047" x2="110.806" y2="38.9917" gradientUnits="userSpaceOnUse">
<stop stop-color="#5D6060"/>
<stop offset="1" stop-color="#969696"/>
</linearGradient>
<linearGradient id="paint15_linear_681_1107" x1="81.9839" y1="139.309" x2="90.1837" y2="139.309" gradientUnits="userSpaceOnUse">
<stop stop-color="#747777"/>
<stop offset="1" stop-color="#D8DADD"/>
</linearGradient>
<linearGradient id="paint16_linear_681_1107" x1="123.017" y1="116.189" x2="131.217" y2="116.189" gradientUnits="userSpaceOnUse">
<stop stop-color="#747777"/>
<stop offset="1" stop-color="#D8DADD"/>
</linearGradient>
<linearGradient id="paint17_linear_681_1107" x1="54.0725" y1="74.2069" x2="59.8689" y2="84.4083" gradientUnits="userSpaceOnUse">
<stop stop-color="#5D6060"/>
<stop offset="1" stop-color="#969696"/>
</linearGradient>
<linearGradient id="paint18_linear_681_1107" x1="70.0357" y1="67.6153" x2="108.972" y2="67.6153" gradientUnits="userSpaceOnUse">
<stop stop-color="white"/>
<stop offset="1" stop-color="#D8DADD"/>
</linearGradient>
<linearGradient id="paint19_linear_681_1107" x1="38.8319" y1="52.9394" x2="79.4884" y2="52.9394" gradientUnits="userSpaceOnUse">
<stop stop-color="#FFAC06"/>
<stop offset="1" stop-color="#FF9008"/>
</linearGradient>
<linearGradient id="paint20_linear_681_1107" x1="102.944" y1="69.9859" x2="111.882" y2="69.9859" gradientUnits="userSpaceOnUse">
<stop stop-color="#FFAC06"/>
<stop offset="1" stop-color="#FF9008"/>
</linearGradient>
<linearGradient id="paint21_linear_681_1107" x1="97.9809" y1="78.9015" x2="99.3373" y2="84.5191" gradientUnits="userSpaceOnUse">
<stop stop-color="#FFAC06"/>
<stop offset="1" stop-color="#FF9008"/>
</linearGradient>
<linearGradient id="paint22_linear_681_1107" x1="75.6675" y1="83.8601" x2="91.7976" y2="83.8601" gradientUnits="userSpaceOnUse">
<stop stop-color="#FFC5C5"/>
<stop offset="1" stop-color="#DE8B8B"/>
</linearGradient>
<linearGradient id="paint23_linear_681_1107" x1="34.1519" y1="41.7087" x2="35.5201" y2="47.3753" gradientUnits="userSpaceOnUse">
<stop stop-color="#FFC5C5"/>
<stop offset="1" stop-color="#DE8B8B"/>
</linearGradient>
<linearGradient id="paint24_linear_681_1107" x1="85.719" y1="43.9765" x2="95.5687" y2="41.9831" gradientUnits="userSpaceOnUse">
<stop stop-color="#FFC5C5"/>
<stop offset="1" stop-color="#DE8B8B"/>
</linearGradient>
<linearGradient id="paint25_linear_681_1107" x1="85.5497" y1="30.2672" x2="94.8556" y2="31.8982" gradientUnits="userSpaceOnUse">
<stop stop-color="#FFC5C5"/>
<stop offset="1" stop-color="#DE8B8B"/>
</linearGradient>
<linearGradient id="paint26_linear_681_1107" x1="94.8848" y1="19.9606" x2="97.2319" y2="29.6808" gradientUnits="userSpaceOnUse">
<stop stop-color="#4E5883"/>
<stop offset="1" stop-color="#262847"/>
</linearGradient>
<linearGradient id="paint27_linear_681_1107" x1="54.8447" y1="107.077" x2="68.4686" y2="131.591" gradientUnits="userSpaceOnUse">
<stop stop-color="#4E5883"/>
<stop offset="1" stop-color="#262847"/>
</linearGradient>
<linearGradient id="paint28_linear_681_1107" x1="52.9882" y1="85.3281" x2="56.0673" y2="99.8629" gradientUnits="userSpaceOnUse">
<stop stop-color="#4E5883"/>
<stop offset="1" stop-color="#262847"/>
</linearGradient>
<linearGradient id="paint29_linear_681_1107" x1="41.8626" y1="115.566" x2="56.7368" y2="108.046" gradientUnits="userSpaceOnUse">
<stop stop-color="#4E5883"/>
<stop offset="1" stop-color="#262847"/>
</linearGradient>
<linearGradient id="paint30_linear_681_1107" x1="88.2578" y1="46.7796" x2="93.6458" y2="47.7239" gradientUnits="userSpaceOnUse">
<stop stop-color="#FFAC06"/>
<stop offset="1" stop-color="#FF9008"/>
</linearGradient>
<linearGradient id="paint31_linear_681_1107" x1="81.852" y1="43.4623" x2="84.1176" y2="43.8593" gradientUnits="userSpaceOnUse">
<stop stop-color="#FFAC06"/>
<stop offset="1" stop-color="#FF9008"/>
</linearGradient>
<linearGradient id="paint32_linear_681_1107" x1="55.37" y1="137.766" x2="64.762" y2="139.412" gradientUnits="userSpaceOnUse">
<stop stop-color="#4E5883"/>
<stop offset="1" stop-color="#262847"/>
</linearGradient>
<linearGradient id="paint33_linear_681_1107" x1="108.106" y1="103.082" x2="113.902" y2="113.284" gradientUnits="userSpaceOnUse">
<stop stop-color="#5D6060"/>
<stop offset="1" stop-color="#969696"/>
</linearGradient>
<linearGradient id="paint34_linear_681_1107" x1="5.46558" y1="76.1849" x2="5.97297" y2="77.0981" gradientUnits="userSpaceOnUse">
<stop stop-color="#4E5883"/>
<stop offset="1" stop-color="#262847"/>
</linearGradient>
<linearGradient id="paint35_linear_681_1107" x1="3.80864" y1="43.8244" x2="41.4563" y2="111.567" gradientUnits="userSpaceOnUse">
<stop stop-color="#4C6FBF"/>
<stop offset="1" stop-color="#8CA3D8"/>
</linearGradient>
<linearGradient id="paint36_linear_681_1107" x1="88.0404" y1="56.9906" x2="118.594" y2="111.968" gradientUnits="userSpaceOnUse">
<stop stop-color="#4C6FBF"/>
<stop offset="1" stop-color="#8CA3D8"/>
</linearGradient>
<linearGradient id="paint37_linear_681_1107" x1="65.2716" y1="89.5676" x2="76.7282" y2="110.182" gradientUnits="userSpaceOnUse">
<stop stop-color="#FFAC06"/>
<stop offset="1" stop-color="#FF9008"/>
</linearGradient>
<linearGradient id="paint38_linear_681_1107" x1="-2.47365" y1="77.4145" x2="24.7526" y2="126.405" gradientUnits="userSpaceOnUse">
<stop stop-color="#FFAC06"/>
<stop offset="1" stop-color="#FF9008"/>
</linearGradient>
<linearGradient id="paint39_linear_681_1107" x1="6.86651" y1="17.1866" x2="30.9147" y2="60.4584" gradientUnits="userSpaceOnUse">
<stop stop-color="#FFAC06"/>
<stop offset="1" stop-color="#FF9008"/>
</linearGradient>
<linearGradient id="paint40_linear_681_1107" x1="126.987" y1="28.7883" x2="141.218" y2="54.3948" gradientUnits="userSpaceOnUse">
<stop stop-color="#4C6FBF"/>
<stop offset="1" stop-color="#8CA3D8"/>
</linearGradient>
<linearGradient id="paint41_linear_681_1107" x1="3.85208" y1="73.8993" x2="18.4166" y2="100.106" gradientUnits="userSpaceOnUse">
<stop stop-color="#FFAC06"/>
<stop offset="1" stop-color="#FF9008"/>
</linearGradient>
</defs>
</svg>
