<svg width="36" height="99" viewBox="0 0 36 99" fill="none" xmlns="http://www.w3.org/2000/svg">
<path d="M35.074 1.64795C35.074 0.819522 34.4024 0.147949 33.574 0.147949C32.7455 0.147949 32.074 0.819522 32.074 1.64795H35.074ZM28.7612 45.5L27.4788 44.7219L28.7612 45.5ZM16.7614 62.5L17.6781 63.6873L16.7614 62.5ZM5.76139 64L6.23574 62.577L5.76139 64ZM2.76131 50.5L1.33829 50.0256L1.33828 50.0257L2.76131 50.5ZM22.509 52.5L23.8991 51.9364L22.509 52.5ZM21.3261 79.9554L22.6596 80.6424L21.3261 79.9554ZM3.28406 94.7393C3.14009 95.5551 3.68473 96.3332 4.50055 96.4772L17.7951 98.8233C18.611 98.9672 19.389 98.4226 19.533 97.6068C19.677 96.791 19.1323 96.0129 18.3165 95.8689L6.49908 93.7835L8.58451 81.9661C8.72848 81.1503 8.18383 80.3722 7.36801 80.2282C6.55219 80.0843 5.77413 80.6289 5.63016 81.4447L3.28406 94.7393ZM7.93411 94.6228C8.61434 94.15 8.78245 93.2152 8.3096 92.535C7.83675 91.8548 6.902 91.6867 6.22178 92.1595L7.93411 94.6228ZM10.7503 88.8955C10.0908 89.3968 9.96267 90.3379 10.464 90.9974C10.9654 91.6568 11.9065 91.785 12.566 91.2836L10.7503 88.8955ZM17.0193 87.5897C17.6284 87.0282 17.6669 86.0792 17.1054 85.4701C16.5439 84.8611 15.5949 84.8225 14.9858 85.384L17.0193 87.5897ZM18.6174 81.4431C18.1229 82.1077 18.2608 83.0474 18.9255 83.5419C19.5901 84.0364 20.5298 83.8985 21.0243 83.2338L18.6174 81.4431ZM24.1919 77.2777C24.4973 76.5076 24.1205 75.6357 23.3504 75.3304C22.5804 75.025 21.7085 75.4017 21.4032 76.1718L24.1919 77.2777ZM23.2051 69.6588C23.0748 70.477 23.6325 71.2458 24.4506 71.376C25.2687 71.5063 26.0375 70.9486 26.1678 70.1305L23.2051 69.6588ZM26.4785 62.7055C26.4174 61.8793 25.6981 61.2591 24.8719 61.3202C24.0457 61.3813 23.4255 62.1006 23.4867 62.9268L26.4785 62.7055ZM22.2485 56.2765C22.485 57.0705 23.3203 57.5225 24.1142 57.286C24.9082 57.0496 25.3602 56.2143 25.1237 55.4203L22.2485 56.2765ZM22.1032 48.8423C21.5929 48.1897 20.6502 48.0744 19.9976 48.5846C19.345 49.0949 19.2296 50.0376 19.7399 50.6902L22.1032 48.8423ZM15.3397 47.3079C16.0974 47.6428 16.9831 47.3 17.318 46.5422C17.6529 45.7845 17.3101 44.8988 16.5523 44.5639L15.3397 47.3079ZM9.5981 43.4053C8.77462 43.4958 8.18037 44.2366 8.2708 45.0601C8.36123 45.8836 9.1021 46.4778 9.92557 46.3874L9.5981 43.4053ZM5.42428 48.6835C5.95187 48.0448 5.8618 47.0994 5.22311 46.5718C4.58441 46.0442 3.63894 46.1342 3.11135 46.7729L5.42428 48.6835ZM0.485023 54.0242C0.395091 54.8477 0.989791 55.5882 1.81332 55.6782C2.63685 55.7681 3.37736 55.1734 3.46729 54.3499L0.485023 54.0242ZM4.31396 60.8512C3.9194 60.1227 3.00904 59.8521 2.2806 60.2466C1.55217 60.6412 1.28151 61.5515 1.67607 62.28L4.31396 60.8512ZM8.51218 65.9506C9.34005 65.981 10.0358 65.3345 10.0661 64.5066C10.0965 63.6787 9.44998 62.983 8.62211 62.9526L8.51218 65.9506ZM13.755 62.2818C12.9635 62.5262 12.52 63.3661 12.7645 64.1576C13.009 64.9492 13.8488 65.3926 14.6403 65.1482L13.755 62.2818ZM21.3511 59.4416C21.8426 58.7747 21.7003 57.8356 21.0334 57.3442C20.3665 56.8527 19.4275 56.9949 18.936 57.6619L21.3511 59.4416ZM24.7322 49.1064C24.2852 49.8039 24.4883 50.7317 25.1858 51.1787C25.8833 51.6257 26.8111 51.4226 27.2581 50.7251L24.7322 49.1064ZM31.905 42.8677C32.2671 42.1226 31.9566 41.2251 31.2115 40.863C30.4664 40.5009 29.5688 40.8114 29.2067 41.5565L31.905 42.8677ZM31.6789 34.8277C31.4732 35.6302 31.9569 36.4475 32.7593 36.6533C33.5618 36.8591 34.3791 36.3754 34.5849 35.5729L31.6789 34.8277ZM35.8073 27.9321C35.8693 27.106 35.2498 26.3861 34.4237 26.3241C33.5976 26.2621 32.8777 26.8815 32.8157 27.7076L35.8073 27.9321ZM32.9244 20.3868C32.9507 21.2148 33.6433 21.8647 34.4713 21.8384C35.2993 21.8121 35.9492 21.1195 35.9229 20.2915L32.9244 20.3868ZM35.5233 12.772C35.4713 11.9453 34.7589 11.3171 33.9321 11.3691C33.1053 11.4211 32.4772 12.1335 32.5292 12.9603L35.5233 12.772ZM32.1384 5.44062C32.1653 6.26862 32.8582 6.91807 33.6862 6.89122C34.5142 6.86437 35.1637 6.17138 35.1368 5.34339L32.1384 5.44062ZM5.62142 96.2289C6.33096 95.7322 7.10066 95.2022 7.93411 94.6228L6.22178 92.1595C5.40535 92.727 4.61382 93.2722 3.90104 93.7711L5.62142 96.2289ZM12.566 91.2836C14.0743 90.1369 15.5988 88.8993 17.0193 87.5897L14.9858 85.384C13.6557 86.6103 12.2095 87.786 10.7503 88.8955L12.566 91.2836ZM21.0243 83.2338C21.6459 82.3985 22.2005 81.5335 22.6596 80.6424L19.9927 79.2685C19.6212 79.9897 19.1587 80.7156 18.6174 81.4431L21.0243 83.2338ZM22.6596 80.6424C23.235 79.5254 23.7455 78.4035 24.1919 77.2777L21.4032 76.1718C20.9939 77.204 20.5243 78.2365 19.9927 79.2685L22.6596 80.6424ZM26.1678 70.1305C26.5624 67.6513 26.6609 65.1724 26.4785 62.7055L23.4867 62.9268C23.6522 65.1653 23.5628 67.4117 23.2051 69.6588L26.1678 70.1305ZM25.1237 55.4203C24.7758 54.2518 24.3669 53.0902 23.8991 51.9364L21.1189 53.0636C21.5519 54.1317 21.9288 55.203 22.2485 56.2765L25.1237 55.4203ZM23.8991 51.9364C23.44 50.8039 22.828 49.7693 22.1032 48.8423L19.7399 50.6902C20.3019 51.4091 20.77 52.2029 21.1189 53.0636L23.8991 51.9364ZM16.5523 44.5639C14.3378 43.5852 11.9031 43.1522 9.5981 43.4053L9.92557 46.3874C11.6471 46.1984 13.5521 46.5179 15.3397 47.3079L16.5523 44.5639ZM3.11135 46.7729C2.35745 47.6856 1.75635 48.7715 1.33829 50.0256L4.18433 50.9744C4.49249 50.0499 4.91957 49.2945 5.42428 48.6835L3.11135 46.7729ZM1.33828 50.0257C0.936938 51.2297 0.63977 52.6071 0.485023 54.0242L3.46729 54.3499C3.60088 53.1266 3.85593 51.9596 4.18434 50.9743L1.33828 50.0257ZM1.67607 62.28C2.43846 63.6875 3.6097 64.8639 5.28705 65.423L6.23574 62.577C5.4215 62.3056 4.79092 61.7317 4.31396 60.8512L1.67607 62.28ZM5.28705 65.423C6.27078 65.7509 7.389 65.9094 8.51218 65.9506L8.62211 62.9526C7.68613 62.9183 6.8689 62.788 6.23574 62.577L5.28705 65.423ZM14.6403 65.1482C15.7711 64.7989 16.8595 64.3194 17.6781 63.6873L15.8447 61.3127C15.4221 61.639 14.7107 61.9866 13.755 62.2818L14.6403 65.1482ZM17.6781 63.6873C18.672 62.9199 20.0096 61.262 21.3511 59.4416L18.936 57.6619C17.5466 59.5473 16.4486 60.8464 15.8447 61.3127L17.6781 63.6873ZM27.2581 50.7251C28.5017 48.7843 29.5185 47.1437 30.0436 46.2781L27.4788 44.7219C26.9677 45.5643 25.9641 47.184 24.7322 49.1064L27.2581 50.7251ZM30.0436 46.2781C30.7372 45.135 31.3553 43.9989 31.905 42.8677L29.2067 41.5565C28.6984 42.6025 28.125 43.6569 27.4788 44.7219L30.0436 46.2781ZM34.5849 35.5729C35.2415 33.0125 35.6166 30.4725 35.8073 27.9321L32.8157 27.7076C32.6359 30.1028 32.2847 32.4654 31.6789 34.8277L34.5849 35.5729ZM35.9229 20.2915C35.8443 17.8209 35.683 15.3129 35.5233 12.772L32.5292 12.9603C32.6897 15.5141 32.8476 17.9721 32.9244 20.3868L35.9229 20.2915ZM35.1368 5.34339C35.0974 4.12779 35.074 2.89695 35.074 1.64795H32.074C32.074 2.93441 32.0981 4.19808 32.1384 5.44062L35.1368 5.34339Z" fill="white"/>
</svg>
