<svg width="68" height="95" viewBox="0 0 68 95" fill="none" xmlns="http://www.w3.org/2000/svg">
<path d="M0.319533 1.77951C0.258335 0.953349 0.878463 0.234002 1.70463 0.172804C2.53079 0.111607 3.25014 0.731735 3.31134 1.5579L0.319533 1.77951ZM24.353 52.4855L24.8834 51.0824L24.353 52.4855ZM43.8154 58.1687L43.7584 59.6676L43.8154 58.1687ZM53.9534 48.2024L55.4415 48.3909L53.9534 48.2024ZM44.5424 38.9458L44.8136 37.4705C44.8406 37.4755 44.8675 37.4812 44.8942 37.4876L44.5424 38.9458ZM33.5909 54.1446L32.1488 54.5576L33.5909 54.1446ZM51.4436 75.0367L50.8169 76.3995L51.4436 75.0367ZM65.9091 93.0612C65.8049 93.883 65.0543 94.4648 64.2324 94.3607L50.8395 92.6636C50.0176 92.5595 49.4358 91.8088 49.54 90.987C49.6441 90.1651 50.3948 89.5833 51.2166 89.6874L63.1214 91.1959L64.6299 79.2911C64.7341 78.4693 65.4848 77.8874 66.3066 77.9916C67.1285 78.0957 67.7103 78.8464 67.6061 79.6683L65.9091 93.0612ZM3.64255 5.09537C3.73418 5.91872 3.14102 6.66045 2.31767 6.75208C1.49433 6.84371 0.752594 6.25054 0.660961 5.4272L3.64255 5.09537ZM1.68839 12.687C1.5491 11.8704 2.0982 11.0954 2.91483 10.9562C3.73146 10.8169 4.50639 11.366 4.64568 12.1826L1.68839 12.687ZM6.04603 19.1953C6.23173 20.0027 5.72778 20.8077 4.92044 20.9934C4.11309 21.1791 3.30807 20.6752 3.12237 19.8678L6.04603 19.1953ZM4.99607 26.9639C4.75723 26.1707 5.20668 25.334 5.99993 25.0952C6.79318 24.8563 7.62985 25.3058 7.86869 26.099L4.99607 26.9639ZM10.1925 32.8181C10.4981 33.5882 10.1216 34.4601 9.35157 34.7657C8.58156 35.0712 7.70963 34.6947 7.40406 33.9247L10.1925 32.8181ZM10.5245 40.6542C10.1286 39.9265 10.3976 39.0157 11.1254 38.6198C11.8531 38.224 12.7639 38.493 13.1598 39.2207L10.5245 40.6542ZM16.9905 45.0186C17.5147 45.66 17.4198 46.605 16.7783 47.1293C16.1369 47.6535 15.1919 47.5585 14.6676 46.9171L16.9905 45.0186ZM20.3193 52.1049C19.6242 51.6541 19.4261 50.7253 19.8768 50.0302C20.3275 49.3351 21.2564 49.137 21.9515 49.5877L20.3193 52.1049ZM29.6191 52.7438C30.4044 53.0077 30.8271 53.8582 30.5633 54.6434C30.2995 55.4287 29.449 55.8515 28.6637 55.5876L29.6191 52.7438ZM38.4602 58.6072C37.6602 58.3921 37.1861 57.5691 37.4013 56.7691C37.6165 55.9691 38.4394 55.495 39.2394 55.7102L38.4602 58.6072ZM46.7629 55.9182C47.4918 55.5246 48.4018 55.7965 48.7954 56.5254C49.189 57.2544 48.9172 58.1644 48.1882 58.558L46.7629 55.9182ZM54.01 52.5049C53.6137 53.2324 52.7026 53.5009 51.9752 53.1045C51.2477 52.7082 50.9792 51.7972 51.3755 51.0697L54.01 52.5049ZM51.9454 45.4652C51.5494 44.7375 51.8182 43.8266 52.5458 43.4306C53.2735 43.0346 54.1844 43.3034 54.5804 44.031L51.9454 45.4652ZM48.5569 38.804C49.3035 39.163 49.6178 40.0592 49.2588 40.8058C48.8998 41.5525 48.0036 41.8667 47.257 41.5077L48.5569 38.804ZM41.7683 40.252C40.9414 40.3018 40.2306 39.6719 40.1808 38.8449C40.131 38.018 40.7609 37.3073 41.5879 37.2574L41.7683 40.252ZM35.4466 39.6775C36.0756 39.1383 37.0225 39.2111 37.5617 39.8401C38.1008 40.4691 38.028 41.416 37.399 41.9552L35.4466 39.6775ZM34.8723 46.0525C34.6405 46.8478 33.8079 47.3047 33.0125 47.0729C32.2172 46.8411 31.7604 46.0084 31.9921 45.2131L34.8723 46.0525ZM31.5312 51.5038C31.4342 50.6811 32.0226 49.9355 32.8453 49.8385C33.6681 49.7415 34.4136 50.3299 34.5106 51.1526L31.5312 51.5038ZM36.1236 56.9581C36.4267 57.729 36.0474 58.5998 35.2765 58.9029C34.5055 59.2061 33.6348 58.8268 33.3316 58.0558L36.1236 56.9581ZM36.7547 64.6278C36.2937 63.9396 36.4779 63.0079 37.1661 62.5468C37.8544 62.0857 38.7861 62.2699 39.2472 62.9582L36.7547 64.6278ZM43.618 68.0862C44.2248 68.6502 44.2595 69.5993 43.6955 70.2061C43.1315 70.8129 42.1824 70.8475 41.5756 70.2835L43.618 68.0862ZM47.5365 74.6942C46.8214 74.2759 46.5808 73.3572 46.999 72.6421C47.4173 71.927 48.336 71.6863 49.0511 72.1046L47.5365 74.6942ZM54.7485 75.4178C55.3795 75.9546 55.4558 76.9013 54.919 77.5323C54.3822 78.1633 53.4355 78.2396 52.8045 77.7028L54.7485 75.4178ZM56.1637 81.6342C55.6992 80.9483 55.8788 80.0156 56.5647 79.5512C57.2507 79.0867 58.1833 79.2663 58.6478 79.9522L56.1637 81.6342ZM61.5814 84.8835C61.9759 85.6119 61.7053 86.5223 60.9769 86.9168C60.2484 87.3114 59.3381 87.0408 58.9435 86.3123L61.5814 84.8835ZM61.6088 91.2643C61.1992 90.5442 61.4508 89.6284 62.1708 89.2188C62.8909 88.8091 63.8067 89.0607 64.2163 89.7808L61.6088 91.2643ZM3.31134 1.5579C3.39056 2.62738 3.49995 3.81405 3.64255 5.09537L0.660961 5.4272C0.514555 4.11168 0.401657 2.88819 0.319533 1.77951L3.31134 1.5579ZM4.64568 12.1826C5.02846 14.4267 5.49232 16.788 6.04603 19.1953L3.12237 19.8678C2.55479 17.4002 2.07995 14.9826 1.68839 12.687L4.64568 12.1826ZM7.86869 26.099C8.55592 28.3816 9.32834 30.6405 10.1925 32.8181L7.40406 33.9247C6.5041 31.6569 5.7043 29.3162 4.99607 26.9639L7.86869 26.099ZM13.1598 39.2207C14.324 41.3609 15.5991 43.3163 16.9905 45.0186L14.6676 46.9171C13.1353 45.0423 11.7592 42.9242 10.5245 40.6542L13.1598 39.2207ZM21.9515 49.5877C22.8911 50.197 23.8677 50.6985 24.8834 51.0824L23.8227 53.8886C22.5925 53.4236 21.4253 52.8221 20.3193 52.1049L21.9515 49.5877ZM24.8834 51.0824C25.7929 51.4261 27.5265 52.0408 29.6191 52.7438L28.6637 55.5876C26.5546 54.8791 24.7816 54.251 23.8227 53.8886L24.8834 51.0824ZM39.2394 55.7102C41.3945 56.2898 43.0462 56.6384 43.8724 56.6698L43.7584 59.6676C42.5414 59.6213 40.5702 59.1747 38.4602 58.6072L39.2394 55.7102ZM43.8724 56.6698C44.8161 56.7057 45.7911 56.4429 46.7629 55.9182L48.1882 58.558C46.8529 59.279 45.3489 59.7281 43.7584 59.6676L43.8724 56.6698ZM51.3755 51.0697C51.9913 49.9394 52.3573 48.8658 52.4653 48.0138L55.4415 48.3909C55.2739 49.7134 54.7493 51.1477 54.01 52.5049L51.3755 51.0697ZM52.4653 48.0138C52.5781 47.1231 52.3883 46.2787 51.9454 45.4652L54.5804 44.031C55.2822 45.3204 55.6439 46.7938 55.4415 48.3909L52.4653 48.0138ZM47.257 41.5077C46.2291 41.0135 45.1704 40.6403 44.1906 40.404L44.8942 37.4876C46.085 37.7749 47.3433 38.2205 48.5569 38.804L47.257 41.5077ZM44.2711 40.4211C43.37 40.2554 42.5353 40.2058 41.7683 40.252L41.5879 37.2574C42.6149 37.1955 43.6927 37.2645 44.8136 37.4705L44.2711 40.4211ZM37.399 41.9552C36.243 42.9461 35.3697 44.3459 34.8723 46.0525L31.9921 45.2131C32.6296 43.0259 33.7898 41.0977 35.4466 39.6775L37.399 41.9552ZM34.5106 51.1526C34.6096 51.9924 34.782 52.8556 35.0329 53.7317L32.1488 54.5576C31.8546 53.5301 31.6496 52.5083 31.5312 51.5038L34.5106 51.1526ZM35.0329 53.7317C35.3502 54.8397 35.7137 55.9156 36.1236 56.9581L33.3316 58.0558C32.8855 56.9212 32.4916 55.7544 32.1488 54.5576L35.0329 53.7317ZM39.2472 62.9582C40.4964 64.8231 41.9513 66.537 43.618 68.0862L41.5756 70.2835C39.7369 68.5745 38.1315 66.683 36.7547 64.6278L39.2472 62.9582ZM49.0511 72.1046C50.0096 72.6651 51.0157 73.1888 52.0704 73.6739L50.8169 76.3995C49.6754 75.8745 48.582 75.3056 47.5365 74.6942L49.0511 72.1046ZM52.0704 73.6739C53.0378 74.1188 53.9285 74.7202 54.7485 75.4178L52.8045 77.7028C52.1502 77.1461 51.4883 76.7082 50.8169 76.3995L52.0704 73.6739ZM58.6478 79.9522C59.7264 81.5452 60.6994 83.2552 61.5814 84.8835L58.9435 86.3123C58.0778 84.7141 57.1597 83.1053 56.1637 81.6342L58.6478 79.9522ZM64.2163 89.7808C64.7307 90.6848 65.1896 91.4157 65.6066 91.9537L63.2354 93.7915C62.687 93.084 62.1451 92.2069 61.6088 91.2643L64.2163 89.7808Z" fill="white"/>
</svg>
