<svg width="111" height="111" viewBox="0 0 111 111" fill="none" xmlns="http://www.w3.org/2000/svg">
<path d="M48.7656 57.8281V60.8076H34.936L34.7515 58.5005L42.7539 45.8047H45.7729L42.5034 51.2759L38.522 57.8281H48.7656ZM46.5903 45.8047V65H42.7935V45.8047H46.5903ZM63.7422 53.7148V57.0371C63.7422 58.4785 63.5884 59.7222 63.2808 60.7681C62.9731 61.8052 62.5293 62.6577 61.9492 63.3257C61.3779 63.9849 60.6968 64.4727 59.9058 64.7891C59.1147 65.1055 58.2358 65.2637 57.269 65.2637C56.4956 65.2637 55.7749 65.167 55.1069 64.9736C54.439 64.7715 53.8369 64.4595 53.3008 64.0376C52.7734 63.6157 52.3164 63.084 51.9297 62.4424C51.5518 61.792 51.2617 61.0186 51.0596 60.1221C50.8574 59.2256 50.7563 58.1973 50.7563 57.0371V53.7148C50.7563 52.2734 50.9102 51.0386 51.2178 50.0103C51.5342 48.9731 51.978 48.125 52.5493 47.4658C53.1294 46.8066 53.8149 46.3232 54.606 46.0156C55.397 45.6992 56.2759 45.541 57.2427 45.541C58.0161 45.541 58.7324 45.6421 59.3916 45.8442C60.0596 46.0376 60.6616 46.3408 61.1978 46.7539C61.7339 47.167 62.1909 47.6987 62.5688 48.3491C62.9468 48.9907 63.2368 49.7598 63.439 50.6562C63.6411 51.5439 63.7422 52.5635 63.7422 53.7148ZM59.9321 57.5381V53.2007C59.9321 52.5063 59.8926 51.8999 59.8135 51.3813C59.7432 50.8628 59.6333 50.4233 59.4839 50.063C59.3345 49.6938 59.1499 49.395 58.9302 49.1665C58.7104 48.938 58.46 48.771 58.1787 48.6655C57.8975 48.5601 57.5854 48.5073 57.2427 48.5073C56.812 48.5073 56.4297 48.5908 56.0957 48.7578C55.7705 48.9248 55.4937 49.1929 55.2651 49.562C55.0366 49.9224 54.8608 50.4058 54.7378 51.0122C54.6235 51.6099 54.5664 52.3394 54.5664 53.2007V57.5381C54.5664 58.2324 54.6016 58.8433 54.6719 59.3706C54.751 59.8979 54.8652 60.3506 55.0146 60.7285C55.1729 61.0977 55.3574 61.4009 55.5684 61.6382C55.7881 61.8667 56.0386 62.0337 56.3198 62.1392C56.6099 62.2446 56.9263 62.2974 57.269 62.2974C57.6909 62.2974 58.0645 62.2139 58.3896 62.0469C58.7236 61.8711 59.0049 61.5986 59.2334 61.2295C59.4707 60.8516 59.6465 60.3594 59.7607 59.7529C59.875 59.1465 59.9321 58.4082 59.9321 57.5381ZM66.2734 50.5112V49.4961C66.2734 48.7666 66.4316 48.103 66.748 47.5054C67.0645 46.9077 67.5303 46.4287 68.1455 46.0684C68.7607 45.708 69.5166 45.5278 70.4131 45.5278C71.3359 45.5278 72.105 45.708 72.7202 46.0684C73.3442 46.4287 73.8101 46.9077 74.1177 47.5054C74.4341 48.103 74.5923 48.7666 74.5923 49.4961V50.5112C74.5923 51.2231 74.4341 51.8779 74.1177 52.4756C73.8101 53.0732 73.3486 53.5522 72.7334 53.9126C72.1182 54.2729 71.3579 54.4531 70.4526 54.4531C69.5386 54.4531 68.7695 54.2729 68.1455 53.9126C67.5303 53.5522 67.0645 53.0732 66.748 52.4756C66.4316 51.8779 66.2734 51.2231 66.2734 50.5112ZM68.7915 49.4961V50.5112C68.7915 50.8188 68.8486 51.1133 68.9629 51.3945C69.0859 51.667 69.2705 51.8911 69.5166 52.0669C69.7715 52.2339 70.0791 52.3174 70.4395 52.3174C70.8174 52.3174 71.125 52.2339 71.3623 52.0669C71.5996 51.8911 71.7754 51.667 71.8896 51.3945C72.0039 51.1133 72.061 50.8188 72.061 50.5112V49.4961C72.061 49.1709 71.9995 48.8721 71.8765 48.5996C71.7622 48.3184 71.582 48.0942 71.3359 47.9272C71.0986 47.7515 70.791 47.6636 70.4131 47.6636C70.0615 47.6636 69.7627 47.7515 69.5166 47.9272C69.2705 48.0942 69.0859 48.3184 68.9629 48.5996C68.8486 48.8721 68.7915 49.1709 68.7915 49.4961ZM75.4492 61.3086V60.2935C75.4492 59.5728 75.6074 58.9136 75.9238 58.3159C76.249 57.7183 76.7192 57.2393 77.3345 56.8789C77.9585 56.5186 78.7231 56.3384 79.6284 56.3384C80.5425 56.3384 81.3071 56.5186 81.9224 56.8789C82.5376 57.2393 83.0034 57.7183 83.3198 58.3159C83.6362 58.9136 83.7944 59.5728 83.7944 60.2935V61.3086C83.7944 62.0293 83.6362 62.6885 83.3198 63.2861C83.0122 63.8838 82.5508 64.3628 81.9355 64.7231C81.3203 65.0835 80.5601 65.2637 79.6548 65.2637C78.7407 65.2637 77.9717 65.0835 77.3477 64.7231C76.7236 64.3628 76.249 63.8838 75.9238 63.2861C75.6074 62.6885 75.4492 62.0293 75.4492 61.3086ZM77.9805 60.2935V61.3086C77.9805 61.625 78.0508 61.9238 78.1914 62.2051C78.332 62.4863 78.5254 62.7104 78.7715 62.8774C79.0264 63.0444 79.3208 63.1279 79.6548 63.1279C80.0767 63.1279 80.4062 63.0444 80.6436 62.8774C80.8809 62.7104 81.0435 62.4863 81.1313 62.2051C81.228 61.9238 81.2764 61.625 81.2764 61.3086V60.2935C81.2764 59.9771 81.2148 59.6826 81.0918 59.4102C80.9688 59.1289 80.7842 58.9048 80.5381 58.7378C80.3008 58.562 79.9976 58.4741 79.6284 58.4741C79.2593 58.4741 78.9517 58.562 78.7056 58.7378C78.4683 58.9048 78.2881 59.1289 78.165 59.4102C78.042 59.6826 77.9805 59.9771 77.9805 60.2935ZM80.5645 48.5469L71.1909 63.5498L69.3452 62.5742L78.7188 47.5713L80.5645 48.5469Z" fill="white"/>
<circle cx="55.5" cy="55.5" r="50" stroke="#A1C1FF" stroke-width="3"/>
<path d="M24.7949 95.0026C22.9418 97.3867 19.4851 97.8355 17.2948 95.7569C10.1673 88.9928 4.93822 80.4319 2.18814 70.9304C-1.07043 59.672 -0.681191 47.671 3.30007 36.6475C7.28133 25.6239 14.6502 16.1437 24.3506 9.56564C32.5373 4.01404 42.0298 0.769992 51.8346 0.121113C54.8476 -0.078286 57.2198 2.47573 57.1219 5.49372V5.49372C57.024 8.51171 54.4901 10.844 51.4828 11.1162C43.9917 11.7942 36.7621 14.361 30.4878 18.6158C22.6986 23.8979 16.7816 31.5102 13.5847 40.3619C10.3879 49.2135 10.0753 58.85 12.6919 67.8902C14.7996 75.1722 18.7206 81.7662 24.0498 87.0744C26.1892 89.2053 26.648 92.6185 24.7949 95.0026V95.0026Z" fill="#2D74FF"/>
</svg>
