<svg width="111" height="111" viewBox="0 0 111 111" fill="none" xmlns="http://www.w3.org/2000/svg">
<path d="M45.1138 45.6069H45.6675V48.6392H45.4434C44.4414 48.6392 43.5493 48.7886 42.7671 49.0874C41.9849 49.3862 41.3213 49.8125 40.7764 50.3662C40.2402 50.9111 39.8271 51.5703 39.5371 52.3438C39.2559 53.1172 39.1152 53.9829 39.1152 54.9409V58.1313C39.1152 58.8169 39.1812 59.4233 39.313 59.9507C39.4536 60.4692 39.6514 60.9043 39.9062 61.2559C40.1699 61.5986 40.4775 61.8579 40.8291 62.0337C41.1807 62.2007 41.5762 62.2842 42.0156 62.2842C42.4287 62.2842 42.8022 62.1963 43.1362 62.0205C43.479 61.8447 43.769 61.5986 44.0063 61.2822C44.2524 60.957 44.437 60.5791 44.5601 60.1484C44.6919 59.709 44.7578 59.23 44.7578 58.7114C44.7578 58.1929 44.6919 57.7139 44.5601 57.2744C44.437 56.835 44.2524 56.457 44.0063 56.1406C43.7603 55.8154 43.4614 55.5649 43.1099 55.3892C42.7583 55.2134 42.3628 55.1255 41.9233 55.1255C41.3257 55.1255 40.7983 55.2661 40.3413 55.5474C39.8931 55.8198 39.5415 56.1714 39.2866 56.6021C39.0317 57.0327 38.8955 57.4854 38.8779 57.96L37.731 57.2217C37.7573 56.5449 37.8979 55.9033 38.1528 55.2969C38.4165 54.6904 38.7769 54.1543 39.2339 53.6885C39.6997 53.2139 40.2578 52.8447 40.9082 52.5811C41.5586 52.3086 42.2925 52.1724 43.1099 52.1724C44.0063 52.1724 44.793 52.3438 45.4697 52.6865C46.1553 53.0293 46.7266 53.4995 47.1836 54.0972C47.6406 54.6948 47.9834 55.3848 48.2119 56.167C48.4404 56.9492 48.5547 57.7842 48.5547 58.6719C48.5547 59.6035 48.4009 60.4692 48.0933 61.269C47.7944 62.0688 47.3594 62.7676 46.7881 63.3652C46.2256 63.9629 45.5488 64.4287 44.7578 64.7627C43.9668 65.0967 43.0791 65.2637 42.0947 65.2637C41.0752 65.2637 40.1479 65.0791 39.313 64.71C38.4868 64.332 37.7749 63.8047 37.1772 63.1279C36.5796 62.4512 36.1182 61.647 35.793 60.7153C35.4766 59.7837 35.3184 58.7642 35.3184 57.6567V56.1802C35.3184 54.6333 35.5425 53.2183 35.9907 51.9351C36.4478 50.6431 37.1025 49.5269 37.9551 48.5864C38.8076 47.6372 39.8359 46.9033 41.04 46.3848C42.2441 45.8662 43.6021 45.6069 45.1138 45.6069ZM63.7422 53.7148V57.0371C63.7422 58.4785 63.5884 59.7222 63.2808 60.7681C62.9731 61.8052 62.5293 62.6577 61.9492 63.3257C61.3779 63.9849 60.6968 64.4727 59.9058 64.7891C59.1147 65.1055 58.2358 65.2637 57.269 65.2637C56.4956 65.2637 55.7749 65.167 55.1069 64.9736C54.439 64.7715 53.8369 64.4595 53.3008 64.0376C52.7734 63.6157 52.3164 63.084 51.9297 62.4424C51.5518 61.792 51.2617 61.0186 51.0596 60.1221C50.8574 59.2256 50.7563 58.1973 50.7563 57.0371V53.7148C50.7563 52.2734 50.9102 51.0386 51.2178 50.0103C51.5342 48.9731 51.978 48.125 52.5493 47.4658C53.1294 46.8066 53.8149 46.3232 54.606 46.0156C55.397 45.6992 56.2759 45.541 57.2427 45.541C58.0161 45.541 58.7324 45.6421 59.3916 45.8442C60.0596 46.0376 60.6616 46.3408 61.1978 46.7539C61.7339 47.167 62.1909 47.6987 62.5688 48.3491C62.9468 48.9907 63.2368 49.7598 63.439 50.6562C63.6411 51.5439 63.7422 52.5635 63.7422 53.7148ZM59.9321 57.5381V53.2007C59.9321 52.5063 59.8926 51.8999 59.8135 51.3813C59.7432 50.8628 59.6333 50.4233 59.4839 50.063C59.3345 49.6938 59.1499 49.395 58.9302 49.1665C58.7104 48.938 58.46 48.771 58.1787 48.6655C57.8975 48.5601 57.5854 48.5073 57.2427 48.5073C56.812 48.5073 56.4297 48.5908 56.0957 48.7578C55.7705 48.9248 55.4937 49.1929 55.2651 49.562C55.0366 49.9224 54.8608 50.4058 54.7378 51.0122C54.6235 51.6099 54.5664 52.3394 54.5664 53.2007V57.5381C54.5664 58.2324 54.6016 58.8433 54.6719 59.3706C54.751 59.8979 54.8652 60.3506 55.0146 60.7285C55.1729 61.0977 55.3574 61.4009 55.5684 61.6382C55.7881 61.8667 56.0386 62.0337 56.3198 62.1392C56.6099 62.2446 56.9263 62.2974 57.269 62.2974C57.6909 62.2974 58.0645 62.2139 58.3896 62.0469C58.7236 61.8711 59.0049 61.5986 59.2334 61.2295C59.4707 60.8516 59.6465 60.3594 59.7607 59.7529C59.875 59.1465 59.9321 58.4082 59.9321 57.5381ZM66.2734 50.5112V49.4961C66.2734 48.7666 66.4316 48.103 66.748 47.5054C67.0645 46.9077 67.5303 46.4287 68.1455 46.0684C68.7607 45.708 69.5166 45.5278 70.4131 45.5278C71.3359 45.5278 72.105 45.708 72.7202 46.0684C73.3442 46.4287 73.8101 46.9077 74.1177 47.5054C74.4341 48.103 74.5923 48.7666 74.5923 49.4961V50.5112C74.5923 51.2231 74.4341 51.8779 74.1177 52.4756C73.8101 53.0732 73.3486 53.5522 72.7334 53.9126C72.1182 54.2729 71.3579 54.4531 70.4526 54.4531C69.5386 54.4531 68.7695 54.2729 68.1455 53.9126C67.5303 53.5522 67.0645 53.0732 66.748 52.4756C66.4316 51.8779 66.2734 51.2231 66.2734 50.5112ZM68.7915 49.4961V50.5112C68.7915 50.8188 68.8486 51.1133 68.9629 51.3945C69.0859 51.667 69.2705 51.8911 69.5166 52.0669C69.7715 52.2339 70.0791 52.3174 70.4395 52.3174C70.8174 52.3174 71.125 52.2339 71.3623 52.0669C71.5996 51.8911 71.7754 51.667 71.8896 51.3945C72.0039 51.1133 72.061 50.8188 72.061 50.5112V49.4961C72.061 49.1709 71.9995 48.8721 71.8765 48.5996C71.7622 48.3184 71.582 48.0942 71.3359 47.9272C71.0986 47.7515 70.791 47.6636 70.4131 47.6636C70.0615 47.6636 69.7627 47.7515 69.5166 47.9272C69.2705 48.0942 69.0859 48.3184 68.9629 48.5996C68.8486 48.8721 68.7915 49.1709 68.7915 49.4961ZM75.4492 61.3086V60.2935C75.4492 59.5728 75.6074 58.9136 75.9238 58.3159C76.249 57.7183 76.7192 57.2393 77.3345 56.8789C77.9585 56.5186 78.7231 56.3384 79.6284 56.3384C80.5425 56.3384 81.3071 56.5186 81.9224 56.8789C82.5376 57.2393 83.0034 57.7183 83.3198 58.3159C83.6362 58.9136 83.7944 59.5728 83.7944 60.2935V61.3086C83.7944 62.0293 83.6362 62.6885 83.3198 63.2861C83.0122 63.8838 82.5508 64.3628 81.9355 64.7231C81.3203 65.0835 80.5601 65.2637 79.6548 65.2637C78.7407 65.2637 77.9717 65.0835 77.3477 64.7231C76.7236 64.3628 76.249 63.8838 75.9238 63.2861C75.6074 62.6885 75.4492 62.0293 75.4492 61.3086ZM77.9805 60.2935V61.3086C77.9805 61.625 78.0508 61.9238 78.1914 62.2051C78.332 62.4863 78.5254 62.7104 78.7715 62.8774C79.0264 63.0444 79.3208 63.1279 79.6548 63.1279C80.0767 63.1279 80.4062 63.0444 80.6436 62.8774C80.8809 62.7104 81.0435 62.4863 81.1313 62.2051C81.228 61.9238 81.2764 61.625 81.2764 61.3086V60.2935C81.2764 59.9771 81.2148 59.6826 81.0918 59.4102C80.9688 59.1289 80.7842 58.9048 80.5381 58.7378C80.3008 58.562 79.9976 58.4741 79.6284 58.4741C79.2593 58.4741 78.9517 58.562 78.7056 58.7378C78.4683 58.9048 78.2881 59.1289 78.165 59.4102C78.042 59.6826 77.9805 59.9771 77.9805 60.2935ZM80.5645 48.5469L71.1909 63.5498L69.3452 62.5742L78.7188 47.5713L80.5645 48.5469Z" fill="white"/>
<circle cx="55.5" cy="55.5" r="50" stroke="#FFBABA" stroke-width="3"/>
<path d="M83.2053 97.1615C84.8773 99.6758 84.2051 103.096 81.5384 104.513C75.4465 107.749 68.7898 109.829 61.906 110.629C53.2072 111.64 44.3928 110.578 36.1831 107.53C27.9733 104.482 20.6014 99.5344 14.6699 93.0919C8.73829 86.6494 4.41546 78.8946 2.05469 70.4616C-0.306073 62.0285 -0.637757 53.1565 1.08675 44.5707C2.81126 35.985 6.54302 27.9291 11.977 21.0617C17.411 14.1943 24.3929 8.71018 32.3521 5.05771C38.6507 2.16729 45.4198 0.48884 52.3067 0.0919332C55.3212 -0.0818052 57.6716 2.49231 57.548 5.50936C57.4244 8.5264 54.8707 10.8371 51.8613 11.0836C46.7025 11.5063 41.6424 12.8256 36.9128 14.9961C30.5217 17.9289 24.9154 22.3325 20.5521 27.8469C16.1887 33.3613 13.1922 39.8299 11.8075 46.7241C10.4227 53.6182 10.6891 60.7423 12.5847 67.5138C14.4804 74.2853 17.9515 80.5122 22.7144 85.6854C27.4773 90.8586 33.3968 94.8312 39.989 97.2787C46.5812 99.7262 53.659 100.579 60.6438 99.7673C65.8129 99.1667 70.8225 97.6671 75.4509 95.3499C78.151 93.9981 81.5332 94.6471 83.2053 97.1615Z" fill="#EB5757"/>
</svg>
