<svg width="60" height="60" viewBox="0 0 60 60" fill="none" xmlns="http://www.w3.org/2000/svg">
<circle cx="30" cy="30" r="30" fill="#E73152" fill-opacity="0.1"/>
<path d="M24.6598 20.555C23.1998 20.745 21.8348 21.445 20.7948 22.54C19.9298 23.445 19.3948 24.47 19.1198 25.755C19.0098 26.27 18.9948 27.76 19.0948 28.365C19.5748 31.285 21.2198 33.75 24.3498 36.255C25.1848 36.92 25.9198 37.445 27.7498 38.675C29.3848 39.77 29.7598 40.035 30.2348 40.435L30.4948 40.655L30.9298 40.305C31.1698 40.11 31.7248 39.71 32.1648 39.415C34.4198 37.89 35.2848 37.295 35.8748 36.855C38.3948 34.98 40.0448 33.15 41.0048 31.175C41.4098 30.34 41.5948 29.815 41.7698 29.045C42.3598 26.385 41.7848 24.12 40.0798 22.42C38.8998 21.235 37.4698 20.6 35.7998 20.52C34.0048 20.43 32.3148 21.09 30.9848 22.405L30.4998 22.89L30.0098 22.405C29.0098 21.405 27.7748 20.775 26.4348 20.58C25.8798 20.495 25.1798 20.485 24.6598 20.555ZM26.6248 21.62C28.0948 21.935 29.2848 22.775 30.1898 24.135C30.3398 24.365 30.4798 24.55 30.4998 24.55C30.5198 24.55 30.6598 24.365 30.8098 24.135C31.7148 22.775 32.8748 21.955 34.3748 21.615C34.8148 21.515 36.0948 21.5 36.5248 21.59C38.7698 22.075 40.4048 23.68 40.8798 25.875C40.9898 26.385 41.0248 27.245 40.9548 27.85C40.7048 30.05 39.6898 31.965 37.7498 33.9C36.6098 35.04 35.4398 35.955 32.9248 37.675C32.1298 38.22 31.2648 38.82 31.0098 39.01C30.7598 39.195 30.5248 39.35 30.4998 39.35C30.4748 39.35 30.2398 39.195 29.9898 39.005C29.7348 38.82 28.8748 38.22 28.0748 37.675C24.4398 35.19 22.8248 33.76 21.5898 31.925C21.1748 31.315 20.6398 30.27 20.4548 29.72C19.9098 28.08 19.8598 26.5 20.3198 25.155C20.9398 23.36 22.6148 21.925 24.4748 21.605C24.6398 21.575 24.8298 21.54 24.8998 21.53C25.1498 21.485 26.2848 21.545 26.6248 21.62Z" fill="#E73152" stroke="#E73152"/>
</svg>
