<svg width="281" height="241" viewBox="0 0 281 241" fill="none" xmlns="http://www.w3.org/2000/svg">
<path d="M151.122 110.208L133.667 120.539L186.645 151.127L204.425 140.794L151.122 110.208Z" fill="url(#paint0_linear_676_228)"/>
<path d="M133.667 120.539V126.709L186.645 157.295L204.425 146.963V140.794L186.645 151.127L133.667 120.539Z" fill="#00CCFF"/>
<path d="M121.575 5.71271L125.271 97.6756C125.265 98.9584 125.947 100.145 127.058 100.787L222.146 160.611C224.519 161.981 231.083 157.432 231.103 154.692L231.797 60.371C231.806 59.0829 231.123 57.889 230.006 57.2468L131.027 0.273885C128.649 -1.0945 121.587 2.96976 121.575 5.71271Z" fill="#1B4C84"/>
<path d="M121.566 5.96352L121.168 100.282C121.163 101.565 121.845 102.752 122.955 103.393L221.638 160.368C224.011 161.737 226.979 160.038 226.999 157.298L227.694 62.9774C227.703 61.6893 227.019 60.4953 225.903 59.8532L126.924 2.88021C124.547 1.51183 121.578 3.22057 121.566 5.96352Z" fill="url(#paint1_linear_676_228)"/>
<path d="M127.036 8.2439L126.648 100.22L221.54 155.006L222.217 63.0296L127.036 8.2439Z" fill="#D4F7FC"/>
<path d="M185.692 64.6396L134.699 35.1988C133.414 34.4571 132.374 32.8155 132.374 31.5312V19.367C132.374 18.0828 133.415 17.6428 134.699 18.3845L185.692 47.8253C186.976 48.567 188.016 50.2086 188.016 51.4929V63.6571C188.016 64.9406 186.975 65.3805 185.692 64.6396Z" fill="#00CCFF"/>
<path d="M147.371 29.7138V38.4336C147.371 38.9437 146.957 39.1189 146.447 38.8241L137.727 33.7897C137.217 33.4948 136.803 32.8427 136.803 32.3325V23.6128C136.803 23.1026 137.217 22.9275 137.727 23.2223L146.447 28.2567C146.957 28.5507 147.371 29.2037 147.371 29.7138Z" fill="white"/>
<path d="M147.371 34.1485V38.4327C147.371 38.9428 146.957 39.118 146.447 38.8232L137.727 33.7888C137.217 33.494 136.803 32.8418 136.803 32.3317V30.3975L139.18 30.0209C139.424 29.9815 139.758 30.176 140.002 30.4986L142.014 33.169C142.317 33.5712 142.745 33.7595 142.975 33.5912L145.345 31.8547C145.614 31.6571 146.141 31.9512 146.424 32.4559L147.371 34.1485Z" fill="url(#paint2_linear_676_228)"/>
<path d="M145.636 30.1368C145.636 30.6508 145.219 30.8268 144.705 30.5304C144.191 30.2333 143.774 29.5757 143.774 29.0617C143.774 28.5477 144.191 28.3717 144.705 28.6681C145.219 28.9652 145.636 29.6228 145.636 30.1368Z" fill="url(#paint3_linear_676_228)"/>
<path d="M150.873 31.9619L170.541 43.3173C170.858 43.5002 171.115 43.3914 171.115 43.075V43.0734C171.115 42.7562 170.858 42.351 170.541 42.1673L150.873 30.8119C150.556 30.629 150.299 30.7378 150.299 31.0543V31.0558C150.299 31.373 150.556 31.779 150.873 31.9619Z" fill="white"/>
<path d="M181.584 50.8971L150.873 33.1659C150.556 32.983 150.299 33.0919 150.299 33.4083V33.4098C150.299 33.727 150.556 34.1322 150.873 34.3159L181.583 52.0471C181.901 52.23 182.158 52.1212 182.158 51.8047V51.8032C182.158 51.486 181.901 51.08 181.584 50.8971Z" fill="white"/>
<path d="M181.584 53.2508L150.873 35.5204C150.556 35.3375 150.299 35.4463 150.299 35.7628V35.7643C150.299 36.0815 150.556 36.4867 150.873 36.6704L181.583 54.4016C181.901 54.5845 182.158 54.4757 182.158 54.1592V54.1577C182.158 53.8397 181.901 53.4345 181.584 53.2508Z" fill="white"/>
<path d="M181.584 55.6056L150.873 37.8744C150.556 37.6915 150.299 37.8003 150.299 38.1168V38.1183C150.299 38.4355 150.556 38.8407 150.873 39.0244L181.583 56.7556C181.901 56.9385 182.158 56.8297 182.158 56.5132V56.5117C182.158 56.1945 181.901 55.7885 181.584 55.6056Z" fill="white"/>
<path d="M181.584 57.9598L150.873 40.2294C150.556 40.0465 150.299 40.1553 150.299 40.4718V40.4733C150.299 40.7905 150.556 41.1957 150.873 41.3794L181.583 59.1106C181.901 59.2935 182.158 59.1846 182.158 58.8682V58.8667C182.158 58.5487 181.901 58.1435 181.584 57.9598Z" fill="white"/>
<path d="M203.531 139.815L176.871 121.963C176.658 121.841 176.528 121.614 176.528 121.368L174.525 101.986C174.525 101.456 177.101 99.7674 177.559 100.032L205.918 116.405C206.131 116.528 206.261 116.755 206.261 117V137.741C206.262 138.271 203.99 140.08 203.531 139.815Z" fill="#FC9014"/>
<path d="M136.951 79.5667L130.985 76.1222C130.616 75.9092 130.317 76.0358 130.317 76.4047V82.3707C130.317 82.7396 130.616 83.2119 130.985 83.4249L136.951 86.8694C137.32 87.0825 137.62 86.9559 137.62 86.587V80.621C137.62 80.2521 137.32 79.7805 136.951 79.5667Z" fill="#00CCFF"/>
<path d="M139.559 82.323L165.413 97.2495C165.691 97.41 165.917 97.3151 165.917 97.0365C165.917 96.7579 165.691 96.4028 165.413 96.2423L139.559 81.3158C139.281 81.1553 139.055 81.2502 139.055 81.5289C139.055 81.8075 139.281 82.1625 139.559 82.323Z" fill="#00CCFF"/>
<path d="M165.413 98.1783L139.559 83.2519C139.281 83.0913 139.055 83.1863 139.055 83.4649C139.055 83.7427 139.281 84.0985 139.559 84.2591L165.413 99.1855C165.691 99.3461 165.917 99.2511 165.917 98.9725C165.917 98.6947 165.691 98.3396 165.413 98.1783Z" fill="#00CCFF"/>
<path d="M165.413 100.116L139.559 85.1894C139.281 85.0288 139.055 85.1238 139.055 85.4024C139.055 85.6802 139.281 86.036 139.559 86.1966L165.413 101.123C165.691 101.284 165.917 101.189 165.917 100.91C165.917 100.632 165.691 100.276 165.413 100.116Z" fill="#00CCFF"/>
<path d="M165.413 102.053L139.559 87.1264C139.281 86.9659 139.055 87.0608 139.055 87.3394C139.055 87.618 139.281 87.973 139.559 88.1336L165.413 103.06C165.691 103.221 165.917 103.126 165.917 102.847C165.917 102.569 165.691 102.213 165.413 102.053Z" fill="#00CCFF"/>
<path d="M136.951 89.8329L130.985 86.3884C130.616 86.1753 130.317 86.3019 130.317 86.6708V92.6368C130.317 93.0057 130.616 93.478 130.985 93.6911L136.951 97.1356C137.32 97.3486 137.62 97.222 137.62 96.8531V90.8871C137.62 90.5182 137.32 90.0467 136.951 89.8329Z" fill="#00CCFF"/>
<path d="M165.413 106.508L139.559 91.5815C139.281 91.4209 139.055 91.5159 139.055 91.7945C139.055 92.0723 139.281 92.4281 139.559 92.5887L165.413 107.515C165.691 107.676 165.917 107.581 165.917 107.302C165.917 107.024 165.691 106.668 165.413 106.508Z" fill="#00CCFF"/>
<path d="M165.413 108.445L139.559 93.5182C139.281 93.3577 139.055 93.4526 139.055 93.7312C139.055 94.0091 139.281 94.3649 139.559 94.5254L165.413 109.452C165.691 109.612 165.917 109.517 165.917 109.239C165.917 108.961 165.691 108.606 165.413 108.445Z" fill="#00CCFF"/>
<path d="M165.413 110.382L139.559 95.4555C139.281 95.295 139.055 95.3899 139.055 95.6685C139.055 95.9471 139.281 96.3021 139.559 96.4627L165.413 111.389C165.691 111.55 165.917 111.455 165.917 111.176C165.917 110.898 165.691 110.542 165.413 110.382Z" fill="#00CCFF"/>
<path d="M165.413 112.319L139.559 97.3927C139.281 97.2322 139.055 97.3271 139.055 97.6058C139.055 97.8836 139.281 98.2394 139.559 98.3999L165.413 113.326C165.691 113.487 165.917 113.392 165.917 113.113C165.917 112.836 165.691 112.48 165.413 112.319Z" fill="#00CCFF"/>
<path d="M185.409 80.911L179.443 77.4665C179.074 77.2535 178.774 77.38 178.774 77.749V83.7149C178.774 84.0838 179.074 84.5562 179.443 84.7692L185.409 88.2137C185.778 88.4267 186.077 88.3001 186.077 87.9312V81.9653C186.077 81.5963 185.778 81.124 185.409 80.911Z" fill="#00CCFF"/>
<path d="M188.018 83.6673L213.871 98.5937C214.149 98.7543 214.375 98.6593 214.375 98.3807C214.375 98.1029 214.15 97.7471 213.871 97.5865L188.018 82.6601C187.74 82.4995 187.514 82.5945 187.514 82.8731C187.514 83.1509 187.739 83.5067 188.018 83.6673Z" fill="#00CCFF"/>
<path d="M213.871 99.5226L188.018 84.5961C187.74 84.4356 187.514 84.5305 187.514 84.8091C187.514 85.087 187.739 85.4428 188.018 85.6033L213.871 100.53C214.149 100.69 214.375 100.595 214.375 100.317C214.375 100.039 214.15 99.6831 213.871 99.5226Z" fill="#00CCFF"/>
<path d="M213.871 101.46L188.018 86.5336C187.74 86.3731 187.514 86.468 187.514 86.7466C187.514 87.0245 187.739 87.3803 188.018 87.5408L213.871 102.467C214.149 102.628 214.375 102.533 214.375 102.254C214.375 101.976 214.15 101.621 213.871 101.46Z" fill="#00CCFF"/>
<path d="M213.871 103.397L188.018 88.4706C187.74 88.3101 187.514 88.405 187.514 88.6836C187.514 88.9615 187.739 89.3173 188.018 89.4778L213.871 104.404C214.149 104.565 214.375 104.47 214.375 104.191C214.375 103.913 214.15 103.558 213.871 103.397Z" fill="#00CCFF"/>
<path d="M185.409 91.1773L179.443 87.7328C179.074 87.5198 178.774 87.6464 178.774 88.0153V93.9813C178.774 94.3502 179.074 94.8225 179.443 95.0355L185.409 98.4801C185.778 98.6931 186.077 98.5665 186.077 98.1976V92.2316C186.077 91.8627 185.778 91.3904 185.409 91.1773Z" fill="#00CCFF"/>
<path d="M213.871 107.852L188.018 92.9257C187.74 92.7652 187.514 92.8601 187.514 93.1387C187.514 93.4166 187.739 93.7724 188.018 93.9329L213.871 108.859C214.149 109.02 214.375 108.925 214.375 108.646C214.375 108.369 214.15 108.013 213.871 107.852Z" fill="#00CCFF"/>
<path d="M213.871 109.789L188.018 94.8627C187.74 94.7022 187.514 94.7971 187.514 95.0757C187.514 95.3536 187.739 95.7094 188.018 95.8699L213.871 110.796C214.149 110.957 214.375 110.862 214.375 110.583C214.375 110.306 214.15 109.95 213.871 109.789Z" fill="#00CCFF"/>
<path d="M213.871 111.726L188.018 96.8C187.74 96.6394 187.514 96.7344 187.514 97.013C187.514 97.2916 187.739 97.6466 188.018 97.8072L213.871 112.734C214.149 112.894 214.375 112.799 214.375 112.521C214.375 112.242 214.15 111.887 213.871 111.726Z" fill="#00CCFF"/>
<path d="M213.871 113.664L188.018 98.7372C187.74 98.5767 187.514 98.6716 187.514 98.9502C187.514 99.2281 187.739 99.5839 188.018 99.7444L213.871 114.671C214.149 114.831 214.375 114.736 214.375 114.458C214.375 114.18 214.15 113.824 213.871 113.664Z" fill="#00CCFF"/>
<path d="M203.225 139.75L174.866 123.377C174.653 123.255 174.523 123.028 174.523 122.782V102.041C174.523 101.512 175.096 101.181 175.554 101.446L203.913 117.819C204.126 117.942 204.256 118.168 204.256 118.414V139.155C204.256 139.684 203.684 140.014 203.225 139.75Z" fill="url(#paint4_linear_676_228)"/>
<path d="M195.15 124.781L187.103 125.652C186.391 125.73 185.423 124.662 185.423 123.799V112.763C185.423 111.9 186.39 111.949 187.103 112.848L195.15 123.012C195.772 123.796 195.772 124.713 195.15 124.781Z" fill="white"/>
<path d="M205.523 57.7088V63.7928C202.626 62.1203 200.117 62.331 198.895 64.046C198.388 64.7576 198.102 65.7277 198.102 66.9294L194.704 66.2765L189.827 65.3387C189.826 57.8786 198.064 53.4022 205.523 57.7088Z" fill="#1B4C84"/>
<path d="M205.521 78.6347V84.7187C198.062 80.4121 192.016 70.8751 192.016 63.4165L198.1 66.9289C198.1 71.0279 201.423 76.2684 205.521 78.6347Z" fill="#6D56C0"/>
<path d="M198.895 64.0451C198.388 64.7567 198.102 65.7268 198.102 66.9285L195.907 69.1235C195.907 69.1235 194.696 66.3952 194.696 66.342C194.696 66.3358 194.699 66.3119 194.704 66.2756C194.742 66.0147 194.902 65.0839 194.965 64.9419C195.037 64.7806 195.719 64.0266 195.719 64.0266C195.719 64.0266 196.778 63.3266 196.993 63.3443C197.209 63.3621 198.771 63.7904 198.771 63.7904L198.895 64.0451Z" fill="#1B4C84"/>
<path d="M219.026 79.0103L212.942 75.4978C212.942 71.3996 209.62 66.1584 205.521 63.7921V57.708C212.98 62.0146 219.026 71.5516 219.026 79.0103Z" fill="#009BBF"/>
<path d="M219.027 79.0102C219.027 86.4688 211.393 91.5557 203.934 87.2491L205.522 78.6344C209.621 81.0007 212.943 79.596 212.943 75.4978L219.027 79.0102Z" fill="#FC9014"/>
<path d="M216.833 81.2053L210.749 77.6929C210.749 73.5947 207.426 68.3534 203.328 65.9871V59.9031C204.266 60.4449 205.182 61.0693 206.066 61.7615C210.508 65.2408 214.153 70.4419 215.833 75.5203C216.478 77.4675 216.833 79.3978 216.833 81.2053Z" fill="#00CCFF"/>
<path d="M203.328 59.9032V65.9872C199.23 63.6209 195.907 65.0256 195.907 69.1238L189.823 65.6114C189.822 58.1528 195.869 55.5966 203.328 59.9032Z" fill="#007CD4"/>
<path d="M203.328 80.8295V86.9136C195.869 82.607 189.823 73.0699 189.823 65.6113L195.907 69.1238C195.907 73.222 199.229 78.4632 203.328 80.8295Z" fill="#B861FD"/>
<path d="M216.833 81.2055C216.833 88.6642 210.787 91.2196 203.328 86.9137V80.8297C204.083 81.2657 204.812 81.5729 205.498 81.7597C208.538 82.587 210.75 81.0365 210.75 77.6931L216.833 81.2055Z" fill="#FCBD53"/>
<path d="M206.901 60.6817L206.066 61.7607C205.181 61.0684 204.266 60.444 203.328 59.9022L205.522 57.708L206.901 60.6817Z" fill="#009BBF"/>
<path d="M206.697 80.4866L205.497 81.7593C204.811 81.5725 204.082 81.2646 203.327 80.8293L205.521 78.6343L206.697 80.4866Z" fill="#FC9014"/>
<path d="M219.026 79.0103L216.832 81.2053C216.832 79.3978 216.477 77.4675 215.832 75.5195C216.018 75.3814 216.161 75.2803 216.161 75.2803L217.929 75.4979L219.026 79.0103Z" fill="#009BBF"/>
<path d="M130.614 54.7654V69.7821L136.278 72.9936V57.9776L130.614 54.7654Z" fill="url(#paint5_linear_676_228)"/>
<path d="M130.614 54.7654L136.265 51.4814L141.879 54.723L136.278 57.9776L130.614 54.7654Z" fill="url(#paint6_linear_676_228)"/>
<path d="M136.278 72.9938L141.878 69.7399V54.7231L136.278 57.9778V72.9938Z" fill="url(#paint7_linear_676_228)"/>
<path d="M139.079 53.8298V74.676L144.743 77.8874V57.0413L139.079 53.8298Z" fill="url(#paint8_linear_676_228)"/>
<path d="M144.743 57.0413L150.343 53.7866V74.6327L144.743 77.8874V57.0413Z" fill="url(#paint9_linear_676_228)"/>
<path d="M150.343 53.7869L144.73 50.5461L139.079 53.8301L144.743 57.0415L150.343 53.7869Z" fill="url(#paint10_linear_676_228)"/>
<path d="M147.388 52.9534V79.4699L153.052 82.6813V56.1656L147.388 52.9534Z" fill="url(#paint11_linear_676_228)"/>
<path d="M153.052 56.1653L158.652 52.9106V79.4263L153.052 82.681V56.1653Z" fill="url(#paint12_linear_676_228)"/>
<path d="M147.388 52.9532L153.039 49.6692L158.652 52.9107L153.052 56.1654L147.388 52.9532Z" fill="url(#paint13_linear_676_228)"/>
<path d="M155.712 69.3005V84.3173L161.377 87.5287V72.5127L155.712 69.3005Z" fill="url(#paint14_linear_676_228)"/>
<path d="M155.712 69.3003L161.363 66.0164L166.977 69.2579L161.377 72.5125L155.712 69.3003Z" fill="url(#paint15_linear_676_228)"/>
<path d="M161.376 87.5289L166.977 84.2751V69.2583L161.376 72.513V87.5289Z" fill="url(#paint16_linear_676_228)"/>
<path d="M175.819 174.751L148.335 187.558C147.292 188.159 147.39 192.625 148.433 193.227L190.556 217.547C191.039 217.826 191.634 217.827 192.117 217.548L219.631 201.705C220.676 201.103 220.853 196.685 219.807 196.084L177.376 174.75C176.894 174.473 176.3 174.473 175.819 174.751Z" fill="#00CCFF"/>
<path d="M219.632 198.675L201.974 208.843L192.117 214.518C191.633 214.796 191.038 214.796 190.556 214.517L148.434 190.197C147.391 189.595 147.392 188.09 148.435 187.489L156.685 182.74L175.819 171.723C176.301 171.445 176.894 171.444 177.377 171.721L219.629 195.965C220.675 196.565 220.676 198.073 219.632 198.675Z" fill="#B9EBEF"/>
<path d="M175.796 166.893L148.313 179.7C147.269 180.3 147.368 184.767 148.411 185.368L190.534 209.688C191.017 209.966 191.612 209.967 192.095 209.689L219.608 193.845C220.654 193.243 220.83 188.825 219.784 188.225L177.354 166.891C176.871 166.615 176.278 166.616 175.796 166.893Z" fill="#00CCFF"/>
<path d="M219.609 190.818L201.951 200.985L192.094 206.661C191.61 206.939 191.015 206.939 190.533 206.66L148.411 182.34C147.368 181.738 147.369 180.233 148.412 179.632L156.662 174.882L175.796 163.865C176.278 163.587 176.872 163.586 177.354 163.864L219.606 188.107C220.652 188.707 220.653 190.216 219.609 190.818Z" fill="#B9EBEF"/>
<path d="M174.263 159.926L148.173 172.084C147.183 172.654 147.276 176.894 148.265 177.465L188.254 200.552C188.712 200.817 189.277 200.817 189.735 200.553L215.855 185.512C216.847 184.941 217.015 180.746 216.022 180.177L175.741 159.924C175.284 159.662 174.721 159.662 174.263 159.926Z" fill="#00CCFF"/>
<path d="M215.854 182.637L199.092 192.289L189.735 197.677C189.275 197.941 188.71 197.941 188.252 197.675L148.264 174.588C147.274 174.017 147.275 172.588 148.265 172.018L156.097 167.509L174.262 157.05C174.719 156.786 175.282 156.785 175.74 157.048L215.852 180.063C216.845 180.633 216.846 182.066 215.854 182.637Z" fill="#B7F3FE"/>
<path d="M199.092 192.289L189.735 197.677C189.275 197.941 188.71 197.941 188.252 197.676L148.264 174.588C147.274 174.017 147.275 172.588 148.265 172.018L156.097 167.51L171.459 167.936C172.411 167.963 173.183 168.717 173.231 169.669L173.587 176.736C173.639 177.764 174.53 178.546 175.556 178.464L195.353 176.876C196.324 176.798 197.185 177.496 197.309 178.462L199.092 192.289Z" fill="#007CD4"/>
<path d="M179.854 163.582C178.326 162.7 175.817 162.709 174.278 163.603C172.74 164.497 172.743 165.957 174.285 166.848C175.827 167.738 178.336 167.728 179.861 166.827C181.385 165.925 181.382 164.465 179.854 163.582Z" fill="#007CD4"/>
<path d="M260.72 52.0839V58.0013C260.72 59.923 259.72 61.4967 258.296 62.392C256.837 62.9215 255.255 62.9361 253.946 62.179L230.449 48.056L189.333 23.3416C187.724 22.4108 186.736 20.6921 186.742 18.8344L186.758 12.9764C186.763 11.4637 187.386 10.1671 188.349 9.24869C189.922 7.74833 192.399 7.26133 194.541 8.49774L232.544 30.4375L230.45 31.6114L258.126 47.5906C259.731 48.5175 260.72 50.2301 260.72 52.0839Z" fill="#00CCFF"/>
<path d="M260.721 52.084V58.0013C260.721 59.9231 259.721 61.4968 258.297 62.392C256.76 63.3583 254.73 63.532 252.935 62.4947L230.45 49.4954L187.299 24.548C185.691 23.6187 184.702 21.9 184.707 20.0407L184.724 14.1844C184.731 11.7632 186.324 9.8955 188.349 9.24874C189.659 8.82965 191.15 8.9215 192.507 9.70487L230.45 31.6114L258.126 47.5906C259.732 48.5175 260.721 50.2301 260.721 52.084Z" fill="#B7F3FE"/>
<path d="M262.755 50.8776V56.795C262.755 59.277 260.691 61.526 258.297 62.3928C259.721 61.4983 260.721 59.9246 260.721 58.002V52.0847C260.721 50.2309 259.732 48.5182 258.126 47.5913L230.45 31.6121L232.544 30.4382L260.161 46.3842C261.767 47.3112 262.755 49.0238 262.755 50.8776Z" fill="#FC9014"/>
<path d="M260.721 52.0839V58.0012C260.721 59.923 259.721 61.4967 258.297 62.392C256.76 63.3582 254.73 63.5319 252.935 62.4946L230.45 49.4953V31.6113L258.126 47.5905C259.731 48.5174 260.721 50.23 260.721 52.0839Z" fill="url(#paint17_linear_676_228)"/>
<path d="M190.946 16.4692C189.767 15.7885 189.212 16.1474 189.21 16.9447C189.204 18.7792 191.761 19.5549 191.758 20.6207C191.757 20.9881 191.473 21.1 190.804 20.7133C190.276 20.4085 189.73 19.8674 189.387 19.3511L189.108 19.9037C189.463 20.4625 190.132 21.0884 190.801 21.4751C191.981 22.1558 192.541 21.8008 192.543 21.0105C192.549 19.1975 189.998 18.4103 190.001 17.3591C190.002 16.9856 190.273 16.8451 190.936 17.2279C191.311 17.444 191.734 17.8152 192.12 18.2999L192.374 17.7327C192.002 17.2341 191.461 16.7671 190.946 16.4692Z" fill="#1B4C84"/>
<path d="M193.757 20.9194C193.832 20.4108 194.195 20.2534 194.692 20.5405C195.195 20.8307 195.557 21.4149 195.617 21.9938L193.757 20.9194ZM194.695 19.8351C193.719 19.2716 192.998 19.6606 192.995 20.7828C192.992 21.905 193.702 23.1275 194.801 23.7612C195.366 24.0876 195.828 24.1417 196.123 23.9093L195.713 23.1291C195.48 23.2695 195.19 23.2371 194.822 23.0241C194.251 22.6945 193.853 22.1111 193.762 21.5075L196.335 22.9932C196.342 22.9122 196.348 22.8103 196.349 22.7393C196.351 21.5616 195.653 20.3884 194.695 19.8351Z" fill="#1B4C84"/>
<path d="M198.136 25.0453C197.743 24.8184 197.51 24.4789 197.511 24.1616C197.512 23.8861 197.653 23.7418 198.176 24.0436L198.968 24.5012L198.966 24.9388C198.837 25.2514 198.511 25.2615 198.136 25.0453ZM198.249 21.8879C197.721 21.5831 197.211 21.4442 196.86 21.5522L197.16 22.368C197.406 22.2769 197.787 22.3557 198.155 22.5679C198.702 22.8836 198.971 23.3435 198.969 23.8583V23.9147L198.122 23.4254C197.127 22.8511 196.757 23.1321 196.756 23.7603C196.754 24.4163 197.225 25.1619 197.975 25.5941C198.465 25.8773 198.823 25.8997 199.007 25.6821L199.006 26.1413L199.73 26.5596L199.737 24.3507C199.74 23.2641 199.195 22.4336 198.249 21.8879Z" fill="#1B4C84"/>
<path d="M202.621 24.4123C202.075 24.0967 201.675 24.0635 201.453 24.3313L201.454 23.781L200.724 23.3596L200.713 27.1275L201.481 27.5705L201.487 25.7429C201.489 24.9742 201.858 24.7913 202.441 25.1278C202.497 25.1594 202.552 25.1988 202.62 25.2521L202.621 24.4123Z" fill="#1B4C84"/>
<path d="M204.748 25.6388C203.709 25.0391 202.971 25.4119 202.968 26.5403C202.965 27.6694 203.699 28.8988 204.737 29.4978C205.376 29.8667 205.886 29.8435 206.139 29.4237L205.551 28.6881C205.354 28.9344 205.059 28.9266 204.733 28.7391C204.168 28.4126 203.74 27.7203 203.741 26.9863C203.743 26.2593 204.174 26.0563 204.739 26.382C205.064 26.5696 205.359 26.9022 205.554 27.3753L206.145 27.3205C205.895 26.6051 205.387 26.0077 204.748 25.6388Z" fill="#1B4C84"/>
<path d="M207.552 25.8305L206.784 25.3875L206.769 30.6233L207.537 31.0663L207.542 29.1607C207.545 28.4052 207.914 28.2377 208.461 28.5533C208.952 28.8366 209.24 29.3282 209.238 29.9981L209.232 32.0449L210 32.4879L210.006 30.3285C210.009 29.1924 209.427 28.3411 208.641 27.8873C208.187 27.6249 207.799 27.5701 207.547 27.736L207.552 25.8305Z" fill="#1B4C84"/>
<path d="M211.225 32.071C210.948 31.9112 210.72 32.0123 210.719 32.365C210.718 32.7038 210.945 33.082 211.222 33.2418C211.498 33.4015 211.726 33.2858 211.727 32.9469C211.728 32.5942 211.501 32.2307 211.225 32.071Z" fill="#1B4C84"/>
<path d="M212.722 32.9359C212.446 32.7769 212.218 32.878 212.217 33.2308C212.216 33.5696 212.442 33.9478 212.718 34.1067C212.995 34.2665 213.223 34.1507 213.224 33.8119C213.225 33.4592 212.998 33.0957 212.722 32.9359Z" fill="#1B4C84"/>
<path d="M214.221 33.8014C213.945 33.6417 213.716 33.7428 213.715 34.0955C213.715 34.4343 213.941 34.8125 214.218 34.9722C214.493 35.1312 214.722 35.0162 214.723 34.6767C214.723 34.3247 214.496 33.9612 214.221 33.8014Z" fill="#1B4C84"/>
<path d="M275.811 68.7621C275.556 69.3711 274.73 69.4722 274.327 68.9443L267.069 59.4535L266.928 59.2691L264.065 55.5244C263.878 55.2805 263.836 54.9563 263.954 54.6746C264.208 54.0657 265.034 53.9646 265.438 54.4925L267.693 57.4415L267.834 57.6259L275.7 67.9124C275.886 68.157 275.928 68.4804 275.811 68.7621Z" fill="url(#paint18_linear_676_228)"/>
<path d="M280.261 72.9401C280.442 73.177 280.494 73.4942 280.379 73.7698C280.378 73.7713 280.378 73.7728 280.377 73.7744C280.107 74.4173 279.565 74.8163 278.964 74.9452C278.644 75.0139 278.314 74.8858 278.115 74.6257L268.462 62.0015C268.165 61.6133 268.098 61.0992 268.284 60.6516C268.512 60.1083 269.026 59.8188 269.546 59.8188C269.953 59.8188 270.362 59.9948 270.643 60.3622L280.261 72.9401Z" fill="url(#paint19_linear_676_228)"/>
<path d="M261.9 55.0427C260.04 55.0427 258.043 54.4523 256.025 53.28C249.474 49.4719 244.34 40.4412 244.34 32.7217C244.34 28.5132 245.95 25.1782 248.755 23.5714C251.55 21.9707 255.048 22.2385 258.607 24.3262C265.154 28.1666 270.283 37.1943 270.283 44.879C270.283 49.0652 268.678 52.3893 265.88 53.9993C264.67 54.6962 263.325 55.0427 261.9 55.0427ZM252.713 27.6727C252.179 27.6727 251.702 27.7854 251.301 28.0146C250.133 28.6837 249.462 30.3994 249.462 32.721C249.462 38.5858 253.646 45.9726 258.598 48.8514C260.483 49.9466 262.206 50.2051 263.326 49.5599C264.493 48.8885 265.162 47.182 265.162 44.8782C265.162 39.0396 260.973 31.6505 256.016 28.7424C254.81 28.0354 253.67 27.6727 252.713 27.6727Z" fill="url(#paint20_linear_676_228)"/>
<path d="M260.318 56.293C258.458 56.293 256.46 55.7026 254.443 54.5295C247.891 50.7214 242.758 41.6907 242.758 33.9712C242.758 29.7627 244.367 26.4278 247.172 24.8209C249.967 23.2202 253.466 23.488 257.024 25.5757C263.572 29.4161 268.7 38.4438 268.7 46.1285C268.7 50.3147 267.096 53.6388 264.298 55.2488C263.087 55.9465 261.742 56.293 260.318 56.293ZM251.129 28.923C250.595 28.923 250.118 29.0356 249.718 29.2649C248.549 29.934 247.879 31.6497 247.879 33.9712C247.879 39.8361 252.063 47.2229 257.015 50.1017C258.9 51.1969 260.622 51.4554 261.743 50.8102C262.909 50.1387 263.578 48.4323 263.578 46.1285C263.578 40.2899 259.39 32.9008 254.433 29.9927C253.227 29.2857 252.086 28.923 251.129 28.923Z" fill="url(#paint21_linear_676_228)"/>
<path d="M122.774 134.99V131.878L121.939 131.711V133.715L122.774 134.99Z" fill="#FC9014"/>
<path d="M83.2251 134.938V131.665H86.2443L85.8507 137.655L83.2251 134.938Z" fill="#FC9014"/>
<path d="M116.937 126.838C109.189 122.365 96.6685 122.365 88.9714 126.838C81.2735 131.311 81.3144 138.564 89.0625 143.037C96.8105 147.51 109.331 147.51 117.029 143.037C124.725 138.564 124.685 131.311 116.937 126.838Z" fill="#FC9014"/>
<path d="M116.938 123.712C109.19 119.238 96.669 119.238 88.9719 123.712C81.274 128.185 81.3149 135.437 89.063 139.911C96.811 144.384 109.332 144.384 117.03 139.911C124.726 135.437 124.686 128.185 116.938 123.712Z" fill="#FCBD53"/>
<path d="M106.337 124.643C105.879 124.378 105.092 124.345 104.58 124.642L91.8229 132.056C91.3104 132.354 91.3706 132.809 91.829 133.074C91.9857 133.164 92.1879 133.232 92.4303 133.265L109.036 135.463C109.928 135.581 110.724 135.118 110.517 134.602L106.668 124.99C106.612 124.851 106.493 124.733 106.337 124.643Z" fill="white"/>
<path d="M107.671 179.168L163.667 208.984C165.374 209.98 165.195 215.221 163.484 216.21L124.208 238.886C123.411 239.346 122.428 239.346 121.632 238.885L66.8506 207.194C65.1357 206.202 64.81 201.067 66.5257 200.076L107.671 179.168Z" fill="url(#paint22_linear_676_228)"/>
<path d="M110.048 177.775L163.321 208.874C165.028 209.871 165.022 212.339 163.31 213.327L124.034 236.003C123.237 236.463 122.254 236.463 121.458 236.003L66.6774 204.311C64.9625 203.32 64.964 200.844 66.6797 199.853L104.941 177.763C106.521 176.849 108.472 176.854 110.048 177.775Z" fill="url(#paint23_linear_676_228)"/>
<path d="M107.429 179.408L158.27 209.088L120.424 230.938L69.3511 201.391L107.429 179.408Z" fill="url(#paint24_linear_676_228)"/>
<path d="M108.811 184.926L148.652 208.184L118.995 225.307L78.9727 202.153L108.811 184.926Z" fill="#F9F1FC"/>
<path d="M132.106 204.942L133.284 205.63L114.938 216.222L113.755 215.537L132.106 204.942Z" fill="#00CCFF"/>
<path d="M135.053 206.647L119.828 215.436L118.847 214.868L134.075 206.075L135.053 206.647Z" fill="#00CCFF"/>
<path d="M136.656 207.586L121.431 216.375L120.45 215.807L135.678 207.015L136.656 207.586Z" fill="#00CCFF"/>
<path d="M138.371 208.583L123.147 217.372L122.165 216.804L137.393 208.011L138.371 208.583Z" fill="#00CCFF"/>
<path d="M139.972 209.521L124.748 218.31L123.766 217.742L138.994 208.95L139.972 209.521Z" fill="#00CCFF"/>
<path d="M119.64 197.709L120.818 198.398L102.472 208.989L101.289 208.305L119.64 197.709Z" fill="#00CCFF"/>
<path d="M122.586 199.415L107.363 208.204L106.381 207.636L121.609 198.844L122.586 199.415Z" fill="#00CCFF"/>
<path d="M124.188 200.355L108.964 209.144L107.982 208.576L123.21 199.783L124.188 200.355Z" fill="#00CCFF"/>
<path d="M125.904 201.351L110.68 210.14L109.699 209.572L124.927 200.78L125.904 201.351Z" fill="#00CCFF"/>
<path d="M127.506 202.29L112.282 211.079L111.3 210.511L126.529 201.719L127.506 202.29Z" fill="#00CCFF"/>
<path d="M106.003 189.758L107.181 190.447L88.835 201.038L87.6519 200.353L106.003 189.758Z" fill="#00CCFF"/>
<path d="M108.949 191.464L93.7254 200.253L92.7437 199.685L107.972 190.893L108.949 191.464Z" fill="#00CCFF"/>
<path d="M110.552 192.403L95.3284 201.192L94.3467 200.625L109.575 191.832L110.552 192.403Z" fill="#00CCFF"/>
<path d="M112.268 193.4L97.0433 202.189L96.0615 201.621L111.29 192.829L112.268 193.4Z" fill="#00CCFF"/>
<path d="M113.868 194.338L98.6448 203.127L97.6631 202.56L112.891 193.767L113.868 194.338Z" fill="#00CCFF"/>
<path d="M62.8953 214.524L107.114 240.116L107.764 238.993L63.5452 213.401C62.9254 213.042 62.5095 212.465 62.3381 211.824C62.22 211.383 62.2185 210.912 62.3451 210.458C62.1946 210.61 62.0618 210.784 61.9491 210.978C61.5902 211.598 61.5162 212.305 61.6883 212.947C61.8596 213.588 62.2748 214.165 62.8953 214.524Z" fill="url(#paint25_linear_676_228)"/>
<path d="M63.5463 213.401L107.765 238.993L109.715 235.624L65.4959 210.032C64.4501 209.427 63.1558 209.633 62.3462 210.457C62.2196 210.911 62.2212 211.382 62.3393 211.823C62.5106 212.465 62.9266 213.042 63.5463 213.401Z" fill="url(#paint26_linear_676_228)"/>
<path d="M107.115 240.116L110.409 240.524L111.177 240.619L113.704 240.931L112.174 238.896L111.71 238.277L109.715 235.624L107.115 240.116Z" fill="white"/>
<path d="M111.177 240.619L113.704 240.931L112.174 238.896L111.177 240.619Z" fill="#1B4C84"/>
<path d="M62.8953 214.523L71.0439 219.24L73.6434 214.748L65.4948 210.031C64.2545 209.313 62.6669 209.737 61.9491 210.977C61.5902 211.597 61.5162 212.305 61.6883 212.946C61.8596 213.588 62.2748 214.164 62.8953 214.523Z" fill="url(#paint27_linear_676_228)"/>
<path d="M63.224 137.27C63.224 137.27 63.2517 139.231 63.8599 140.608C64.4681 141.984 65.0763 143.136 65.1079 144.001C65.1395 144.865 65.4923 145.377 64.5321 145.921C63.572 146.465 61.4913 146.241 60.3714 145.345C59.2515 144.449 58.7715 137.514 58.7715 137.514L60.4038 136.896L63.224 137.27Z" fill="#FFB556"/>
<path d="M70.869 133.374C70.869 133.374 73.2916 135.571 75.1285 136.554C75.7197 136.87 76.0863 137.49 76.0863 138.161C76.0863 138.998 75.3238 139.627 74.5018 139.468L70.4576 138.684C70.0439 138.604 69.6781 138.366 69.4365 138.021L68.6925 136.958V137.013C68.6925 137.665 68.0566 138.127 67.4361 137.926L67.196 137.848C66.574 137.646 66.1765 137.039 66.2382 136.388L66.4945 133.714L70.869 133.374Z" fill="#FFB556"/>
<path d="M69.3972 134.911L70.8698 133.374C70.8698 133.374 70.9339 121.212 71.3182 117.691C71.7026 114.17 72.7499 110.586 72.1626 108.41C71.5745 106.233 70.9771 104.313 70.9771 104.313L68.451 102.763L66.6666 103.033L66.1333 111.098L67.8613 120.059L66.9259 128.316L67.5418 133.758L69.3972 134.911Z" fill="url(#paint28_linear_676_228)"/>
<path d="M65.5128 117.142L66.4938 133.716C66.4938 133.716 67.9447 135.081 69.3957 134.911C69.3957 134.911 68.5421 123.004 68.2009 117.883C67.8598 112.762 67.6036 106.574 67.0911 105.251C66.5786 103.929 65.0852 104.654 65.0852 104.825C65.0852 104.995 63.6343 112.336 63.6343 112.463C63.6343 112.59 65.5128 117.142 65.5128 117.142Z" fill="url(#paint29_linear_676_228)"/>
<path d="M61.7151 139.05C61.7151 139.05 63.1661 138.623 63.2518 137.001C63.3374 135.38 62.9531 125.864 64.1054 122.663C65.2576 119.462 66.6662 111.311 66.6662 109.818C66.6662 108.325 65.9407 104.483 65.9407 104.483L59.24 105.864L58.814 110.842L59.4538 121.767L59.1551 132.435L61.7151 139.05Z" fill="url(#paint30_linear_676_228)"/>
<path d="M60.2052 106.278C60.2052 106.278 61.8429 111.696 61.288 116.005C60.7331 120.316 60.277 126.716 60.8041 132.051C61.3312 137.386 61.7148 139.05 61.7148 139.05L58.7705 137.513C58.7705 137.513 57.9593 128.466 57.9593 125.351C57.9593 122.236 58.8553 119.547 58.3004 116.645C57.7455 113.743 57.6174 106.66 58.3004 104.782C58.9835 102.904 59.9119 102.136 59.9119 102.136L60.2052 106.278Z" fill="url(#paint31_linear_676_228)"/>
<path d="M81.5027 77.1141C81.5027 77.1141 79.7238 73.438 79.3826 72.4987C79.0415 71.5602 76.3526 72.4131 75.9049 73.9713C75.4565 75.5288 75.986 76.7451 76.6281 76.7451C77.2702 76.7451 78.1663 76.1694 78.465 76.7451C78.7637 77.3209 78.8493 78.068 78.8493 78.068L81.5027 77.1141Z" fill="#FFC3BF"/>
<path d="M83.7068 81.5103L82.4658 78.217L79.0946 79.1347L79.7876 81.5103L69.4341 82.6055L70.1935 84.6823L73.6928 85.0945L79.5816 84.298L82.7112 83.7431C82.7112 83.7431 83.5077 82.5337 83.5223 82.4843C83.5355 82.4349 83.7068 81.5103 83.7068 81.5103Z" fill="url(#paint32_linear_676_228)"/>
<path d="M83.7068 81.5103C83.7068 81.5103 84.247 82.9612 82.9813 83.7438C81.7156 84.5264 70.4212 85.9774 70.4212 85.9774L69.4341 82.6062C69.4341 82.6062 70.5702 84.1351 73.9846 84.4516C77.3982 84.768 82.2203 83.4027 82.8609 82.8902C83.5 82.3785 83.7068 81.5103 83.7068 81.5103Z" fill="url(#paint33_linear_676_228)"/>
<path d="M68.4144 82.6981L69.4331 82.6055C69.4331 82.6055 72.1059 87.3126 72.0842 89.5261L71.7431 90.9987L71.7856 92.7484L80.3633 89.6118L80.8611 91.9658L79.5428 92.604L77.6002 93.436L75.7333 94.3267L72.227 95.8132L71.7346 96.1859C71.7346 96.1859 70.5908 102.498 70.9752 104.312C70.9752 104.312 63.6779 106.915 62.4831 106.659C61.2884 106.403 60.1786 104.44 60.1786 104.44C60.1786 104.44 60.0929 101.901 60.1786 101.816C60.2642 101.73 60.3708 96.9515 60.3708 96.9515L57.6085 89.7183L57.3623 87.0726L58.1627 85.8084L61.601 84.014L68.4144 82.6981Z" fill="url(#paint34_linear_676_228)"/>
<path d="M68.4495 85.8564L68.3299 91.5677L65.3994 86.0486L65.8548 84.5266C65.8548 84.5266 66.7369 84.4487 66.8079 84.4517C66.8789 84.4548 68.4495 85.8564 68.4495 85.8564Z" fill="white"/>
<path d="M68.1183 82.8658L68.9557 86.0773L66.7013 85.0956L65.3429 86.4184C65.3429 86.4184 61.8297 84.7112 61.6021 84.0143L62.5977 82.4854L68.1183 82.8658Z" fill="#007CD4"/>
<path d="M62.5961 80.6567V82.4843C62.5961 82.4843 64.7401 84.9633 66.6997 85.0945L67.6027 82.9752C67.6027 82.9752 68.1893 82.9219 68.4139 82.6981C68.6377 82.4743 68.7874 80.1481 69.022 79.4118C69.2567 78.6755 69.2991 78.3344 69.0753 77.8752C68.8515 77.4167 69.3269 76.7013 69.2227 76.232C69.1185 75.7628 68.6277 74.9308 68.6168 74.098C68.606 73.266 66.1101 73.6288 66.1101 73.6288L63.5925 74.1196L61.0957 77.064L61.7787 79.6171L62.5961 80.6567Z" fill="#FFC3BF"/>
<path d="M67.6041 82.9762L66.7011 85.0955C66.7011 85.0955 66.8686 84.3099 65.8228 83.6801C64.777 83.0503 63.3052 81.9621 63.0273 81.3755C62.7503 80.7889 62.5967 80.657 62.5967 80.657V79.6189C62.5967 79.6189 63.8269 81.5893 64.6913 82.0693C65.5557 82.5494 66.5691 82.8697 66.8786 82.9438C67.1881 83.0187 67.6041 82.9762 67.6041 82.9762Z" fill="#EFAAA8"/>
<path d="M67.9169 71.9517C67.9169 71.9517 69.6527 72.7196 69.4103 73.7152C69.1687 74.7108 67.8883 74.3982 67.1629 74.4121C66.4374 74.426 64.7734 74.1273 64.5172 74.6823C64.2609 75.2372 64.318 76.8302 64.318 76.8302C64.318 76.8302 63.3649 76.8016 63.1804 78.2387H63.0099C63.0099 78.2387 62.5969 76.8734 62.2558 77.0578C61.9147 77.2423 61.7433 78.1106 61.8576 78.3946C61.971 78.6794 62.5969 79.6179 62.5969 79.6179V80.6559H62.4017C62.1663 80.6559 61.951 80.5255 61.8414 80.3179C61.4184 79.5168 60.4236 77.4214 60.4352 75.4494C60.4491 72.9457 62.2558 72.9033 62.2558 72.9033C62.2558 72.9033 64.2185 70.8989 67.9169 71.9517Z" fill="#1B4C84"/>
<path d="M80.8599 91.9659C80.8599 91.9659 72.0831 96.2478 71.0304 96.4184C69.9776 96.589 58.968 90.4578 58.8114 90.373C58.6547 90.2873 57.7301 89.2778 57.6305 88.7367C57.5309 88.1965 57.7725 87.5559 57.7725 87.5559C57.7725 87.5559 57.9716 89.1921 59.3369 90.1445C60.7022 91.0977 70.2192 95.7917 71.2719 95.7778C72.3254 95.7639 80.8599 91.9659 80.8599 91.9659Z" fill="url(#paint35_linear_676_228)"/>
<path d="M72.0844 89.5259C72.0844 89.5259 72.255 90.9553 72.0844 91.6522C71.9139 92.3492 71.7858 92.7474 71.7858 92.7474C71.7858 92.7474 70.7755 92.8045 69.4387 92.4063C68.102 92.008 60.79 87.3564 60.79 87.3564C60.79 87.3564 67.5324 91.4392 69.1401 91.4392C70.7477 91.4392 72.0844 89.5259 72.0844 89.5259Z" fill="url(#paint36_linear_676_228)"/>
<path d="M61.0962 91.3685C61.0962 91.3685 61.4373 92.2792 61.4589 93.4948C61.4806 94.7111 61.0962 96.034 61.3733 97.4209C61.6503 98.8078 62.3758 98.7862 62.7177 101.816C63.0589 104.846 62.4831 106.66 62.4831 106.66C62.4831 106.66 58.8132 106.554 58.3008 104.782C58.3008 104.782 58.5354 102.499 59.1544 100.664C59.7733 98.8286 59.7093 96.2902 59.3465 95.3293C58.9838 94.3692 56.9995 90.0379 56.9995 87.9255C56.9995 85.8131 58.6851 85.4504 59.4963 85.685C60.3074 85.9196 60.9858 86.5594 60.9557 87.4555C60.9557 87.4555 59.5812 86.1967 58.7067 86.4668C57.8323 86.737 57.7752 87.5551 57.7752 87.5551L57.6825 88.6217L58.3795 89.703L60.001 90.9193L61.0962 91.3685Z" fill="url(#paint37_linear_676_228)"/>
<path d="M82.4667 78.2178L81.894 77.0015L78.6787 77.933L79.0947 79.1347L82.4667 78.2178Z" fill="url(#paint38_linear_676_228)"/>
<path d="M80.3638 89.6121L81.1603 89.3342L81.6727 91.6249L80.8616 91.966L80.3638 89.6121Z" fill="url(#paint39_linear_676_228)"/>
<path d="M81.1602 89.334L85.6134 87.6623C85.7693 87.6036 85.943 87.6839 85.9993 87.8406C86.0471 87.9733 85.9962 88.1215 85.8758 88.1956L84.1107 89.2946C83.9386 89.4019 83.8591 89.6103 83.9147 89.8048L84.1763 90.7155C84.2496 90.971 84.1323 91.2419 83.8962 91.363L83.3821 91.627C83.2772 91.681 83.1591 91.7057 83.041 91.6995L81.6711 91.6239L81.1602 89.334Z" fill="#FFC3BF"/>
<path d="M67.9253 77.1398C67.9253 77.2532 67.9407 77.3682 67.9739 77.4825C68.163 78.1447 68.8553 78.529 69.5198 78.3407L74.9748 76.7925L75.0489 77.0533L86.7578 73.7308L86.9631 73.6721C87.5528 73.4591 87.9742 72.8957 87.9742 72.2343C87.9742 71.3892 87.2873 70.7046 86.4398 70.7046C86.3796 70.7046 86.3194 70.7084 86.2608 70.7154L85.7877 70.8497L74.2154 74.1344L74.2895 74.3953L68.8345 75.9435C68.2842 76.0971 67.9253 76.5964 67.9253 77.1398Z" fill="url(#paint40_linear_676_228)"/>
<path d="M84.9038 72.2333C84.9038 73.0784 85.5907 73.763 86.4381 73.763C86.5477 73.763 86.6535 73.7514 86.7569 73.7298C86.8271 73.7152 86.895 73.6959 86.9622 73.6712C87.5518 73.4581 87.9732 72.8947 87.9732 72.2333C87.9732 71.3882 87.2863 70.7036 86.4389 70.7036C86.3787 70.7036 86.3185 70.7075 86.2599 70.7144C86.0924 70.7337 85.9334 70.78 85.7867 70.8487C85.2642 71.0926 84.9038 71.6205 84.9038 72.2333Z" fill="#1B4C84"/>
<path d="M0 162.021V190.628L27.7946 206.675V178.069L0 162.021Z" fill="url(#paint41_linear_676_228)"/>
<path d="M27.7939 178.069L55.9019 161.734V190.341L27.7939 206.675V178.069Z" fill="url(#paint42_linear_676_228)"/>
<path d="M55.9025 161.733L27.9806 145.613L0 162.021L27.7946 178.068L55.9025 161.733Z" fill="url(#paint43_linear_676_228)"/>
<path d="M70.6328 165.269V173.357L78.4912 177.894V169.806L70.6328 165.269Z" fill="url(#paint44_linear_676_228)"/>
<path d="M78.4922 169.807L86.4393 165.188V173.277L78.4922 177.894V169.807Z" fill="url(#paint45_linear_676_228)"/>
<path d="M86.4384 165.188L78.5437 160.63L70.6328 165.269L78.4912 169.806L86.4384 165.188Z" fill="url(#paint46_linear_676_228)"/>
<path d="M57.8687 175.966V181.96L63.6926 185.322V179.328L57.8687 175.966Z" fill="url(#paint47_linear_676_228)"/>
<path d="M63.6919 179.328L69.5814 175.905V181.9L63.6919 185.322V179.328Z" fill="url(#paint48_linear_676_228)"/>
<path d="M69.5822 175.905L63.7312 172.527L57.8687 175.965L63.6926 179.328L69.5822 175.905Z" fill="url(#paint49_linear_676_228)"/>
<path d="M163.881 86.5301C163.881 86.5301 163.713 85.198 163.881 84.5049C164.048 83.8118 164.557 83.189 164.727 82.5947C164.897 82.0004 164.982 80.8821 165.138 80.7694C165.294 80.6567 167.119 81.6045 167.445 82.4249C167.77 83.2461 168.351 84.491 168.195 85.1138C168.039 85.7367 166.956 86.7578 166.893 87.2363C166.83 87.7156 166.596 88.1701 166.596 88.1701L163.881 86.5301Z" fill="#FFC3BF"/>
<path d="M153.542 81.9394C153.542 81.9394 153.615 81.2672 153.891 80.9593C154.167 80.6513 155.727 80.1103 155.812 79.5685C155.896 79.0275 154.888 78.9001 154.304 79.1548C154.304 79.1548 154.453 78.2526 154.793 77.4245C154.946 77.0509 155.116 76.7816 155.257 76.5979C155.422 76.3841 155.323 76.073 155.067 75.9912C154.794 75.904 154.394 75.8577 153.838 75.9704C152.575 76.2251 151.98 76.6071 151.726 76.8834C151.471 77.1597 150.738 78.3483 150.685 78.8685C150.632 79.3887 150.792 79.983 150.749 80.2484C150.707 80.5139 150.548 80.9068 150.548 80.9068L151.906 81.5543L153.542 81.9394Z" fill="#FFC3BF"/>
<path d="M131.589 158.645V159.183C131.589 159.629 131.951 159.991 132.397 159.991H134.738C134.97 159.991 135.192 159.891 135.345 159.717C135.736 159.271 136.602 158.374 137.769 157.699C138.86 157.068 140.552 156.475 141.534 156.157C141.998 156.007 142.313 155.575 142.313 155.087C142.313 154.575 141.966 154.127 141.471 153.999L137.07 152.858L131.589 158.645Z" fill="url(#paint50_linear_676_228)"/>
<path d="M148.137 158.76L153.302 160.759C153.759 160.936 154.06 161.375 154.06 161.865C154.06 162.305 153.816 162.709 153.427 162.915L153.001 163.139C151.762 163.792 150.355 164.055 148.963 163.894L143.679 163.282V163.314C143.679 163.612 143.437 163.855 143.138 163.855H140.432C140.133 163.855 139.891 163.612 139.891 163.314V160.766C139.891 160.766 142.979 159.365 143.171 159.333C143.362 159.301 148.137 158.76 148.137 158.76Z" fill="url(#paint51_linear_676_228)"/>
<path d="M137.567 149.781V154.005C137.567 154.005 135.964 158.675 134.584 159.036C133.204 159.397 131.697 158.887 131.422 158.484C131.145 158.081 131.645 147.456 132.217 144.909C132.791 142.362 133.81 141.374 133.841 139.878C133.873 138.381 134.364 123.982 134.628 122.364C134.892 120.746 140.56 121.887 140.56 121.887L144.062 122.046L149.966 124.544C149.966 124.544 150.303 130.261 149.762 133.573C149.221 136.885 147.151 146.565 147.055 148.794C146.959 151.023 146.769 155.576 148.138 158.761C148.138 158.761 148.361 160.194 146.228 161.436C144.094 162.677 139.987 161.627 139.732 161.149C139.477 160.672 139.508 152.52 139.732 150.8C139.955 149.081 140.63 145.674 140.706 143.986C140.783 142.298 140.56 136.981 140.56 136.981L139.509 136.567L137.825 143.548L137.726 146.109L137.613 148.296L137.599 149.095L137.57 149.406V149.604L137.567 149.781Z" fill="url(#paint52_linear_676_228)"/>
<path d="M148.998 102.109L144.125 99.6612L139.126 98.1007L135.539 97.4531C135.539 97.4531 133.968 99.3672 134.096 102.109C134.223 104.852 136.389 110.583 136.548 112.621C136.707 114.659 136.643 114.649 136.197 116.389C135.751 118.129 134.372 121.548 134.669 122.864C134.669 122.864 143.362 129.274 147.183 126.345L148.202 124.498L148.998 119.117L148.425 108.609C148.425 108.609 149.444 105.535 149.444 105.535C149.442 105.535 148.998 102.109 148.998 102.109Z" fill="url(#paint53_linear_676_228)"/>
<path d="M151.749 107.19C151.749 107.19 151.778 111.591 151.141 112.78C150.504 113.969 149.857 116.155 149.73 118.926C149.602 121.697 150.43 124.052 150.43 124.052C150.43 124.052 149.061 125.708 147.183 126.345C147.183 126.345 146.004 110.87 146.291 106.093C146.577 101.317 150.048 101.794 150.526 102.654C151.004 103.514 151.035 104.819 151.035 104.819L151.749 107.19Z" fill="url(#paint54_linear_676_228)"/>
<path d="M166.022 86.8179C166.022 86.8179 165.576 86.2869 165.173 86.3293C164.77 86.3718 163.306 86.628 163.306 86.628C163.306 86.628 162.032 92.2945 160.695 95.0753C159.357 97.856 157.362 98.8115 156.449 99.087C155.536 99.3633 147.363 103.014 147.745 105.307C148.127 107.6 150.336 106.92 150.336 106.92C150.336 106.92 153.605 105.604 153.838 105.498C154.072 105.391 162.35 99.9569 162.35 99.9569L164.473 94.65L166.51 88.0481L166.022 86.8179Z" fill="url(#paint55_linear_676_228)"/>
<path d="M153.073 81.3413C153.073 81.3413 152.383 80.6089 151.98 80.5981C151.576 80.5872 150.631 80.7995 150.546 80.906C150.462 81.0125 147.309 88.1338 145.972 89.0893C144.634 90.0448 138.8 95.4435 137.668 96.1088C136.536 96.7741 135.538 97.4532 135.538 97.4532C135.538 97.4532 138.186 97.9896 139.369 99.0987C140.551 100.207 141.524 98.4936 141.524 98.4936L143.307 94.4178C143.307 94.4178 146.619 93.7594 146.852 93.717C147.086 93.6745 148.592 92.5068 148.858 92.2946C149.123 92.0823 152.18 87.0086 152.18 86.8812C152.18 86.7539 153.263 82.1046 153.263 82.1046L153.073 81.3413Z" fill="url(#paint56_linear_676_228)"/>
<path d="M153.837 82.3174C153.837 82.3174 151.608 89.9172 150.759 91.5094C149.91 93.1016 146.45 95.7975 145.622 96.1795C144.794 96.5616 143.882 94.7996 143.882 94.7996C143.882 94.7996 148.319 91.5303 149.083 90.618C149.847 89.705 153.074 81.3411 153.074 81.3411L153.837 82.3174Z" fill="url(#paint57_linear_676_228)"/>
<path d="M145.395 96.774C145.395 96.774 145.214 97.3822 144.574 97.5095V100.552C144.574 100.552 143.031 101.231 141.149 100.467C139.267 99.703 139.267 99.2638 139.267 99.2638C139.267 99.2638 139.72 98.5708 139.833 97.9904C139.946 97.41 140.795 96.49 140.838 96.4198C140.88 96.3495 142.678 95.0892 143.074 94.8631C143.469 94.6369 144.998 94.5659 144.998 94.5659C144.998 94.5659 145.536 94.7218 145.55 94.8067C145.564 94.8916 145.72 95.4859 145.72 95.4859L145.395 96.774Z" fill="#FFC3BF"/>
<path d="M146.477 88.7728C146.596 89.0552 146.66 89.3578 146.668 89.6642C146.701 90.8142 146.766 94.0812 146.5 95.0899C146.174 96.3209 145.396 96.7739 145.396 96.7739C145.396 96.7739 145.622 95.6703 145.028 95.5283C144.434 95.387 144.575 96.9152 144.575 96.9152C144.575 96.9152 144.306 97.5805 143.514 97.8352C142.721 98.0898 140.471 98.5568 139.735 98.1184C138.999 97.68 137.485 94.7218 137.513 93.0801C137.542 91.4385 139.778 88.2688 141.065 87.3627C142.29 86.5022 145.241 85.833 146.477 88.7728Z" fill="#1B4C84"/>
<path d="M166.978 87.8799C166.978 87.8799 164.113 99.0886 163.115 100.256C162.117 101.422 152.033 107.452 150.675 107.855C149.317 108.259 147.406 107.346 147.745 105.308C147.745 105.308 150.038 106.114 153.583 104.692C157.128 103.269 161.777 99.6605 162.181 98.8964C162.585 98.1323 166.023 86.8179 166.023 86.8179L166.978 87.8799Z" fill="url(#paint58_linear_676_228)"/>
<path d="M136.515 129.676C136.515 129.676 139.222 130.07 139.859 131.853C140.495 133.637 140.559 136.98 140.559 136.98C140.559 136.98 137.757 146.278 137.566 149.78C137.566 149.78 137.258 141.947 137.725 138.975C138.192 136.003 137.725 132.477 136.515 129.676Z" fill="url(#paint59_linear_676_228)"/>
<path d="M45.9966 195.195L46.3995 196.906V199.044L47.1666 200.227V198.138L49.4064 202.321C49.4311 202.367 49.4519 202.416 49.4681 202.466L49.8517 203.658C50.0331 204.222 50.5208 204.634 51.1074 204.717L51.7248 204.805C52.3654 204.897 52.9952 204.58 53.3047 204.012C53.5632 203.536 53.5555 202.96 53.2831 202.493L52.4634 201.083L48.5134 195.949L45.9966 195.195Z" fill="url(#paint60_linear_676_228)"/>
<path d="M41.052 195.555L40.6954 195.73C40.0787 196.033 39.689 196.661 39.689 197.348C39.689 197.646 39.7631 197.94 39.9043 198.203L40.1582 198.675V203.507L41.1477 204.396V199.976L45.0452 206.108C45.3369 206.568 45.8425 206.845 46.3866 206.845H47.2479C48.4573 206.845 49.2237 205.549 48.6402 204.489L47.1661 201.813L42.0375 195.221L41.052 195.555Z" fill="url(#paint61_linear_676_228)"/>
<path d="M52.4629 201.082C52.4629 201.082 50.3243 198.062 50.1228 195.37C49.9214 192.678 49.3179 183.921 49.5818 179.92C49.8458 175.919 50.978 174.221 50.0349 171.541C49.0909 168.862 44.6755 167.201 44.6755 167.201L41.1484 167.578V171.805L43.392 179.468L44.9773 185.771L46.1852 190.866C46.1852 190.866 46.3488 193.425 46.3658 194.347C46.3827 195.269 46.5502 195.991 46.7347 196.276C46.9191 196.561 49.1334 200.419 49.1334 200.419L50.5759 201.761L52.1357 201.258L52.4629 201.082Z" fill="#FFC3BF"/>
<path d="M44.625 185.708C44.625 185.708 46.1979 192.703 46.1477 193.458C46.0976 194.213 45.9965 195.194 45.9965 195.194C45.9965 195.194 49.2673 201.812 50.0978 202.039C50.9282 202.265 52.4633 201.082 52.4633 201.082C52.4633 201.082 50.7777 201.56 50.1989 200.881C49.62 200.202 46.6509 195.647 46.7767 194.917C46.9025 194.188 47.0785 191.873 46.8524 190.212C46.6262 188.551 45.3173 185.62 45.4685 183.166C45.6198 180.713 45.846 178.939 46.3368 177.014C46.8277 175.089 46.4124 173.919 45.6576 171.994C44.9028 170.069 41.9214 167.966 41.9214 167.966L38.5664 170.354L39.3922 174.334L42.2232 180.486L42.9023 184.676L44.625 185.708Z" fill="#E8A2A0"/>
<path d="M47.1661 201.812L44.9017 202.189L41.052 196.754V195.207C41.052 194.955 41.0134 194.598 40.9463 194.166C40.9463 194.166 40.9455 194.163 40.944 194.155C40.9054 193.902 40.856 193.624 40.7996 193.325C40.2872 190.606 39.1596 186.221 39.0137 184.45C38.8246 182.147 40.1583 178.373 40.1583 178.373L30.4962 173.504L30.0323 172.725L29.1255 171.202L32.1069 165.138L40.3389 169.844C40.3389 169.844 44.0713 171.353 44.9773 173.845C45.8827 176.335 44.6756 179.166 44.6756 179.166C44.6756 179.166 44.4116 190.942 45.053 194.263C45.6943 197.585 47.1661 201.812 47.1661 201.812Z" fill="#FFC3BF"/>
<path d="M40.1085 184.903C40.1802 188.926 40.5793 191.94 40.8 193.325C40.2875 190.606 39.1599 186.221 39.0141 184.449C38.825 182.147 40.1586 178.373 40.1586 178.373L30.4966 173.504L30.0327 172.724C30.3507 172.206 30.5915 171.805 30.5915 171.805C30.5915 171.805 37.0514 177.241 42.2216 177.014C42.2216 177.015 40.0081 179.291 40.1085 184.903Z" fill="#E8A2A0"/>
<path d="M21.978 158.379C21.978 158.379 20.6574 161.981 21.8645 166.435C23.0724 170.889 30.4947 173.505 30.4947 173.505C30.4947 173.505 30.4445 168.372 32.533 167.064C34.6215 165.755 40.5851 163.415 40.5851 163.415L41.2898 160.949C41.2898 160.949 34.826 160.371 34.2209 159.792C33.6158 159.213 33.5989 158.66 33.5989 158.66L31.6779 156.772L21.978 158.379Z" fill="url(#paint62_linear_676_228)"/>
<path d="M49.4152 161.089L44.6964 158.378L41.776 160.092L32.1733 165.724L31.3984 165.273V166.061V166.179L40.3397 171.387L49.4152 165.957L53.5666 163.474L49.4152 161.089Z" fill="#00CCFF"/>
<path d="M53.5666 162.568L49.4152 165.051L40.3397 170.482L31.3984 165.273L41.776 159.186L44.6964 157.472L49.4152 160.183L53.5666 162.568Z" fill="#95EAFE"/>
<path d="M55.3422 149.775L53.6042 163.451L51.4578 164.735L40.3394 171.387L42.0782 157.712L55.3422 149.775Z" fill="#95EAFE"/>
<path d="M55.3416 149.775L54.5575 149.279L41.5149 157.083L39.7769 170.884L40.3387 171.387L42.0776 157.712L55.3416 149.775Z" fill="#00CCFF"/>
<path d="M30.7974 137.297C30.7974 137.297 31.7537 137.269 32.3912 138.591C33.0287 139.913 34.2211 144.459 34.2211 144.459C34.2211 144.459 32.5772 144.023 32.5093 143.905C32.4414 143.788 30.2271 140.215 30.2101 140.081C30.1931 139.947 30.126 138.001 30.126 137.951C30.1267 137.9 30.7974 137.297 30.7974 137.297Z" fill="#E8A2A0"/>
<path d="M34.4713 149.419L35.629 148.293L35.3272 146.439C35.3272 146.439 35.2516 144.845 34.4721 144.116C33.6926 143.386 32.6854 141.901 32.0317 140.669C31.3772 139.436 30.4966 137.775 30.4966 137.775H25.8411L23.1738 138.279L23.8792 141.323C23.8792 141.323 24.834 146.272 24.834 146.44C24.834 146.607 24.7583 150.91 24.7838 151.061C24.8093 151.212 27.6772 153.846 27.9288 153.762C28.1804 153.677 32.7935 150.407 32.7935 150.407L34.4713 149.419Z" fill="url(#paint63_linear_676_228)"/>
<path d="M21.7279 137.498C21.7279 137.498 20.1804 138.125 20.2059 139.019C20.2313 139.914 21.565 142.656 21.565 142.656L21.8922 153.652C21.8922 153.652 24.5341 158.433 25.6918 159.439C26.8495 160.446 31.8816 160.118 32.6364 159.59C33.3912 159.062 33.6011 158.66 33.6011 158.66C33.6011 158.66 34.1128 153.225 33.6011 150.733L34.7503 150.306V148.879C34.7503 148.879 27.0756 151.136 26.1201 150.557C25.1639 149.979 24.7363 148.695 25.2017 147.311C25.6671 145.927 25.4911 141.172 23.4528 138.831L21.7279 137.498Z" fill="url(#paint64_linear_676_228)"/>
<path d="M40.1585 160.161L41.148 159.623C41.148 159.623 39.8899 159.573 39.6383 158.55C39.3867 157.527 37.4071 149.593 37.005 148.838C36.6021 148.083 35.3279 146.439 35.3279 146.439L35.368 146.763L35.3734 146.988L35.1897 148.878L34.749 151.891L37.3322 157.242L38.8249 159.992L40.1585 160.161Z" fill="#FFC3BF"/>
<path d="M28.5338 165.05C28.5338 165.05 29.5402 166.3 30.4293 167.071C31.3184 167.843 33.0464 168.128 33.5496 167.876C34.0528 167.625 34.1871 167.172 34.2203 166.836C34.2535 166.5 33.7171 164.773 33.3814 164.572C33.0457 164.37 30.9155 164.27 30.1267 163.515C29.338 162.76 22.645 154.289 22.645 154.289C22.645 154.289 22.645 151.236 22.7453 148.804C22.8456 146.371 22.5269 145.399 22.7785 144.778C23.0301 144.158 23.7679 142.128 23.3658 140.635C22.963 139.143 21.1184 138.169 20.4299 138.773C19.7423 139.376 18.5514 141.876 19.2722 144.871L19.8928 148.335C19.8928 148.335 20.1776 149.844 19.8256 151.505C19.4737 153.166 19.7585 153.904 19.9599 154.96C20.1613 156.017 22.5601 159.171 22.5601 159.171L27.3074 164.102L28.5338 165.05Z" fill="#FFC3BF"/>
<path d="M21.7266 137.497C21.7266 137.497 21.8732 138.705 24.2387 139.376C26.6043 140.047 28.6711 139.636 28.6711 139.636C28.6711 139.636 29.8744 139.359 30.3274 138.89C30.7805 138.42 32.1558 135.015 32.1558 134.511C32.1558 134.008 31.9212 133.74 32.2731 133.253C32.625 132.767 32.8597 131.961 32.7763 131.241C32.693 130.52 30.9819 129.832 30.9819 129.832L27.4093 130.402L24.9766 132.231L24.8091 134.965L23.92 136.726L21.7266 137.497Z" fill="#FFC3BF"/>
<path d="M25.2282 133.539C25.2282 133.539 25.2992 134.53 26.0795 136.366C26.8598 138.203 28.6712 139.637 28.6712 139.637C28.6712 139.637 26.3434 137.774 25.7901 137.51C25.2367 137.246 21.7266 137.498 21.7266 137.498L24.5745 134.512L24.7211 133.384L25.2282 133.539Z" fill="#E8A2A0"/>
<path d="M32.7778 131.241C32.7778 131.241 30.3289 132.13 29.7416 132.181C29.1543 132.231 28.7182 133.103 28.7182 133.103L27.1082 133.271C27.1082 133.271 26.5549 132.517 25.8672 132.466C25.1795 132.415 25.2297 133.54 25.2297 133.54L24.576 134.513C24.576 134.513 23.737 133.255 23.2508 132.199C22.7646 131.141 22.8479 130.605 22.8479 130.605C21.5729 131.158 20.8683 134.111 20.8683 134.111C20.4152 133.557 19.2074 131.108 20.6167 127.971C22.0252 124.835 24.9441 123.979 25.7661 124.399C26.1767 124.609 26.4499 125.002 26.6197 125.344C26.7903 125.686 26.8574 125.976 26.8574 125.976L26.8636 125.973C26.8875 125.965 26.9793 125.933 27.1198 125.898H27.1206C27.4524 125.814 28.0506 125.712 28.6341 125.858C29.5062 126.076 31.2335 127.016 32.1905 128.66C33.1467 130.302 32.7778 131.241 32.7778 131.241Z" fill="#1B4C84"/>
<path d="M26.6197 125.342C26.7902 125.685 26.8574 125.974 26.8574 125.974L25.2497 127.42L25.0259 127.192C24.7195 126.88 24.7126 126.382 25.0105 126.062C25.3022 125.75 25.7954 125.432 26.6197 125.342Z" fill="#FF6177"/>
<path d="M27.12 125.896L26.8638 125.971C26.8877 125.963 26.9795 125.931 27.12 125.896Z" fill="#FF6177"/>
<path d="M19.2748 144.871C19.2748 144.871 19.6777 148.872 19.6021 150.633C19.5264 152.394 18.9067 153.904 19.4431 155.338C19.9795 156.772 24.8611 162.912 28.534 165.051C28.534 165.051 20.3314 156.747 20.13 154.835C19.9285 152.923 20.306 151.212 20.306 149.224C20.306 147.237 19.2748 144.871 19.2748 144.871Z" fill="#E8A2A0"/>
<path d="M33.6006 150.733L37.962 158.818L38.5493 161.083L40.1601 160.161C40.1601 160.161 38.8349 159.372 38.5161 158.668C38.1974 157.963 35.2113 153.266 35.2615 151.405C35.3116 149.542 35.6806 148.067 35.3286 146.44C35.3286 146.44 35.4459 147.228 34.9095 148.52C34.3724 149.811 33.6006 150.733 33.6006 150.733Z" fill="#E8A2A0"/>
<path d="M41.1484 204.395H41.9573V201.195L41.1484 199.975V204.395Z" fill="url(#paint65_linear_676_228)"/>
<path d="M47.167 200.227H47.7582V199.179L47.167 198.138V200.227Z" fill="url(#paint66_linear_676_228)"/>
<defs>
<linearGradient id="paint0_linear_676_228" x1="142.985" y1="150.527" x2="246.245" y2="71.8347" gradientUnits="userSpaceOnUse">
<stop stop-color="#95EAFE"/>
<stop offset="1" stop-color="#00CCFF"/>
</linearGradient>
<linearGradient id="paint1_linear_676_228" x1="133.537" y1="19.5445" x2="279.844" y2="241.649" gradientUnits="userSpaceOnUse">
<stop offset="2.7e-07" stop-color="#007CD4"/>
<stop offset="1" stop-color="#1B4C84"/>
</linearGradient>
<linearGradient id="paint2_linear_676_228" x1="136.804" y1="29.9541" x2="147.371" y2="29.9541" gradientUnits="userSpaceOnUse">
<stop offset="2.7e-07" stop-color="#007CD4"/>
<stop offset="1" stop-color="#1B4C84"/>
</linearGradient>
<linearGradient id="paint3_linear_676_228" x1="143.774" y1="29.062" x2="145.636" y2="29.062" gradientUnits="userSpaceOnUse">
<stop offset="1.4e-07" stop-color="#FCBD53"/>
<stop offset="1" stop-color="#FC9014"/>
</linearGradient>
<linearGradient id="paint4_linear_676_228" x1="175.842" y1="113.27" x2="220.841" y2="111.66" gradientUnits="userSpaceOnUse">
<stop offset="1.4e-07" stop-color="#FCBD53"/>
<stop offset="1" stop-color="#FC9014"/>
</linearGradient>
<linearGradient id="paint5_linear_676_228" x1="133.446" y1="57.7704" x2="133.446" y2="92.4707" gradientUnits="userSpaceOnUse">
<stop offset="1.4e-07" stop-color="#FCBD53"/>
<stop offset="1" stop-color="#FC9014"/>
</linearGradient>
<linearGradient id="paint6_linear_676_228" x1="134.276" y1="49.6265" x2="143.021" y2="72.3436" gradientUnits="userSpaceOnUse">
<stop offset="1.4e-07" stop-color="#FCBD53"/>
<stop offset="1" stop-color="#FC9014"/>
</linearGradient>
<linearGradient id="paint7_linear_676_228" x1="139.078" y1="52.5887" x2="139.078" y2="64.7107" gradientUnits="userSpaceOnUse">
<stop offset="1.4e-07" stop-color="#FCBD53"/>
<stop offset="1" stop-color="#FC9014"/>
</linearGradient>
<linearGradient id="paint8_linear_676_228" x1="141.64" y1="54.4509" x2="142.751" y2="101.296" gradientUnits="userSpaceOnUse">
<stop offset="2.7e-07" stop-color="#007CD4"/>
<stop offset="1" stop-color="#1B4C84"/>
</linearGradient>
<linearGradient id="paint9_linear_676_228" x1="148.003" y1="46.6988" x2="147.447" y2="69.8092" gradientUnits="userSpaceOnUse">
<stop offset="2.7e-07" stop-color="#007CD4"/>
<stop offset="1" stop-color="#1B4C84"/>
</linearGradient>
<linearGradient id="paint10_linear_676_228" x1="144.139" y1="50.2442" x2="148.927" y2="80.0864" gradientUnits="userSpaceOnUse">
<stop offset="2.7e-07" stop-color="#007CD4"/>
<stop offset="1" stop-color="#1B4C84"/>
</linearGradient>
<linearGradient id="paint11_linear_676_228" x1="150.196" y1="63.329" x2="150.404" y2="101.153" gradientUnits="userSpaceOnUse">
<stop offset="1.3e-07" stop-color="#B861FD"/>
<stop offset="1" stop-color="#6D56C0"/>
</linearGradient>
<linearGradient id="paint12_linear_676_228" x1="155.637" y1="45.7655" x2="155.846" y2="67.0715" gradientUnits="userSpaceOnUse">
<stop offset="1.3e-07" stop-color="#B861FD"/>
<stop offset="1" stop-color="#6D56C0"/>
</linearGradient>
<linearGradient id="paint13_linear_676_228" x1="145.397" y1="49.4292" x2="170.659" y2="60.9497" gradientUnits="userSpaceOnUse">
<stop offset="1.3e-07" stop-color="#B861FD"/>
<stop offset="1" stop-color="#6D56C0"/>
</linearGradient>
<linearGradient id="paint14_linear_676_228" x1="158.544" y1="72.3055" x2="158.544" y2="107.006" gradientUnits="userSpaceOnUse">
<stop offset="1.4e-07" stop-color="#FCBD53"/>
<stop offset="1" stop-color="#FC9014"/>
</linearGradient>
<linearGradient id="paint15_linear_676_228" x1="159.375" y1="64.1613" x2="168.119" y2="86.8784" gradientUnits="userSpaceOnUse">
<stop offset="1.4e-07" stop-color="#FCBD53"/>
<stop offset="1" stop-color="#FC9014"/>
</linearGradient>
<linearGradient id="paint16_linear_676_228" x1="164.177" y1="67.1238" x2="164.177" y2="79.2458" gradientUnits="userSpaceOnUse">
<stop offset="1.4e-07" stop-color="#FCBD53"/>
<stop offset="1" stop-color="#FC9014"/>
</linearGradient>
<linearGradient id="paint17_linear_676_228" x1="246.506" y1="22.2325" x2="243.596" y2="93.7364" gradientUnits="userSpaceOnUse">
<stop offset="1.4e-07" stop-color="#FCBD53"/>
<stop offset="1" stop-color="#FC9014"/>
</linearGradient>
<linearGradient id="paint18_linear_676_228" x1="262.362" y1="50.4012" x2="269.269" y2="60.7968" gradientUnits="userSpaceOnUse">
<stop offset="1.3e-07" stop-color="#B861FD"/>
<stop offset="1" stop-color="#6D56C0"/>
</linearGradient>
<linearGradient id="paint19_linear_676_228" x1="262.9" y1="60.5365" x2="289.923" y2="76.8651" gradientUnits="userSpaceOnUse">
<stop offset="1.3e-07" stop-color="#B861FD"/>
<stop offset="1" stop-color="#6D56C0"/>
</linearGradient>
<linearGradient id="paint20_linear_676_228" x1="255.257" y1="9.14488" x2="258.918" y2="61.9697" gradientUnits="userSpaceOnUse">
<stop offset="1.3e-07" stop-color="#B861FD"/>
<stop offset="1" stop-color="#6D56C0"/>
</linearGradient>
<linearGradient id="paint21_linear_676_228" x1="246.366" y1="12.7389" x2="270.294" y2="82.5615" gradientUnits="userSpaceOnUse">
<stop offset="1.3e-07" stop-color="#B861FD"/>
<stop offset="1" stop-color="#6D56C0"/>
</linearGradient>
<linearGradient id="paint22_linear_676_228" x1="123.336" y1="141.931" x2="112.716" y2="227.144" gradientUnits="userSpaceOnUse">
<stop offset="2.7e-07" stop-color="#007CD4"/>
<stop offset="1" stop-color="#1B4C84"/>
</linearGradient>
<linearGradient id="paint23_linear_676_228" x1="86.8291" y1="164.831" x2="172.043" y2="291.17" gradientUnits="userSpaceOnUse">
<stop offset="2.7e-07" stop-color="#007CD4"/>
<stop offset="1" stop-color="#1B4C84"/>
</linearGradient>
<linearGradient id="paint24_linear_676_228" x1="103.86" y1="150.987" x2="131.882" y2="303.766" gradientUnits="userSpaceOnUse">
<stop stop-color="#95EAFE"/>
<stop offset="1" stop-color="#00CCFF"/>
</linearGradient>
<linearGradient id="paint25_linear_676_228" x1="83.1399" y1="198.012" x2="85.1559" y2="234.164" gradientUnits="userSpaceOnUse">
<stop offset="2.7e-07" stop-color="#007CD4"/>
<stop offset="1" stop-color="#1B4C84"/>
</linearGradient>
<linearGradient id="paint26_linear_676_228" x1="90.3681" y1="204.449" x2="80.3264" y2="247.48" gradientUnits="userSpaceOnUse">
<stop offset="2.7e-07" stop-color="#007CD4"/>
<stop offset="1" stop-color="#1B4C84"/>
</linearGradient>
<linearGradient id="paint27_linear_676_228" x1="73.6435" y1="214.46" x2="61.5997" y2="214.46" gradientUnits="userSpaceOnUse">
<stop offset="1.4e-07" stop-color="#FCBD53"/>
<stop offset="1" stop-color="#FC9014"/>
</linearGradient>
<linearGradient id="paint28_linear_676_228" x1="69.7139" y1="100.184" x2="68.0496" y2="136.542" gradientUnits="userSpaceOnUse">
<stop offset="1.3e-07" stop-color="#B861FD"/>
<stop offset="1" stop-color="#6D56C0"/>
</linearGradient>
<linearGradient id="paint29_linear_676_228" x1="66.8961" y1="101.215" x2="66.5761" y2="120.099" gradientUnits="userSpaceOnUse">
<stop offset="1.3e-07" stop-color="#B861FD"/>
<stop offset="1" stop-color="#6D56C0"/>
</linearGradient>
<linearGradient id="paint30_linear_676_228" x1="62.8827" y1="104.309" x2="62.0292" y2="140.326" gradientUnits="userSpaceOnUse">
<stop offset="1.3e-07" stop-color="#B861FD"/>
<stop offset="1" stop-color="#6D56C0"/>
</linearGradient>
<linearGradient id="paint31_linear_676_228" x1="59.9467" y1="100.542" x2="59.776" y2="124.355" gradientUnits="userSpaceOnUse">
<stop offset="1.3e-07" stop-color="#B861FD"/>
<stop offset="1" stop-color="#6D56C0"/>
</linearGradient>
<linearGradient id="paint32_linear_676_228" x1="77.7247" y1="76.8801" x2="75.1322" y2="88.6582" gradientUnits="userSpaceOnUse">
<stop offset="2.7e-07" stop-color="#007CD4"/>
<stop offset="1" stop-color="#1B4C84"/>
</linearGradient>
<linearGradient id="paint33_linear_676_228" x1="77.6508" y1="77.8593" x2="76.3386" y2="83.8444" gradientUnits="userSpaceOnUse">
<stop offset="2.7e-07" stop-color="#007CD4"/>
<stop offset="1" stop-color="#1B4C84"/>
</linearGradient>
<linearGradient id="paint34_linear_676_228" x1="67.945" y1="74.5008" x2="71.2735" y2="117.346" gradientUnits="userSpaceOnUse">
<stop offset="2.7e-07" stop-color="#007CD4"/>
<stop offset="1" stop-color="#1B4C84"/>
</linearGradient>
<linearGradient id="paint35_linear_676_228" x1="68.9716" y1="82.1778" x2="69.2704" y2="91.3528" gradientUnits="userSpaceOnUse">
<stop offset="2.7e-07" stop-color="#007CD4"/>
<stop offset="1" stop-color="#1B4C84"/>
</linearGradient>
<linearGradient id="paint36_linear_676_228" x1="66.1687" y1="84.8704" x2="66.6808" y2="91.5916" gradientUnits="userSpaceOnUse">
<stop offset="2.7e-07" stop-color="#007CD4"/>
<stop offset="1" stop-color="#1B4C84"/>
</linearGradient>
<linearGradient id="paint37_linear_676_228" x1="59.8707" y1="83.6972" x2="59.9134" y2="96.0727" gradientUnits="userSpaceOnUse">
<stop offset="2.7e-07" stop-color="#007CD4"/>
<stop offset="1" stop-color="#1B4C84"/>
</linearGradient>
<linearGradient id="paint38_linear_676_228" x1="82.4663" y1="78.0681" x2="78.6789" y2="78.0681" gradientUnits="userSpaceOnUse">
<stop stop-color="#95EAFE"/>
<stop offset="1" stop-color="#00CCFF"/>
</linearGradient>
<linearGradient id="paint39_linear_676_228" x1="81.6727" y1="90.6502" x2="80.364" y2="90.6502" gradientUnits="userSpaceOnUse">
<stop stop-color="#95EAFE"/>
<stop offset="1" stop-color="#00CCFF"/>
</linearGradient>
<linearGradient id="paint40_linear_676_228" x1="77.5048" y1="72.7384" x2="78.4661" y2="76.9151" gradientUnits="userSpaceOnUse">
<stop offset="1.3e-07" stop-color="#B861FD"/>
<stop offset="1" stop-color="#6D56C0"/>
</linearGradient>
<linearGradient id="paint41_linear_676_228" x1="10.6981" y1="137.638" x2="18.0412" y2="244.849" gradientUnits="userSpaceOnUse">
<stop offset="1.4e-07" stop-color="#FCBD53"/>
<stop offset="1" stop-color="#FC9014"/>
</linearGradient>
<linearGradient id="paint42_linear_676_228" x1="39.4489" y1="138.62" x2="41.505" y2="177.686" gradientUnits="userSpaceOnUse">
<stop offset="1.4e-07" stop-color="#FCBD53"/>
<stop offset="1" stop-color="#FC9014"/>
</linearGradient>
<linearGradient id="paint43_linear_676_228" x1="40.7485" y1="171.161" x2="184.088" y2="275.14" gradientUnits="userSpaceOnUse">
<stop offset="1.4e-07" stop-color="#FCBD53"/>
<stop offset="1" stop-color="#FC9014"/>
</linearGradient>
<linearGradient id="paint44_linear_676_228" x1="73.6576" y1="158.375" x2="75.7337" y2="188.687" gradientUnits="userSpaceOnUse">
<stop offset="1.3e-07" stop-color="#B861FD"/>
<stop offset="1" stop-color="#6D56C0"/>
</linearGradient>
<linearGradient id="paint45_linear_676_228" x1="81.7875" y1="158.653" x2="82.3688" y2="169.699" gradientUnits="userSpaceOnUse">
<stop offset="1.3e-07" stop-color="#B861FD"/>
<stop offset="1" stop-color="#6D56C0"/>
</linearGradient>
<linearGradient id="paint46_linear_676_228" x1="82.1538" y1="167.853" x2="122.68" y2="197.251" gradientUnits="userSpaceOnUse">
<stop offset="1.3e-07" stop-color="#B861FD"/>
<stop offset="1" stop-color="#6D56C0"/>
</linearGradient>
<linearGradient id="paint47_linear_676_228" x1="60.11" y1="170.856" x2="61.6486" y2="193.321" gradientUnits="userSpaceOnUse">
<stop offset="2.7e-07" stop-color="#007CD4"/>
<stop offset="1" stop-color="#1B4C84"/>
</linearGradient>
<linearGradient id="paint48_linear_676_228" x1="66.1338" y1="171.062" x2="66.5646" y2="179.248" gradientUnits="userSpaceOnUse">
<stop offset="2.7e-07" stop-color="#007CD4"/>
<stop offset="1" stop-color="#1B4C84"/>
</linearGradient>
<linearGradient id="paint49_linear_676_228" x1="66.4067" y1="177.88" x2="96.4419" y2="199.668" gradientUnits="userSpaceOnUse">
<stop offset="2.7e-07" stop-color="#007CD4"/>
<stop offset="1" stop-color="#1B4C84"/>
</linearGradient>
<linearGradient id="paint50_linear_676_228" x1="137.011" y1="153.676" x2="136.948" y2="156.981" gradientUnits="userSpaceOnUse">
<stop offset="1.4e-07" stop-color="#FCBD53"/>
<stop offset="1" stop-color="#FC9014"/>
</linearGradient>
<linearGradient id="paint51_linear_676_228" x1="146.931" y1="159.911" x2="146.995" y2="163.796" gradientUnits="userSpaceOnUse">
<stop offset="1.4e-07" stop-color="#FCBD53"/>
<stop offset="1" stop-color="#FC9014"/>
</linearGradient>
<linearGradient id="paint52_linear_676_228" x1="140.073" y1="119.083" x2="141.092" y2="156.784" gradientUnits="userSpaceOnUse">
<stop offset="2.7e-07" stop-color="#007CD4"/>
<stop offset="1" stop-color="#1B4C84"/>
</linearGradient>
<linearGradient id="paint53_linear_676_228" x1="141.775" y1="98.3406" x2="141.712" y2="131.138" gradientUnits="userSpaceOnUse">
<stop offset="1.3e-07" stop-color="#B861FD"/>
<stop offset="1" stop-color="#6D56C0"/>
</linearGradient>
<linearGradient id="paint54_linear_676_228" x1="148.656" y1="97.2369" x2="149.08" y2="110.908" gradientUnits="userSpaceOnUse">
<stop offset="1.3e-07" stop-color="#B861FD"/>
<stop offset="1" stop-color="#6D56C0"/>
</linearGradient>
<linearGradient id="paint55_linear_676_228" x1="161.828" y1="88.3373" x2="150.675" y2="111.471" gradientUnits="userSpaceOnUse">
<stop offset="1.3e-07" stop-color="#B861FD"/>
<stop offset="1" stop-color="#6D56C0"/>
</linearGradient>
<linearGradient id="paint56_linear_676_228" x1="152.58" y1="81.0239" x2="135.088" y2="104.375" gradientUnits="userSpaceOnUse">
<stop offset="1.3e-07" stop-color="#B861FD"/>
<stop offset="1" stop-color="#6D56C0"/>
</linearGradient>
<linearGradient id="paint57_linear_676_228" x1="152.548" y1="75.8779" x2="148.185" y2="90.8756" gradientUnits="userSpaceOnUse">
<stop offset="1.3e-07" stop-color="#B861FD"/>
<stop offset="1" stop-color="#6D56C0"/>
</linearGradient>
<linearGradient id="paint58_linear_676_228" x1="163.858" y1="84.0729" x2="158.572" y2="95.8545" gradientUnits="userSpaceOnUse">
<stop offset="1.3e-07" stop-color="#B861FD"/>
<stop offset="1" stop-color="#6D56C0"/>
</linearGradient>
<linearGradient id="paint59_linear_676_228" x1="139.687" y1="112.507" x2="138.158" y2="140.188" gradientUnits="userSpaceOnUse">
<stop offset="2.7e-07" stop-color="#007CD4"/>
<stop offset="1" stop-color="#1B4C84"/>
</linearGradient>
<linearGradient id="paint60_linear_676_228" x1="49.1444" y1="195.005" x2="51.6175" y2="213.83" gradientUnits="userSpaceOnUse">
<stop offset="1.3e-07" stop-color="#B861FD"/>
<stop offset="1" stop-color="#6D56C0"/>
</linearGradient>
<linearGradient id="paint61_linear_676_228" x1="43.6934" y1="192.171" x2="44.9343" y2="212.026" gradientUnits="userSpaceOnUse">
<stop offset="1.3e-07" stop-color="#B861FD"/>
<stop offset="1" stop-color="#6D56C0"/>
</linearGradient>
<linearGradient id="paint62_linear_676_228" x1="28.5357" y1="152.78" x2="34.021" y2="172.457" gradientUnits="userSpaceOnUse">
<stop offset="2.7e-07" stop-color="#007CD4"/>
<stop offset="1" stop-color="#1B4C84"/>
</linearGradient>
<linearGradient id="paint63_linear_676_228" x1="28.6935" y1="128.419" x2="30.4296" y2="164.878" gradientUnits="userSpaceOnUse">
<stop offset="1.3e-07" stop-color="#B861FD"/>
<stop offset="1" stop-color="#6D56C0"/>
</linearGradient>
<linearGradient id="paint64_linear_676_228" x1="27.5679" y1="135.549" x2="27.4547" y2="146.947" gradientUnits="userSpaceOnUse">
<stop offset="1.3e-07" stop-color="#B861FD"/>
<stop offset="1" stop-color="#6D56C0"/>
</linearGradient>
<linearGradient id="paint65_linear_676_228" x1="41.1848" y1="198.318" x2="41.4867" y2="201.991" gradientUnits="userSpaceOnUse">
<stop offset="1.3e-07" stop-color="#B861FD"/>
<stop offset="1" stop-color="#6D56C0"/>
</linearGradient>
<linearGradient id="paint66_linear_676_228" x1="47.6024" y1="196.419" x2="47.4682" y2="199.069" gradientUnits="userSpaceOnUse">
<stop offset="1.3e-07" stop-color="#B861FD"/>
<stop offset="1" stop-color="#6D56C0"/>
</linearGradient>
</defs>
</svg>
