<svg width="541" height="239" viewBox="0 0 541 239" fill="none" xmlns="http://www.w3.org/2000/svg">
<g id="Line">
<g id="html">
<rect width="35" height="20" transform="translate(0 205)" fill="#1D1D42"/>
<path id="html_2" d="M7.3126 221V220.7C7.6526 220.68 7.9076 220.64 8.0776 220.58C8.2576 220.52 8.3776 220.4 8.4376 220.22C8.4976 220.04 8.5276 219.77 8.5276 219.41V211.97C8.5276 211.6 8.4976 211.33 8.4376 211.16C8.3776 210.98 8.2576 210.86 8.0776 210.8C7.9076 210.73 7.6526 210.69 7.3126 210.68V210.38C7.5426 210.39 7.8326 210.4 8.1826 210.41C8.5326 210.42 8.8776 210.425 9.2176 210.425C9.6076 210.425 9.9726 210.42 10.3126 210.41C10.6526 210.4 10.9276 210.39 11.1376 210.38V210.68C10.7976 210.69 10.5376 210.73 10.3576 210.8C10.1876 210.86 10.0726 210.98 10.0126 211.16C9.9526 211.33 9.9226 211.6 9.9226 211.97V219.41C9.9226 219.77 9.9526 220.04 10.0126 220.22C10.0726 220.4 10.1876 220.52 10.3576 220.58C10.5376 220.64 10.7976 220.68 11.1376 220.7V221C10.9276 220.98 10.6526 220.97 10.3126 220.97C9.9726 220.96 9.6076 220.955 9.2176 220.955C8.8776 220.955 8.5326 220.96 8.1826 220.97C7.8326 220.97 7.5426 220.98 7.3126 221ZM1.0426 221V220.7C1.3826 220.68 1.6376 220.64 1.8076 220.58C1.9876 220.52 2.1076 220.4 2.1676 220.22C2.2276 220.04 2.2576 219.77 2.2576 219.41V211.97C2.2576 211.6 2.2276 211.33 2.1676 211.16C2.1076 210.98 1.9876 210.86 1.8076 210.8C1.6376 210.73 1.3826 210.69 1.0426 210.68V210.38C1.2526 210.39 1.5276 210.4 1.8676 210.41C2.2076 210.42 2.5726 210.425 2.9626 210.425C3.3126 210.425 3.6576 210.42 3.9976 210.41C4.3476 210.4 4.6376 210.39 4.8676 210.38V210.68C4.5276 210.69 4.2676 210.73 4.0876 210.8C3.9176 210.86 3.8026 210.98 3.7426 211.16C3.6826 211.33 3.6526 211.6 3.6526 211.97V219.41C3.6526 219.77 3.6826 220.04 3.7426 220.22C3.8026 220.4 3.9176 220.52 4.0876 220.58C4.2676 220.64 4.5276 220.68 4.8676 220.7V221C4.6376 220.98 4.3476 220.97 3.9976 220.97C3.6576 220.96 3.3126 220.955 2.9626 220.955C2.5726 220.955 2.2076 220.96 1.8676 220.97C1.5276 220.97 1.2526 220.98 1.0426 221ZM3.1276 215.81V215.51H9.0526V215.81H3.1276ZM14.5272 210.785V213.29H16.7472V213.59H14.5272V219.395C14.5272 219.865 14.6122 220.195 14.7822 220.385C14.9522 220.575 15.1872 220.67 15.4872 220.67C15.7872 220.67 16.0472 220.55 16.2672 220.31C16.4872 220.06 16.6772 219.645 16.8372 219.065L17.1372 219.14C17.0372 219.72 16.8372 220.21 16.5372 220.61C16.2472 221.01 15.7972 221.21 15.1872 221.21C14.8472 221.21 14.5672 221.165 14.3472 221.075C14.1272 220.995 13.9322 220.875 13.7622 220.715C13.5422 220.485 13.3872 220.21 13.2972 219.89C13.2172 219.57 13.1772 219.145 13.1772 218.615V213.59H11.7372V213.29H13.1772V210.995C13.4272 210.985 13.6672 210.965 13.8972 210.935C14.1272 210.905 14.3372 210.855 14.5272 210.785ZM22.365 213.065C22.715 213.065 23.02 213.115 23.28 213.215C23.54 213.315 23.755 213.455 23.925 213.635C24.115 213.835 24.245 214.095 24.315 214.415C24.385 214.735 24.42 215.13 24.42 215.6V219.605C24.42 220.025 24.505 220.31 24.675 220.46C24.855 220.61 25.15 220.685 25.56 220.685V221C25.39 220.99 25.13 220.98 24.78 220.97C24.43 220.95 24.09 220.94 23.76 220.94C23.43 220.94 23.105 220.95 22.785 220.97C22.475 220.98 22.24 220.99 22.08 221V220.685C22.44 220.685 22.695 220.61 22.845 220.46C22.995 220.31 23.07 220.025 23.07 219.605V215.27C23.07 214.96 23.05 214.675 23.01 214.415C22.97 214.155 22.87 213.945 22.71 213.785C22.55 213.625 22.29 213.545 21.93 213.545C21.54 213.545 21.19 213.665 20.88 213.905C20.58 214.145 20.34 214.475 20.16 214.895C19.99 215.305 19.905 215.765 19.905 216.275V219.605C19.905 220.025 19.98 220.31 20.13 220.46C20.28 220.61 20.535 220.685 20.895 220.685V221C20.735 220.99 20.495 220.98 20.175 220.97C19.865 220.95 19.545 220.94 19.215 220.94C18.885 220.94 18.545 220.95 18.195 220.97C17.845 220.98 17.585 220.99 17.415 221V220.685C17.825 220.685 18.115 220.61 18.285 220.46C18.465 220.31 18.555 220.025 18.555 219.605V214.91C18.555 214.46 18.475 214.13 18.315 213.92C18.155 213.7 17.855 213.59 17.415 213.59V213.275C17.735 213.305 18.045 213.32 18.345 213.32C18.635 213.32 18.91 213.305 19.17 213.275C19.44 213.235 19.685 213.18 19.905 213.11V214.88C20.165 214.23 20.52 213.765 20.97 213.485C21.42 213.205 21.885 213.065 22.365 213.065ZM26.88 213.065C27.23 213.065 27.535 213.115 27.795 213.215C28.055 213.315 28.27 213.455 28.44 213.635C28.63 213.835 28.76 214.095 28.83 214.415C28.9 214.735 28.935 215.13 28.935 215.6V219.605C28.935 220.025 29.02 220.31 29.19 220.46C29.37 220.61 29.665 220.685 30.075 220.685V221C29.905 220.99 29.645 220.98 29.295 220.97C28.945 220.95 28.605 220.94 28.275 220.94C27.945 220.94 27.62 220.95 27.3 220.97C26.99 220.98 26.755 220.99 26.595 221V220.685C26.955 220.685 27.21 220.61 27.36 220.46C27.51 220.31 27.585 220.025 27.585 219.605V215.27C27.585 214.96 27.565 214.675 27.525 214.415C27.485 214.155 27.385 213.945 27.225 213.785C27.065 213.625 26.805 213.545 26.445 213.545C26.055 213.545 25.705 213.665 25.395 213.905C25.095 214.145 24.855 214.47 24.675 214.88C24.505 215.29 24.42 215.75 24.42 216.26L24.375 214.865C24.645 214.175 25.01 213.705 25.47 213.455C25.93 213.195 26.4 213.065 26.88 213.065ZM33.1154 209.24V219.605C33.1154 220.025 33.2004 220.31 33.3704 220.46C33.5504 220.61 33.8454 220.685 34.2554 220.685V221C34.0854 220.99 33.8254 220.98 33.4754 220.97C33.1354 220.95 32.7904 220.94 32.4404 220.94C32.1004 220.94 31.7554 220.95 31.4054 220.97C31.0554 220.98 30.7954 220.99 30.6254 221V220.685C31.0354 220.685 31.3254 220.61 31.4954 220.46C31.6754 220.31 31.7654 220.025 31.7654 219.605V211.04C31.7654 210.59 31.6854 210.26 31.5254 210.05C31.3654 209.83 31.0654 209.72 30.6254 209.72V209.405C30.9454 209.435 31.2554 209.45 31.5554 209.45C31.8454 209.45 32.1204 209.435 32.3804 209.405C32.6504 209.365 32.8954 209.31 33.1154 209.24Z" fill="white"/>
</g>
<g id="jquery">
<rect width="47" height="20" transform="translate(55 205)" fill="#1D1D42"/>
<path id="jquery_2" d="M54.7 223.82V223.535C55.15 223.525 55.525 223.415 55.825 223.205C56.135 222.995 56.365 222.645 56.515 222.155C56.675 221.675 56.755 221.03 56.755 220.22V211.97C56.755 211.6 56.725 211.33 56.665 211.16C56.605 210.98 56.485 210.86 56.305 210.8C56.135 210.73 55.88 210.69 55.54 210.68V210.38C55.75 210.39 56.025 210.4 56.365 210.41C56.705 210.42 57.06 210.425 57.43 210.425C57.8 210.425 58.155 210.42 58.495 210.41C58.845 210.4 59.135 210.39 59.365 210.38V210.68C59.025 210.69 58.765 210.73 58.585 210.8C58.415 210.86 58.3 210.98 58.24 211.16C58.18 211.33 58.15 211.6 58.15 211.97V217.46C58.15 217.87 58.145 218.315 58.135 218.795C58.125 219.275 58.1 219.74 58.06 220.19C58.03 220.64 57.975 221.035 57.895 221.375C57.725 222.075 57.365 222.655 56.815 223.115C56.275 223.585 55.57 223.82 54.7 223.82ZM70.9954 221.345L71.2204 221.435C71.1004 221.845 70.9604 222.185 70.8004 222.455C70.6504 222.735 70.4754 222.965 70.2754 223.145C70.0854 223.315 69.8254 223.47 69.4954 223.61C69.1754 223.75 68.7604 223.82 68.2504 223.82C67.7204 223.82 67.2054 223.73 66.7054 223.55C66.2154 223.38 65.7054 223.17 65.1754 222.92C64.6454 222.67 64.0604 222.44 63.4204 222.23C63.3504 222.21 63.2854 222.19 63.2254 222.17C63.1654 222.15 63.1104 222.135 63.0604 222.125C62.8704 222.195 62.6654 222.25 62.4454 222.29C62.2254 222.33 62.0154 222.35 61.8154 222.35C61.6154 222.35 61.4504 222.325 61.3204 222.275C61.1904 222.225 61.1254 222.15 61.1254 222.05C61.1254 221.84 61.3954 221.735 61.9354 221.735C62.2854 221.735 62.6604 221.775 63.0604 221.855C63.4204 221.755 63.7304 221.64 63.9904 221.51C64.2504 221.39 64.5154 221.275 64.7854 221.165C65.0654 221.055 65.4004 220.985 65.7904 220.955L65.8054 221.195C65.5054 221.225 65.2454 221.28 65.0254 221.36C64.8054 221.45 64.5854 221.545 64.3654 221.645C64.1454 221.745 63.8854 221.84 63.5854 221.93C64.0854 222.03 64.6304 222.135 65.2204 222.245C65.8104 222.355 66.3804 222.45 66.9304 222.53C67.4804 222.61 67.9504 222.65 68.3404 222.65C69.0604 222.65 69.6254 222.545 70.0354 222.335C70.4554 222.125 70.7754 221.795 70.9954 221.345ZM65.3404 210.17C66.2904 210.17 67.1204 210.385 67.8304 210.815C68.5504 211.245 69.1054 211.865 69.4954 212.675C69.8954 213.475 70.0954 214.45 70.0954 215.6C70.0954 216.72 69.8904 217.7 69.4804 218.54C69.0804 219.38 68.5204 220.035 67.8004 220.505C67.0804 220.975 66.2554 221.21 65.3254 221.21C64.3754 221.21 63.5404 220.995 62.8204 220.565C62.1104 220.135 61.5554 219.515 61.1554 218.705C60.7654 217.895 60.5704 216.92 60.5704 215.78C60.5704 214.66 60.7754 213.68 61.1854 212.84C61.5954 212 62.1554 211.345 62.8654 210.875C63.5854 210.405 64.4104 210.17 65.3404 210.17ZM65.2804 210.44C64.6304 210.44 64.0654 210.665 63.5854 211.115C63.1054 211.565 62.7304 212.185 62.4604 212.975C62.2004 213.765 62.0704 214.68 62.0704 215.72C62.0704 216.78 62.2154 217.705 62.5054 218.495C62.8054 219.275 63.2054 219.88 63.7054 220.31C64.2154 220.73 64.7754 220.94 65.3854 220.94C66.0354 220.94 66.6004 220.715 67.0804 220.265C67.5604 219.815 67.9304 219.195 68.1904 218.405C68.4604 217.605 68.5954 216.69 68.5954 215.66C68.5954 214.59 68.4454 213.665 68.1454 212.885C67.8554 212.105 67.4604 211.505 66.9604 211.085C66.4604 210.655 65.9004 210.44 65.2804 210.44ZM78.1386 213.11V219.38C78.1386 219.83 78.2186 220.165 78.3786 220.385C78.5486 220.595 78.8486 220.7 79.2786 220.7V221.015C78.9686 220.985 78.6586 220.97 78.3486 220.97C78.0586 220.97 77.7786 220.985 77.5086 221.015C77.2486 221.045 77.0086 221.1 76.7886 221.18V219.41C76.5386 220.06 76.1836 220.525 75.7236 220.805C75.2736 221.075 74.8086 221.21 74.3286 221.21C73.9786 221.21 73.6736 221.16 73.4136 221.06C73.1536 220.96 72.9386 220.82 72.7686 220.64C72.5786 220.44 72.4486 220.18 72.3786 219.86C72.3086 219.54 72.2736 219.145 72.2736 218.675V214.91C72.2736 214.46 72.1936 214.13 72.0336 213.92C71.8736 213.7 71.5736 213.59 71.1336 213.59V213.275C71.4536 213.305 71.7636 213.32 72.0636 213.32C72.3536 213.32 72.6286 213.305 72.8886 213.275C73.1586 213.235 73.4036 213.18 73.6236 213.11V219.005C73.6236 219.315 73.6436 219.6 73.6836 219.86C73.7236 220.12 73.8236 220.33 73.9836 220.49C74.1436 220.65 74.4036 220.73 74.7636 220.73C75.1536 220.73 75.4986 220.61 75.7986 220.37C76.1086 220.13 76.3486 219.805 76.5186 219.395C76.6986 218.985 76.7886 218.525 76.7886 218.015V214.91C76.7886 214.46 76.7086 214.13 76.5486 213.92C76.3886 213.7 76.0886 213.59 75.6486 213.59V213.275C75.9686 213.305 76.2786 213.32 76.5786 213.32C76.8686 213.32 77.1436 213.305 77.4036 213.275C77.6736 213.235 77.9186 213.18 78.1386 213.11ZM83.6894 213.065C84.5694 213.065 85.2544 213.335 85.7444 213.875C86.2444 214.405 86.4944 215.235 86.4944 216.365H81.1994L81.1844 216.08H85.0544C85.0744 215.59 85.0344 215.14 84.9344 214.73C84.8344 214.31 84.6744 213.975 84.4544 213.725C84.2444 213.475 83.9694 213.35 83.6294 213.35C83.1694 213.35 82.7594 213.58 82.3994 214.04C82.0494 214.5 81.8394 215.23 81.7694 216.23L81.8144 216.29C81.7944 216.44 81.7794 216.605 81.7694 216.785C81.7594 216.965 81.7544 217.145 81.7544 217.325C81.7544 218.005 81.8644 218.59 82.0844 219.08C82.3044 219.57 82.5894 219.945 82.9394 220.205C83.2994 220.455 83.6694 220.58 84.0494 220.58C84.3494 220.58 84.6344 220.535 84.9044 220.445C85.1744 220.345 85.4244 220.185 85.6544 219.965C85.8844 219.745 86.0844 219.45 86.2544 219.08L86.5544 219.2C86.4444 219.53 86.2644 219.85 86.0144 220.16C85.7644 220.47 85.4494 220.725 85.0694 220.925C84.6894 221.115 84.2494 221.21 83.7494 221.21C83.0294 221.21 82.4094 221.045 81.8894 220.715C81.3794 220.385 80.9844 219.93 80.7044 219.35C80.4344 218.76 80.2994 218.085 80.2994 217.325C80.2994 216.445 80.4394 215.69 80.7194 215.06C80.9994 214.42 81.3944 213.93 81.9044 213.59C82.4144 213.24 83.0094 213.065 83.6894 213.065ZM92.2973 213.065C92.5673 213.065 92.8023 213.12 93.0023 213.23C93.2123 213.34 93.3723 213.485 93.4823 213.665C93.6023 213.835 93.6623 214.03 93.6623 214.25C93.6623 214.5 93.5823 214.72 93.4223 214.91C93.2723 215.1 93.0673 215.195 92.8073 215.195C92.5973 215.195 92.4123 215.13 92.2523 215C92.0923 214.86 92.0123 214.665 92.0123 214.415C92.0123 214.225 92.0623 214.065 92.1623 213.935C92.2723 213.795 92.3923 213.685 92.5223 213.605C92.4523 213.505 92.3473 213.455 92.2073 213.455C91.8973 213.455 91.6123 213.55 91.3523 213.74C91.0923 213.92 90.8723 214.155 90.6923 214.445C90.5123 214.735 90.3723 215.045 90.2723 215.375C90.1723 215.695 90.1223 215.995 90.1223 216.275V219.455C90.1223 219.945 90.2623 220.275 90.5423 220.445C90.8323 220.605 91.2223 220.685 91.7123 220.685V221C91.4823 220.99 91.1573 220.98 90.7373 220.97C90.3173 220.95 89.8723 220.94 89.4023 220.94C89.0623 220.94 88.7223 220.95 88.3823 220.97C88.0523 220.98 87.8023 220.99 87.6323 221V220.685C88.0423 220.685 88.3323 220.61 88.5023 220.46C88.6823 220.31 88.7723 220.025 88.7723 219.605V214.91C88.7723 214.46 88.6923 214.13 88.5323 213.92C88.3723 213.7 88.0723 213.59 87.6323 213.59V213.275C87.9523 213.305 88.2623 213.32 88.5623 213.32C88.8523 213.32 89.1273 213.305 89.3873 213.275C89.6573 213.235 89.9023 213.18 90.1223 213.11V214.985C90.2323 214.695 90.3873 214.405 90.5873 214.115C90.7973 213.815 91.0473 213.565 91.3373 213.365C91.6273 213.165 91.9473 213.065 92.2973 213.065ZM101.287 213.275V213.575C101.097 213.595 100.922 213.68 100.762 213.83C100.602 213.98 100.452 214.245 100.312 214.625L97.852 221.075H97.597L94.837 214.43C94.647 214.04 94.457 213.805 94.267 213.725C94.087 213.635 93.937 213.59 93.817 213.59V213.275C94.037 213.305 94.267 213.33 94.507 213.35C94.747 213.36 95.007 213.365 95.287 213.365C95.597 213.365 95.922 213.355 96.262 213.335C96.612 213.315 96.937 213.295 97.237 213.275V213.59C96.987 213.59 96.762 213.61 96.562 213.65C96.372 213.68 96.252 213.785 96.202 213.965C96.152 214.135 96.212 214.43 96.382 214.85L98.227 219.425L98.137 219.455L99.847 214.985C99.977 214.655 100.027 214.395 99.997 214.205C99.977 214.005 99.877 213.855 99.697 213.755C99.517 213.655 99.247 213.595 98.887 213.575V213.275C99.067 213.285 99.222 213.295 99.352 213.305C99.482 213.305 99.607 213.31 99.727 213.32C99.857 213.32 99.997 213.32 100.147 213.32C100.377 213.32 100.582 213.315 100.762 213.305C100.952 213.295 101.127 213.285 101.287 213.275ZM97.852 221.075L97.342 222.38C97.242 222.63 97.137 222.84 97.027 223.01C96.927 223.18 96.817 223.32 96.697 223.43C96.537 223.58 96.347 223.68 96.127 223.73C95.907 223.79 95.707 223.82 95.527 223.82C95.337 223.82 95.162 223.785 95.002 223.715C94.852 223.645 94.732 223.54 94.642 223.4C94.552 223.27 94.507 223.11 94.507 222.92C94.507 222.68 94.577 222.485 94.717 222.335C94.857 222.195 95.052 222.125 95.302 222.125C95.512 222.125 95.692 222.185 95.842 222.305C95.992 222.425 96.067 222.6 96.067 222.83C96.067 223 96.027 223.14 95.947 223.25C95.867 223.36 95.772 223.445 95.662 223.505C95.682 223.515 95.697 223.52 95.707 223.52C95.727 223.52 95.742 223.52 95.752 223.52C96.022 223.52 96.262 223.425 96.472 223.235C96.682 223.055 96.867 222.76 97.027 222.35L97.567 220.955L97.852 221.075Z" fill="white"/>
</g>
<g id="react">
<rect width="38" height="20" transform="translate(185 205)" fill="#1D1D42"/>
<path id="react_2" d="M185.63 210.38C185.84 210.39 186.115 210.4 186.455 210.41C186.795 210.42 187.13 210.425 187.46 210.425C187.93 210.425 188.38 210.42 188.81 210.41C189.24 210.4 189.545 210.395 189.725 210.395C190.535 210.395 191.205 210.51 191.735 210.74C192.275 210.97 192.675 211.285 192.935 211.685C193.205 212.075 193.34 212.515 193.34 213.005C193.34 213.305 193.28 213.625 193.16 213.965C193.04 214.305 192.83 214.625 192.53 214.925C192.24 215.225 191.84 215.475 191.33 215.675C190.82 215.865 190.175 215.96 189.395 215.96H187.955V215.66H189.245C189.955 215.66 190.495 215.55 190.865 215.33C191.245 215.1 191.5 214.8 191.63 214.43C191.77 214.05 191.84 213.63 191.84 213.17C191.84 212.38 191.65 211.77 191.27 211.34C190.9 210.9 190.26 210.68 189.35 210.68C188.89 210.68 188.59 210.765 188.45 210.935C188.31 211.105 188.24 211.45 188.24 211.97V219.41C188.24 219.77 188.27 220.04 188.33 220.22C188.39 220.4 188.505 220.52 188.675 220.58C188.855 220.64 189.115 220.68 189.455 220.7V221C189.225 220.98 188.935 220.97 188.585 220.97C188.245 220.96 187.9 220.955 187.55 220.955C187.16 220.955 186.795 220.96 186.455 220.97C186.115 220.97 185.84 220.98 185.63 221V220.7C185.97 220.68 186.225 220.64 186.395 220.58C186.575 220.52 186.695 220.4 186.755 220.22C186.815 220.04 186.845 219.77 186.845 219.41V211.97C186.845 211.6 186.815 211.33 186.755 211.16C186.695 210.98 186.575 210.86 186.395 210.8C186.225 210.73 185.97 210.69 185.63 210.68V210.38ZM188.015 215.705C188.555 215.725 188.98 215.75 189.29 215.78C189.6 215.8 189.85 215.82 190.04 215.84C190.24 215.86 190.43 215.885 190.61 215.915C191.28 216.025 191.76 216.23 192.05 216.53C192.35 216.82 192.57 217.275 192.71 217.895L193.085 219.425C193.185 219.865 193.285 220.185 193.385 220.385C193.495 220.575 193.66 220.665 193.88 220.655C194.05 220.645 194.19 220.59 194.3 220.49C194.42 220.39 194.545 220.255 194.675 220.085L194.9 220.25C194.69 220.56 194.47 220.8 194.24 220.97C194.02 221.13 193.705 221.21 193.295 221.21C192.925 221.21 192.6 221.1 192.32 220.88C192.04 220.66 191.83 220.23 191.69 219.59L191.36 218.09C191.27 217.66 191.165 217.29 191.045 216.98C190.935 216.66 190.775 216.41 190.565 216.23C190.365 216.05 190.065 215.96 189.665 215.96H188.045L188.015 215.705ZM198.807 213.065C199.687 213.065 200.372 213.335 200.862 213.875C201.362 214.405 201.612 215.235 201.612 216.365H196.317L196.302 216.08H200.172C200.192 215.59 200.152 215.14 200.052 214.73C199.952 214.31 199.792 213.975 199.572 213.725C199.362 213.475 199.087 213.35 198.747 213.35C198.287 213.35 197.877 213.58 197.517 214.04C197.167 214.5 196.957 215.23 196.887 216.23L196.932 216.29C196.912 216.44 196.897 216.605 196.887 216.785C196.877 216.965 196.872 217.145 196.872 217.325C196.872 218.005 196.982 218.59 197.202 219.08C197.422 219.57 197.707 219.945 198.057 220.205C198.417 220.455 198.787 220.58 199.167 220.58C199.467 220.58 199.752 220.535 200.022 220.445C200.292 220.345 200.542 220.185 200.772 219.965C201.002 219.745 201.202 219.45 201.372 219.08L201.672 219.2C201.562 219.53 201.382 219.85 201.132 220.16C200.882 220.47 200.567 220.725 200.187 220.925C199.807 221.115 199.367 221.21 198.867 221.21C198.147 221.21 197.527 221.045 197.007 220.715C196.497 220.385 196.102 219.93 195.822 219.35C195.552 218.76 195.417 218.085 195.417 217.325C195.417 216.445 195.557 215.69 195.837 215.06C196.117 214.42 196.512 213.93 197.022 213.59C197.532 213.24 198.127 213.065 198.807 213.065ZM204.879 221.105C204.469 221.105 204.114 221.03 203.814 220.88C203.514 220.72 203.284 220.5 203.124 220.22C202.974 219.94 202.899 219.615 202.899 219.245C202.899 218.805 202.999 218.445 203.199 218.165C203.409 217.885 203.674 217.66 203.994 217.49C204.314 217.32 204.649 217.18 204.999 217.07C205.359 216.95 205.699 216.84 206.019 216.74C206.339 216.63 206.599 216.505 206.799 216.365C207.009 216.225 207.114 216.04 207.114 215.81V214.88C207.114 214.46 207.049 214.14 206.919 213.92C206.799 213.7 206.634 213.555 206.424 213.485C206.214 213.405 205.979 213.365 205.719 213.365C205.469 213.365 205.199 213.4 204.909 213.47C204.629 213.54 204.404 213.685 204.234 213.905C204.424 213.945 204.589 214.045 204.729 214.205C204.869 214.365 204.939 214.57 204.939 214.82C204.939 215.07 204.859 215.27 204.699 215.42C204.539 215.56 204.334 215.63 204.084 215.63C203.794 215.63 203.579 215.54 203.439 215.36C203.309 215.17 203.244 214.96 203.244 214.73C203.244 214.47 203.309 214.26 203.439 214.1C203.569 213.94 203.734 213.79 203.934 213.65C204.164 213.49 204.459 213.355 204.819 213.245C205.189 213.125 205.604 213.065 206.064 213.065C206.474 213.065 206.824 213.115 207.114 213.215C207.404 213.305 207.644 213.44 207.834 213.62C208.094 213.86 208.264 214.155 208.344 214.505C208.424 214.845 208.464 215.255 208.464 215.735V219.905C208.464 220.155 208.499 220.335 208.569 220.445C208.649 220.555 208.769 220.61 208.929 220.61C209.039 220.61 209.144 220.585 209.244 220.535C209.344 220.485 209.464 220.405 209.604 220.295L209.769 220.55C209.559 220.71 209.359 220.845 209.169 220.955C208.979 221.055 208.724 221.105 208.404 221.105C208.114 221.105 207.874 221.055 207.684 220.955C207.494 220.855 207.349 220.71 207.249 220.52C207.159 220.32 207.114 220.07 207.114 219.77C206.844 220.22 206.519 220.555 206.139 220.775C205.769 220.995 205.349 221.105 204.879 221.105ZM205.419 220.505C205.749 220.505 206.054 220.41 206.334 220.22C206.624 220.03 206.884 219.745 207.114 219.365V216.425C206.994 216.595 206.819 216.74 206.589 216.86C206.359 216.97 206.109 217.085 205.839 217.205C205.569 217.315 205.309 217.45 205.059 217.61C204.819 217.76 204.619 217.96 204.459 218.21C204.299 218.46 204.219 218.785 204.219 219.185C204.219 219.585 204.324 219.905 204.534 220.145C204.754 220.385 205.049 220.505 205.419 220.505ZM213.97 213.065C214.29 213.065 214.6 213.105 214.9 213.185C215.2 213.265 215.47 213.385 215.71 213.545C215.94 213.695 216.115 213.87 216.235 214.07C216.355 214.26 216.415 214.47 216.415 214.7C216.415 214.97 216.34 215.18 216.19 215.33C216.04 215.47 215.85 215.54 215.62 215.54C215.4 215.54 215.205 215.475 215.035 215.345C214.875 215.215 214.795 215.03 214.795 214.79C214.795 214.56 214.855 214.375 214.975 214.235C215.105 214.095 215.255 214.005 215.425 213.965C215.325 213.785 215.145 213.635 214.885 213.515C214.635 213.395 214.365 213.335 214.075 213.335C213.825 213.335 213.575 213.395 213.325 213.515C213.075 213.635 212.845 213.835 212.635 214.115C212.425 214.385 212.255 214.76 212.125 215.24C211.995 215.71 211.93 216.3 211.93 217.01C211.93 217.89 212.03 218.59 212.23 219.11C212.43 219.63 212.69 220.005 213.01 220.235C213.34 220.455 213.7 220.565 214.09 220.565C214.35 220.565 214.615 220.515 214.885 220.415C215.155 220.315 215.41 220.155 215.65 219.935C215.89 219.705 216.095 219.4 216.265 219.02L216.55 219.125C216.45 219.445 216.285 219.77 216.055 220.1C215.825 220.42 215.525 220.685 215.155 220.895C214.785 221.105 214.33 221.21 213.79 221.21C213.17 221.21 212.61 221.05 212.11 220.73C211.61 220.41 211.21 219.955 210.91 219.365C210.62 218.765 210.475 218.055 210.475 217.235C210.475 216.415 210.62 215.695 210.91 215.075C211.21 214.445 211.625 213.955 212.155 213.605C212.685 213.245 213.29 213.065 213.97 213.065ZM219.93 210.785V213.29H222.15V213.59H219.93V219.395C219.93 219.865 220.015 220.195 220.185 220.385C220.355 220.575 220.59 220.67 220.89 220.67C221.19 220.67 221.45 220.55 221.67 220.31C221.89 220.06 222.08 219.645 222.24 219.065L222.54 219.14C222.44 219.72 222.24 220.21 221.94 220.61C221.65 221.01 221.2 221.21 220.59 221.21C220.25 221.21 219.97 221.165 219.75 221.075C219.53 220.995 219.335 220.875 219.165 220.715C218.945 220.485 218.79 220.21 218.7 219.89C218.62 219.57 218.58 219.145 218.58 218.615V213.59H217.14V213.29H218.58V210.995C218.83 210.985 219.07 210.965 219.3 210.935C219.53 210.905 219.74 210.855 219.93 210.785Z" fill="white"/>
</g>
<g id="css">
<rect width="27" height="20" transform="translate(254 205)" fill="#1D1D42"/>
<path id="css_2" d="M259.565 210.17C260.225 210.17 260.765 210.27 261.185 210.47C261.615 210.66 261.995 210.885 262.325 211.145C262.525 211.295 262.675 211.315 262.775 211.205C262.885 211.085 262.96 210.81 263 210.38H263.345C263.325 210.75 263.31 211.2 263.3 211.73C263.29 212.26 263.285 212.96 263.285 213.83H262.94C262.87 213.4 262.805 213.06 262.745 212.81C262.685 212.55 262.61 212.33 262.52 212.15C262.44 211.97 262.33 211.79 262.19 211.61C261.88 211.2 261.49 210.905 261.02 210.725C260.55 210.535 260.055 210.44 259.535 210.44C259.045 210.44 258.6 210.565 258.2 210.815C257.81 211.055 257.47 211.405 257.18 211.865C256.9 212.325 256.68 212.88 256.52 213.53C256.37 214.18 256.295 214.91 256.295 215.72C256.295 216.56 256.38 217.305 256.55 217.955C256.72 218.595 256.955 219.135 257.255 219.575C257.565 220.015 257.925 220.35 258.335 220.58C258.755 220.8 259.205 220.91 259.685 220.91C260.135 220.91 260.605 220.82 261.095 220.64C261.585 220.46 261.97 220.17 262.25 219.77C262.47 219.48 262.62 219.165 262.7 218.825C262.79 218.485 262.87 218.01 262.94 217.4H263.285C263.285 218.31 263.29 219.045 263.3 219.605C263.31 220.155 263.325 220.62 263.345 221H263C262.96 220.57 262.89 220.3 262.79 220.19C262.7 220.08 262.545 220.095 262.325 220.235C261.955 220.495 261.56 220.725 261.14 220.925C260.73 221.115 260.2 221.21 259.55 221.21C258.6 221.21 257.765 220.995 257.045 220.565C256.335 220.135 255.78 219.515 255.38 218.705C254.99 217.895 254.795 216.92 254.795 215.78C254.795 214.66 255 213.68 255.41 212.84C255.82 212 256.38 211.345 257.09 210.875C257.81 210.405 258.635 210.17 259.565 210.17ZM268.167 210.215C268.667 210.215 269.047 210.275 269.307 210.395C269.567 210.505 269.797 210.63 269.997 210.77C270.117 210.84 270.212 210.895 270.282 210.935C270.362 210.965 270.437 210.98 270.507 210.98C270.607 210.98 270.677 210.925 270.717 210.815C270.767 210.705 270.807 210.54 270.837 210.32H271.182C271.172 210.49 271.157 210.695 271.137 210.935C271.127 211.165 271.117 211.475 271.107 211.865C271.107 212.245 271.107 212.75 271.107 213.38H270.762C270.732 212.9 270.627 212.44 270.447 212C270.267 211.56 270.002 211.2 269.652 210.92C269.312 210.64 268.862 210.5 268.302 210.5C267.772 210.5 267.332 210.66 266.982 210.98C266.642 211.3 266.472 211.72 266.472 212.24C266.472 212.69 266.587 213.07 266.817 213.38C267.047 213.68 267.352 213.955 267.732 214.205C268.122 214.445 268.542 214.705 268.992 214.985C269.512 215.305 269.972 215.625 270.372 215.945C270.782 216.255 271.102 216.6 271.332 216.98C271.572 217.36 271.692 217.82 271.692 218.36C271.692 219 271.547 219.53 271.257 219.95C270.967 220.37 270.582 220.685 270.102 220.895C269.622 221.105 269.092 221.21 268.512 221.21C267.982 221.21 267.562 221.15 267.252 221.03C266.942 220.91 266.677 220.785 266.457 220.655C266.237 220.515 266.067 220.445 265.947 220.445C265.847 220.445 265.772 220.5 265.722 220.61C265.682 220.72 265.647 220.885 265.617 221.105H265.272C265.292 220.895 265.302 220.65 265.302 220.37C265.312 220.08 265.317 219.705 265.317 219.245C265.327 218.785 265.332 218.205 265.332 217.505H265.677C265.717 218.105 265.827 218.665 266.007 219.185C266.197 219.705 266.482 220.125 266.862 220.445C267.252 220.755 267.767 220.91 268.407 220.91C268.737 220.91 269.047 220.845 269.337 220.715C269.637 220.575 269.882 220.36 270.072 220.07C270.262 219.77 270.357 219.385 270.357 218.915C270.357 218.505 270.257 218.15 270.057 217.85C269.867 217.54 269.597 217.255 269.247 216.995C268.897 216.725 268.487 216.45 268.017 216.17C267.547 215.88 267.107 215.585 266.697 215.285C266.287 214.985 265.957 214.64 265.707 214.25C265.467 213.85 265.347 213.37 265.347 212.81C265.347 212.22 265.477 211.735 265.737 211.355C266.007 210.965 266.357 210.68 266.787 210.5C267.217 210.31 267.677 210.215 268.167 210.215ZM276.268 210.215C276.768 210.215 277.148 210.275 277.408 210.395C277.668 210.505 277.898 210.63 278.098 210.77C278.218 210.84 278.313 210.895 278.383 210.935C278.463 210.965 278.538 210.98 278.608 210.98C278.708 210.98 278.778 210.925 278.818 210.815C278.868 210.705 278.908 210.54 278.938 210.32H279.283C279.273 210.49 279.258 210.695 279.238 210.935C279.228 211.165 279.218 211.475 279.208 211.865C279.208 212.245 279.208 212.75 279.208 213.38H278.863C278.833 212.9 278.728 212.44 278.548 212C278.368 211.56 278.103 211.2 277.753 210.92C277.413 210.64 276.963 210.5 276.403 210.5C275.873 210.5 275.433 210.66 275.083 210.98C274.743 211.3 274.573 211.72 274.573 212.24C274.573 212.69 274.688 213.07 274.918 213.38C275.148 213.68 275.453 213.955 275.833 214.205C276.223 214.445 276.643 214.705 277.093 214.985C277.613 215.305 278.073 215.625 278.473 215.945C278.883 216.255 279.203 216.6 279.433 216.98C279.673 217.36 279.793 217.82 279.793 218.36C279.793 219 279.648 219.53 279.358 219.95C279.068 220.37 278.683 220.685 278.203 220.895C277.723 221.105 277.193 221.21 276.613 221.21C276.083 221.21 275.663 221.15 275.353 221.03C275.043 220.91 274.778 220.785 274.558 220.655C274.338 220.515 274.168 220.445 274.048 220.445C273.948 220.445 273.873 220.5 273.823 220.61C273.783 220.72 273.748 220.885 273.718 221.105H273.373C273.393 220.895 273.403 220.65 273.403 220.37C273.413 220.08 273.418 219.705 273.418 219.245C273.428 218.785 273.433 218.205 273.433 217.505H273.778C273.818 218.105 273.928 218.665 274.108 219.185C274.298 219.705 274.583 220.125 274.963 220.445C275.353 220.755 275.868 220.91 276.508 220.91C276.838 220.91 277.148 220.845 277.438 220.715C277.738 220.575 277.983 220.36 278.173 220.07C278.363 219.77 278.458 219.385 278.458 218.915C278.458 218.505 278.358 218.15 278.158 217.85C277.968 217.54 277.698 217.255 277.348 216.995C276.998 216.725 276.588 216.45 276.118 216.17C275.648 215.88 275.208 215.585 274.798 215.285C274.388 214.985 274.058 214.64 273.808 214.25C273.568 213.85 273.448 213.37 273.448 212.81C273.448 212.22 273.578 211.735 273.838 211.355C274.108 210.965 274.458 210.68 274.888 210.5C275.318 210.31 275.778 210.215 276.268 210.215Z" fill="white"/>
</g>
<g id="js">
<rect width="13" height="20" transform="translate(325 205)" fill="#1D1D42"/>
<path id="js_2" d="M324.7 223.82V223.535C325.15 223.525 325.525 223.415 325.825 223.205C326.135 222.995 326.365 222.645 326.515 222.155C326.675 221.675 326.755 221.03 326.755 220.22V211.97C326.755 211.6 326.725 211.33 326.665 211.16C326.605 210.98 326.485 210.86 326.305 210.8C326.135 210.73 325.88 210.69 325.54 210.68V210.38C325.75 210.39 326.025 210.4 326.365 210.41C326.705 210.42 327.06 210.425 327.43 210.425C327.8 210.425 328.155 210.42 328.495 210.41C328.845 210.4 329.135 210.39 329.365 210.38V210.68C329.025 210.69 328.765 210.73 328.585 210.8C328.415 210.86 328.3 210.98 328.24 211.16C328.18 211.33 328.15 211.6 328.15 211.97V217.46C328.15 217.87 328.145 218.315 328.135 218.795C328.125 219.275 328.1 219.74 328.06 220.19C328.03 220.64 327.975 221.035 327.895 221.375C327.725 222.075 327.365 222.655 326.815 223.115C326.275 223.585 325.57 223.82 324.7 223.82ZM333.733 210.215C334.233 210.215 334.613 210.275 334.873 210.395C335.133 210.505 335.363 210.63 335.563 210.77C335.683 210.84 335.778 210.895 335.848 210.935C335.928 210.965 336.003 210.98 336.073 210.98C336.173 210.98 336.243 210.925 336.283 210.815C336.333 210.705 336.373 210.54 336.403 210.32H336.748C336.738 210.49 336.723 210.695 336.703 210.935C336.693 211.165 336.683 211.475 336.673 211.865C336.673 212.245 336.673 212.75 336.673 213.38H336.328C336.298 212.9 336.193 212.44 336.013 212C335.833 211.56 335.568 211.2 335.218 210.92C334.878 210.64 334.428 210.5 333.868 210.5C333.338 210.5 332.898 210.66 332.548 210.98C332.208 211.3 332.038 211.72 332.038 212.24C332.038 212.69 332.153 213.07 332.383 213.38C332.613 213.68 332.918 213.955 333.298 214.205C333.688 214.445 334.108 214.705 334.558 214.985C335.078 215.305 335.538 215.625 335.938 215.945C336.348 216.255 336.668 216.6 336.898 216.98C337.138 217.36 337.258 217.82 337.258 218.36C337.258 219 337.113 219.53 336.823 219.95C336.533 220.37 336.148 220.685 335.668 220.895C335.188 221.105 334.658 221.21 334.078 221.21C333.548 221.21 333.128 221.15 332.818 221.03C332.508 220.91 332.243 220.785 332.023 220.655C331.803 220.515 331.633 220.445 331.513 220.445C331.413 220.445 331.338 220.5 331.288 220.61C331.248 220.72 331.213 220.885 331.183 221.105H330.838C330.858 220.895 330.868 220.65 330.868 220.37C330.878 220.08 330.883 219.705 330.883 219.245C330.893 218.785 330.898 218.205 330.898 217.505H331.243C331.283 218.105 331.393 218.665 331.573 219.185C331.763 219.705 332.048 220.125 332.428 220.445C332.818 220.755 333.333 220.91 333.973 220.91C334.303 220.91 334.613 220.845 334.903 220.715C335.203 220.575 335.448 220.36 335.638 220.07C335.828 219.77 335.923 219.385 335.923 218.915C335.923 218.505 335.823 218.15 335.623 217.85C335.433 217.54 335.163 217.255 334.813 216.995C334.463 216.725 334.053 216.45 333.583 216.17C333.113 215.88 332.673 215.585 332.263 215.285C331.853 214.985 331.523 214.64 331.273 214.25C331.033 213.85 330.913 213.37 330.913 212.81C330.913 212.22 331.043 211.735 331.303 211.355C331.573 210.965 331.923 210.68 332.353 210.5C332.783 210.31 333.243 210.215 333.733 210.215Z" fill="white"/>
</g>
<g id="svg">
<rect width="28" height="20" transform="translate(382 205)" fill="#1D1D42"/>
<path id="svg_2" d="M385.84 210.215C386.34 210.215 386.72 210.275 386.98 210.395C387.24 210.505 387.47 210.63 387.67 210.77C387.79 210.84 387.885 210.895 387.955 210.935C388.035 210.965 388.11 210.98 388.18 210.98C388.28 210.98 388.35 210.925 388.39 210.815C388.44 210.705 388.48 210.54 388.51 210.32H388.855C388.845 210.49 388.83 210.695 388.81 210.935C388.8 211.165 388.79 211.475 388.78 211.865C388.78 212.245 388.78 212.75 388.78 213.38H388.435C388.405 212.9 388.3 212.44 388.12 212C387.94 211.56 387.675 211.2 387.325 210.92C386.985 210.64 386.535 210.5 385.975 210.5C385.445 210.5 385.005 210.66 384.655 210.98C384.315 211.3 384.145 211.72 384.145 212.24C384.145 212.69 384.26 213.07 384.49 213.38C384.72 213.68 385.025 213.955 385.405 214.205C385.795 214.445 386.215 214.705 386.665 214.985C387.185 215.305 387.645 215.625 388.045 215.945C388.455 216.255 388.775 216.6 389.005 216.98C389.245 217.36 389.365 217.82 389.365 218.36C389.365 219 389.22 219.53 388.93 219.95C388.64 220.37 388.255 220.685 387.775 220.895C387.295 221.105 386.765 221.21 386.185 221.21C385.655 221.21 385.235 221.15 384.925 221.03C384.615 220.91 384.35 220.785 384.13 220.655C383.91 220.515 383.74 220.445 383.62 220.445C383.52 220.445 383.445 220.5 383.395 220.61C383.355 220.72 383.32 220.885 383.29 221.105H382.945C382.965 220.895 382.975 220.65 382.975 220.37C382.985 220.08 382.99 219.705 382.99 219.245C383 218.785 383.005 218.205 383.005 217.505H383.35C383.39 218.105 383.5 218.665 383.68 219.185C383.87 219.705 384.155 220.125 384.535 220.445C384.925 220.755 385.44 220.91 386.08 220.91C386.41 220.91 386.72 220.845 387.01 220.715C387.31 220.575 387.555 220.36 387.745 220.07C387.935 219.77 388.03 219.385 388.03 218.915C388.03 218.505 387.93 218.15 387.73 217.85C387.54 217.54 387.27 217.255 386.92 216.995C386.57 216.725 386.16 216.45 385.69 216.17C385.22 215.88 384.78 215.585 384.37 215.285C383.96 214.985 383.63 214.64 383.38 214.25C383.14 213.85 383.02 213.37 383.02 212.81C383.02 212.22 383.15 211.735 383.41 211.355C383.68 210.965 384.03 210.68 384.46 210.5C384.89 210.31 385.35 210.215 385.84 210.215ZM399.656 210.38V210.68C399.466 210.72 399.261 210.835 399.041 211.025C398.831 211.215 398.641 211.535 398.471 211.985L394.946 221.075C394.926 221.075 394.906 221.075 394.886 221.075C394.866 221.075 394.846 221.075 394.826 221.075C394.806 221.075 394.786 221.075 394.766 221.075C394.746 221.075 394.726 221.075 394.706 221.075L391.046 211.64C390.896 211.26 390.726 211.01 390.536 210.89C390.346 210.76 390.171 210.69 390.011 210.68V210.38C390.211 210.39 390.456 210.4 390.746 210.41C391.046 210.42 391.336 210.425 391.616 210.425C392.006 210.425 392.371 210.42 392.711 210.41C393.051 210.4 393.326 210.39 393.536 210.38V210.68C393.196 210.69 392.936 210.73 392.756 210.8C392.586 210.87 392.491 210.995 392.471 211.175C392.461 211.345 392.521 211.6 392.651 211.94L395.441 219.335L395.201 219.59L397.811 212.81C398.021 212.27 398.121 211.85 398.111 211.55C398.101 211.24 397.986 211.02 397.766 210.89C397.546 210.76 397.226 210.69 396.806 210.68V210.38C397.096 210.39 397.391 210.4 397.691 210.41C397.991 210.42 398.271 210.425 398.531 210.425C398.791 210.425 399.006 210.42 399.176 210.41C399.346 210.4 399.506 210.39 399.656 210.38ZM404.94 210.17C405.59 210.17 406.115 210.27 406.515 210.47C406.915 210.66 407.29 210.885 407.64 211.145C407.77 211.245 407.87 211.295 407.94 211.295C408.13 211.295 408.255 210.99 408.315 210.38H408.66C408.64 210.75 408.625 211.2 408.615 211.73C408.605 212.26 408.6 212.96 408.6 213.83H408.255C408.185 213.41 408.1 213.005 408 212.615C407.9 212.225 407.735 211.89 407.505 211.61C407.215 211.24 406.835 210.955 406.365 210.755C405.895 210.545 405.41 210.44 404.91 210.44C404.41 210.44 403.955 210.565 403.545 210.815C403.145 211.055 402.8 211.405 402.51 211.865C402.22 212.325 401.995 212.88 401.835 213.53C401.685 214.17 401.61 214.895 401.61 215.705C401.61 217.505 401.9 218.825 402.48 219.665C403.06 220.495 403.96 220.91 405.18 220.91C405.54 220.91 405.85 220.86 406.11 220.76C406.38 220.65 406.59 220.545 406.74 220.445C406.93 220.315 407.05 220.195 407.1 220.085C407.15 219.965 407.175 219.81 407.175 219.62V218.18C407.175 217.77 407.135 217.465 407.055 217.265C406.975 217.065 406.825 216.93 406.605 216.86C406.395 216.79 406.08 216.75 405.66 216.74V216.44C405.84 216.45 406.05 216.46 406.29 216.47C406.53 216.47 406.78 216.475 407.04 216.485C407.31 216.485 407.555 216.485 407.775 216.485C408.105 216.485 408.4 216.48 408.66 216.47C408.93 216.46 409.155 216.45 409.335 216.44V216.74C409.115 216.75 408.95 216.785 408.84 216.845C408.73 216.905 408.655 217.025 408.615 217.205C408.585 217.385 408.57 217.66 408.57 218.03V221H408.27C408.26 220.83 408.22 220.645 408.15 220.445C408.09 220.245 407.995 220.145 407.865 220.145C407.805 220.145 407.745 220.16 407.685 220.19C407.625 220.22 407.52 220.29 407.37 220.4C407.04 220.65 406.69 220.85 406.32 221C405.95 221.14 405.52 221.21 405.03 221.21C404 221.21 403.115 221 402.375 220.58C401.645 220.15 401.085 219.535 400.695 218.735C400.305 217.935 400.11 216.98 400.11 215.87C400.11 214.7 400.32 213.69 400.74 212.84C401.16 211.99 401.73 211.335 402.45 210.875C403.18 210.405 404.01 210.17 404.94 210.17Z" fill="white"/>
</g>
<g id="php">
<rect width="29" height="20" transform="translate(509 205)" fill="#1D1D42"/>
<path id="php_2" d="M509.63 210.38C509.84 210.39 510.115 210.4 510.455 210.41C510.795 210.42 511.13 210.425 511.46 210.425C511.93 210.425 512.38 210.42 512.81 210.41C513.24 210.4 513.545 210.395 513.725 210.395C514.935 210.395 515.84 210.67 516.44 211.22C517.04 211.77 517.34 212.48 517.34 213.35C517.34 213.71 517.28 214.09 517.16 214.49C517.04 214.88 516.83 215.245 516.53 215.585C516.24 215.915 515.84 216.185 515.33 216.395C514.82 216.605 514.175 216.71 513.395 216.71H511.955V216.41H513.245C513.955 216.41 514.495 216.275 514.865 216.005C515.245 215.735 515.5 215.38 515.63 214.94C515.77 214.5 515.84 214.025 515.84 213.515C515.84 212.565 515.65 211.855 515.27 211.385C514.9 210.915 514.26 210.68 513.35 210.68C512.89 210.68 512.59 210.765 512.45 210.935C512.31 211.105 512.24 211.45 512.24 211.97V219.41C512.24 219.77 512.275 220.04 512.345 220.22C512.425 220.4 512.575 220.52 512.795 220.58C513.015 220.64 513.335 220.68 513.755 220.7V221C513.495 220.98 513.165 220.97 512.765 220.97C512.365 220.96 511.96 220.955 511.55 220.955C511.16 220.955 510.795 220.96 510.455 220.97C510.115 220.97 509.84 220.98 509.63 221V220.7C509.97 220.68 510.225 220.64 510.395 220.58C510.575 220.52 510.695 220.4 510.755 220.22C510.815 220.04 510.845 219.77 510.845 219.41V211.97C510.845 211.6 510.815 211.33 510.755 211.16C510.695 210.98 510.575 210.86 510.395 210.8C510.225 210.73 509.97 210.69 509.63 210.68V210.38ZM524.674 221V220.7C525.014 220.68 525.269 220.64 525.439 220.58C525.619 220.52 525.739 220.4 525.799 220.22C525.859 220.04 525.889 219.77 525.889 219.41V211.97C525.889 211.6 525.859 211.33 525.799 211.16C525.739 210.98 525.619 210.86 525.439 210.8C525.269 210.73 525.014 210.69 524.674 210.68V210.38C524.904 210.39 525.194 210.4 525.544 210.41C525.894 210.42 526.239 210.425 526.579 210.425C526.969 210.425 527.334 210.42 527.674 210.41C528.014 210.4 528.289 210.39 528.499 210.38V210.68C528.159 210.69 527.899 210.73 527.719 210.8C527.549 210.86 527.434 210.98 527.374 211.16C527.314 211.33 527.284 211.6 527.284 211.97V219.41C527.284 219.77 527.314 220.04 527.374 220.22C527.434 220.4 527.549 220.52 527.719 220.58C527.899 220.64 528.159 220.68 528.499 220.7V221C528.289 220.98 528.014 220.97 527.674 220.97C527.334 220.96 526.969 220.955 526.579 220.955C526.239 220.955 525.894 220.96 525.544 220.97C525.194 220.97 524.904 220.98 524.674 221ZM518.404 221V220.7C518.744 220.68 518.999 220.64 519.169 220.58C519.349 220.52 519.469 220.4 519.529 220.22C519.589 220.04 519.619 219.77 519.619 219.41V211.97C519.619 211.6 519.589 211.33 519.529 211.16C519.469 210.98 519.349 210.86 519.169 210.8C518.999 210.73 518.744 210.69 518.404 210.68V210.38C518.614 210.39 518.889 210.4 519.229 210.41C519.569 210.42 519.934 210.425 520.324 210.425C520.674 210.425 521.019 210.42 521.359 210.41C521.709 210.4 521.999 210.39 522.229 210.38V210.68C521.889 210.69 521.629 210.73 521.449 210.8C521.279 210.86 521.164 210.98 521.104 211.16C521.044 211.33 521.014 211.6 521.014 211.97V219.41C521.014 219.77 521.044 220.04 521.104 220.22C521.164 220.4 521.279 220.52 521.449 220.58C521.629 220.64 521.889 220.68 522.229 220.7V221C521.999 220.98 521.709 220.97 521.359 220.97C521.019 220.96 520.674 220.955 520.324 220.955C519.934 220.955 519.569 220.96 519.229 220.97C518.889 220.97 518.614 220.98 518.404 221ZM520.489 215.81V215.51H526.414V215.81H520.489ZM529.757 210.38C529.967 210.39 530.242 210.4 530.582 210.41C530.922 210.42 531.257 210.425 531.587 210.425C532.057 210.425 532.507 210.42 532.937 210.41C533.367 210.4 533.672 210.395 533.852 210.395C535.062 210.395 535.967 210.67 536.567 211.22C537.167 211.77 537.467 212.48 537.467 213.35C537.467 213.71 537.407 214.09 537.287 214.49C537.167 214.88 536.957 215.245 536.657 215.585C536.367 215.915 535.967 216.185 535.457 216.395C534.947 216.605 534.302 216.71 533.522 216.71H532.082V216.41H533.372C534.082 216.41 534.622 216.275 534.992 216.005C535.372 215.735 535.627 215.38 535.757 214.94C535.897 214.5 535.967 214.025 535.967 213.515C535.967 212.565 535.777 211.855 535.397 211.385C535.027 210.915 534.387 210.68 533.477 210.68C533.017 210.68 532.717 210.765 532.577 210.935C532.437 211.105 532.367 211.45 532.367 211.97V219.41C532.367 219.77 532.402 220.04 532.472 220.22C532.552 220.4 532.702 220.52 532.922 220.58C533.142 220.64 533.462 220.68 533.882 220.7V221C533.622 220.98 533.292 220.97 532.892 220.97C532.492 220.96 532.087 220.955 531.677 220.955C531.287 220.955 530.922 220.96 530.582 220.97C530.242 220.97 529.967 220.98 529.757 221V220.7C530.097 220.68 530.352 220.64 530.522 220.58C530.702 220.52 530.822 220.4 530.882 220.22C530.942 220.04 530.972 219.77 530.972 219.41V211.97C530.972 211.6 530.942 211.33 530.882 211.16C530.822 210.98 530.702 210.86 530.522 210.8C530.352 210.73 530.097 210.69 529.757 210.68V210.38Z" fill="white"/>
</g>
<g id="scss">
<rect width="38.6631" height="34" transform="translate(123 205)" fill="#1D1D42"/>
<path id="scss_2" d="M126.84 209.215C127.34 209.215 127.72 209.275 127.98 209.395C128.24 209.505 128.47 209.63 128.67 209.77C128.79 209.84 128.885 209.895 128.955 209.935C129.035 209.965 129.11 209.98 129.18 209.98C129.28 209.98 129.35 209.925 129.39 209.815C129.44 209.705 129.48 209.54 129.51 209.32H129.855C129.845 209.49 129.83 209.695 129.81 209.935C129.8 210.165 129.79 210.475 129.78 210.865C129.78 211.245 129.78 211.75 129.78 212.38H129.435C129.405 211.9 129.3 211.44 129.12 211C128.94 210.56 128.675 210.2 128.325 209.92C127.985 209.64 127.535 209.5 126.975 209.5C126.445 209.5 126.005 209.66 125.655 209.98C125.315 210.3 125.145 210.72 125.145 211.24C125.145 211.69 125.26 212.07 125.49 212.38C125.72 212.68 126.025 212.955 126.405 213.205C126.795 213.445 127.215 213.705 127.665 213.985C128.185 214.305 128.645 214.625 129.045 214.945C129.455 215.255 129.775 215.6 130.005 215.98C130.245 216.36 130.365 216.82 130.365 217.36C130.365 218 130.22 218.53 129.93 218.95C129.64 219.37 129.255 219.685 128.775 219.895C128.295 220.105 127.765 220.21 127.185 220.21C126.655 220.21 126.235 220.15 125.925 220.03C125.615 219.91 125.35 219.785 125.13 219.655C124.91 219.515 124.74 219.445 124.62 219.445C124.52 219.445 124.445 219.5 124.395 219.61C124.355 219.72 124.32 219.885 124.29 220.105H123.945C123.965 219.895 123.975 219.65 123.975 219.37C123.985 219.08 123.99 218.705 123.99 218.245C124 217.785 124.005 217.205 124.005 216.505H124.35C124.39 217.105 124.5 217.665 124.68 218.185C124.87 218.705 125.155 219.125 125.535 219.445C125.925 219.755 126.44 219.91 127.08 219.91C127.41 219.91 127.72 219.845 128.01 219.715C128.31 219.575 128.555 219.36 128.745 219.07C128.935 218.77 129.03 218.385 129.03 217.915C129.03 217.505 128.93 217.15 128.73 216.85C128.54 216.54 128.27 216.255 127.92 215.995C127.57 215.725 127.16 215.45 126.69 215.17C126.22 214.88 125.78 214.585 125.37 214.285C124.96 213.985 124.63 213.64 124.38 213.25C124.14 212.85 124.02 212.37 124.02 211.81C124.02 211.22 124.15 210.735 124.41 210.355C124.68 209.965 125.03 209.68 125.46 209.5C125.89 209.31 126.35 209.215 126.84 209.215ZM136.666 209.17C137.326 209.17 137.866 209.27 138.286 209.47C138.716 209.66 139.096 209.885 139.426 210.145C139.626 210.295 139.776 210.315 139.876 210.205C139.986 210.085 140.061 209.81 140.101 209.38H140.446C140.426 209.75 140.411 210.2 140.401 210.73C140.391 211.26 140.386 211.96 140.386 212.83H140.041C139.971 212.4 139.906 212.06 139.846 211.81C139.786 211.55 139.711 211.33 139.621 211.15C139.541 210.97 139.431 210.79 139.291 210.61C138.981 210.2 138.591 209.905 138.121 209.725C137.651 209.535 137.156 209.44 136.636 209.44C136.146 209.44 135.701 209.565 135.301 209.815C134.911 210.055 134.571 210.405 134.281 210.865C134.001 211.325 133.781 211.88 133.621 212.53C133.471 213.18 133.396 213.91 133.396 214.72C133.396 215.56 133.481 216.305 133.651 216.955C133.821 217.595 134.056 218.135 134.356 218.575C134.666 219.015 135.026 219.35 135.436 219.58C135.856 219.8 136.306 219.91 136.786 219.91C137.236 219.91 137.706 219.82 138.196 219.64C138.686 219.46 139.071 219.17 139.351 218.77C139.571 218.48 139.721 218.165 139.801 217.825C139.891 217.485 139.971 217.01 140.041 216.4H140.386C140.386 217.31 140.391 218.045 140.401 218.605C140.411 219.155 140.426 219.62 140.446 220H140.101C140.061 219.57 139.991 219.3 139.891 219.19C139.801 219.08 139.646 219.095 139.426 219.235C139.056 219.495 138.661 219.725 138.241 219.925C137.831 220.115 137.301 220.21 136.651 220.21C135.701 220.21 134.866 219.995 134.146 219.565C133.436 219.135 132.881 218.515 132.481 217.705C132.091 216.895 131.896 215.92 131.896 214.78C131.896 213.66 132.101 212.68 132.511 211.84C132.921 211 133.481 210.345 134.191 209.875C134.911 209.405 135.736 209.17 136.666 209.17ZM145.268 209.215C145.768 209.215 146.148 209.275 146.408 209.395C146.668 209.505 146.898 209.63 147.098 209.77C147.218 209.84 147.313 209.895 147.383 209.935C147.463 209.965 147.538 209.98 147.608 209.98C147.708 209.98 147.778 209.925 147.818 209.815C147.868 209.705 147.908 209.54 147.938 209.32H148.283C148.273 209.49 148.258 209.695 148.238 209.935C148.228 210.165 148.218 210.475 148.208 210.865C148.208 211.245 148.208 211.75 148.208 212.38H147.863C147.833 211.9 147.728 211.44 147.548 211C147.368 210.56 147.103 210.2 146.753 209.92C146.413 209.64 145.963 209.5 145.403 209.5C144.873 209.5 144.433 209.66 144.083 209.98C143.743 210.3 143.573 210.72 143.573 211.24C143.573 211.69 143.688 212.07 143.918 212.38C144.148 212.68 144.453 212.955 144.833 213.205C145.223 213.445 145.643 213.705 146.093 213.985C146.613 214.305 147.073 214.625 147.473 214.945C147.883 215.255 148.203 215.6 148.433 215.98C148.673 216.36 148.793 216.82 148.793 217.36C148.793 218 148.648 218.53 148.358 218.95C148.068 219.37 147.683 219.685 147.203 219.895C146.723 220.105 146.193 220.21 145.613 220.21C145.083 220.21 144.663 220.15 144.353 220.03C144.043 219.91 143.778 219.785 143.558 219.655C143.338 219.515 143.168 219.445 143.048 219.445C142.948 219.445 142.873 219.5 142.823 219.61C142.783 219.72 142.748 219.885 142.718 220.105H142.373C142.393 219.895 142.403 219.65 142.403 219.37C142.413 219.08 142.418 218.705 142.418 218.245C142.428 217.785 142.433 217.205 142.433 216.505H142.778C142.818 217.105 142.928 217.665 143.108 218.185C143.298 218.705 143.583 219.125 143.963 219.445C144.353 219.755 144.868 219.91 145.508 219.91C145.838 219.91 146.148 219.845 146.438 219.715C146.738 219.575 146.983 219.36 147.173 219.07C147.363 218.77 147.458 218.385 147.458 217.915C147.458 217.505 147.358 217.15 147.158 216.85C146.968 216.54 146.698 216.255 146.348 215.995C145.998 215.725 145.588 215.45 145.118 215.17C144.648 214.88 144.208 214.585 143.798 214.285C143.388 213.985 143.058 213.64 142.808 213.25C142.568 212.85 142.448 212.37 142.448 211.81C142.448 211.22 142.578 210.735 142.838 210.355C143.108 209.965 143.458 209.68 143.888 209.5C144.318 209.31 144.778 209.215 145.268 209.215ZM153.368 209.215C153.868 209.215 154.248 209.275 154.508 209.395C154.768 209.505 154.998 209.63 155.198 209.77C155.318 209.84 155.413 209.895 155.483 209.935C155.563 209.965 155.638 209.98 155.708 209.98C155.808 209.98 155.878 209.925 155.918 209.815C155.968 209.705 156.008 209.54 156.038 209.32H156.383C156.373 209.49 156.358 209.695 156.338 209.935C156.328 210.165 156.318 210.475 156.308 210.865C156.308 211.245 156.308 211.75 156.308 212.38H155.963C155.933 211.9 155.828 211.44 155.648 211C155.468 210.56 155.203 210.2 154.853 209.92C154.513 209.64 154.063 209.5 153.503 209.5C152.973 209.5 152.533 209.66 152.183 209.98C151.843 210.3 151.673 210.72 151.673 211.24C151.673 211.69 151.788 212.07 152.018 212.38C152.248 212.68 152.553 212.955 152.933 213.205C153.323 213.445 153.743 213.705 154.193 213.985C154.713 214.305 155.173 214.625 155.573 214.945C155.983 215.255 156.303 215.6 156.533 215.98C156.773 216.36 156.893 216.82 156.893 217.36C156.893 218 156.748 218.53 156.458 218.95C156.168 219.37 155.783 219.685 155.303 219.895C154.823 220.105 154.293 220.21 153.713 220.21C153.183 220.21 152.763 220.15 152.453 220.03C152.143 219.91 151.878 219.785 151.658 219.655C151.438 219.515 151.268 219.445 151.148 219.445C151.048 219.445 150.973 219.5 150.923 219.61C150.883 219.72 150.848 219.885 150.818 220.105H150.473C150.493 219.895 150.503 219.65 150.503 219.37C150.513 219.08 150.518 218.705 150.518 218.245C150.528 217.785 150.533 217.205 150.533 216.505H150.878C150.918 217.105 151.028 217.665 151.208 218.185C151.398 218.705 151.683 219.125 152.063 219.445C152.453 219.755 152.968 219.91 153.608 219.91C153.938 219.91 154.248 219.845 154.538 219.715C154.838 219.575 155.083 219.36 155.273 219.07C155.463 218.77 155.558 218.385 155.558 217.915C155.558 217.505 155.458 217.15 155.258 216.85C155.068 216.54 154.798 216.255 154.448 215.995C154.098 215.725 153.688 215.45 153.218 215.17C152.748 214.88 152.308 214.585 151.898 214.285C151.488 213.985 151.158 213.64 150.908 213.25C150.668 212.85 150.548 212.37 150.548 211.81C150.548 211.22 150.678 210.735 150.938 210.355C151.208 209.965 151.558 209.68 151.988 209.5C152.418 209.31 152.878 209.215 153.368 209.215ZM126.84 226.215C127.34 226.215 127.72 226.275 127.98 226.395C128.24 226.505 128.47 226.63 128.67 226.77C128.79 226.84 128.885 226.895 128.955 226.935C129.035 226.965 129.11 226.98 129.18 226.98C129.28 226.98 129.35 226.925 129.39 226.815C129.44 226.705 129.48 226.54 129.51 226.32H129.855C129.845 226.49 129.83 226.695 129.81 226.935C129.8 227.165 129.79 227.475 129.78 227.865C129.78 228.245 129.78 228.75 129.78 229.38H129.435C129.405 228.9 129.3 228.44 129.12 228C128.94 227.56 128.675 227.2 128.325 226.92C127.985 226.64 127.535 226.5 126.975 226.5C126.445 226.5 126.005 226.66 125.655 226.98C125.315 227.3 125.145 227.72 125.145 228.24C125.145 228.69 125.26 229.07 125.49 229.38C125.72 229.68 126.025 229.955 126.405 230.205C126.795 230.445 127.215 230.705 127.665 230.985C128.185 231.305 128.645 231.625 129.045 231.945C129.455 232.255 129.775 232.6 130.005 232.98C130.245 233.36 130.365 233.82 130.365 234.36C130.365 235 130.22 235.53 129.93 235.95C129.64 236.37 129.255 236.685 128.775 236.895C128.295 237.105 127.765 237.21 127.185 237.21C126.655 237.21 126.235 237.15 125.925 237.03C125.615 236.91 125.35 236.785 125.13 236.655C124.91 236.515 124.74 236.445 124.62 236.445C124.52 236.445 124.445 236.5 124.395 236.61C124.355 236.72 124.32 236.885 124.29 237.105H123.945C123.965 236.895 123.975 236.65 123.975 236.37C123.985 236.08 123.99 235.705 123.99 235.245C124 234.785 124.005 234.205 124.005 233.505H124.35C124.39 234.105 124.5 234.665 124.68 235.185C124.87 235.705 125.155 236.125 125.535 236.445C125.925 236.755 126.44 236.91 127.08 236.91C127.41 236.91 127.72 236.845 128.01 236.715C128.31 236.575 128.555 236.36 128.745 236.07C128.935 235.77 129.03 235.385 129.03 234.915C129.03 234.505 128.93 234.15 128.73 233.85C128.54 233.54 128.27 233.255 127.92 232.995C127.57 232.725 127.16 232.45 126.69 232.17C126.22 231.88 125.78 231.585 125.37 231.285C124.96 230.985 124.63 230.64 124.38 230.25C124.14 229.85 124.02 229.37 124.02 228.81C124.02 228.22 124.15 227.735 124.41 227.355C124.68 226.965 125.03 226.68 125.46 226.5C125.89 226.31 126.35 226.215 126.84 226.215ZM135.872 226.305L139.532 235.74C139.682 236.12 139.852 236.375 140.042 236.505C140.232 236.625 140.407 236.69 140.567 236.7V237C140.367 236.98 140.122 236.97 139.832 236.97C139.542 236.96 139.252 236.955 138.962 236.955C138.572 236.955 138.207 236.96 137.867 236.97C137.527 236.97 137.252 236.98 137.042 237V236.7C137.552 236.68 137.877 236.595 138.017 236.445C138.157 236.285 138.127 235.95 137.927 235.44L135.137 227.985L135.377 227.79L132.767 234.57C132.607 234.97 132.512 235.31 132.482 235.59C132.452 235.86 132.477 236.075 132.557 236.235C132.647 236.395 132.792 236.51 132.992 236.58C133.202 236.65 133.462 236.69 133.772 236.7V237C133.492 236.98 133.197 236.97 132.887 236.97C132.587 236.96 132.307 236.955 132.047 236.955C131.797 236.955 131.582 236.96 131.402 236.97C131.232 236.97 131.072 236.98 130.922 237V236.7C131.122 236.65 131.327 236.535 131.537 236.355C131.747 236.165 131.937 235.845 132.107 235.395L135.632 226.305C135.672 226.305 135.712 226.305 135.752 226.305C135.792 226.305 135.832 226.305 135.872 226.305ZM137.702 232.68V232.98H133.232L133.382 232.68H137.702ZM144.316 226.215C144.816 226.215 145.196 226.275 145.456 226.395C145.716 226.505 145.946 226.63 146.146 226.77C146.266 226.84 146.361 226.895 146.431 226.935C146.511 226.965 146.586 226.98 146.656 226.98C146.756 226.98 146.826 226.925 146.866 226.815C146.916 226.705 146.956 226.54 146.986 226.32H147.331C147.321 226.49 147.306 226.695 147.286 226.935C147.276 227.165 147.266 227.475 147.256 227.865C147.256 228.245 147.256 228.75 147.256 229.38H146.911C146.881 228.9 146.776 228.44 146.596 228C146.416 227.56 146.151 227.2 145.801 226.92C145.461 226.64 145.011 226.5 144.451 226.5C143.921 226.5 143.481 226.66 143.131 226.98C142.791 227.3 142.621 227.72 142.621 228.24C142.621 228.69 142.736 229.07 142.966 229.38C143.196 229.68 143.501 229.955 143.881 230.205C144.271 230.445 144.691 230.705 145.141 230.985C145.661 231.305 146.121 231.625 146.521 231.945C146.931 232.255 147.251 232.6 147.481 232.98C147.721 233.36 147.841 233.82 147.841 234.36C147.841 235 147.696 235.53 147.406 235.95C147.116 236.37 146.731 236.685 146.251 236.895C145.771 237.105 145.241 237.21 144.661 237.21C144.131 237.21 143.711 237.15 143.401 237.03C143.091 236.91 142.826 236.785 142.606 236.655C142.386 236.515 142.216 236.445 142.096 236.445C141.996 236.445 141.921 236.5 141.871 236.61C141.831 236.72 141.796 236.885 141.766 237.105H141.421C141.441 236.895 141.451 236.65 141.451 236.37C141.461 236.08 141.466 235.705 141.466 235.245C141.476 234.785 141.481 234.205 141.481 233.505H141.826C141.866 234.105 141.976 234.665 142.156 235.185C142.346 235.705 142.631 236.125 143.011 236.445C143.401 236.755 143.916 236.91 144.556 236.91C144.886 236.91 145.196 236.845 145.486 236.715C145.786 236.575 146.031 236.36 146.221 236.07C146.411 235.77 146.506 235.385 146.506 234.915C146.506 234.505 146.406 234.15 146.206 233.85C146.016 233.54 145.746 233.255 145.396 232.995C145.046 232.725 144.636 232.45 144.166 232.17C143.696 231.88 143.256 231.585 142.846 231.285C142.436 230.985 142.106 230.64 141.856 230.25C141.616 229.85 141.496 229.37 141.496 228.81C141.496 228.22 141.626 227.735 141.886 227.355C142.156 226.965 142.506 226.68 142.936 226.5C143.366 226.31 143.826 226.215 144.316 226.215ZM152.416 226.215C152.916 226.215 153.296 226.275 153.556 226.395C153.816 226.505 154.046 226.63 154.246 226.77C154.366 226.84 154.461 226.895 154.531 226.935C154.611 226.965 154.686 226.98 154.756 226.98C154.856 226.98 154.926 226.925 154.966 226.815C155.016 226.705 155.056 226.54 155.086 226.32H155.431C155.421 226.49 155.406 226.695 155.386 226.935C155.376 227.165 155.366 227.475 155.356 227.865C155.356 228.245 155.356 228.75 155.356 229.38H155.011C154.981 228.9 154.876 228.44 154.696 228C154.516 227.56 154.251 227.2 153.901 226.92C153.561 226.64 153.111 226.5 152.551 226.5C152.021 226.5 151.581 226.66 151.231 226.98C150.891 227.3 150.721 227.72 150.721 228.24C150.721 228.69 150.836 229.07 151.066 229.38C151.296 229.68 151.601 229.955 151.981 230.205C152.371 230.445 152.791 230.705 153.241 230.985C153.761 231.305 154.221 231.625 154.621 231.945C155.031 232.255 155.351 232.6 155.581 232.98C155.821 233.36 155.941 233.82 155.941 234.36C155.941 235 155.796 235.53 155.506 235.95C155.216 236.37 154.831 236.685 154.351 236.895C153.871 237.105 153.341 237.21 152.761 237.21C152.231 237.21 151.811 237.15 151.501 237.03C151.191 236.91 150.926 236.785 150.706 236.655C150.486 236.515 150.316 236.445 150.196 236.445C150.096 236.445 150.021 236.5 149.971 236.61C149.931 236.72 149.896 236.885 149.866 237.105H149.521C149.541 236.895 149.551 236.65 149.551 236.37C149.561 236.08 149.566 235.705 149.566 235.245C149.576 234.785 149.581 234.205 149.581 233.505H149.926C149.966 234.105 150.076 234.665 150.256 235.185C150.446 235.705 150.731 236.125 151.111 236.445C151.501 236.755 152.016 236.91 152.656 236.91C152.986 236.91 153.296 236.845 153.586 236.715C153.886 236.575 154.131 236.36 154.321 236.07C154.511 235.77 154.606 235.385 154.606 234.915C154.606 234.505 154.506 234.15 154.306 233.85C154.116 233.54 153.846 233.255 153.496 232.995C153.146 232.725 152.736 232.45 152.266 232.17C151.796 231.88 151.356 231.585 150.946 231.285C150.536 230.985 150.206 230.64 149.956 230.25C149.716 229.85 149.596 229.37 149.596 228.81C149.596 228.22 149.726 227.735 149.986 227.355C150.256 226.965 150.606 226.68 151.036 226.5C151.466 226.31 151.926 226.215 152.416 226.215Z" fill="white"/>
</g>
<g id="bootstrap">
<rect width="43.3496" height="30" transform="translate(437 205)" fill="#1D1D42"/>
<path id="bootstrap_2" d="M443.763 208.38C443.973 208.39 444.248 208.4 444.588 208.41C444.928 208.42 445.263 208.425 445.593 208.425C446.063 208.425 446.513 208.42 446.943 208.41C447.373 208.4 447.678 208.395 447.858 208.395C448.908 208.395 449.698 208.615 450.228 209.055C450.758 209.495 451.023 210.06 451.023 210.75C451.023 211.1 450.948 211.445 450.798 211.785C450.658 212.115 450.418 212.42 450.078 212.7C449.748 212.97 449.303 213.19 448.743 213.36V213.39C449.533 213.49 450.148 213.68 450.588 213.96C451.038 214.23 451.353 214.55 451.533 214.92C451.713 215.29 451.803 215.68 451.803 216.09C451.803 216.66 451.658 217.165 451.368 217.605C451.088 218.035 450.678 218.375 450.138 218.625C449.598 218.875 448.953 219 448.203 219C447.983 219 447.653 218.995 447.213 218.985C446.773 218.965 446.243 218.955 445.623 218.955C445.273 218.955 444.928 218.96 444.588 218.97C444.248 218.97 443.973 218.98 443.763 219V218.7C444.103 218.68 444.358 218.64 444.528 218.58C444.708 218.52 444.828 218.4 444.888 218.22C444.948 218.04 444.978 217.77 444.978 217.41V209.97C444.978 209.6 444.948 209.33 444.888 209.16C444.828 208.98 444.708 208.86 444.528 208.8C444.358 208.73 444.103 208.69 443.763 208.68V208.38ZM447.483 208.68C447.023 208.68 446.723 208.765 446.583 208.935C446.443 209.105 446.373 209.45 446.373 209.97V217.41C446.373 217.76 446.403 218.025 446.463 218.205C446.523 218.385 446.633 218.505 446.793 218.565C446.953 218.625 447.188 218.655 447.498 218.655C448.478 218.655 449.188 218.43 449.628 217.98C450.078 217.52 450.303 216.87 450.303 216.03C450.303 215.26 450.093 214.665 449.673 214.245C449.263 213.825 448.583 213.615 447.633 213.615H446.088C446.088 213.615 446.088 213.575 446.088 213.495C446.088 213.405 446.088 213.36 446.088 213.36H447.378C447.968 213.36 448.423 213.25 448.743 213.03C449.063 212.8 449.283 212.5 449.403 212.13C449.523 211.75 449.583 211.345 449.583 210.915C449.583 210.175 449.418 209.62 449.088 209.25C448.768 208.87 448.233 208.68 447.483 208.68ZM456.588 211.065C457.228 211.065 457.803 211.205 458.313 211.485C458.823 211.765 459.228 212.205 459.528 212.805C459.838 213.405 459.993 214.185 459.993 215.145C459.993 216.105 459.838 216.885 459.528 217.485C459.228 218.075 458.823 218.51 458.313 218.79C457.803 219.07 457.228 219.21 456.588 219.21C455.958 219.21 455.383 219.07 454.863 218.79C454.353 218.51 453.943 218.075 453.633 217.485C453.333 216.885 453.183 216.105 453.183 215.145C453.183 214.185 453.333 213.405 453.633 212.805C453.943 212.205 454.353 211.765 454.863 211.485C455.383 211.205 455.958 211.065 456.588 211.065ZM456.588 211.365C456.018 211.365 455.548 211.66 455.178 212.25C454.818 212.84 454.638 213.805 454.638 215.145C454.638 216.485 454.818 217.45 455.178 218.04C455.548 218.62 456.018 218.91 456.588 218.91C457.158 218.91 457.623 218.62 457.983 218.04C458.353 217.45 458.538 216.485 458.538 215.145C458.538 213.805 458.353 212.84 457.983 212.25C457.623 211.66 457.158 211.365 456.588 211.365ZM464.806 211.065C465.446 211.065 466.021 211.205 466.531 211.485C467.041 211.765 467.446 212.205 467.746 212.805C468.056 213.405 468.211 214.185 468.211 215.145C468.211 216.105 468.056 216.885 467.746 217.485C467.446 218.075 467.041 218.51 466.531 218.79C466.021 219.07 465.446 219.21 464.806 219.21C464.176 219.21 463.601 219.07 463.081 218.79C462.571 218.51 462.161 218.075 461.851 217.485C461.551 216.885 461.401 216.105 461.401 215.145C461.401 214.185 461.551 213.405 461.851 212.805C462.161 212.205 462.571 211.765 463.081 211.485C463.601 211.205 464.176 211.065 464.806 211.065ZM464.806 211.365C464.236 211.365 463.766 211.66 463.396 212.25C463.036 212.84 462.856 213.805 462.856 215.145C462.856 216.485 463.036 217.45 463.396 218.04C463.766 218.62 464.236 218.91 464.806 218.91C465.376 218.91 465.841 218.62 466.201 218.04C466.571 217.45 466.756 216.485 466.756 215.145C466.756 213.805 466.571 212.84 466.201 212.25C465.841 211.66 465.376 211.365 464.806 211.365ZM471.764 208.785V211.29H473.984V211.59H471.764V217.395C471.764 217.865 471.849 218.195 472.019 218.385C472.189 218.575 472.424 218.67 472.724 218.67C473.024 218.67 473.284 218.55 473.504 218.31C473.724 218.06 473.914 217.645 474.074 217.065L474.374 217.14C474.274 217.72 474.074 218.21 473.774 218.61C473.484 219.01 473.034 219.21 472.424 219.21C472.084 219.21 471.804 219.165 471.584 219.075C471.364 218.995 471.169 218.875 470.999 218.715C470.779 218.485 470.624 218.21 470.534 217.89C470.454 217.57 470.414 217.145 470.414 216.615V211.59H468.974V211.29H470.414V208.995C470.664 208.985 470.904 208.965 471.134 208.935C471.364 208.905 471.574 208.855 471.764 208.785ZM444.356 226.065C444.756 226.065 445.096 226.13 445.376 226.26C445.656 226.39 445.861 226.51 445.991 226.62C446.321 226.89 446.521 226.71 446.591 226.08H446.936C446.916 226.36 446.901 226.695 446.891 227.085C446.881 227.465 446.876 227.98 446.876 228.63H446.531C446.471 228.26 446.366 227.9 446.216 227.55C446.076 227.2 445.866 226.915 445.586 226.695C445.306 226.465 444.941 226.35 444.491 226.35C444.141 226.35 443.846 226.45 443.606 226.65C443.376 226.84 443.261 227.125 443.261 227.505C443.261 227.805 443.351 228.065 443.531 228.285C443.711 228.495 443.946 228.695 444.236 228.885C444.526 229.065 444.841 229.265 445.181 229.485C445.561 229.725 445.906 229.97 446.216 230.22C446.526 230.47 446.771 230.745 446.951 231.045C447.141 231.345 447.236 231.7 447.236 232.11C447.236 232.57 447.116 232.955 446.876 233.265C446.636 233.575 446.321 233.81 445.931 233.97C445.551 234.13 445.131 234.21 444.671 234.21C444.451 234.21 444.241 234.19 444.041 234.15C443.851 234.12 443.666 234.07 443.486 234C443.386 233.95 443.281 233.89 443.171 233.82C443.071 233.75 442.971 233.675 442.871 233.595C442.771 233.515 442.681 233.52 442.601 233.61C442.521 233.69 442.461 233.855 442.421 234.105H442.076C442.096 233.785 442.111 233.395 442.121 232.935C442.131 232.475 442.136 231.865 442.136 231.105H442.481C442.551 231.665 442.651 232.155 442.781 232.575C442.911 232.995 443.116 233.325 443.396 233.565C443.676 233.795 444.066 233.91 444.566 233.91C444.766 233.91 444.966 233.865 445.166 233.775C445.376 233.685 445.551 233.535 445.691 233.325C445.831 233.115 445.901 232.835 445.901 232.485C445.901 232.045 445.741 231.685 445.421 231.405C445.101 231.125 444.696 230.83 444.206 230.52C443.846 230.29 443.506 230.06 443.186 229.83C442.876 229.6 442.621 229.34 442.421 229.05C442.231 228.76 442.136 228.41 442.136 228C442.136 227.55 442.236 227.185 442.436 226.905C442.646 226.615 442.921 226.405 443.261 226.275C443.601 226.135 443.966 226.065 444.356 226.065ZM450.795 223.785V226.29H453.015V226.59H450.795V232.395C450.795 232.865 450.88 233.195 451.05 233.385C451.22 233.575 451.455 233.67 451.755 233.67C452.055 233.67 452.315 233.55 452.535 233.31C452.755 233.06 452.945 232.645 453.105 232.065L453.405 232.14C453.305 232.72 453.105 233.21 452.805 233.61C452.515 234.01 452.065 234.21 451.455 234.21C451.115 234.21 450.835 234.165 450.615 234.075C450.395 233.995 450.2 233.875 450.03 233.715C449.81 233.485 449.655 233.21 449.565 232.89C449.485 232.57 449.445 232.145 449.445 231.615V226.59H448.005V226.29H449.445V223.995C449.695 223.985 449.935 223.965 450.165 223.935C450.395 223.905 450.605 223.855 450.795 223.785ZM458.348 226.065C458.618 226.065 458.853 226.12 459.053 226.23C459.263 226.34 459.423 226.485 459.533 226.665C459.653 226.835 459.713 227.03 459.713 227.25C459.713 227.5 459.633 227.72 459.473 227.91C459.323 228.1 459.118 228.195 458.858 228.195C458.648 228.195 458.463 228.13 458.303 228C458.143 227.86 458.063 227.665 458.063 227.415C458.063 227.225 458.113 227.065 458.213 226.935C458.323 226.795 458.443 226.685 458.573 226.605C458.503 226.505 458.398 226.455 458.258 226.455C457.948 226.455 457.663 226.55 457.403 226.74C457.143 226.92 456.923 227.155 456.743 227.445C456.563 227.735 456.423 228.045 456.323 228.375C456.223 228.695 456.173 228.995 456.173 229.275V232.455C456.173 232.945 456.313 233.275 456.593 233.445C456.883 233.605 457.273 233.685 457.763 233.685V234C457.533 233.99 457.208 233.98 456.788 233.97C456.368 233.95 455.923 233.94 455.453 233.94C455.113 233.94 454.773 233.95 454.433 233.97C454.103 233.98 453.853 233.99 453.683 234V233.685C454.093 233.685 454.383 233.61 454.553 233.46C454.733 233.31 454.823 233.025 454.823 232.605V227.91C454.823 227.46 454.743 227.13 454.583 226.92C454.423 226.7 454.123 226.59 453.683 226.59V226.275C454.003 226.305 454.313 226.32 454.613 226.32C454.903 226.32 455.178 226.305 455.438 226.275C455.708 226.235 455.953 226.18 456.173 226.11V227.985C456.283 227.695 456.438 227.405 456.638 227.115C456.848 226.815 457.098 226.565 457.388 226.365C457.678 226.165 457.998 226.065 458.348 226.065ZM462.492 234.105C462.082 234.105 461.727 234.03 461.427 233.88C461.127 233.72 460.897 233.5 460.737 233.22C460.587 232.94 460.512 232.615 460.512 232.245C460.512 231.805 460.612 231.445 460.812 231.165C461.022 230.885 461.287 230.66 461.607 230.49C461.927 230.32 462.262 230.18 462.612 230.07C462.972 229.95 463.312 229.84 463.632 229.74C463.952 229.63 464.212 229.505 464.412 229.365C464.622 229.225 464.727 229.04 464.727 228.81V227.88C464.727 227.46 464.662 227.14 464.532 226.92C464.412 226.7 464.247 226.555 464.037 226.485C463.827 226.405 463.592 226.365 463.332 226.365C463.082 226.365 462.812 226.4 462.522 226.47C462.242 226.54 462.017 226.685 461.847 226.905C462.037 226.945 462.202 227.045 462.342 227.205C462.482 227.365 462.552 227.57 462.552 227.82C462.552 228.07 462.472 228.27 462.312 228.42C462.152 228.56 461.947 228.63 461.697 228.63C461.407 228.63 461.192 228.54 461.052 228.36C460.922 228.17 460.857 227.96 460.857 227.73C460.857 227.47 460.922 227.26 461.052 227.1C461.182 226.94 461.347 226.79 461.547 226.65C461.777 226.49 462.072 226.355 462.432 226.245C462.802 226.125 463.217 226.065 463.677 226.065C464.087 226.065 464.437 226.115 464.727 226.215C465.017 226.305 465.257 226.44 465.447 226.62C465.707 226.86 465.877 227.155 465.957 227.505C466.037 227.845 466.077 228.255 466.077 228.735V232.905C466.077 233.155 466.112 233.335 466.182 233.445C466.262 233.555 466.382 233.61 466.542 233.61C466.652 233.61 466.757 233.585 466.857 233.535C466.957 233.485 467.077 233.405 467.217 233.295L467.382 233.55C467.172 233.71 466.972 233.845 466.782 233.955C466.592 234.055 466.337 234.105 466.017 234.105C465.727 234.105 465.487 234.055 465.297 233.955C465.107 233.855 464.962 233.71 464.862 233.52C464.772 233.32 464.727 233.07 464.727 232.77C464.457 233.22 464.132 233.555 463.752 233.775C463.382 233.995 462.962 234.105 462.492 234.105ZM463.032 233.505C463.362 233.505 463.667 233.41 463.947 233.22C464.237 233.03 464.497 232.745 464.727 232.365V229.425C464.607 229.595 464.432 229.74 464.202 229.86C463.972 229.97 463.722 230.085 463.452 230.205C463.182 230.315 462.922 230.45 462.672 230.61C462.432 230.76 462.232 230.96 462.072 231.21C461.912 231.46 461.832 231.785 461.832 232.185C461.832 232.585 461.937 232.905 462.147 233.145C462.367 233.385 462.662 233.505 463.032 233.505ZM470.218 226.11V235.32C470.218 235.75 470.343 236.035 470.593 236.175C470.853 236.325 471.208 236.4 471.658 236.4V236.715C471.438 236.705 471.133 236.69 470.743 236.67C470.353 236.66 469.938 236.655 469.498 236.655C469.188 236.655 468.878 236.66 468.568 236.67C468.268 236.69 468.038 236.705 467.878 236.715V236.4C468.238 236.4 468.493 236.335 468.643 236.205C468.793 236.075 468.868 235.83 468.868 235.47V227.91C468.868 227.46 468.788 227.13 468.628 226.92C468.468 226.7 468.168 226.59 467.728 226.59V226.275C468.048 226.305 468.358 226.32 468.658 226.32C468.948 226.32 469.223 226.305 469.483 226.275C469.753 226.235 469.998 226.18 470.218 226.11ZM472.618 226.065C473.148 226.065 473.623 226.21 474.043 226.5C474.463 226.78 474.793 227.195 475.033 227.745C475.283 228.295 475.408 228.975 475.408 229.785C475.408 230.325 475.343 230.86 475.213 231.39C475.083 231.91 474.878 232.385 474.598 232.815C474.328 233.235 473.973 233.575 473.533 233.835C473.103 234.085 472.583 234.21 471.973 234.21C471.503 234.21 471.093 234.1 470.743 233.88C470.403 233.66 470.173 233.395 470.053 233.085L470.203 232.875C470.343 233.155 470.543 233.39 470.803 233.58C471.073 233.77 471.408 233.865 471.808 233.865C472.368 233.865 472.803 233.69 473.113 233.34C473.423 232.99 473.638 232.525 473.758 231.945C473.888 231.355 473.953 230.705 473.953 229.995C473.953 229.195 473.888 228.54 473.758 228.03C473.628 227.52 473.433 227.14 473.173 226.89C472.913 226.64 472.593 226.515 472.213 226.515C471.723 226.515 471.278 226.72 470.878 227.13C470.478 227.53 470.223 228.14 470.113 228.96L469.933 228.75C470.043 227.9 470.343 227.24 470.833 226.77C471.333 226.3 471.928 226.065 472.618 226.065Z" fill="white"/>
</g>
<rect id="Rectangle409" opacity="0.1" width="35" height="200" rx="5" fill="#00CABE"/>
<rect id="Rectangle410" opacity="0.1" x="62" width="35" height="200" rx="5" fill="#00CABE"/>
<rect id="Rectangle411" opacity="0.1" x="124" width="35" height="200" rx="5" fill="#00CABE"/>
<rect id="Rectangle412" opacity="0.1" x="186" width="35" height="200" rx="5" fill="#00CABE"/>
<rect id="Rectangle413" opacity="0.1" x="250" width="35" height="200" rx="5" fill="#00CABE"/>
<rect id="Rectangle414" opacity="0.1" x="313" width="35" height="200" rx="5" fill="#00CABE"/>
<rect id="Rectangle415" opacity="0.1" x="378" width="35" height="200" rx="5" fill="#00CABE"/>
<rect id="Rectangle416" opacity="0.1" x="441" width="35" height="200" rx="5" fill="#00CABE"/>
<rect id="Rectangle417" opacity="0.1" x="506" width="35" height="200" rx="5" fill="#00CABE"/>
<path id="Rectangle398" d="M0 25C0 22.2386 2.23858 20 5 20H30C32.7614 20 35 22.2386 35 25V195C35 197.761 32.7614 200 30 200H5C2.23858 200 0 197.761 0 195V25Z" fill="#00CABE"/>
<rect id="Rectangle399" x="62" y="132" width="35" height="68" rx="5" fill="#00CABE"/>
<rect id="Rectangle400" x="124" y="40" width="35" height="160" rx="5" fill="#00CABE"/>
<rect id="Rectangle401" x="186" y="160" width="35" height="40" rx="5" fill="#00CABE"/>
<rect id="Rectangle402" x="250" y="20" width="35" height="180" rx="5" fill="#00CABE"/>
<rect id="Rectangle403" x="313" y="132" width="35" height="68" rx="5" fill="#00CABE"/>
<rect id="Rectangle404" x="378" y="68" width="35" height="132" rx="5" fill="#00CABE"/>
<rect id="Rectangle405" x="441" y="159" width="35" height="41" rx="5" fill="#00CABE"/>
<rect id="Rectangle406" x="506" y="159" width="35" height="41" rx="5" fill="#00CABE"/>
</g>
</svg>
