<svg width="60" height="60" viewBox="0 0 60 60" fill="none" xmlns="http://www.w3.org/2000/svg">
<path d="M29.3501 19.05C26.4401 19.355 23.8851 20.57 21.9601 22.575C18.8851 25.765 18.1351 30.335 20.0551 34.19C20.6501 35.395 21.2651 36.215 22.3101 37.225L23.0001 37.89V40.095C23.0001 41.31 23.0101 42.3 23.0201 42.3C23.0351 42.3 24.0151 41.795 25.2001 41.18L27.3501 40.06L27.7151 40.155C28.6351 40.39 29.3301 40.47 30.5001 40.47C31.7351 40.47 32.2901 40.41 33.3751 40.15C37.6151 39.135 40.9351 35.86 41.7701 31.86C42.4751 28.485 41.4851 25.11 39.0351 22.5651C37.2501 20.715 34.9101 19.5301 32.2501 19.125C31.6301 19.0301 29.9501 18.99 29.3501 19.05ZM31.5501 20.055C36.0851 20.465 39.8501 23.61 40.7701 27.755C41.0751 29.14 41.0751 30.36 40.7701 31.745C39.7351 36.4 35.1551 39.705 30.0501 39.48C29.1401 39.445 28.1651 39.29 27.4451 39.08L27.2201 39.01L25.6451 39.83C24.7801 40.28 24.0601 40.65 24.0401 40.65C24.0151 40.65 24.0001 39.92 24.0001 39.035V37.415L23.5001 37C20.7051 34.695 19.4701 31.19 20.2301 27.755C21.3151 22.89 26.2001 19.5651 31.5501 20.055Z" fill="#14C25A" stroke="#14C25A"/>
<path d="M26.625 29.755C25.14 31.33 23.8 32.75 23.65 32.92L23.375 33.22L23.6 33.095C23.725 33.02 24.86 32.385 26.125 31.675C27.39 30.97 28.495 30.35 28.585 30.295L28.745 30.205L30.155 31.715C30.935 32.545 31.585 33.245 31.6 33.265C31.63 33.3 37.36 27.145 37.47 26.96C37.5 26.905 37.465 26.915 37.345 26.985C37.25 27.045 36.085 27.7 34.755 28.445L32.33 29.805L30.875 28.35C30.08 27.555 29.4 26.9 29.37 26.9C29.345 26.9 28.105 28.185 26.625 29.755Z" fill="#14C25A" stroke="#14C25A"/>
<circle cx="30" cy="30" r="30" fill="#14C25A" fill-opacity="0.1"/>
</svg>
