<svg width="225" height="200" viewBox="0 0 225 200" fill="none" xmlns="http://www.w3.org/2000/svg">
<g opacity="0.14">
<path opacity="0.0417" d="M34.7321 193.734C53.5447 193.734 68.7953 185.185 68.7953 174.64C68.7953 164.095 53.5447 155.547 34.7321 155.547C15.9195 155.547 0.668945 164.095 0.668945 174.64C0.668945 185.185 15.9195 193.734 34.7321 193.734Z" fill="#190C00"/>
<path opacity="0.0833" d="M34.7316 193.359C53.1749 193.359 68.1263 184.979 68.1263 174.641C68.1263 164.303 53.1749 155.922 34.7316 155.922C16.2882 155.922 1.33691 164.303 1.33691 174.641C1.33691 184.979 16.2882 193.359 34.7316 193.359Z" fill="#190C00"/>
<path opacity="0.125" d="M34.7318 192.986C52.8067 192.986 67.4593 184.772 67.4593 174.64C67.4593 164.509 52.8067 156.295 34.7318 156.295C16.657 156.295 2.00439 164.509 2.00439 174.64C2.00439 184.772 16.657 192.986 34.7318 192.986Z" fill="#190C00"/>
<path opacity="0.1667" d="M34.7313 192.611C52.437 192.611 66.7903 184.565 66.7903 174.64C66.7903 164.716 52.437 156.67 34.7313 156.67C17.0256 156.67 2.67236 164.716 2.67236 174.64C2.67236 184.565 17.0256 192.611 34.7313 192.611Z" fill="#190C00"/>
<path opacity="0.2083" d="M34.7318 192.236C52.0683 192.236 66.1223 184.358 66.1223 174.64C66.1223 164.923 52.0683 157.045 34.7318 157.045C17.3953 157.045 3.34131 164.923 3.34131 174.64C3.34131 184.358 17.3953 192.236 34.7318 192.236Z" fill="#190C00"/>
<path opacity="0.25" d="M34.7315 191.861C51.6994 191.861 65.4547 184.151 65.4547 174.64C65.4547 165.129 51.6994 157.419 34.7315 157.419C17.7635 157.419 4.0083 165.129 4.0083 174.64C4.0083 184.151 17.7635 191.861 34.7315 191.861Z" fill="#190C00"/>
<path opacity="0.2917" d="M34.732 191.486C51.3308 191.486 64.7868 183.944 64.7868 174.64C64.7868 165.336 51.3308 157.794 34.732 157.794C18.1332 157.794 4.67725 165.336 4.67725 174.64C4.67725 183.944 18.1332 191.486 34.732 191.486Z" fill="#190C00"/>
<path opacity="0.3333" d="M34.731 191.113C50.9606 191.113 64.1173 183.738 64.1173 174.64C64.1173 165.543 50.9606 158.168 34.731 158.168C18.5014 158.168 5.34473 165.543 5.34473 174.64C5.34473 183.738 18.5014 191.113 34.731 191.113Z" fill="#190C00"/>
<path opacity="0.375" d="M34.7317 190.738C50.5928 190.738 63.4507 183.531 63.4507 174.64C63.4507 165.75 50.5928 158.542 34.7317 158.542C18.8706 158.542 6.0127 165.75 6.0127 174.64C6.0127 183.531 18.8706 190.738 34.7317 190.738Z" fill="#190C00"/>
<path opacity="0.4167" d="M34.7322 190.364C50.224 190.364 62.7827 183.324 62.7827 174.64C62.7827 165.957 50.224 158.917 34.7322 158.917C19.2403 158.917 6.68164 165.957 6.68164 174.64C6.68164 183.324 19.2403 190.364 34.7322 190.364Z" fill="#190C00"/>
<path opacity="0.4583" d="M34.7317 189.989C49.8544 189.989 62.1138 183.117 62.1138 174.64C62.1138 166.163 49.8544 159.292 34.7317 159.292C19.609 159.292 7.34961 166.163 7.34961 174.64C7.34961 183.117 19.609 189.989 34.7317 189.989Z" fill="#190C00"/>
<path opacity="0.5" d="M34.7319 189.615C49.4861 189.615 61.4467 182.911 61.4467 174.64C61.4467 166.37 49.4861 159.666 34.7319 159.666C19.9777 159.666 8.01709 166.37 8.01709 174.64C8.01709 182.911 19.9777 189.615 34.7319 189.615Z" fill="#190C00"/>
<path opacity="0.5417" d="M34.7314 189.241C49.1164 189.241 60.7778 182.704 60.7778 174.64C60.7778 166.577 49.1164 160.04 34.7314 160.04C20.3464 160.04 8.68506 166.577 8.68506 174.64C8.68506 182.704 20.3464 189.241 34.7314 189.241Z" fill="#190C00"/>
<path opacity="0.5833" d="M34.7321 188.866C48.7485 188.866 60.1111 182.497 60.1111 174.64C60.1111 166.784 48.7485 160.415 34.7321 160.415C20.7156 160.415 9.35303 166.784 9.35303 174.64C9.35303 182.497 20.7156 188.866 34.7321 188.866Z" fill="#190C00"/>
<path opacity="0.625" d="M34.7316 188.491C48.3789 188.491 59.4422 182.29 59.4422 174.641C59.4422 166.991 48.3789 160.79 34.7316 160.79C21.0843 160.79 10.021 166.991 10.021 174.641C10.021 182.29 21.0843 188.491 34.7316 188.491Z" fill="#190C00"/>
<path opacity="0.6667" d="M34.7321 188.116C48.0102 188.116 58.7742 182.083 58.7742 174.64C58.7742 167.198 48.0102 161.164 34.7321 161.164C21.454 161.164 10.6899 167.198 10.6899 174.64C10.6899 182.083 21.454 188.116 34.7321 188.116Z" fill="#190C00"/>
<path opacity="0.7083" d="M34.7313 187.743C47.6409 187.743 58.1062 181.877 58.1062 174.641C58.1062 167.404 47.6409 161.538 34.7313 161.538C21.8217 161.538 11.3564 167.404 11.3564 174.641C11.3564 181.877 21.8217 187.743 34.7313 187.743Z" fill="#190C00"/>
<path opacity="0.75" d="M34.7318 187.368C47.2722 187.368 57.4382 181.67 57.4382 174.64C57.4382 167.611 47.2722 161.913 34.7318 161.913C22.1914 161.913 12.0254 167.611 12.0254 174.64C12.0254 181.67 22.1914 187.368 34.7318 187.368Z" fill="#190C00"/>
<path opacity="0.7917" d="M34.7313 186.993C46.9025 186.993 56.7692 181.463 56.7692 174.64C56.7692 167.818 46.9025 162.287 34.7313 162.287C22.5601 162.287 12.6934 167.818 12.6934 174.64C12.6934 181.463 22.5601 186.993 34.7313 186.993Z" fill="#190C00"/>
<path opacity="0.8333" d="M34.732 186.619C46.5347 186.619 56.1027 181.256 56.1027 174.64C56.1027 168.025 46.5347 162.662 34.732 162.662C22.9293 162.662 13.3613 168.025 13.3613 174.64C13.3613 181.256 22.9293 186.619 34.732 186.619Z" fill="#190C00"/>
<path opacity="0.875" d="M34.731 186.244C46.1646 186.244 55.4333 181.049 55.4333 174.64C55.4333 168.232 46.1646 163.037 34.731 163.037C23.2975 163.037 14.0288 168.232 14.0288 174.64C14.0288 181.049 23.2975 186.244 34.731 186.244Z" fill="#190C00"/>
<path opacity="0.9167" d="M34.7315 185.871C45.7958 185.871 54.7652 180.843 54.7652 174.64C54.7652 168.438 45.7958 163.41 34.7315 163.41C23.6672 163.41 14.6978 168.438 14.6978 174.64C14.6978 180.843 23.6672 185.871 34.7315 185.871Z" fill="#190C00"/>
<path opacity="0.9583" d="M34.7322 185.496C45.4279 185.496 54.0986 180.636 54.0986 174.64C54.0986 168.645 45.4279 163.785 34.7322 163.785C24.0364 163.785 15.3657 168.645 15.3657 174.64C15.3657 180.636 24.0364 185.496 34.7322 185.496Z" fill="#190C00"/>
<path opacity="0.14" d="M34.7317 185.121C45.0583 185.121 53.4297 180.429 53.4297 174.64C53.4297 168.852 45.0583 164.16 34.7317 164.16C24.4051 164.16 16.0337 168.852 16.0337 174.64C16.0337 180.429 24.4051 185.121 34.7317 185.121Z" fill="#190C00"/>
</g>
<g opacity="0.14">
<path opacity="0.0417" d="M190.269 199.587C209.081 199.587 224.332 191.039 224.332 180.494C224.332 169.949 209.081 161.4 190.269 161.4C171.456 161.4 156.206 169.949 156.206 180.494C156.206 191.039 171.456 199.587 190.269 199.587Z" fill="#190C00"/>
<path opacity="0.0833" d="M190.268 199.212C208.712 199.212 223.663 190.832 223.663 180.494C223.663 170.156 208.712 161.775 190.268 161.775C171.825 161.775 156.874 170.156 156.874 180.494C156.874 190.832 171.825 199.212 190.268 199.212Z" fill="#190C00"/>
<path opacity="0.125" d="M190.268 198.839C208.343 198.839 222.996 190.625 222.996 180.494C222.996 170.362 208.343 162.148 190.268 162.148C172.194 162.148 157.541 170.362 157.541 180.494C157.541 190.625 172.194 198.839 190.268 198.839Z" fill="#190C00"/>
<path opacity="0.1667" d="M190.268 198.464C207.974 198.464 222.327 190.418 222.327 180.494C222.327 170.569 207.974 162.523 190.268 162.523C172.562 162.523 158.209 170.569 158.209 180.494C158.209 190.418 172.562 198.464 190.268 198.464Z" fill="#190C00"/>
<path opacity="0.2083" d="M190.268 198.089C207.605 198.089 221.659 190.211 221.659 180.494C221.659 170.776 207.605 162.898 190.268 162.898C172.932 162.898 158.878 170.776 158.878 180.494C158.878 190.211 172.932 198.089 190.268 198.089Z" fill="#190C00"/>
<path opacity="0.25" d="M190.268 197.715C207.236 197.715 220.991 190.005 220.991 180.494C220.991 170.983 207.236 163.273 190.268 163.273C173.3 163.273 159.545 170.983 159.545 180.494C159.545 190.005 173.3 197.715 190.268 197.715Z" fill="#190C00"/>
<path opacity="0.2917" d="M190.269 197.34C206.867 197.34 220.323 189.798 220.323 180.494C220.323 171.19 206.867 163.647 190.269 163.647C173.67 163.647 160.214 171.19 160.214 180.494C160.214 189.798 173.67 197.34 190.269 197.34Z" fill="#190C00"/>
<path opacity="0.3333" d="M190.268 196.966C206.497 196.966 219.654 189.591 219.654 180.494C219.654 171.396 206.497 164.021 190.268 164.021C174.038 164.021 160.881 171.396 160.881 180.494C160.881 189.591 174.038 196.966 190.268 196.966Z" fill="#190C00"/>
<path opacity="0.375" d="M190.268 196.592C206.129 196.592 218.987 189.384 218.987 180.494C218.987 171.603 206.129 164.396 190.268 164.396C174.407 164.396 161.549 171.603 161.549 180.494C161.549 189.384 174.407 196.592 190.268 196.592Z" fill="#190C00"/>
<path opacity="0.4167" d="M190.269 196.217C205.761 196.217 218.319 189.177 218.319 180.494C218.319 171.81 205.761 164.771 190.269 164.771C174.777 164.771 162.218 171.81 162.218 180.494C162.218 189.177 174.777 196.217 190.269 196.217Z" fill="#190C00"/>
<path opacity="0.4583" d="M190.268 195.842C205.391 195.842 217.65 188.97 217.65 180.494C217.65 172.017 205.391 165.145 190.268 165.145C175.146 165.145 162.886 172.017 162.886 180.494C162.886 188.97 175.146 195.842 190.268 195.842Z" fill="#190C00"/>
<path opacity="0.5" d="M190.268 195.469C205.022 195.469 216.982 188.764 216.982 180.494C216.982 172.223 205.022 165.519 190.268 165.519C175.513 165.519 163.553 172.223 163.553 180.494C163.553 188.764 175.513 195.469 190.268 195.469Z" fill="#190C00"/>
<path opacity="0.5417" d="M190.268 195.094C204.653 195.094 216.314 188.557 216.314 180.494C216.314 172.43 204.653 165.894 190.268 165.894C175.883 165.894 164.222 172.43 164.222 180.494C164.222 188.557 175.883 195.094 190.268 195.094Z" fill="#190C00"/>
<path opacity="0.5833" d="M190.269 194.719C204.285 194.719 215.648 188.35 215.648 180.494C215.648 172.637 204.285 166.268 190.269 166.268C176.252 166.268 164.89 172.637 164.89 180.494C164.89 188.35 176.252 194.719 190.269 194.719Z" fill="#190C00"/>
<path opacity="0.625" d="M190.268 194.345C203.916 194.345 214.979 188.143 214.979 180.494C214.979 172.844 203.916 166.643 190.268 166.643C176.621 166.643 165.558 172.844 165.558 180.494C165.558 188.143 176.621 194.345 190.268 194.345Z" fill="#190C00"/>
<path opacity="0.6667" d="M190.269 193.97C203.547 193.97 214.311 187.936 214.311 180.494C214.311 173.051 203.547 167.018 190.269 167.018C176.991 167.018 166.227 173.051 166.227 180.494C166.227 187.936 176.991 193.97 190.269 193.97Z" fill="#190C00"/>
<path opacity="0.7083" d="M190.268 193.596C203.178 193.596 213.643 187.73 213.643 180.494C213.643 173.257 203.178 167.391 190.268 167.391C177.358 167.391 166.893 173.257 166.893 180.494C166.893 187.73 177.358 193.596 190.268 193.596Z" fill="#190C00"/>
<path opacity="0.75" d="M190.268 193.221C202.809 193.221 212.975 187.523 212.975 180.493C212.975 173.464 202.809 167.766 190.268 167.766C177.728 167.766 167.562 173.464 167.562 180.493C167.562 187.523 177.728 193.221 190.268 193.221Z" fill="#190C00"/>
<path opacity="0.7917" d="M190.268 192.847C202.439 192.847 212.306 187.316 212.306 180.494C212.306 173.671 202.439 168.141 190.268 168.141C178.097 168.141 168.23 173.671 168.23 180.494C168.23 187.316 178.097 192.847 190.268 192.847Z" fill="#190C00"/>
<path opacity="0.8333" d="M190.269 192.472C202.071 192.472 211.639 187.109 211.639 180.494C211.639 173.878 202.071 168.515 190.269 168.515C178.466 168.515 168.898 173.878 168.898 180.494C168.898 187.109 178.466 192.472 190.269 192.472Z" fill="#190C00"/>
<path opacity="0.875" d="M190.268 192.097C201.701 192.097 210.97 186.902 210.97 180.494C210.97 174.085 201.701 168.89 190.268 168.89C178.834 168.89 169.565 174.085 169.565 180.494C169.565 186.902 178.834 192.097 190.268 192.097Z" fill="#190C00"/>
<path opacity="0.9167" d="M190.268 191.723C201.332 191.723 210.302 186.696 210.302 180.493C210.302 174.291 201.332 169.263 190.268 169.263C179.204 169.263 170.234 174.291 170.234 180.493C170.234 186.696 179.204 191.723 190.268 191.723Z" fill="#190C00"/>
<path opacity="0.9583" d="M190.269 191.349C200.965 191.349 209.635 186.489 209.635 180.494C209.635 174.498 200.965 169.638 190.269 169.638C179.573 169.638 170.902 174.498 170.902 180.494C170.902 186.489 179.573 191.349 190.269 191.349Z" fill="#190C00"/>
<path opacity="0.14" d="M190.268 190.974C200.595 190.974 208.966 186.282 208.966 180.493C208.966 174.705 200.595 170.013 190.268 170.013C179.942 170.013 171.57 174.705 171.57 180.493C171.57 186.282 179.942 190.974 190.268 190.974Z" fill="#190C00"/>
</g>
<g opacity="0.14">
<path opacity="0.0417" d="M109.548 160.051C128.361 160.051 143.611 151.502 143.611 140.957C143.611 130.412 128.361 121.864 109.548 121.864C90.7355 121.864 75.4849 130.412 75.4849 140.957C75.4849 151.502 90.7355 160.051 109.548 160.051Z" fill="#190C00"/>
<path opacity="0.0833" d="M109.548 159.676C127.991 159.676 142.942 151.295 142.942 140.957C142.942 130.619 127.991 122.239 109.548 122.239C91.1041 122.239 76.1528 130.619 76.1528 140.957C76.1528 151.295 91.1041 159.676 109.548 159.676Z" fill="#190C00"/>
<path opacity="0.125" d="M109.548 159.302C127.623 159.302 142.275 151.089 142.275 140.957C142.275 130.825 127.623 122.612 109.548 122.612C91.4729 122.612 76.8203 130.825 76.8203 140.957C76.8203 151.089 91.4729 159.302 109.548 159.302Z" fill="#190C00"/>
<path opacity="0.1667" d="M109.547 158.928C127.253 158.928 141.606 150.882 141.606 140.957C141.606 131.032 127.253 122.987 109.547 122.987C91.8416 122.987 77.4883 131.032 77.4883 140.957C77.4883 150.882 91.8416 158.928 109.547 158.928Z" fill="#190C00"/>
<path opacity="0.2083" d="M109.548 158.553C126.884 158.553 140.938 150.675 140.938 140.957C140.938 131.239 126.884 123.362 109.548 123.362C92.2112 123.362 78.1572 131.239 78.1572 140.957C78.1572 150.675 92.2112 158.553 109.548 158.553Z" fill="#190C00"/>
<path opacity="0.25" d="M109.547 158.178C126.515 158.178 140.271 150.468 140.271 140.957C140.271 131.446 126.515 123.736 109.547 123.736C92.5795 123.736 78.8242 131.446 78.8242 140.957C78.8242 150.468 92.5795 158.178 109.547 158.178Z" fill="#190C00"/>
<path opacity="0.2917" d="M109.548 157.803C126.147 157.803 139.603 150.261 139.603 140.957C139.603 131.653 126.147 124.111 109.548 124.111C92.9491 124.111 79.4932 131.653 79.4932 140.957C79.4932 150.261 92.9491 157.803 109.548 157.803Z" fill="#190C00"/>
<path opacity="0.3333" d="M109.547 157.43C125.777 157.43 138.933 150.055 138.933 140.957C138.933 131.86 125.777 124.485 109.547 124.485C93.3173 124.485 80.1606 131.86 80.1606 140.957C80.1606 150.055 93.3173 157.43 109.547 157.43Z" fill="#190C00"/>
<path opacity="0.375" d="M109.548 157.055C125.409 157.055 138.267 149.848 138.267 140.957C138.267 132.066 125.409 124.859 109.548 124.859C93.6866 124.859 80.8286 132.066 80.8286 140.957C80.8286 149.848 93.6866 157.055 109.548 157.055Z" fill="#190C00"/>
<path opacity="0.4167" d="M109.548 156.681C125.04 156.681 137.599 149.641 137.599 140.957C137.599 132.274 125.04 125.234 109.548 125.234C94.0562 125.234 81.4976 132.274 81.4976 140.957C81.4976 149.641 94.0562 156.681 109.548 156.681Z" fill="#190C00"/>
<path opacity="0.4583" d="M109.548 156.306C124.67 156.306 136.93 149.434 136.93 140.957C136.93 132.48 124.67 125.609 109.548 125.609C94.4249 125.609 82.1655 132.48 82.1655 140.957C82.1655 149.434 94.4249 156.306 109.548 156.306Z" fill="#190C00"/>
<path opacity="0.5" d="M109.547 155.932C124.301 155.932 136.262 149.228 136.262 140.957C136.262 132.687 124.301 125.982 109.547 125.982C94.7927 125.982 82.832 132.687 82.832 140.957C82.832 149.228 94.7927 155.932 109.547 155.932Z" fill="#190C00"/>
<path opacity="0.5417" d="M109.547 155.557C123.932 155.557 135.594 149.021 135.594 140.957C135.594 132.894 123.932 126.357 109.547 126.357C95.1623 126.357 83.501 132.894 83.501 140.957C83.501 149.021 95.1623 155.557 109.547 155.557Z" fill="#190C00"/>
<path opacity="0.5833" d="M109.548 155.183C123.564 155.183 134.927 148.814 134.927 140.957C134.927 133.101 123.564 126.732 109.548 126.732C95.5315 126.732 84.1689 133.101 84.1689 140.957C84.1689 148.814 95.5315 155.183 109.548 155.183Z" fill="#190C00"/>
<path opacity="0.625" d="M109.547 154.808C123.195 154.808 134.258 148.607 134.258 140.957C134.258 133.308 123.195 127.106 109.547 127.106C95.9002 127.106 84.8369 133.308 84.8369 140.957C84.8369 148.607 95.9002 154.808 109.547 154.808Z" fill="#190C00"/>
<path opacity="0.6667" d="M109.548 154.433C122.826 154.433 133.59 148.4 133.59 140.957C133.59 133.515 122.826 127.481 109.548 127.481C96.2699 127.481 85.5059 133.515 85.5059 140.957C85.5059 148.4 96.2699 154.433 109.548 154.433Z" fill="#190C00"/>
<path opacity="0.7083" d="M109.547 154.06C122.457 154.06 132.922 148.193 132.922 140.957C132.922 133.721 122.457 127.854 109.547 127.854C96.6376 127.854 86.1724 133.721 86.1724 140.957C86.1724 148.193 96.6376 154.06 109.547 154.06Z" fill="#190C00"/>
<path opacity="0.75" d="M109.548 153.685C122.088 153.685 132.254 147.986 132.254 140.957C132.254 133.928 122.088 128.229 109.548 128.229C97.0073 128.229 86.8413 133.928 86.8413 140.957C86.8413 147.986 97.0073 153.685 109.548 153.685Z" fill="#190C00"/>
<path opacity="0.7917" d="M109.547 153.31C121.718 153.31 131.585 147.78 131.585 140.957C131.585 134.135 121.718 128.604 109.547 128.604C97.376 128.604 87.5093 134.135 87.5093 140.957C87.5093 147.78 97.376 153.31 109.547 153.31Z" fill="#190C00"/>
<path opacity="0.8333" d="M109.548 152.936C121.351 152.936 130.919 147.573 130.919 140.957C130.919 134.342 121.351 128.979 109.548 128.979C97.7452 128.979 88.1772 134.342 88.1772 140.957C88.1772 147.573 97.7452 152.936 109.548 152.936Z" fill="#190C00"/>
<path opacity="0.875" d="M109.547 152.561C120.98 152.561 130.249 147.366 130.249 140.957C130.249 134.549 120.98 129.354 109.547 129.354C98.1134 129.354 88.8447 134.549 88.8447 140.957C88.8447 147.366 98.1134 152.561 109.547 152.561Z" fill="#190C00"/>
<path opacity="0.9167" d="M109.547 152.187C120.612 152.187 129.581 147.159 129.581 140.957C129.581 134.755 120.612 129.727 109.547 129.727C98.4831 129.727 89.5137 134.755 89.5137 140.957C89.5137 147.159 98.4831 152.187 109.547 152.187Z" fill="#190C00"/>
<path opacity="0.9583" d="M109.548 151.812C120.244 151.812 128.915 146.952 128.915 140.957C128.915 134.962 120.244 130.102 109.548 130.102C98.8523 130.102 90.1816 134.962 90.1816 140.957C90.1816 146.952 98.8523 151.812 109.548 151.812Z" fill="#190C00"/>
<path opacity="0.14" d="M109.548 151.437C119.874 151.437 128.246 146.745 128.246 140.957C128.246 135.169 119.874 130.476 109.548 130.476C99.221 130.476 90.8496 135.169 90.8496 140.957C90.8496 146.745 99.221 151.437 109.548 151.437Z" fill="#190C00"/>
</g>
<path d="M106.727 151.138L121.879 142.163C123.454 141.226 124.419 139.528 124.419 137.696V130.276L96.3934 113.204V121.098C96.3934 122.638 95.5827 124.063 94.2612 124.849L78.7017 134.068L106.727 151.138Z" fill="url(#paint0_linear_681_547)"/>
<path d="M106.727 149.532L120.333 141.436C121.909 140.499 122.873 138.801 122.873 136.969V129.549L94.8477 112.477V120.372C94.8477 121.911 94.037 123.336 92.7155 124.122L78.7026 132.46L106.727 149.532Z" fill="url(#paint1_linear_681_547)"/>
<path d="M78.7017 132.46V134.067L106.727 151.139V149.532L78.7017 132.46Z" fill="url(#paint2_linear_681_547)"/>
<path d="M71.8234 95.5077L153.58 148.666C156.639 150.458 163.692 147.184 163.255 141.072V58.6418C163.255 54.4036 161.009 50.482 157.352 48.3403L76.1162 0.741366C72.2465 -1.52599 64.0317 1.72325 64.0317 6.21052L67.3776 87.7486C67.3776 90.9409 69.0689 93.8949 71.8234 95.5077Z" fill="url(#paint3_linear_681_547)"/>
<path d="M66.5129 98.7842L151.038 148.31C154.097 150.102 157.945 147.895 157.945 144.348V61.9184C157.945 57.6802 155.699 53.7586 152.043 51.6169L70.807 4.01796C66.9372 1.75061 62.0684 4.54329 62.0684 9.03056V91.0252C62.0672 94.2175 63.7597 97.1715 66.5129 98.7842Z" fill="url(#paint4_linear_681_547)"/>
<path d="M154.929 61.9243V144.349C154.929 144.903 154.665 145.268 154.452 145.47C154.162 145.759 153.759 145.923 153.356 145.923C153.08 145.923 152.815 145.847 152.563 145.697L97.4912 113.424L68.0421 96.173C66.2168 95.1033 65.085 93.1384 65.085 91.0228V9.02699C65.085 7.30157 66.5321 6.23193 67.8785 6.23193C68.3692 6.23193 68.835 6.37068 69.2747 6.62208L150.511 54.2317C153.23 55.8172 154.929 58.764 154.929 61.9243Z" fill="white"/>
<path d="M154.93 61.9243V78.0543L65.0854 25.7736V9.02699C65.0854 7.30157 66.5326 6.23193 67.879 6.23193C68.3697 6.23193 68.8355 6.37068 69.2752 6.62208L150.511 54.2317C153.23 55.8172 154.93 58.764 154.93 61.9243Z" fill="url(#paint5_linear_681_547)"/>
<path d="M97.4917 44.6226V113.423L68.0426 96.1728C66.2173 95.1032 65.0854 93.1382 65.0854 91.0226V25.7734L97.4917 44.6226Z" fill="#E3DCFF"/>
<path d="M95.8652 41.9323C95.8604 41.7603 95.8521 41.5872 95.8415 41.4129C95.8367 41.3346 95.8284 41.2551 95.8225 41.1769C95.8201 41.1425 95.8178 41.1081 95.8142 41.0725C95.8095 41.012 95.8059 40.9516 95.8 40.8911C95.7834 40.7168 95.7632 40.5413 95.7419 40.3657C95.7194 40.1867 95.6933 40.0076 95.6649 39.8274C95.6637 39.8226 95.6637 39.8179 95.6625 39.8131L95.6589 39.793C95.6317 39.6246 95.6032 39.455 95.5712 39.2854C95.5369 39.0993 95.4989 38.9131 95.4575 38.7257C95.4432 38.6605 95.4266 38.5953 95.4112 38.5301C95.4017 38.4909 95.3935 38.4518 95.384 38.4127C95.365 38.3296 95.3472 38.2478 95.3259 38.1648C95.2785 37.9751 95.2287 37.7853 95.1766 37.5956C95.1386 37.458 95.0971 37.3217 95.0569 37.1841C95.0486 37.158 95.0414 37.1319 95.0343 37.1058C95.026 37.0798 95.0201 37.0548 95.0118 37.0288C94.9549 36.8438 94.8957 36.6588 94.834 36.4738C94.7736 36.2912 94.7096 36.1097 94.6432 35.9271C94.6314 35.8939 94.6183 35.8619 94.6065 35.8299C94.597 35.8026 94.5863 35.7753 94.5756 35.748C94.533 35.633 94.4903 35.518 94.4465 35.403C94.3789 35.2286 94.309 35.0555 94.2367 34.8824C94.1857 34.759 94.1312 34.6357 94.0779 34.5124C94.0684 34.4898 94.0589 34.4673 94.0494 34.446C94.0387 34.4211 94.0281 34.395 94.0174 34.3701C93.9404 34.1958 93.8622 34.0226 93.7804 33.8507C93.6915 33.6621 93.6014 33.4748 93.5078 33.2874C93.4935 33.2589 93.4793 33.2317 93.4651 33.2044C93.4473 33.1688 93.4284 33.132 93.4094 33.0965C93.3324 32.9459 93.2565 32.7953 93.1771 32.6458C93.0787 32.4609 92.9732 32.2806 92.8701 32.098C92.8168 32.0043 92.7658 31.9094 92.7113 31.8158C92.69 31.7778 92.6698 31.7399 92.6485 31.7031C92.5537 31.543 92.4494 31.3888 92.3522 31.2299C92.2111 31.0011 92.0725 30.7722 91.9243 30.5481C91.9006 30.5125 91.8793 30.4745 91.8556 30.439C91.6411 30.1176 91.4182 29.801 91.1907 29.4915C91.1859 29.4844 91.1812 29.4784 91.1812 29.4784C91.1812 29.4784 91.1753 29.4701 91.1741 29.4689C91.0176 29.2567 90.8588 29.048 90.6976 28.8428C90.5684 28.678 90.4369 28.5167 90.3041 28.3566C90.3041 28.3566 90.297 28.3483 90.2935 28.3436L90.2864 28.3353C90.1501 28.1716 90.0126 28.0103 89.8739 27.8514C89.7364 27.6949 89.5977 27.5407 89.4567 27.389C89.4342 27.3641 89.4105 27.3415 89.3879 27.3166C89.3642 27.2905 89.3394 27.2656 89.3145 27.2395C89.2161 27.1352 89.1177 27.0308 89.0182 26.9288C88.8688 26.7771 88.7183 26.6276 88.5666 26.4818C88.5204 26.4367 88.473 26.3952 88.4267 26.3513C88.3912 26.3181 88.3556 26.2849 88.3201 26.2517C88.2454 26.1829 88.1719 26.1118 88.0973 26.0442C87.9396 25.9019 87.7808 25.7643 87.6208 25.628C87.5509 25.5687 87.4798 25.5129 87.4086 25.4548C87.3731 25.4264 87.3375 25.3967 87.3032 25.3683C87.2498 25.3256 87.1977 25.2805 87.1443 25.239C86.9891 25.1157 86.8314 24.9971 86.6738 24.8797C86.56 24.7955 86.4451 24.716 86.3301 24.6354C86.3088 24.62 86.2874 24.6046 86.2661 24.5903C86.2459 24.5761 86.227 24.5619 86.2068 24.5488C86.0563 24.4457 85.9046 24.3449 85.7517 24.2476C85.6012 24.1516 85.4507 24.0591 85.2978 23.9701C85.2622 23.95 85.2278 23.9286 85.1923 23.9085C85.0785 23.8433 84.9647 23.7792 84.8521 23.7176C84.8083 23.6938 84.7656 23.6737 84.7229 23.65C84.6649 23.6191 84.6068 23.5895 84.5499 23.5598C84.5049 23.5373 84.4586 23.5112 84.4136 23.4887C84.3413 23.4531 84.269 23.4211 84.1979 23.3867C84.1469 23.363 84.0948 23.3369 84.0438 23.3144C84.0225 23.3049 84.0011 23.2942 83.9798 23.2847C83.8364 23.2207 83.693 23.1602 83.5508 23.1033C83.4062 23.0452 83.2616 22.9906 83.1182 22.9408C83.0992 22.9337 83.0814 22.929 83.0624 22.923C83.0103 22.9052 82.9593 22.8898 82.9072 22.872C82.8349 22.8483 82.7614 22.8222 82.6891 22.8009C82.6536 22.7902 82.618 22.7819 82.5813 22.7712C82.5173 22.7523 82.4544 22.7357 82.3916 22.7191C82.343 22.706 82.2944 22.6906 82.2458 22.6788C82.1949 22.6657 82.1451 22.6574 82.0953 22.6455C82.0325 22.6313 81.9697 22.6171 81.9069 22.604C81.8737 22.5969 81.8405 22.5886 81.8073 22.5815C81.748 22.5697 81.6912 22.5625 81.6319 22.553C81.5596 22.54 81.4861 22.5281 81.4138 22.5175C81.3889 22.5139 81.3628 22.508 81.338 22.5044C81.2775 22.4961 81.2194 22.4926 81.1602 22.4866C81.0831 22.4783 81.0049 22.4689 80.9291 22.4629C80.9065 22.4617 80.884 22.457 80.8615 22.4558C80.8094 22.4523 80.7584 22.4534 80.7062 22.4511C80.615 22.4463 80.5237 22.4428 80.4348 22.4416C80.4099 22.4416 80.3839 22.4392 80.3578 22.4392C80.3187 22.4392 80.2807 22.444 80.2416 22.4451C80.1279 22.4475 80.0153 22.4523 79.9039 22.4606C79.8707 22.4629 79.8351 22.4617 79.8019 22.4653C79.777 22.4677 79.7533 22.4736 79.7284 22.476C79.5578 22.4938 79.3906 22.5175 79.2259 22.5483C79.2117 22.5507 79.1975 22.5519 79.1844 22.5542L79.1773 22.5566C78.9426 22.604 78.7174 22.6693 78.497 22.744C78.4768 22.7511 78.4555 22.7535 78.4366 22.7606C78.4211 22.7665 78.4057 22.7736 78.3903 22.7795C78.2943 22.8151 78.2007 22.8543 78.1082 22.8946C78.062 22.9147 78.0158 22.9325 77.9708 22.9539C77.8345 23.0179 77.7005 23.0867 77.5701 23.1626L74.6616 24.8536C74.792 24.7777 74.9259 24.7089 75.0622 24.6449C75.1073 24.6236 75.1547 24.6058 75.1997 24.5856C75.2933 24.5453 75.3858 24.505 75.4818 24.4706C75.5174 24.4575 75.5541 24.4469 75.5897 24.435C75.8101 24.3591 76.0365 24.2951 76.27 24.2476C76.2866 24.2441 76.3032 24.2429 76.3198 24.2393C76.4833 24.2073 76.6516 24.1836 76.8223 24.1658C76.8804 24.1599 76.9384 24.1551 76.9977 24.1504C77.1091 24.1421 77.2217 24.1373 77.3355 24.135C77.3995 24.1338 77.4635 24.1314 77.5287 24.1326C77.6176 24.1338 77.7088 24.1373 77.7989 24.1421C77.8736 24.1456 77.9482 24.148 78.0229 24.154C78.0988 24.1599 78.1758 24.1694 78.2528 24.1777C78.337 24.1872 78.4211 24.1966 78.5077 24.2085C78.58 24.2192 78.6523 24.2322 78.7257 24.2441C78.817 24.2595 78.9083 24.2761 79.0007 24.2951C79.0635 24.3081 79.1263 24.3223 79.1892 24.3366C79.2875 24.3591 79.3859 24.384 79.4855 24.4101C79.5483 24.4267 79.6111 24.4445 79.6739 24.4623C79.783 24.4943 79.892 24.5275 80.001 24.5643C80.052 24.5809 80.103 24.5963 80.1551 24.6153C80.4775 24.7267 80.8046 24.8572 81.1365 25.009C81.1874 25.0315 81.2384 25.0564 81.2894 25.0813C81.4067 25.137 81.524 25.1939 81.6426 25.2544C81.7006 25.2841 81.7587 25.3137 81.8156 25.3445C81.9721 25.4264 82.1285 25.5118 82.2861 25.6019C82.6488 25.8106 83.0056 26.0395 83.3587 26.2837C83.3801 26.298 83.4014 26.3146 83.4228 26.3288C83.7522 26.5589 84.0758 26.8043 84.3958 27.0617C84.4314 27.0901 84.4657 27.1186 84.5013 27.1482C84.8106 27.402 85.1141 27.6676 85.4127 27.9451C85.4483 27.9783 85.4839 28.0115 85.5194 28.0447C85.8216 28.3293 86.1179 28.6258 86.4083 28.9329C86.4332 28.959 86.4569 28.9839 86.4818 29.01C86.7911 29.3409 87.0934 29.6824 87.3873 30.0358C87.3909 30.0405 87.3944 30.0441 87.398 30.0488C87.6978 30.4105 87.9894 30.7829 88.2703 31.1647C88.275 31.1718 88.2798 31.1778 88.2845 31.1849C88.5382 31.53 88.7811 31.8833 89.0182 32.2427C89.1663 32.4668 89.305 32.6957 89.446 32.9245C89.5669 33.119 89.6902 33.3123 89.8063 33.5103C89.8609 33.604 89.9118 33.6989 89.9652 33.7926C90.1512 34.1222 90.3338 34.4543 90.5044 34.7911C90.5222 34.8266 90.5424 34.8622 90.5601 34.899C90.7664 35.3093 90.9619 35.7231 91.1444 36.1406C91.1539 36.1631 91.1634 36.1856 91.1729 36.207C91.3507 36.6161 91.5166 37.0288 91.6707 37.4426C91.6813 37.4699 91.6908 37.4972 91.7015 37.5244C91.8568 37.949 92.0002 38.3747 92.1294 38.8004C92.1377 38.8265 92.1448 38.8526 92.1519 38.8787C92.274 39.289 92.383 39.6981 92.479 40.1072C92.4885 40.1464 92.498 40.1855 92.5063 40.2246C92.6034 40.6468 92.6864 41.069 92.7528 41.4888C92.754 41.4959 92.7552 41.5018 92.7563 41.5089C92.8239 41.9323 92.8737 42.3521 92.9081 42.7695C92.9104 42.8039 92.914 42.8383 92.9163 42.8726C92.9483 43.2901 92.9673 43.7039 92.9661 44.1119C92.9661 44.3111 92.9602 44.5079 92.9519 44.7C92.9495 44.7558 92.9448 44.8091 92.9412 44.8649C92.9341 44.9965 92.9246 45.127 92.914 45.255C92.9069 45.3309 92.8986 45.4044 92.8903 45.4791C92.8784 45.5882 92.8666 45.695 92.8512 45.8017C92.8405 45.8812 92.8286 45.9594 92.8156 46.0365C92.8002 46.1337 92.7836 46.231 92.7658 46.3258C92.7492 46.4124 92.7326 46.499 92.7137 46.5832C92.6947 46.6697 92.6757 46.7539 92.6556 46.8381C92.6319 46.9377 92.6058 47.0362 92.5786 47.1322C92.5572 47.2069 92.5359 47.2816 92.5146 47.3552C92.479 47.4714 92.4411 47.5852 92.4008 47.6967C92.3794 47.756 92.3593 47.8177 92.3368 47.8758C92.2657 48.0631 92.1898 48.2457 92.1068 48.4201C92.0985 48.439 92.0879 48.4556 92.0796 48.4746C91.9682 48.707 91.8461 48.9276 91.7145 49.1363C91.7039 49.1529 91.6956 49.1695 91.6849 49.1861C91.5759 49.3569 91.4585 49.517 91.3365 49.6711C91.3068 49.7079 91.2772 49.7447 91.2476 49.7802C91.129 49.9225 91.007 50.0601 90.8778 50.187C90.8683 50.1965 90.86 50.2071 90.86 50.2071C90.713 50.3506 90.5684 50.4728 90.4191 50.589C90.3835 50.6175 90.3468 50.6447 90.3101 50.672C90.1583 50.7847 90.0019 50.8914 89.8395 50.9862L92.7481 49.2952C92.9104 49.2004 93.0669 49.0936 93.2186 48.981C93.2553 48.9537 93.2921 48.9264 93.3276 48.898C93.4758 48.7817 93.6204 48.6596 93.7579 48.5256C93.7673 48.5161 93.7768 48.5054 93.7863 48.496C93.9155 48.3691 94.0376 48.2327 94.1549 48.0904C94.1845 48.0548 94.2153 48.0181 94.2438 47.9813C94.3659 47.8271 94.4832 47.667 94.5922 47.4963L94.6017 47.4821C94.6088 47.4714 94.6148 47.4572 94.6219 47.4465C94.7534 47.2378 94.8743 47.0172 94.9857 46.786C94.9917 46.7729 95 46.7622 95.0059 46.7492C95.0083 46.7433 95.0106 46.7361 95.0142 46.7302C95.096 46.5559 95.1718 46.3733 95.2441 46.1859C95.25 46.1693 95.2583 46.1551 95.2643 46.1385C95.2797 46.0958 95.2927 46.0495 95.3081 46.0057C95.3472 45.8942 95.3863 45.7804 95.4219 45.6641C95.4314 45.6333 95.4432 45.6048 95.4515 45.574C95.4646 45.5313 95.474 45.4851 95.4859 45.4412C95.5132 45.344 95.5381 45.2467 95.5629 45.1471C95.5724 45.1068 95.5843 45.0688 95.5938 45.0273C95.6044 44.9835 95.6115 44.936 95.621 44.8921C95.6388 44.8068 95.6566 44.7214 95.6732 44.6348C95.6815 44.5909 95.6921 44.5483 95.6992 44.5044C95.7087 44.4522 95.7146 44.3988 95.7229 44.3455C95.7348 44.2672 95.7478 44.1889 95.7585 44.1107C95.7644 44.0704 95.7715 44.0324 95.7763 43.9921C95.7846 43.9257 95.7905 43.8557 95.7976 43.7881C95.8059 43.7134 95.8142 43.6399 95.8213 43.564C95.8237 43.5344 95.8284 43.5059 95.8308 43.4762C95.8391 43.3778 95.8438 43.2758 95.8498 43.175C95.8533 43.1205 95.8569 43.0659 95.8604 43.0102C95.8616 42.9972 95.8628 42.9841 95.8628 42.9711C95.8699 42.8015 95.8747 42.6284 95.8747 42.4529C95.8747 42.4422 95.8747 42.4327 95.8747 42.422C95.8723 42.256 95.8711 42.0947 95.8652 41.9323Z" fill="url(#paint6_linear_681_547)"/>
<path d="M82.2846 25.5985C88.2024 29.0173 92.9823 37.304 92.9634 44.1085C92.9444 50.9093 88.1336 53.6558 82.2146 50.2369C76.2969 46.8181 71.5133 38.529 71.5323 31.7293C71.5524 24.9237 76.3668 22.1797 82.2846 25.5985Z" fill="url(#paint7_linear_681_547)"/>
<path d="M79.1738 38.1658C79.1738 38.1658 77.2206 37.4317 75.5755 37.6274C73.9304 37.8231 73.5879 39.4346 73.5879 39.4346C73.5879 39.4346 74.5823 44.1697 79.866 48.5799C84.2845 52.2691 88.0511 51.6204 88.0511 51.6204C88.0511 51.6204 88.223 43.8235 87.743 43.138C87.263 42.4526 82.8765 38.8512 82.8765 38.8512L79.1738 38.1658Z" fill="url(#paint8_linear_681_547)"/>
<path d="M79.2043 37.6594L79.1284 38.895C79.1284 38.895 79.292 39.9101 80.687 39.9836C82.0832 40.056 83.17 39.3848 83.17 39.3848V35.2651L79.2043 37.6594Z" fill="url(#paint9_linear_681_547)"/>
<path d="M78.1172 30.7364C78.1172 30.7364 77.7024 31.9092 77.8588 32.4416C78.0153 32.9753 77.7095 33.4342 77.7095 33.9987C77.7095 34.5631 77.8351 36.5399 77.9916 36.885C78.148 37.2301 79.3711 37.7317 79.3711 37.7317C79.3711 37.7317 82.0047 37.2609 82.3816 37.0724C82.7585 36.8838 84.3254 35.5984 83.9176 33.6536C83.5099 31.7088 81.3149 30.2976 81.3149 30.2976L78.1172 30.7364Z" fill="url(#paint10_linear_681_547)"/>
<path d="M80.4531 39.9884C80.529 39.9694 81.3089 42.0862 81.3089 42.0862L84.2838 39.9884L83.4743 38.697L80.4531 39.9884Z" fill="url(#paint11_linear_681_547)"/>
<path d="M79.1289 37.7317L79.8661 39.788L78.1665 40.9335L78.285 37.8942L79.1289 37.7317Z" fill="url(#paint12_linear_681_547)"/>
<path d="M87.7432 43.1379C87.7432 43.1379 85.6951 44.6463 85.4225 47.5126C85.1499 50.3799 85.2791 51.4935 85.2791 51.4935C85.2791 51.4935 87.3663 51.803 88.2197 51.7057C89.073 51.6085 89.5791 51.1223 89.5791 51.1223C89.5791 51.1223 89.143 43.4735 87.7432 43.1379Z" fill="url(#paint13_linear_681_547)"/>
<path d="M75.905 37.6276C75.905 37.6276 75.1547 38.7791 74.8478 39.9899C74.5408 41.1994 74.555 42.0876 74.555 42.0876L73.4492 39.3341C73.448 39.3329 74.3014 37.3324 75.905 37.6276Z" fill="url(#paint14_linear_681_547)"/>
<path d="M80.4543 31.6602C80.4543 31.6602 79.8096 32.386 79.0166 32.6979C78.2237 33.0097 77.7093 33.6738 77.7093 33.6738C77.7093 33.6738 76.4447 31.7705 77.7864 30.2953C79.1292 28.8201 80.8075 27.7078 82.6991 28.111C84.5907 28.5142 84.9735 30.2953 84.9735 30.2953C84.9735 30.2953 87.0619 31.2926 85.597 33.5825C84.132 35.8724 83.5359 36.4938 83.2692 36.259C83.0037 36.0242 83.8772 34.2905 83.2573 34.013C82.6375 33.7355 82.545 34.4221 82.5604 35.0103C82.5758 35.5985 82.3317 35.9341 82.0875 35.7194C81.8434 35.506 82.5913 33.0465 80.8324 33.0026C79.8285 32.9789 80.4543 31.6602 80.4543 31.6602Z" fill="#525575"/>
<path d="M208.839 79.4546L174.675 59.6319C172.836 58.5646 168.896 59.5299 168.896 61.6573L170.532 150.531C170.532 152.985 171.838 155.253 173.959 156.484L205.391 177.563C207.418 178.739 211.903 175.564 211.903 173.22V84.7743C211.903 82.5817 210.735 80.5539 208.839 79.4546Z" fill="url(#paint15_linear_681_547)"/>
<path d="M205.823 80.785L171.659 60.9623C169.82 59.895 167.515 61.2232 167.515 63.3506V151.861C167.515 154.315 168.821 156.584 170.942 157.814L204.322 177.182C206.348 178.358 208.887 176.895 208.887 174.55V86.1059C208.887 83.9121 207.72 81.8855 205.823 80.785Z" fill="#E3DCFF"/>
<path d="M190.379 143.741L174.387 134.563C173.872 134.266 173.45 133.602 173.45 133.086C173.45 132.57 173.872 132.39 174.387 132.687L190.379 141.865C190.895 142.162 191.317 142.826 191.317 143.341C191.318 143.857 190.896 144.038 190.379 143.741Z" fill="url(#paint16_linear_681_547)"/>
<path d="M190.379 161.518L174.387 152.34C173.872 152.043 173.45 151.379 173.45 150.863C173.45 150.347 173.872 150.167 174.387 150.464L190.379 159.642C190.895 159.939 191.317 160.603 191.317 161.119C191.318 161.634 190.896 161.815 190.379 161.518Z" fill="url(#paint17_linear_681_547)"/>
<path d="M201.436 154.531L174.387 139.006C173.872 138.71 173.45 138.046 173.45 137.53C173.45 137.014 173.872 136.834 174.387 137.13L201.436 152.655C201.952 152.952 202.374 153.616 202.374 154.132C202.374 154.648 201.952 154.828 201.436 154.531Z" fill="url(#paint18_linear_681_547)"/>
<path d="M201.436 158.976L174.387 143.451C173.872 143.154 173.45 142.49 173.45 141.974C173.45 141.459 173.872 141.278 174.387 141.575L201.436 157.1C201.952 157.396 202.374 158.06 202.374 158.576C202.374 159.092 201.952 159.272 201.436 158.976Z" fill="url(#paint19_linear_681_547)"/>
<path d="M201.436 163.421L174.387 147.895C173.872 147.599 173.45 146.935 173.45 146.419C173.45 145.903 173.872 145.723 174.387 146.019L201.436 161.544C201.952 161.841 202.374 162.505 202.374 163.021C202.374 163.537 201.952 163.716 201.436 163.421Z" fill="url(#paint20_linear_681_547)"/>
<path d="M202.842 117.391L172.903 100.02C172.453 99.7586 171.892 100.084 171.892 100.602V123.42C171.892 124.818 172.636 126.112 173.845 126.813L203.166 143.825C203.762 144.171 204.509 143.741 204.509 143.051V120.285C204.509 119.092 203.875 117.989 202.842 117.391Z" fill="white"/>
<path d="M189.784 115.934L177.651 108.971C177.26 108.746 176.94 108.241 176.94 107.85C176.94 107.459 177.26 107.322 177.651 107.546L189.784 114.51C190.175 114.734 190.495 115.239 190.495 115.63C190.495 116.023 190.175 116.159 189.784 115.934Z" fill="url(#paint21_linear_681_547)"/>
<path d="M189.784 129.422L177.651 122.459C177.26 122.235 176.94 121.729 176.94 121.338C176.94 120.947 177.26 120.81 177.651 121.034L189.784 127.998C190.175 128.222 190.495 128.727 190.495 129.118C190.495 129.51 190.175 129.646 189.784 129.422Z" fill="url(#paint22_linear_681_547)"/>
<path d="M198.172 124.121L177.651 112.343C177.26 112.119 176.94 111.614 176.94 111.223C176.94 110.831 177.26 110.695 177.651 110.919L198.172 122.697C198.563 122.921 198.883 123.426 198.883 123.818C198.884 124.209 198.563 124.345 198.172 124.121Z" fill="url(#paint23_linear_681_547)"/>
<path d="M198.172 127.492L177.651 115.714C177.26 115.49 176.94 114.985 176.94 114.594C176.94 114.203 177.26 114.066 177.651 114.29L198.172 126.068C198.563 126.292 198.883 126.798 198.883 127.189C198.884 127.58 198.563 127.717 198.172 127.492Z" fill="url(#paint24_linear_681_547)"/>
<path d="M198.172 130.864L177.651 119.086C177.26 118.862 176.94 118.357 176.94 117.965C176.94 117.574 177.26 117.437 177.651 117.662L198.172 129.44C198.563 129.664 198.883 130.169 198.883 130.56C198.884 130.953 198.563 131.089 198.172 130.864Z" fill="url(#paint25_linear_681_547)"/>
<path d="M196.915 95.6288C196.911 95.4722 196.904 95.3157 196.893 95.158C196.888 95.0868 196.881 95.0157 196.876 94.9433C196.874 94.9113 196.872 94.8805 196.869 94.8497C196.864 94.7951 196.861 94.7394 196.856 94.6848C196.841 94.5259 196.823 94.367 196.803 94.2081C196.783 94.0457 196.759 93.882 196.733 93.7195C196.733 93.7195 196.732 93.7112 196.731 93.7065L196.727 93.6887C196.702 93.5357 196.676 93.3816 196.648 93.2274C196.616 93.0578 196.581 92.8894 196.544 92.7199C196.531 92.6606 196.516 92.6013 196.503 92.542C196.495 92.5064 196.486 92.4708 196.478 92.4353C196.46 92.3606 196.444 92.2858 196.426 92.21C196.383 92.038 196.338 91.8661 196.291 91.6929C196.256 91.5684 196.219 91.4439 196.182 91.3194C196.175 91.2957 196.169 91.2719 196.16 91.2482C196.153 91.2245 196.147 91.202 196.14 91.1783C196.089 91.0099 196.035 90.8427 195.979 90.6743C195.923 90.5083 195.867 90.3434 195.806 90.1786C195.795 90.1489 195.784 90.1193 195.773 90.0897C195.763 90.0647 195.754 90.0398 195.746 90.0161C195.706 89.9118 195.669 89.8074 195.628 89.7031C195.567 89.5453 195.504 89.3876 195.439 89.2311C195.392 89.1184 195.343 89.007 195.294 88.8955C195.286 88.8753 195.277 88.8552 195.268 88.835C195.258 88.8125 195.249 88.7888 195.238 88.7662C195.168 88.6085 195.097 88.4508 195.024 88.2943C194.943 88.1235 194.861 87.9527 194.776 87.7832C194.763 87.7583 194.75 87.7334 194.737 87.7073C194.72 87.6741 194.703 87.6421 194.686 87.6089C194.616 87.4725 194.547 87.3349 194.475 87.1997C194.386 87.0325 194.29 86.8677 194.197 86.7029C194.148 86.6175 194.102 86.5309 194.053 86.4467C194.033 86.4123 194.015 86.3779 193.995 86.3436C193.91 86.1977 193.815 86.0578 193.726 85.9143C193.598 85.7067 193.472 85.498 193.338 85.2953C193.317 85.2621 193.298 85.2277 193.276 85.1956C193.08 84.9039 192.879 84.617 192.672 84.3347C192.668 84.3288 192.664 84.3229 192.659 84.3169C192.658 84.3157 192.658 84.3146 192.658 84.3146C192.516 84.1213 192.371 83.9315 192.224 83.7453C192.107 83.5959 191.987 83.4489 191.866 83.303C191.863 83.2995 191.86 83.2947 191.86 83.2947L191.851 83.2829C191.728 83.1346 191.602 82.9876 191.476 82.8441C191.352 82.7018 191.225 82.5619 191.098 82.4243C191.078 82.4018 191.057 82.3804 191.036 82.3591C191.013 82.3354 190.991 82.3128 190.969 82.2891C190.88 82.1943 190.791 82.0994 190.7 82.0069C190.565 81.8693 190.428 81.7341 190.29 81.6013C190.249 81.561 190.205 81.5231 190.163 81.4827C190.131 81.4519 190.098 81.4223 190.066 81.3926C189.998 81.3298 189.932 81.2657 189.863 81.2041C189.721 81.0748 189.577 80.9491 189.431 80.827C189.367 80.7736 189.303 80.7226 189.239 80.6704C189.207 80.6443 189.175 80.6183 189.143 80.5922C189.094 80.553 189.047 80.5127 188.998 80.4748C188.857 80.3633 188.715 80.2542 188.571 80.1487C188.468 80.0728 188.364 79.9992 188.26 79.9269C188.241 79.9139 188.222 79.8996 188.202 79.8854C188.184 79.8735 188.166 79.8593 188.148 79.8475C188.012 79.7538 187.873 79.6625 187.735 79.5747C187.598 79.4881 187.461 79.4039 187.323 79.3221C187.291 79.3031 187.259 79.2854 187.227 79.2664C187.124 79.2071 187.021 79.149 186.918 79.0933C186.879 79.0719 186.84 79.0529 186.801 79.0328C186.749 79.0055 186.695 78.9782 186.643 78.9509C186.602 78.9296 186.56 78.9071 186.52 78.8869C186.453 78.8549 186.39 78.8252 186.323 78.7944C186.277 78.7719 186.229 78.7494 186.183 78.728C186.164 78.7197 186.144 78.709 186.125 78.7007C185.995 78.6426 185.864 78.5869 185.736 78.5359C185.605 78.4825 185.473 78.4339 185.344 78.3877C185.328 78.3817 185.311 78.377 185.293 78.3711C185.246 78.3545 185.2 78.3402 185.152 78.3248C185.086 78.3035 185.019 78.2798 184.954 78.2596C184.921 78.2501 184.889 78.2418 184.857 78.2323C184.799 78.2157 184.742 78.2003 184.685 78.1849C184.641 78.173 184.597 78.1588 184.554 78.1481C184.507 78.1363 184.462 78.128 184.416 78.1173C184.359 78.1043 184.302 78.0912 184.245 78.0794C184.216 78.0734 184.185 78.0651 184.155 78.0592C184.102 78.0485 184.05 78.0426 183.997 78.0331C183.93 78.0212 183.864 78.0106 183.799 78.0011C183.776 77.9975 183.752 77.9928 183.73 77.9892C183.675 77.9821 183.623 77.9785 183.569 77.9726C183.499 77.9643 183.428 77.956 183.359 77.9513C183.339 77.9501 183.317 77.9465 183.297 77.9453C183.25 77.9418 183.204 77.943 183.156 77.9406C183.073 77.937 182.991 77.9335 182.91 77.9323C182.887 77.9323 182.863 77.9299 182.84 77.9299C182.804 77.9299 182.77 77.9347 182.734 77.9347C182.631 77.937 182.529 77.9418 182.428 77.9489C182.398 77.9513 182.367 77.9501 182.336 77.9537C182.314 77.956 182.292 77.9608 182.27 77.9631C182.116 77.9797 181.963 78.0011 181.813 78.0295C181.8 78.0319 181.787 78.0331 181.775 78.0355L181.768 78.0378C181.556 78.0805 181.351 78.1398 181.151 78.2086C181.133 78.2145 181.113 78.2181 181.096 78.224C181.082 78.2288 181.068 78.2359 181.054 78.2418C180.967 78.2738 180.882 78.3094 180.798 78.3462C180.756 78.364 180.713 78.3806 180.672 78.3995C180.548 78.4576 180.427 78.5205 180.308 78.5893L177.667 80.1249C177.786 80.0562 177.907 79.9933 178.031 79.9352C178.073 79.9162 178.115 79.8996 178.157 79.8818C178.241 79.8451 178.326 79.8095 178.413 79.7775C178.445 79.7656 178.478 79.7561 178.51 79.7455C178.71 79.6767 178.916 79.6186 179.128 79.5759C179.142 79.5723 179.157 79.5712 179.173 79.5688C179.322 79.5403 179.474 79.519 179.629 79.5024C179.681 79.4964 179.734 79.4929 179.788 79.4881C179.889 79.481 179.991 79.4763 180.094 79.4739C180.152 79.4727 180.21 79.4704 180.269 79.4715C180.35 79.4715 180.433 79.4763 180.514 79.4798C180.582 79.4834 180.649 79.4858 180.718 79.4905C180.787 79.4964 180.857 79.5036 180.927 79.5119C181.004 79.5202 181.08 79.5285 181.158 79.5403C181.223 79.5498 181.289 79.5617 181.356 79.5723C181.439 79.5866 181.522 79.6008 181.606 79.6186C181.663 79.6304 181.72 79.6435 181.777 79.6565C181.866 79.6767 181.956 79.6992 182.046 79.7229C182.103 79.7384 182.159 79.7538 182.218 79.7704C182.316 79.7988 182.415 79.8297 182.515 79.8629C182.561 79.8783 182.607 79.8925 182.655 79.9091C182.948 80.0099 183.244 80.1285 183.546 80.2661C183.592 80.2874 183.639 80.3099 183.685 80.3313C183.792 80.3811 183.898 80.4333 184.006 80.4878C184.058 80.5151 184.112 80.5412 184.164 80.5696C184.305 80.6443 184.447 80.7214 184.59 80.8032C184.919 80.993 185.243 81.2005 185.565 81.4223C185.584 81.4353 185.602 81.4495 185.623 81.4638C185.921 81.6725 186.215 81.8954 186.506 82.129C186.538 82.1551 186.57 82.1812 186.602 82.2073C186.883 82.4374 187.159 82.6793 187.429 82.9307C187.461 82.9603 187.494 82.99 187.526 83.0208C187.801 83.2793 188.07 83.5485 188.333 83.8272C188.356 83.8509 188.378 83.8734 188.4 83.8971C188.681 84.1972 188.955 84.5078 189.221 84.828C189.221 84.828 189.227 84.8363 189.23 84.8399C189.503 85.1684 189.767 85.5063 190.023 85.8538C190.028 85.8597 190.032 85.8656 190.036 85.8716C190.266 86.1846 190.487 86.506 190.703 86.8321C190.836 87.0349 190.962 87.2436 191.09 87.4511C191.199 87.6278 191.312 87.8033 191.417 87.9836C191.467 88.0678 191.513 88.1543 191.561 88.2397C191.73 88.5386 191.895 88.841 192.05 89.1457C192.067 89.1789 192.084 89.2109 192.101 89.2441C192.288 89.6165 192.466 89.9924 192.632 90.3719C192.64 90.392 192.65 90.4122 192.658 90.4324C192.819 90.8035 192.97 91.1783 193.11 91.5542C193.119 91.5791 193.129 91.604 193.137 91.6277C193.278 92.0131 193.408 92.3997 193.525 92.7863C193.532 92.81 193.538 92.8337 193.545 92.8574C193.656 93.2298 193.754 93.6021 193.842 93.9733C193.85 94.0089 193.859 94.0445 193.867 94.08C193.955 94.4643 194.031 94.8461 194.091 95.2268L194.095 95.2445C194.155 95.6288 194.2 96.0106 194.232 96.3889C194.234 96.4197 194.237 96.4517 194.239 96.4826C194.269 96.8609 194.285 97.2368 194.284 97.6068C194.284 97.7882 194.278 97.9661 194.271 98.1404C194.269 98.1914 194.265 98.24 194.262 98.2898C194.255 98.4096 194.246 98.527 194.237 98.6432C194.231 98.712 194.223 98.7796 194.215 98.846C194.205 98.9444 194.193 99.0428 194.18 99.1389C194.17 99.2112 194.16 99.2824 194.148 99.3523C194.134 99.4413 194.118 99.529 194.103 99.6156C194.089 99.6939 194.072 99.7721 194.055 99.8492C194.039 99.9275 194.021 100.005 194.002 100.08C193.98 100.171 193.957 100.26 193.932 100.348C193.913 100.416 193.894 100.485 193.874 100.551C193.842 100.657 193.807 100.76 193.771 100.862C193.752 100.916 193.733 100.971 193.713 101.024C193.648 101.195 193.579 101.36 193.504 101.519C193.496 101.535 193.488 101.552 193.479 101.569C193.378 101.78 193.267 101.98 193.149 102.169C193.139 102.183 193.131 102.2 193.122 102.214C193.022 102.369 192.915 102.515 192.805 102.655C192.779 102.688 192.752 102.721 192.724 102.755C192.617 102.884 192.506 103.008 192.389 103.123C192.381 103.132 192.372 103.141 192.364 103.149C192.24 103.27 192.108 103.382 191.973 103.487C191.94 103.513 191.908 103.537 191.875 103.562C191.736 103.664 191.595 103.761 191.447 103.848L194.087 102.313C194.236 102.227 194.377 102.13 194.515 102.028C194.549 102.003 194.582 101.978 194.615 101.952C194.75 101.846 194.882 101.735 195.006 101.614C195.014 101.605 195.023 101.596 195.032 101.586C195.149 101.471 195.26 101.347 195.368 101.218C195.395 101.184 195.422 101.152 195.448 101.118C195.558 100.978 195.665 100.832 195.765 100.677C195.765 100.677 195.771 100.669 195.774 100.664C195.78 100.653 195.786 100.641 195.792 100.632C195.91 100.442 196.021 100.243 196.123 100.032C196.128 100.02 196.136 100.01 196.14 99.9986L196.147 99.982C196.222 99.8231 196.291 99.6583 196.356 99.4875C196.362 99.4733 196.368 99.4603 196.374 99.4448C196.388 99.4057 196.4 99.3642 196.414 99.3239C196.45 99.2219 196.485 99.1199 196.517 99.0144C196.525 98.9871 196.536 98.961 196.544 98.9326C196.556 98.8934 196.565 98.8519 196.576 98.8116C196.601 98.7238 196.624 98.6349 196.646 98.5436C196.656 98.5068 196.667 98.4724 196.675 98.4345C196.684 98.3942 196.691 98.3515 196.7 98.3112C196.716 98.2341 196.732 98.1558 196.747 98.0775C196.754 98.0372 196.764 97.9993 196.771 97.959C196.779 97.9115 196.785 97.8629 196.792 97.8155C196.803 97.7443 196.815 97.6744 196.824 97.602C196.829 97.5653 196.836 97.5309 196.841 97.4941C196.848 97.4336 196.854 97.3708 196.86 97.3091C196.867 97.2415 196.875 97.1739 196.881 97.1052C196.883 97.0779 196.887 97.0518 196.889 97.0257C196.896 96.9356 196.901 96.8431 196.906 96.7518C196.908 96.702 196.913 96.6533 196.915 96.6024C196.915 96.5905 196.917 96.5786 196.917 96.5786C196.924 96.4126 196.927 96.2561 196.928 96.096C196.928 96.0865 196.928 96.077 196.928 96.0675C196.923 95.9217 196.92 95.7758 196.915 95.6288Z" fill="url(#paint26_linear_681_547)"/>
<path d="M184.587 80.7998C189.959 83.9032 194.298 91.4262 194.281 97.6033C194.263 103.777 189.895 106.271 184.523 103.167C179.15 100.064 174.807 92.5398 174.825 86.3662C174.844 80.1879 179.214 77.6964 184.587 80.7998Z" fill="url(#paint27_linear_681_547)"/>
<path d="M181.764 92.2089C181.764 92.2089 179.991 91.5425 178.497 91.7204C177.004 91.8982 176.692 93.3616 176.692 93.3616C176.692 93.3616 177.596 97.6603 182.392 101.664C186.403 105.013 189.822 104.423 189.822 104.423C189.822 104.423 189.979 97.3449 189.543 96.7223C189.106 96.0997 185.124 92.8315 185.124 92.8315L181.764 92.2089Z" fill="url(#paint28_linear_681_547)"/>
<path d="M181.793 91.7501L181.725 92.8719C181.725 92.8719 181.873 93.7933 183.14 93.8597C184.407 93.9261 185.394 93.3166 185.394 93.3166V89.5764L181.793 91.7501Z" fill="url(#paint29_linear_681_547)"/>
<path d="M180.806 85.4638C180.806 85.4638 180.429 86.5287 180.571 87.0126C180.713 87.4964 180.435 87.9126 180.435 88.4261C180.435 88.9384 180.548 90.7326 180.691 91.0457C180.833 91.3587 181.943 91.8141 181.943 91.8141C181.943 91.8141 184.334 91.3872 184.675 91.2164C185.017 91.0457 186.44 89.8776 186.07 88.1119C185.7 86.3461 183.708 85.0642 183.708 85.0642L180.806 85.4638Z" fill="url(#paint30_linear_681_547)"/>
<path d="M182.927 93.8644C182.996 93.8467 183.704 95.7689 183.704 95.7689L186.405 93.8644L185.67 92.6917L182.927 93.8644Z" fill="url(#paint31_linear_681_547)"/>
<path d="M181.724 91.8154L182.392 93.682L180.85 94.722L180.957 91.9625L181.724 91.8154Z" fill="url(#paint32_linear_681_547)"/>
<path d="M189.544 96.7234C189.544 96.7234 187.684 98.0919 187.436 100.695C187.189 103.298 187.306 104.308 187.306 104.308C187.306 104.308 189.201 104.589 189.975 104.501C190.749 104.414 191.209 103.971 191.209 103.971C191.209 103.971 190.814 97.027 189.544 96.7234Z" fill="url(#paint33_linear_681_547)"/>
<path d="M178.797 91.7204C178.797 91.7204 178.115 92.7663 177.836 93.8644C177.558 94.9625 177.57 95.7689 177.57 95.7689L176.566 93.2691C176.567 93.2679 177.341 91.4524 178.797 91.7204Z" fill="url(#paint34_linear_681_547)"/>
<path d="M182.927 86.3034C182.927 86.3034 182.341 86.9628 181.622 87.2462C180.903 87.5296 180.436 88.132 180.436 88.132C180.436 88.132 179.287 86.4042 180.506 85.0654C181.724 83.7266 183.248 82.7162 184.966 83.0827C186.683 83.4491 187.031 85.0654 187.031 85.0654C187.031 85.0654 188.927 85.9714 187.598 88.049C186.268 90.1278 185.726 90.6911 185.485 90.4788C185.243 90.2665 186.037 88.6917 185.474 88.4391C184.911 88.1866 184.827 88.8115 184.841 89.3439C184.855 89.8776 184.634 90.1823 184.412 89.9879C184.19 89.7934 184.87 87.5616 183.273 87.5213C182.358 87.4999 182.927 86.3034 182.927 86.3034Z" fill="#525575"/>
<path d="M103.954 54.406C105.501 55.2989 106.749 57.4643 106.744 59.2419C106.74 61.0183 105.482 61.7357 103.937 60.8428C102.39 59.9498 101.141 57.7845 101.146 56.0069C101.15 54.2293 102.408 53.513 103.954 54.406Z" fill="url(#paint35_linear_681_547)"/>
<path d="M126.433 68.5179L110.441 59.3394C109.925 59.043 109.503 58.3789 109.503 57.863C109.503 57.3472 109.925 57.1669 110.441 57.4634L126.433 66.6419C126.949 66.9384 127.371 67.6024 127.371 68.1183C127.371 68.6341 126.949 68.8144 126.433 68.5179Z" fill="url(#paint36_linear_681_547)"/>
<path d="M137.49 79.3082L110.441 63.783C109.925 63.4866 109.503 62.8225 109.503 62.3066C109.503 61.7908 109.925 61.6105 110.441 61.907L137.49 77.4322C138.006 77.7286 138.427 78.3927 138.427 78.9086C138.427 79.4244 138.006 79.6047 137.49 79.3082Z" fill="url(#paint37_linear_681_547)"/>
<path d="M137.49 83.7528L110.441 68.2276C109.925 67.9311 109.503 67.2671 109.503 66.7512C109.503 66.2354 109.925 66.0551 110.441 66.3516L137.49 81.8768C138.006 82.1732 138.427 82.8373 138.427 83.3531C138.427 83.869 138.006 84.0492 137.49 83.7528Z" fill="url(#paint38_linear_681_547)"/>
<path d="M139.471 54.777L126.02 47.0571C125.587 46.8081 125.231 46.2496 125.231 45.8155C125.231 45.3815 125.585 45.2297 126.02 45.4788L139.471 53.1987C139.905 53.4477 140.26 54.0062 140.26 54.4402C140.261 54.8755 139.905 55.0261 139.471 54.777Z" fill="url(#paint39_linear_681_547)"/>
<path d="M148.77 63.8523L126.021 50.7949C125.588 50.5459 125.232 49.9874 125.232 49.5533C125.232 49.1193 125.586 48.9675 126.021 49.2165L148.77 62.274C149.204 62.523 149.559 63.0815 149.559 63.5156C149.56 63.9496 149.204 64.1014 148.77 63.8523Z" fill="url(#paint40_linear_681_547)"/>
<path d="M148.77 67.5902L126.021 54.5327C125.588 54.2837 125.232 53.7251 125.232 53.2911C125.232 52.8571 125.586 52.7053 126.021 52.9543L148.77 66.0118C149.204 66.2608 149.559 66.8193 149.559 67.2534C149.56 67.6874 149.204 67.8392 148.77 67.5902Z" fill="url(#paint41_linear_681_547)"/>
<path d="M103.954 74.206C105.501 75.099 106.749 77.2643 106.744 79.0419C106.74 80.8184 105.482 81.5358 103.937 80.6428C102.39 79.7499 101.141 77.5845 101.146 75.8069C101.15 74.0293 102.408 73.3131 103.954 74.206Z" fill="url(#paint42_linear_681_547)"/>
<path d="M126.433 88.3187L110.441 79.1402C109.925 78.8437 109.503 78.1797 109.503 77.6638C109.503 77.148 109.925 76.9677 110.441 77.2642L126.433 86.4415C126.949 86.7379 127.371 87.402 127.371 87.9179C127.371 88.4337 126.949 88.6139 126.433 88.3187Z" fill="url(#paint43_linear_681_547)"/>
<path d="M137.49 99.109L110.441 83.5838C109.925 83.2873 109.503 82.6233 109.503 82.1074C109.503 81.5916 109.925 81.4113 110.441 81.7078L137.49 97.233C138.006 97.5295 138.427 98.1935 138.427 98.7094C138.427 99.2252 138.006 99.4043 137.49 99.109Z" fill="url(#paint44_linear_681_547)"/>
<path d="M137.49 103.552L110.441 88.0269C109.925 87.7304 109.503 87.0664 109.503 86.5505C109.503 86.0347 109.925 85.8544 110.441 86.1509L137.49 101.676C138.006 101.973 138.427 102.637 138.427 103.152C138.427 103.668 138.006 103.849 137.49 103.552Z" fill="url(#paint45_linear_681_547)"/>
<path d="M134.896 106.265L104.956 88.8931C104.507 88.6322 103.945 88.9571 103.945 89.4753V112.293C103.945 113.692 104.689 114.985 105.898 115.686L135.219 132.698C135.815 133.045 136.562 132.614 136.562 131.924V109.158C136.562 107.965 135.927 106.862 134.896 106.265Z" fill="#E3DCFF"/>
<path d="M121.835 104.807L109.702 97.8439C109.311 97.6198 108.991 97.1146 108.991 96.7233C108.991 96.3319 109.311 96.1956 109.702 96.4197L121.835 103.383C122.226 103.607 122.547 104.112 122.547 104.504C122.547 104.896 122.226 105.033 121.835 104.807Z" fill="white"/>
<path d="M121.835 118.295L109.702 111.332C109.311 111.108 108.991 110.603 108.991 110.211C108.991 109.82 109.311 109.684 109.702 109.908L121.835 116.871C122.226 117.095 122.547 117.6 122.547 117.992C122.547 118.383 122.226 118.519 121.835 118.295Z" fill="white"/>
<path d="M130.223 112.994L109.702 101.216C109.311 100.992 108.991 100.487 108.991 100.096C108.991 99.7045 109.311 99.5681 109.702 99.7922L130.223 111.57C130.614 111.794 130.934 112.299 130.934 112.691C130.935 113.082 130.615 113.218 130.223 112.994Z" fill="white"/>
<path d="M130.223 116.366L109.702 104.588C109.311 104.364 108.991 103.858 108.991 103.467C108.991 103.076 109.311 102.939 109.702 103.164L130.223 114.942C130.614 115.166 130.934 115.671 130.934 116.062C130.935 116.453 130.615 116.59 130.223 116.366Z" fill="white"/>
<path d="M130.223 119.737L109.702 107.959C109.311 107.735 108.991 107.23 108.991 106.838C108.991 106.447 109.311 106.311 109.702 106.535L130.223 118.313C130.614 118.537 130.934 119.042 130.934 119.433C130.935 119.826 130.615 119.962 130.223 119.737Z" fill="white"/>
<path d="M86.7524 67.4137L70.7603 58.2352C70.2447 57.9387 69.8228 57.2746 69.8228 56.7588C69.8228 56.2429 70.2447 56.0627 70.7603 56.3592L86.7524 65.5377C87.268 65.8341 87.6899 66.4982 87.6899 67.0141C87.6911 67.5299 87.2691 67.709 86.7524 67.4137Z" fill="url(#paint46_linear_681_547)"/>
<path d="M86.7524 93.5655L70.7603 84.387C70.2447 84.0906 69.8228 83.4265 69.8228 82.9106C69.8228 82.3948 70.2447 82.2145 70.7603 82.511L86.7524 91.6895C87.268 91.986 87.6899 92.65 87.6899 93.1659C87.6911 93.6817 87.2691 93.8608 86.7524 93.5655Z" fill="url(#paint47_linear_681_547)"/>
<path d="M91.421 74.7247L70.7603 62.6788C70.2447 62.3823 69.8228 61.7182 69.8228 61.2024C69.8228 60.6865 70.2447 60.5063 70.7603 60.8028L91.421 72.8486C91.9365 73.1451 92.3585 73.8092 92.3585 74.325C92.3597 74.8409 91.9377 75.0211 91.421 74.7247Z" fill="url(#paint48_linear_681_547)"/>
<path d="M91.421 79.169L70.7603 67.1231C70.2447 66.8266 69.8228 66.1626 69.8228 65.6467C69.8228 65.1309 70.2447 64.9506 70.7603 65.2471L91.421 77.293C91.9365 77.5894 92.3585 78.2535 92.3585 78.7694C92.3597 79.2852 91.9377 79.4643 91.421 79.169Z" fill="url(#paint49_linear_681_547)"/>
<path d="M91.421 86.6744L70.7603 74.6285C70.2447 74.332 69.8228 73.6679 69.8228 73.1521C69.8228 72.6363 70.2447 72.456 70.7603 72.7525L91.421 84.7983C91.9365 85.0948 92.3585 85.7589 92.3585 86.2747C92.3597 86.7906 91.9377 86.9708 91.421 86.6744Z" fill="url(#paint50_linear_681_547)"/>
<path d="M91.421 91.119L70.7603 79.0731C70.2447 78.7766 69.8228 78.1125 69.8228 77.5967C69.8228 77.0808 70.2447 76.9006 70.7603 77.197L91.421 89.243C91.9365 89.5394 92.3585 90.2035 92.3585 90.7193C92.3597 91.2352 91.9377 91.4143 91.421 91.119Z" fill="url(#paint51_linear_681_547)"/>
<path d="M43.2668 160.364C43.2668 160.364 42.4063 162.861 40.19 164.255C37.9736 165.648 35.5569 167.223 36.7398 168.189C37.9226 169.155 41.3171 169.571 43.3024 167.813C45.2876 166.056 49.5177 163.537 50.8605 162.216C52.2034 160.895 49.2996 157.367 49.2996 157.367L43.2668 160.364Z" fill="url(#paint52_linear_681_547)"/>
<path d="M26.3923 93.5779C26.3923 93.5779 24.1214 125.524 24.3845 128.413C24.6476 131.303 31.6795 138.665 35.7484 147.63C39.8184 156.594 42.8964 160.461 42.8964 160.461C42.8964 160.461 44.5652 161.997 47.8328 159.649C51.1005 157.301 49.0489 154.819 49.0489 154.819C49.0489 154.819 49.594 146.019 45.5999 139.451C41.6057 132.884 37.3958 129.207 37.3958 129.207L43.2686 103.626C43.2674 103.626 29.4406 101.274 26.3923 93.5779Z" fill="url(#paint53_linear_681_547)"/>
<path d="M35.0376 101.093C35.0376 101.093 30.1474 128.177 30.529 131.194C30.9107 134.211 32.8568 146.967 32.5451 151.66C32.2334 156.352 33.2918 165.42 33.2918 165.42C33.2918 165.42 34.6583 166.905 37.3926 167.008C40.1269 167.111 42.1489 164.799 42.1489 164.799C42.1489 164.799 42.9726 154.595 43.641 145.21C44.3083 135.825 43.6422 130.428 43.6422 130.428C43.6422 130.428 45.8657 118.219 48.5478 114.125C51.4836 109.644 51.7716 104.107 51.9565 101.938C51.9553 101.939 43.4253 102.498 35.0376 101.093Z" fill="url(#paint54_linear_681_547)"/>
<path d="M33.2909 165.42C33.2909 165.42 32.1567 168.993 29.8407 170.725C27.5248 172.455 23.0198 173.204 23.5911 174.476C24.1636 175.747 27.8816 179.154 31.5996 177.737C35.3176 176.32 37.7106 172.001 40.4662 171.748C43.2218 171.496 44.33 168.017 42.148 164.799C42.148 164.799 36.8418 168.331 33.2909 165.42Z" fill="url(#paint55_linear_681_547)"/>
<path d="M32.5617 53.1462C32.5617 53.1462 30.1522 55.11 28.4562 63.4869C26.7589 71.8637 24.3838 76.957 24.3838 76.957L26.8727 84.3152L31.738 77.9187L32.5617 53.1462Z" fill="url(#paint56_linear_681_547)"/>
<path d="M32.5618 53.1461C34.2413 48.5995 58.6295 61.9499 59.6856 64.9477C60.7416 67.9444 55.9249 80.1527 54.1103 87.9829C52.2957 95.8119 51.9556 101.94 51.9556 101.94C51.9556 101.94 46.3981 105.231 37.439 102.621C28.48 100.011 26.3916 93.5802 26.3916 93.5802C26.3916 93.5802 30.6335 58.3662 32.5618 53.1461Z" fill="url(#paint57_linear_681_547)"/>
<path d="M33.6721 82.5506C33.6721 82.5506 30.2977 79.1057 29.0841 79.1057C27.8704 79.1057 22.6531 80.1777 22.5239 80.8287C22.3947 81.4798 26.6212 81.5663 26.7504 81.5663C26.8796 81.5663 26.319 86.3678 27.1379 86.8742C27.9569 87.3805 31.1167 87.7316 31.1167 87.7316C31.1167 87.7316 35.0635 86.6216 33.6721 82.5506Z" fill="url(#paint58_linear_681_547)"/>
<path d="M16.2721 84.4492L26.3512 90.1271C27.2199 90.6169 28.2677 89.8828 28.1053 88.8986L25.1541 70.94C25.0427 70.2593 24.6279 69.6664 24.027 69.3284L13.6776 63.4976C12.8029 63.0042 11.7469 63.7442 11.9105 64.7344L14.8048 82.3515C14.9505 83.2373 15.491 84.0093 16.2721 84.4492Z" fill="url(#paint59_linear_681_547)"/>
<path d="M15.4615 85.0576L25.5406 90.7354C26.4093 91.224 27.4571 90.4912 27.2947 89.5069L24.3435 71.5484C24.2321 70.8677 23.8173 70.2748 23.2164 69.9368L12.8671 64.106C11.9924 63.6126 10.9363 64.3526 11.0999 65.3428L13.9942 82.9598C14.1412 83.8457 14.6805 84.6165 15.4615 85.0576Z" fill="url(#paint60_linear_681_547)"/>
<path d="M59.6857 64.9466C54.4529 62.288 52.9868 67.8449 52.7379 74.1536C52.489 80.4635 52.4061 86.6063 51.9083 86.7723C51.4105 86.9383 33.6713 82.5494 33.6713 82.5494C33.6713 82.5494 34.2343 83.2859 32.9069 85.6101C31.5794 87.9344 31.1172 87.7293 31.1172 87.7293C31.1172 87.7293 52.1904 99.653 57.7206 95.4077C62.6949 91.5892 62.1521 66.2001 59.6857 64.9466Z" fill="url(#paint61_linear_681_547)"/>
<path d="M40.513 51.8343L40.0057 56.8291C39.8979 57.894 40.6221 58.8604 41.6745 59.0549C42.4982 59.2079 43.6159 59.2447 45.0548 58.9494C48.6732 58.207 49.1414 57.4623 49.1414 57.4623L49.8845 47.6731L40.513 51.8343Z" fill="url(#paint62_linear_681_547)"/>
<path d="M39.5605 41.8578C39.5605 41.8578 38.3172 45.017 38.2674 45.6988C38.2188 46.3807 38.5281 46.938 38.5281 46.938C38.5281 46.938 37.8466 48.3006 37.7234 49.4781C37.6001 50.6557 37.2279 53.8954 37.7234 54.1954C38.2188 54.4955 38.8375 55.6114 40.2621 55.4252C41.6867 55.239 45.0919 54.4338 46.7014 53.4424C48.3109 52.4511 53.5128 47.123 53.5128 47.123C53.5128 47.123 49.6739 42.6618 49.3018 42.6618C48.9296 42.6618 40.5916 41.3622 39.5605 41.8578Z" fill="url(#paint63_linear_681_547)"/>
<path d="M37.4731 40.6839C37.4731 40.6839 37.7849 43.0971 40.8818 44.2734C43.9776 45.451 44.9685 45.0786 44.9685 45.0786C44.9685 45.0786 44.3498 47.4954 45.9593 47.8666C47.5688 48.2377 45.7732 49.911 46.3303 50.0355C46.8873 50.1588 47.135 47.9911 48.6213 48.1144C50.1076 48.2377 48.4673 50.0094 48.312 51.1502C48.1567 52.291 48.728 53.6654 51.019 51.9922C53.31 50.3189 54.1942 46.491 54.1942 46.491C54.1942 46.491 57.4725 38.5564 51.9613 37.0694C46.45 35.5835 40.3698 37.6481 37.4731 40.6839Z" fill="url(#paint64_linear_681_547)"/>
<defs>
<linearGradient id="paint0_linear_681_547" x1="118.749" y1="120.43" x2="92.369" y2="140.369" gradientUnits="userSpaceOnUse">
<stop stop-color="#BCC5D3"/>
<stop offset="1" stop-color="#9797A5"/>
</linearGradient>
<linearGradient id="paint1_linear_681_547" x1="97.1122" y1="140.785" x2="108.683" y2="124.265" gradientUnits="userSpaceOnUse">
<stop stop-color="#BCC5D3"/>
<stop offset="1" stop-color="#9797A5"/>
</linearGradient>
<linearGradient id="paint2_linear_681_547" x1="98.2903" y1="137.58" x2="89.419" y2="144.286" gradientUnits="userSpaceOnUse">
<stop stop-color="#BCC5D3"/>
<stop offset="1" stop-color="#9797A5"/>
</linearGradient>
<linearGradient id="paint3_linear_681_547" x1="141.727" y1="145.605" x2="106.792" y2="49.5856" gradientUnits="userSpaceOnUse">
<stop stop-color="#747777"/>
<stop offset="1" stop-color="#D8DADD"/>
</linearGradient>
<linearGradient id="paint4_linear_681_547" x1="161.549" y1="44.2716" x2="53.9668" y2="111.157" gradientUnits="userSpaceOnUse">
<stop stop-color="#747777"/>
<stop offset="1" stop-color="#D8DADD"/>
</linearGradient>
<linearGradient id="paint5_linear_681_547" x1="146.651" y1="43.2557" x2="63.4285" y2="40.6291" gradientUnits="userSpaceOnUse">
<stop stop-color="#4C6FBF"/>
<stop offset="1" stop-color="#8CA3D8"/>
</linearGradient>
<linearGradient id="paint6_linear_681_547" x1="74.6597" y1="36.7098" x2="95.8723" y2="36.7098" gradientUnits="userSpaceOnUse">
<stop stop-color="#EBEBEB"/>
<stop offset="1" stop-color="#D1D0CF"/>
</linearGradient>
<linearGradient id="paint7_linear_681_547" x1="71.533" y1="37.9172" x2="92.9634" y2="37.9172" gradientUnits="userSpaceOnUse">
<stop stop-color="#EBEBEB"/>
<stop offset="1" stop-color="#FFFEFF"/>
</linearGradient>
<linearGradient id="paint8_linear_681_547" x1="86.2094" y1="45.9868" x2="72.6648" y2="40.8719" gradientUnits="userSpaceOnUse">
<stop stop-color="#4C6FBF"/>
<stop offset="1" stop-color="#8CA3D8"/>
</linearGradient>
<linearGradient id="paint9_linear_681_547" x1="79.9168" y1="37.6028" x2="83.0666" y2="37.639" gradientUnits="userSpaceOnUse">
<stop stop-color="#FFC5C5"/>
<stop offset="1" stop-color="#DE8B8B"/>
</linearGradient>
<linearGradient id="paint10_linear_681_547" x1="77.7102" y1="34.0141" x2="83.9851" y2="34.0141" gradientUnits="userSpaceOnUse">
<stop stop-color="#FFC5C5"/>
<stop offset="1" stop-color="#DE8B8B"/>
</linearGradient>
<linearGradient id="paint11_linear_681_547" x1="81.1806" y1="40.3778" x2="84.1616" y2="40.412" gradientUnits="userSpaceOnUse">
<stop stop-color="#EBEBEB"/>
<stop offset="1" stop-color="#D1D0CF"/>
</linearGradient>
<linearGradient id="paint12_linear_681_547" x1="78.5073" y1="39.3307" x2="79.8196" y2="39.3458" gradientUnits="userSpaceOnUse">
<stop stop-color="#EBEBEB"/>
<stop offset="1" stop-color="#D1D0CF"/>
</linearGradient>
<linearGradient id="paint13_linear_681_547" x1="89.9426" y1="47.5842" x2="84.7915" y2="47.2432" gradientUnits="userSpaceOnUse">
<stop stop-color="#4C6FBF"/>
<stop offset="1" stop-color="#8CA3D8"/>
</linearGradient>
<linearGradient id="paint14_linear_681_547" x1="75.3698" y1="39.9525" x2="73.6636" y2="38.7929" gradientUnits="userSpaceOnUse">
<stop stop-color="#4C6FBF"/>
<stop offset="1" stop-color="#8CA3D8"/>
</linearGradient>
<linearGradient id="paint15_linear_681_547" x1="198.471" y1="139.636" x2="175.53" y2="70.376" gradientUnits="userSpaceOnUse">
<stop stop-color="#4C6FBF"/>
<stop offset="1" stop-color="#8CA3D8"/>
</linearGradient>
<linearGradient id="paint16_linear_681_547" x1="182.363" y1="139.005" x2="183.179" y2="137.643" gradientUnits="userSpaceOnUse">
<stop stop-color="white"/>
<stop offset="1" stop-color="#D8DADD"/>
</linearGradient>
<linearGradient id="paint17_linear_681_547" x1="182.363" y1="156.782" x2="183.179" y2="155.42" gradientUnits="userSpaceOnUse">
<stop stop-color="white"/>
<stop offset="1" stop-color="#D8DADD"/>
</linearGradient>
<linearGradient id="paint18_linear_681_547" x1="187.889" y1="146.719" x2="188.804" y2="145.191" gradientUnits="userSpaceOnUse">
<stop stop-color="white"/>
<stop offset="1" stop-color="#D8DADD"/>
</linearGradient>
<linearGradient id="paint19_linear_681_547" x1="187.889" y1="151.163" x2="188.804" y2="149.635" gradientUnits="userSpaceOnUse">
<stop stop-color="white"/>
<stop offset="1" stop-color="#D8DADD"/>
</linearGradient>
<linearGradient id="paint20_linear_681_547" x1="187.889" y1="155.607" x2="188.804" y2="154.079" gradientUnits="userSpaceOnUse">
<stop stop-color="white"/>
<stop offset="1" stop-color="#D8DADD"/>
</linearGradient>
<linearGradient id="paint21_linear_681_547" x1="183.702" y1="112.341" x2="184.321" y2="111.308" gradientUnits="userSpaceOnUse">
<stop stop-color="white"/>
<stop offset="1" stop-color="#D8DADD"/>
</linearGradient>
<linearGradient id="paint22_linear_681_547" x1="183.702" y1="125.828" x2="184.321" y2="124.795" gradientUnits="userSpaceOnUse">
<stop stop-color="white"/>
<stop offset="1" stop-color="#D8DADD"/>
</linearGradient>
<linearGradient id="paint23_linear_681_547" x1="187.894" y1="118.193" x2="188.589" y2="117.034" gradientUnits="userSpaceOnUse">
<stop stop-color="white"/>
<stop offset="1" stop-color="#D8DADD"/>
</linearGradient>
<linearGradient id="paint24_linear_681_547" x1="187.894" y1="121.565" x2="188.589" y2="120.406" gradientUnits="userSpaceOnUse">
<stop stop-color="white"/>
<stop offset="1" stop-color="#D8DADD"/>
</linearGradient>
<linearGradient id="paint25_linear_681_547" x1="187.894" y1="124.937" x2="188.589" y2="123.777" gradientUnits="userSpaceOnUse">
<stop stop-color="white"/>
<stop offset="1" stop-color="#D8DADD"/>
</linearGradient>
<linearGradient id="paint26_linear_681_547" x1="177.665" y1="90.8868" x2="196.922" y2="90.8868" gradientUnits="userSpaceOnUse">
<stop stop-color="#EBEBEB"/>
<stop offset="1" stop-color="#D1D0CF"/>
</linearGradient>
<linearGradient id="paint27_linear_681_547" x1="174.826" y1="91.9829" x2="194.281" y2="91.9829" gradientUnits="userSpaceOnUse">
<stop stop-color="#EBEBEB"/>
<stop offset="1" stop-color="#FFFEFF"/>
</linearGradient>
<linearGradient id="paint28_linear_681_547" x1="188.151" y1="99.309" x2="175.855" y2="94.6657" gradientUnits="userSpaceOnUse">
<stop stop-color="#4C6FBF"/>
<stop offset="1" stop-color="#8CA3D8"/>
</linearGradient>
<linearGradient id="paint29_linear_681_547" x1="182.44" y1="91.698" x2="185.299" y2="91.7308" gradientUnits="userSpaceOnUse">
<stop stop-color="#FFC5C5"/>
<stop offset="1" stop-color="#DE8B8B"/>
</linearGradient>
<linearGradient id="paint30_linear_681_547" x1="180.435" y1="88.4401" x2="186.132" y2="88.4401" gradientUnits="userSpaceOnUse">
<stop stop-color="#FFC5C5"/>
<stop offset="1" stop-color="#DE8B8B"/>
</linearGradient>
<linearGradient id="paint31_linear_681_547" x1="183.587" y1="94.2171" x2="186.293" y2="94.2482" gradientUnits="userSpaceOnUse">
<stop stop-color="#EBEBEB"/>
<stop offset="1" stop-color="#D1D0CF"/>
</linearGradient>
<linearGradient id="paint32_linear_681_547" x1="181.159" y1="93.2667" x2="182.35" y2="93.2804" gradientUnits="userSpaceOnUse">
<stop stop-color="#EBEBEB"/>
<stop offset="1" stop-color="#D1D0CF"/>
</linearGradient>
<linearGradient id="paint33_linear_681_547" x1="191.54" y1="100.759" x2="186.864" y2="100.45" gradientUnits="userSpaceOnUse">
<stop stop-color="#4C6FBF"/>
<stop offset="1" stop-color="#8CA3D8"/>
</linearGradient>
<linearGradient id="paint34_linear_681_547" x1="178.311" y1="93.8307" x2="176.762" y2="92.778" gradientUnits="userSpaceOnUse">
<stop stop-color="#4C6FBF"/>
<stop offset="1" stop-color="#8CA3D8"/>
</linearGradient>
<linearGradient id="paint35_linear_681_547" x1="101.145" y1="57.6242" x2="106.744" y2="57.6242" gradientUnits="userSpaceOnUse">
<stop stop-color="#FFAC06"/>
<stop offset="0.9952" stop-color="#FFD38D"/>
</linearGradient>
<linearGradient id="paint36_linear_681_547" x1="118.417" y1="63.7822" x2="119.233" y2="62.4197" gradientUnits="userSpaceOnUse">
<stop stop-color="white"/>
<stop offset="1" stop-color="#D8DADD"/>
</linearGradient>
<linearGradient id="paint37_linear_681_547" x1="123.942" y1="71.496" x2="124.858" y2="69.9679" gradientUnits="userSpaceOnUse">
<stop stop-color="white"/>
<stop offset="1" stop-color="#D8DADD"/>
</linearGradient>
<linearGradient id="paint38_linear_681_547" x1="123.942" y1="75.9403" x2="124.858" y2="74.4122" gradientUnits="userSpaceOnUse">
<stop stop-color="white"/>
<stop offset="1" stop-color="#D8DADD"/>
</linearGradient>
<linearGradient id="paint39_linear_681_547" x1="132.729" y1="50.794" x2="133.416" y2="49.6481" gradientUnits="userSpaceOnUse">
<stop stop-color="white"/>
<stop offset="1" stop-color="#D8DADD"/>
</linearGradient>
<linearGradient id="paint40_linear_681_547" x1="137.377" y1="57.2815" x2="138.147" y2="55.9963" gradientUnits="userSpaceOnUse">
<stop stop-color="white"/>
<stop offset="1" stop-color="#D8DADD"/>
</linearGradient>
<linearGradient id="paint41_linear_681_547" x1="137.377" y1="61.0194" x2="138.147" y2="59.7342" gradientUnits="userSpaceOnUse">
<stop stop-color="white"/>
<stop offset="1" stop-color="#D8DADD"/>
</linearGradient>
<linearGradient id="paint42_linear_681_547" x1="101.145" y1="77.4246" x2="106.744" y2="77.4246" gradientUnits="userSpaceOnUse">
<stop stop-color="#4C6FBF"/>
<stop offset="1" stop-color="#8CA3D8"/>
</linearGradient>
<linearGradient id="paint43_linear_681_547" x1="118.417" y1="83.582" x2="119.233" y2="82.2196" gradientUnits="userSpaceOnUse">
<stop stop-color="white"/>
<stop offset="1" stop-color="#D8DADD"/>
</linearGradient>
<linearGradient id="paint44_linear_681_547" x1="123.942" y1="91.2958" x2="124.858" y2="89.7677" gradientUnits="userSpaceOnUse">
<stop stop-color="white"/>
<stop offset="1" stop-color="#D8DADD"/>
</linearGradient>
<linearGradient id="paint45_linear_681_547" x1="123.942" y1="95.7398" x2="124.858" y2="94.2117" gradientUnits="userSpaceOnUse">
<stop stop-color="white"/>
<stop offset="1" stop-color="#D8DADD"/>
</linearGradient>
<linearGradient id="paint46_linear_681_547" x1="78.7365" y1="62.6774" x2="79.5526" y2="61.315" gradientUnits="userSpaceOnUse">
<stop stop-color="white"/>
<stop offset="1" stop-color="#D8DADD"/>
</linearGradient>
<linearGradient id="paint47_linear_681_547" x1="78.7365" y1="88.8292" x2="79.5526" y2="87.4667" gradientUnits="userSpaceOnUse">
<stop stop-color="white"/>
<stop offset="1" stop-color="#D8DADD"/>
</linearGradient>
<linearGradient id="paint48_linear_681_547" x1="81.0714" y1="68.5309" x2="81.8624" y2="67.2104" gradientUnits="userSpaceOnUse">
<stop stop-color="white"/>
<stop offset="1" stop-color="#D8DADD"/>
</linearGradient>
<linearGradient id="paint49_linear_681_547" x1="81.0714" y1="72.975" x2="81.8624" y2="71.6544" gradientUnits="userSpaceOnUse">
<stop stop-color="white"/>
<stop offset="1" stop-color="#D8DADD"/>
</linearGradient>
<linearGradient id="paint50_linear_681_547" x1="81.0714" y1="80.4806" x2="81.8624" y2="79.1601" gradientUnits="userSpaceOnUse">
<stop stop-color="white"/>
<stop offset="1" stop-color="#D8DADD"/>
</linearGradient>
<linearGradient id="paint51_linear_681_547" x1="81.0714" y1="84.925" x2="81.8624" y2="83.6044" gradientUnits="userSpaceOnUse">
<stop stop-color="white"/>
<stop offset="1" stop-color="#D8DADD"/>
</linearGradient>
<linearGradient id="paint52_linear_681_547" x1="36.8733" y1="163.194" x2="46.0229" y2="163.194" gradientUnits="userSpaceOnUse">
<stop stop-color="#4E5883"/>
<stop offset="1" stop-color="#262847"/>
</linearGradient>
<linearGradient id="paint53_linear_681_547" x1="22.7127" y1="127.266" x2="37.2998" y2="127.266" gradientUnits="userSpaceOnUse">
<stop stop-color="#4E5883"/>
<stop offset="1" stop-color="#262847"/>
</linearGradient>
<linearGradient id="paint54_linear_681_547" x1="31.1518" y1="134.052" x2="44.4237" y2="134.052" gradientUnits="userSpaceOnUse">
<stop stop-color="#4E5883"/>
<stop offset="1" stop-color="#262847"/>
</linearGradient>
<linearGradient id="paint55_linear_681_547" x1="24.1354" y1="171.437" x2="36.3637" y2="171.437" gradientUnits="userSpaceOnUse">
<stop stop-color="#4E5883"/>
<stop offset="1" stop-color="#262847"/>
</linearGradient>
<linearGradient id="paint56_linear_681_547" x1="28.0988" y1="79.7401" x2="28.7463" y2="54.3055" gradientUnits="userSpaceOnUse">
<stop stop-color="#FFAC06"/>
<stop offset="0.9952" stop-color="#FFD38D"/>
</linearGradient>
<linearGradient id="paint57_linear_681_547" x1="42.701" y1="96.0671" x2="43.7593" y2="54.4969" gradientUnits="userSpaceOnUse">
<stop stop-color="#4C6FBF"/>
<stop offset="1" stop-color="#8CA3D8"/>
</linearGradient>
<linearGradient id="paint58_linear_681_547" x1="31.3746" y1="86.6018" x2="27.3098" y2="80.5635" gradientUnits="userSpaceOnUse">
<stop stop-color="#FFC5C5"/>
<stop offset="1" stop-color="#DE8B8B"/>
</linearGradient>
<linearGradient id="paint59_linear_681_547" x1="11.8942" y1="76.8119" x2="28.1219" y2="76.8119" gradientUnits="userSpaceOnUse">
<stop stop-color="#BCC5D3"/>
<stop offset="1" stop-color="#EBEDF0"/>
</linearGradient>
<linearGradient id="paint60_linear_681_547" x1="26.1892" y1="87.748" x2="14.697" y2="70.6762" gradientUnits="userSpaceOnUse">
<stop stop-color="#BCC5D3"/>
<stop offset="1" stop-color="#EBEDF0"/>
</linearGradient>
<linearGradient id="paint61_linear_681_547" x1="46.1037" y1="91.3909" x2="46.7683" y2="65.2876" gradientUnits="userSpaceOnUse">
<stop stop-color="#FFAC06"/>
<stop offset="0.9952" stop-color="#FFD38D"/>
</linearGradient>
<linearGradient id="paint62_linear_681_547" x1="40.923" y1="53.5996" x2="50.1347" y2="53.3089" gradientUnits="userSpaceOnUse">
<stop stop-color="#FFC5C5"/>
<stop offset="1" stop-color="#DE8B8B"/>
</linearGradient>
<linearGradient id="paint63_linear_681_547" x1="37.3077" y1="48.3556" x2="49.151" y2="49.2434" gradientUnits="userSpaceOnUse">
<stop stop-color="#FFC5C5"/>
<stop offset="1" stop-color="#DE8B8B"/>
</linearGradient>
<linearGradient id="paint64_linear_681_547" x1="46.3611" y1="37.611" x2="46.232" y2="48.4416" gradientUnits="userSpaceOnUse">
<stop stop-color="#4E5883"/>
<stop offset="1" stop-color="#262847"/>
</linearGradient>
</defs>
</svg>
