<svg width="111" height="111" viewBox="0 0 111 111" fill="none" xmlns="http://www.w3.org/2000/svg">
<path d="M34.8911 56.2593L31.8589 55.5342L32.9531 45.8047H43.7373V48.8765H36.0776L35.603 53.1348C35.8579 52.9854 36.2446 52.8271 36.7632 52.6602C37.2817 52.4844 37.8618 52.3965 38.5034 52.3965C39.4351 52.3965 40.2612 52.5415 40.9819 52.8315C41.7026 53.1216 42.3135 53.5435 42.8145 54.0972C43.3242 54.6509 43.7109 55.3276 43.9746 56.1274C44.2383 56.9272 44.3701 57.8325 44.3701 58.8433C44.3701 59.6958 44.2383 60.5088 43.9746 61.2822C43.7109 62.0469 43.311 62.7324 42.7749 63.3389C42.2388 63.9365 41.5664 64.4067 40.7578 64.7495C39.9492 65.0923 38.9912 65.2637 37.8838 65.2637C37.0576 65.2637 36.2578 65.1406 35.4844 64.8945C34.7197 64.6484 34.0298 64.2837 33.4146 63.8003C32.8081 63.3169 32.3203 62.7324 31.9512 62.0469C31.5908 61.3525 31.4019 60.5615 31.3843 59.6738H35.1548C35.2075 60.2188 35.3481 60.689 35.5767 61.0845C35.814 61.4712 36.126 61.77 36.5127 61.981C36.8994 62.1919 37.3521 62.2974 37.8706 62.2974C38.354 62.2974 38.7671 62.2051 39.1099 62.0205C39.4526 61.8359 39.7295 61.5811 39.9404 61.2559C40.1514 60.9219 40.3052 60.5352 40.4019 60.0957C40.5073 59.6475 40.5601 59.1641 40.5601 58.6455C40.5601 58.127 40.4985 57.6567 40.3755 57.2349C40.2524 56.813 40.0635 56.4482 39.8086 56.1406C39.5537 55.833 39.2285 55.5957 38.833 55.4287C38.4463 55.2617 37.9937 55.1782 37.4751 55.1782C36.772 55.1782 36.2271 55.2881 35.8403 55.5078C35.4624 55.7275 35.146 55.978 34.8911 56.2593ZM59.7422 53.7148V57.0371C59.7422 58.4785 59.5884 59.7222 59.2808 60.7681C58.9731 61.8052 58.5293 62.6577 57.9492 63.3257C57.3779 63.9849 56.6968 64.4727 55.9058 64.7891C55.1147 65.1055 54.2358 65.2637 53.269 65.2637C52.4956 65.2637 51.7749 65.167 51.1069 64.9736C50.439 64.7715 49.8369 64.4595 49.3008 64.0376C48.7734 63.6157 48.3164 63.084 47.9297 62.4424C47.5518 61.792 47.2617 61.0186 47.0596 60.1221C46.8574 59.2256 46.7563 58.1973 46.7563 57.0371V53.7148C46.7563 52.2734 46.9102 51.0386 47.2178 50.0103C47.5342 48.9731 47.978 48.125 48.5493 47.4658C49.1294 46.8066 49.8149 46.3232 50.606 46.0156C51.397 45.6992 52.2759 45.541 53.2427 45.541C54.0161 45.541 54.7324 45.6421 55.3916 45.8442C56.0596 46.0376 56.6616 46.3408 57.1978 46.7539C57.7339 47.167 58.1909 47.6987 58.5688 48.3491C58.9468 48.9907 59.2368 49.7598 59.439 50.6562C59.6411 51.5439 59.7422 52.5635 59.7422 53.7148ZM55.9321 57.5381V53.2007C55.9321 52.5063 55.8926 51.8999 55.8135 51.3813C55.7432 50.8628 55.6333 50.4233 55.4839 50.063C55.3345 49.6938 55.1499 49.395 54.9302 49.1665C54.7104 48.938 54.46 48.771 54.1787 48.6655C53.8975 48.5601 53.5854 48.5073 53.2427 48.5073C52.812 48.5073 52.4297 48.5908 52.0957 48.7578C51.7705 48.9248 51.4937 49.1929 51.2651 49.562C51.0366 49.9224 50.8608 50.4058 50.7378 51.0122C50.6235 51.6099 50.5664 52.3394 50.5664 53.2007V57.5381C50.5664 58.2324 50.6016 58.8433 50.6719 59.3706C50.751 59.8979 50.8652 60.3506 51.0146 60.7285C51.1729 61.0977 51.3574 61.4009 51.5684 61.6382C51.7881 61.8667 52.0386 62.0337 52.3198 62.1392C52.6099 62.2446 52.9263 62.2974 53.269 62.2974C53.6909 62.2974 54.0645 62.2139 54.3896 62.0469C54.7236 61.8711 55.0049 61.5986 55.2334 61.2295C55.4707 60.8516 55.6465 60.3594 55.7607 59.7529C55.875 59.1465 55.9321 58.4082 55.9321 57.5381ZM62.2734 50.5112V49.4961C62.2734 48.7666 62.4316 48.103 62.748 47.5054C63.0645 46.9077 63.5303 46.4287 64.1455 46.0684C64.7607 45.708 65.5166 45.5278 66.4131 45.5278C67.3359 45.5278 68.105 45.708 68.7202 46.0684C69.3442 46.4287 69.8101 46.9077 70.1177 47.5054C70.4341 48.103 70.5923 48.7666 70.5923 49.4961V50.5112C70.5923 51.2231 70.4341 51.8779 70.1177 52.4756C69.8101 53.0732 69.3486 53.5522 68.7334 53.9126C68.1182 54.2729 67.3579 54.4531 66.4526 54.4531C65.5386 54.4531 64.7695 54.2729 64.1455 53.9126C63.5303 53.5522 63.0645 53.0732 62.748 52.4756C62.4316 51.8779 62.2734 51.2231 62.2734 50.5112ZM64.7915 49.4961V50.5112C64.7915 50.8188 64.8486 51.1133 64.9629 51.3945C65.0859 51.667 65.2705 51.8911 65.5166 52.0669C65.7715 52.2339 66.0791 52.3174 66.4395 52.3174C66.8174 52.3174 67.125 52.2339 67.3623 52.0669C67.5996 51.8911 67.7754 51.667 67.8896 51.3945C68.0039 51.1133 68.061 50.8188 68.061 50.5112V49.4961C68.061 49.1709 67.9995 48.8721 67.8765 48.5996C67.7622 48.3184 67.582 48.0942 67.3359 47.9272C67.0986 47.7515 66.791 47.6636 66.4131 47.6636C66.0615 47.6636 65.7627 47.7515 65.5166 47.9272C65.2705 48.0942 65.0859 48.3184 64.9629 48.5996C64.8486 48.8721 64.7915 49.1709 64.7915 49.4961ZM71.4492 61.3086V60.2935C71.4492 59.5728 71.6074 58.9136 71.9238 58.3159C72.249 57.7183 72.7192 57.2393 73.3345 56.8789C73.9585 56.5186 74.7231 56.3384 75.6284 56.3384C76.5425 56.3384 77.3071 56.5186 77.9224 56.8789C78.5376 57.2393 79.0034 57.7183 79.3198 58.3159C79.6362 58.9136 79.7944 59.5728 79.7944 60.2935V61.3086C79.7944 62.0293 79.6362 62.6885 79.3198 63.2861C79.0122 63.8838 78.5508 64.3628 77.9355 64.7231C77.3203 65.0835 76.5601 65.2637 75.6548 65.2637C74.7407 65.2637 73.9717 65.0835 73.3477 64.7231C72.7236 64.3628 72.249 63.8838 71.9238 63.2861C71.6074 62.6885 71.4492 62.0293 71.4492 61.3086ZM73.9805 60.2935V61.3086C73.9805 61.625 74.0508 61.9238 74.1914 62.2051C74.332 62.4863 74.5254 62.7104 74.7715 62.8774C75.0264 63.0444 75.3208 63.1279 75.6548 63.1279C76.0767 63.1279 76.4062 63.0444 76.6436 62.8774C76.8809 62.7104 77.0435 62.4863 77.1313 62.2051C77.228 61.9238 77.2764 61.625 77.2764 61.3086V60.2935C77.2764 59.9771 77.2148 59.6826 77.0918 59.4102C76.9688 59.1289 76.7842 58.9048 76.5381 58.7378C76.3008 58.562 75.9976 58.4741 75.6284 58.4741C75.2593 58.4741 74.9517 58.562 74.7056 58.7378C74.4683 58.9048 74.2881 59.1289 74.165 59.4102C74.042 59.6826 73.9805 59.9771 73.9805 60.2935ZM76.5645 48.5469L67.1909 63.5498L65.3452 62.5742L74.7188 47.5713L76.5645 48.5469Z" fill="white"/>
<circle cx="55.5" cy="54.5" r="50" stroke="#DFFFFD" stroke-width="3"/>
<path d="M55.5 105.533C55.5 108.552 53.0466 111.028 50.042 110.731C44.6258 110.196 39.3077 108.866 34.2611 106.775C27.5275 103.986 21.4092 99.8981 16.2556 94.7444C11.1019 89.5908 7.01382 83.4725 4.22468 76.7389C1.43555 70.0053 -1.94043e-06 62.7884 0 55.5C1.94043e-06 48.2116 1.43555 40.9946 4.22469 34.2611C7.01383 27.5275 11.1019 21.4092 16.2556 16.2556C21.4092 11.1019 27.5275 7.01381 34.2611 4.22468C39.3077 2.13431 44.6259 0.804251 50.0421 0.269017C53.0466 -0.0278954 55.5 2.44755 55.5 5.46675V5.46675C55.5 8.48595 53.0435 10.8989 50.0469 11.2684C46.0678 11.7589 42.1646 12.7853 38.4452 14.3259C33.0381 16.5656 28.1251 19.8483 23.9867 23.9867C19.8484 28.1251 16.5656 33.0381 14.3259 38.4451C12.0863 43.8522 10.9335 49.6474 10.9335 55.5C10.9335 61.3525 12.0862 67.1478 14.3259 72.5549C16.5656 77.9619 19.8483 82.8749 23.9867 87.0133C28.1251 91.1517 33.0381 94.4344 38.4451 96.6741C42.1646 98.2147 46.0678 99.2411 50.0469 99.7316C53.0434 100.101 55.5 102.514 55.5 105.533V105.533Z" fill="#00CABE"/>
</svg>
