<svg width="60" height="60" viewBox="0 0 60 60" fill="none" xmlns="http://www.w3.org/2000/svg">
<circle cx="30" cy="30" r="30" fill="#F38D15" fill-opacity="0.1"/>
<path d="M30.1547 17.0623C29.8753 17.1971 29.8786 17.1833 29.2935 19.1469C28.6953 21.152 28.245 22.6628 27.637 24.6955V24.6955C27.3971 25.5018 26.6564 26.0551 25.8152 26.0564L22.8448 26.0611L18.6285 26.071C18.5142 26.0713 18.4023 26.1038 18.3057 26.1648V26.1648C18.1118 26.2823 18 26.4863 18 26.7248C18 26.9323 18.0592 27.0636 18.2136 27.2157C18.2728 27.2745 19.364 28.1284 20.6393 29.1137C21.9146 30.099 23.0617 30.984 23.1866 31.0842C23.3148 31.181 23.7717 31.5371 24.2055 31.8724C24.6394 32.2078 25.0305 32.512 25.0733 32.55V32.55C25.121 32.5898 25.1402 32.6544 25.1219 32.7138L24.2483 35.5473C23.7487 37.1618 23.1537 39.0839 22.927 39.8168C22.6344 40.7537 22.5128 41.1997 22.5128 41.3137C22.5128 41.8185 23.0354 42.1573 23.4627 41.9256C23.5416 41.8807 23.9853 41.5592 24.4488 41.2066C26.1645 39.8963 26.8646 39.3605 28.1004 38.4132C28.9123 37.791 30.296 36.74 30.3716 36.6882C30.4702 36.6225 30.0035 36.2906 34.4276 39.5506C35.8738 40.6154 37.1622 41.5627 37.2937 41.6594C37.4909 41.8012 37.5632 41.8323 37.7144 41.8461C37.9642 41.8669 38.2731 41.7148 38.3816 41.5143C38.5131 41.2653 38.4934 41.1443 38.0562 39.7339C36.8368 35.7928 35.8245 32.5085 35.8245 32.4843C35.8245 32.4671 36.4654 31.9658 37.2477 31.3677C38.6807 30.2718 39.0193 30.016 41.2477 28.3186C42.9076 27.0533 42.8648 27.0878 42.9372 26.9565C43.0851 26.6868 42.9634 26.3376 42.6611 26.1579V26.1579C42.5642 26.1013 42.454 26.0713 42.3418 26.071L38.122 26.0611L35.6212 26.0571C34.4977 26.0554 33.5067 25.3207 33.1786 24.2461V24.2461C32.8729 23.2539 32.5771 22.2859 32.5179 22.0958C32.3996 21.7052 32.3174 21.439 31.6173 19.14C31.121 17.5048 31.0257 17.2593 30.8515 17.1314C30.6576 16.9862 30.3683 16.9586 30.1547 17.0623ZM30.9304 21.5254C31.167 22.3136 31.4037 23.0984 31.453 23.2712C31.5023 23.4406 31.7389 24.2288 31.9789 25.017C32.2188 25.8053 32.4423 26.552 32.4785 26.6764C32.6034 27.1017 32.794 27.3333 33.0865 27.4059C33.1556 27.4232 34.6149 27.437 36.3832 27.437C38.1285 27.437 39.6865 27.437 39.8442 27.437V27.437C40.0346 27.437 40.0547 27.5341 39.9064 27.6534C39.7667 27.7657 39.5718 27.9187 39.3578 28.0835C38.4178 28.8095 35.9691 30.7039 35.0751 31.3954C34.6576 31.7169 34.3848 31.952 34.352 32.0176C34.3224 32.0799 34.2994 32.2078 34.2994 32.3288C34.2961 32.5051 34.3783 32.7955 34.8614 34.3339C35.3512 35.893 36.2156 38.6864 36.3734 39.2084C36.391 39.2641 36.4087 39.3224 36.4222 39.3646C36.4346 39.4036 36.457 39.4677 36.4161 39.4677V39.4677C36.3964 39.4677 35.8277 39.0424 35.1572 38.5204C30.8712 35.2051 30.7956 35.1498 30.6116 35.091C30.3289 35.0046 30.2204 35.0599 29.3396 35.7444C28.6395 36.2837 27.3839 37.2551 25.8325 38.4513C25.4973 38.7071 25.0667 39.0424 24.8728 39.1945C24.6788 39.3432 24.5046 39.4677 24.4849 39.4677C24.4619 39.4677 24.4553 39.4365 24.4685 39.3881C24.5375 39.1496 24.807 38.2438 24.9286 37.8428C25.0075 37.587 25.185 36.9958 25.323 36.5291C25.8226 34.8594 25.9706 34.365 26.0462 34.1265C26.0889 33.9916 26.2236 33.556 26.3453 33.1516C26.5918 32.3288 26.5983 32.2251 26.4274 31.9762C26.3715 31.8966 25.9081 31.5129 25.2212 30.984C24.6098 30.5103 24.005 30.0402 23.8768 29.9434C23.6698 29.7774 21.6451 28.2148 20.9779 27.7032C20.8267 27.5857 20.7051 27.4819 20.7051 27.4681C20.7051 27.4508 22.2992 27.437 24.2483 27.4301L27.6144 27.4202C27.7286 27.4199 27.8411 27.3925 27.9427 27.3402V27.3402C28.1234 27.2469 28.2089 27.1466 28.2779 26.9426C28.3042 26.8631 28.6263 25.8329 28.9911 24.654C30.4834 19.8245 30.4209 20.0112 30.4669 20.0596C30.4834 20.0769 30.6904 20.7372 30.9304 21.5254Z" fill="#F38D15" stroke="#F38D15"/>
</svg>
