<svg width="60" height="60" viewBox="0 0 60 60" fill="none" xmlns="http://www.w3.org/2000/svg">
<circle cx="30" cy="30" r="30" fill="#7047EE" fill-opacity="0.1"/>
<path d="M41.8416 20.8333C42.0533 19.9167 41.8416 18.9167 41.2065 18.1667C40.6561 17.4167 39.7247 17 38.7509 17H20.2068C19.233 17 18.3015 17.4167 17.7088 18.1667C17.1161 18.9167 16.862 19.875 17.0737 20.8333C18.0052 24.8333 20.7572 27.9583 24.3982 29.5C20.7995 31.0417 18.0475 34.1667 17.1161 38.1667C16.9044 39.0833 17.1161 40.0833 17.7511 40.8333C18.3015 41.5833 19.233 42 20.2068 42H38.7932C39.767 42 40.6561 41.5833 41.2912 40.8333C41.8839 40.0833 42.138 39.125 41.9263 38.1667C40.9525 34.1667 38.2005 31.0417 34.5594 29.5C38.2005 27.9583 40.9525 24.8333 41.8416 20.8333ZM39.8094 38.625C39.894 38.9583 39.8094 39.25 39.5977 39.5C39.386 39.75 39.0896 39.875 38.7509 39.875H20.2068C19.8681 39.875 19.5717 39.75 19.36 39.5C19.1483 39.25 19.0636 38.9167 19.1483 38.625C20.2491 33.875 24.5253 30.5417 29.4788 30.5417C34.4324 30.5417 38.7086 33.875 39.8094 38.625ZM29.4788 28.4583C24.5253 28.4583 20.2491 25.125 19.1483 20.375C19.0636 20.0417 19.1483 19.75 19.36 19.5C19.5717 19.2083 19.8681 19.0833 20.2068 19.0833H38.7932C39.1319 19.0833 39.4283 19.2083 39.64 19.4583C39.8517 19.7083 39.9364 20.0417 39.8517 20.3333C38.7086 25.125 34.4324 28.4583 29.4788 28.4583ZM35.9989 23.5417C34.3054 25.1667 31.9768 26.125 29.4788 26.125C27.0232 26.125 24.6946 25.125 22.9587 23.5417C22.1543 22.75 22.7047 21.375 23.8478 21.375H35.0675C36.2529 21.4167 36.8033 22.7917 35.9989 23.5417Z" fill="#7047EE"/>
</svg>
