<svg display="none"
xmlns="http://www.w3.org/2000/svg">
	
	<symbol id="chart" viewBox="0 0 265 265">
		
		<g>
			
			<circle cx="132.5" cy="132.5" r="96.5" fill="#EB5757"/>
			<path d="M132.5 36C152.385 36 171.785 42.143 188.045 53.5889C204.306 65.0347 216.634 81.2245 223.342 99.9437C230.051 118.663 230.813 138.998 225.524 158.167C220.235 177.335 209.154 194.402 193.795 207.033L154.383 159.11C159.867 154.6 163.823 148.507 165.711 141.663C167.599 134.82 167.327 127.56 164.932 120.877C162.537 114.194 158.136 108.414 152.331 104.327C146.525 100.241 139.599 98.0478 132.5 98.0478L132.5 36Z" fill="#2D74FF"/>
			<path d="M216.072 180.75C206.129 197.971 191.109 211.7 173.067 220.059C155.024 228.419 134.839 231 115.274 227.45C95.7078 223.9 77.7165 214.393 63.7602 200.228C49.804 186.063 40.5644 167.933 37.3052 148.317L98.6327 138.127C99.7922 145.106 103.079 151.556 108.045 156.596C113.01 161.635 119.411 165.018 126.371 166.28C133.332 167.543 140.513 166.625 146.932 163.651C153.351 160.677 158.695 155.793 162.232 149.666L216.072 180.75Z" fill="#00CABE"/>
			<circle cx="132.5" cy="132.5" r="52.5" fill="#141432"/>
			<path d="M116.13 124.708L115.14 123.106L118.362 120.226H113.052V118.336H121.152V120.136L117.984 122.908C118.92 122.932 119.736 123.262 120.432 123.898C121.128 124.534 121.476 125.386 121.476 126.454C121.476 127.51 121.08 128.41 120.288 129.154C119.496 129.898 118.434 130.27 117.102 130.27C115.806 130.27 114.756 129.916 113.952 129.208C113.16 128.488 112.728 127.612 112.656 126.58L114.762 126.148C114.786 126.82 115.014 127.366 115.446 127.786C115.89 128.206 116.436 128.416 117.084 128.416C117.768 128.416 118.308 128.224 118.704 127.84C119.1 127.456 119.298 126.988 119.298 126.436C119.298 125.812 119.088 125.338 118.668 125.014C118.26 124.678 117.78 124.51 117.228 124.51C116.76 124.51 116.394 124.576 116.13 124.708ZM123.547 129.694C123.271 129.406 123.133 129.058 123.133 128.65C123.133 128.242 123.271 127.894 123.547 127.606C123.835 127.318 124.183 127.174 124.591 127.174C124.999 127.174 125.347 127.318 125.635 127.606C125.923 127.894 126.067 128.242 126.067 128.65C126.067 129.058 125.923 129.406 125.635 129.694C125.347 129.97 124.999 130.108 124.591 130.108C124.183 130.108 123.835 129.97 123.547 129.694ZM127.126 127.444V125.104L132.094 118.336H134.866V125.536H136.828V127.444H134.866V130H132.742V127.444H127.126ZM132.742 125.536V120.514L129.07 125.536H132.742ZM140.517 130H138.447V121.234H140.445V122.35C140.685 121.918 141.045 121.582 141.525 121.342C142.017 121.102 142.521 120.982 143.037 120.982C143.625 120.982 144.153 121.114 144.621 121.378C145.089 121.642 145.437 122.026 145.665 122.53C146.277 121.498 147.225 120.982 148.509 120.982C149.373 120.982 150.105 121.264 150.705 121.828C151.305 122.392 151.605 123.22 151.605 124.312V130H149.589V124.654C149.589 124.114 149.445 123.682 149.157 123.358C148.881 123.022 148.461 122.854 147.897 122.854C147.357 122.854 146.919 123.04 146.583 123.412C146.247 123.784 146.079 124.246 146.079 124.798V130H144.027V124.654C144.027 124.114 143.883 123.682 143.595 123.358C143.319 123.022 142.899 122.854 142.335 122.854C141.783 122.854 141.339 123.04 141.003 123.412C140.679 123.772 140.517 124.234 140.517 124.798V130Z" fill="white"/>
			<path opacity="0.7" d="M120.878 150.18C119.686 150.18 118.67 149.776 117.83 148.968C116.998 148.16 116.582 147.088 116.582 145.752C116.582 144.424 117.006 143.352 117.854 142.536C118.702 141.72 119.706 141.312 120.866 141.312C121.89 141.312 122.73 141.572 123.386 142.092C124.05 142.612 124.486 143.272 124.694 144.072L123.338 144.528C123.202 143.976 122.926 143.528 122.51 143.184C122.094 142.84 121.546 142.668 120.866 142.668C120.106 142.668 119.446 142.94 118.886 143.484C118.334 144.02 118.058 144.776 118.058 145.752C118.058 146.704 118.334 147.452 118.886 147.996C119.438 148.532 120.102 148.8 120.878 148.8C121.542 148.8 122.09 148.62 122.522 148.26C122.954 147.9 123.25 147.456 123.41 146.928L124.73 147.36C124.522 148.152 124.082 148.82 123.41 149.364C122.746 149.908 121.902 150.18 120.878 150.18ZM127.347 150H125.955V141.312H127.347V150ZM130.522 150H129.142V144.156H130.522V150ZM129.19 142.74C129.014 142.564 128.926 142.352 128.926 142.104C128.926 141.856 129.014 141.644 129.19 141.468C129.366 141.284 129.578 141.192 129.826 141.192C130.082 141.192 130.298 141.28 130.474 141.456C130.65 141.632 130.738 141.848 130.738 142.104C130.738 142.352 130.65 142.564 130.474 142.74C130.298 142.916 130.082 143.004 129.826 143.004C129.578 143.004 129.366 142.916 129.19 142.74ZM134.862 145.26C134.414 145.26 134.034 145.424 133.722 145.752C133.41 146.072 133.254 146.512 133.254 147.072C133.254 147.64 133.41 148.088 133.722 148.416C134.042 148.744 134.43 148.908 134.886 148.908C135.294 148.908 135.618 148.8 135.858 148.584C136.106 148.36 136.27 148.108 136.35 147.828L137.574 148.272C137.414 148.792 137.102 149.24 136.638 149.616C136.182 149.992 135.598 150.18 134.886 150.18C134.03 150.18 133.31 149.884 132.726 149.292C132.15 148.7 131.862 147.96 131.862 147.072C131.862 146.176 132.146 145.436 132.714 144.852C133.29 144.268 134.002 143.976 134.85 143.976C135.578 143.976 136.17 144.164 136.626 144.54C137.09 144.916 137.39 145.368 137.526 145.896L136.278 146.352C136.198 146.048 136.042 145.792 135.81 145.584C135.586 145.368 135.27 145.26 134.862 145.26ZM144.282 144.156L141.882 146.628L144.33 150H142.626L140.91 147.612L140.19 148.368V150H138.81V141.312H140.19V146.52L142.434 144.156H144.282ZM144.822 148.416L146.034 148.08C146.058 148.36 146.174 148.596 146.382 148.788C146.59 148.98 146.87 149.076 147.222 149.076C147.494 149.076 147.706 149.012 147.858 148.884C148.018 148.756 148.098 148.596 148.098 148.404C148.098 148.068 147.87 147.852 147.414 147.756L146.55 147.564C146.046 147.452 145.658 147.244 145.386 146.94C145.114 146.636 144.978 146.276 144.978 145.86C144.978 145.348 145.186 144.908 145.602 144.54C146.018 144.164 146.526 143.976 147.126 143.976C147.51 143.976 147.85 144.032 148.146 144.144C148.442 144.256 148.67 144.404 148.83 144.588C148.998 144.764 149.126 144.936 149.214 145.104C149.302 145.272 149.358 145.44 149.382 145.608L148.206 145.944C148.174 145.72 148.07 145.52 147.894 145.344C147.726 145.16 147.47 145.068 147.126 145.068C146.886 145.068 146.686 145.136 146.526 145.272C146.366 145.4 146.286 145.556 146.286 145.74C146.286 146.068 146.482 146.272 146.874 146.352L147.762 146.532C148.306 146.652 148.722 146.868 149.01 147.18C149.298 147.492 149.442 147.868 149.442 148.308C149.442 148.796 149.246 149.232 148.854 149.616C148.47 149.992 147.93 150.18 147.234 150.18C146.834 150.18 146.474 150.12 146.154 150C145.842 149.88 145.594 149.728 145.41 149.544C145.234 149.352 145.094 149.164 144.99 148.98C144.894 148.788 144.838 148.6 144.822 148.416Z" fill="white"/>
			
		</g>
		
	</symbol>
	
</svg>