<svg dysplay="none" xmlns="http://www.w3.org/2000/svg">
	<symbol id="telegram" viewBox="0 0 50 50" fill="#ff0099">
		<path d="M46.137,6.552c-0.75-0.636-1.928-0.727-3.146-0.238l-0.002,0C41.708,6.828,6.728,21.832,5.304,22.445	c-0.259,0.09-2.521,0.934-2.288,2.814c0.208,1.695,2.026,2.397,2.248,2.478l8.893,3.045c0.59,1.964,2.765,9.21,3.246,10.758	c0.3,0.965,0.789,2.233,1.646,2.494c0.752,0.29,1.5,0.025,1.984-0.355l5.437-5.043l8.777,6.845l0.209,0.125	c0.596,0.264,1.167,0.396,1.712,0.396c0.421,0,0.825-0.079,1.211-0.237c1.315-0.54,1.841-1.793,1.896-1.935l6.556-34.077	C47.231,7.933,46.675,7.007,46.137,6.552z M22,32l-3,8l-3-10l23-17L22,32z" />
	</symbol>
	<symbol id="instagram" viewBox="0 0 50 50" fill="#ff0099">
		<path d="M 16 3 C 8.83 3 3 8.83 3 16 L 3 34 C 3 41.17 8.83 47 16 47 L 34 47 C 41.17 47 47 41.17 47 34 L 47 16 C 47 8.83 41.17 3 34 3 L 16 3 z M 37 11 C 38.1 11 39 11.9 39 13 C 39 14.1 38.1 15 37 15 C 35.9 15 35 14.1 35 13 C 35 11.9 35.9 11 37 11 z M 25 14 C 31.07 14 36 18.93 36 25 C 36 31.07 31.07 36 25 36 C 18.93 36 14 31.07 14 25 C 14 18.93 18.93 14 25 14 z M 25 16 C 20.04 16 16 20.04 16 25 C 16 29.96 20.04 34 25 34 C 29.96 34 34 29.96 34 25 C 34 20.04 29.96 16 25 16 z" />
	</symbol>
	<symbol id="vk" viewBox="0 0 50 50" fill="#ff0099">
		<path d="M41,4H9C6.24,4,4,6.24,4,9v32c0,2.76,2.24,5,5,5h32c2.76,0,5-2.24,5-5V9C46,6.24,43.76,4,41,4z M37.72,33l-3.73-0.01c0,0-0.08,0.01-0.21,0.01c-0.3,0-0.92-0.08-1.65-0.58c-1.31-0.91-2.56-3.17-3.55-3.17c-0.07,0-0.13,0.01-0.19,0.03c-0.86,0.27-1.12,1.13-1.12,2.18c0,0.37-0.26,0.54-0.96,0.54h-1.93c-2.16,0-4.25-0.05-6.6-2.62c-3.46-3.79-6.7-10.53-6.7-10.53s-0.18-0.39,0.01-0.62c0.18-0.21,0.6-0.23,0.76-0.23c0.04,0,0.06,0,0.06,0h4c0,0,0.37,0.07,0.64,0.27c0.23,0.17,0.35,0.48,0.35,0.48s0.68,1.32,1.53,2.81c1.43,2.46,2.2,3.28,2.75,3.28c0.09,0,0.18-0.02,0.27-0.07c0.82-0.45,0.58-4.09,0.58-4.09s0.01-1.32-0.42-1.9c-0.33-0.46-0.96-0.59-1.24-0.63c-0.22-0.03,0.14-0.55,0.62-0.79c0.62-0.3,1.65-0.36,2.89-0.36h0.6c1.17,0.02,1.2,0.14,1.66,0.25c1.38,0.33,0.91,1.62,0.91,4.71c0,0.99-0.18,2.38,0.53,2.85c0.05,0.03,0.12,0.05,0.21,0.05c0.46,0,1.45-0.59,3.03-3.26c0.88-1.52,1.56-3.03,1.56-3.03s0.15-0.27,0.38-0.41c0.22-0.13,0.22-0.13,0.51-0.13h0.03c0.32,0,3.5-0.03,4.2-0.03h0.08c0.67,0,1.28,0.01,1.39,0.42c0.16,0.62-0.49,1.73-2.2,4.03c-2.82,3.77-3.14,3.49-0.8,5.67c2.24,2.08,2.7,3.09,2.78,3.22C39.68,32.88,37.72,33,37.72,33z" />
	</symbol>
	<symbol id="email" viewBox="0 0 12 9" fill="#ff0099">
		<path d="M10.5 0H1.5C1.10231 0.00040608 0.721022 0.151388 0.43981 0.419818C0.158597 0.688248 0.000425418 1.0522 0 1.43182V7.56818C0.000425418 7.9478 0.158597 8.31175 0.43981 8.58018C0.721022 8.84861 1.10231 8.99959 1.5 9H10.5C10.8977 8.99959 11.279 8.84861 11.5602 8.58018C11.8414 8.31175 11.9996 7.9478 12 7.56818V1.43182C11.9996 1.0522 11.8414 0.688248 11.5602 0.419818C11.279 0.151388 10.8977 0.00040608 10.5 0ZM10.1202 2.36838L6.26304 5.23202C6.18782 5.28783 6.09527 5.31813 6 5.31813C5.90473 5.31813 5.81218 5.28783 5.73696 5.23202L1.87982 2.36838C1.8345 2.33571 1.79644 2.29477 1.76784 2.24794C1.73924 2.20111 1.72068 2.14932 1.71323 2.09558C1.70578 2.04185 1.70959 1.98723 1.72445 1.93491C1.7393 1.88259 1.7649 1.83361 1.79976 1.79082C1.83462 1.74802 1.87804 1.71227 1.92749 1.68563C1.97695 1.65899 2.03146 1.642 2.08786 1.63565C2.14426 1.6293 2.20142 1.6337 2.25601 1.64862C2.31061 1.66353 2.36156 1.68866 2.40589 1.72253L6 4.39082L9.59411 1.72253C9.68398 1.65774 9.79695 1.62933 9.9086 1.64343C10.0202 1.65753 10.1216 1.71302 10.1907 1.79788C10.2598 1.88275 10.2912 1.99018 10.278 2.09694C10.2648 2.2037 10.2081 2.30121 10.1202 2.36838Z" fill="#ff0099" />
	</symbol>
	<symbol id="wsa" viewBox="0 0 105 106" fill="#ff0099">
		<path fill-rule="evenodd" clip-rule="evenodd" d="M52.5364 3.02091C65.763 3.02612 78.1744 8.17456 87.5104 17.5157C96.8437 26.8595 101.984 39.2761 101.979 52.4845C101.969 79.7371 79.7864 101.912 52.5364 101.912H52.5156C44.2421 101.909 36.1093 99.8334 28.888 95.8933L2.67702 102.768L9.69264 77.1563C5.36452 69.6615 3.08847 61.1563 3.09108 52.4454C3.1041 25.1928 25.2812 3.02091 52.5364 3.02091ZM52.5364 0.416748C23.8489 0.416748 0.499932 23.7553 0.486911 52.4454C0.484307 61.2136 2.69785 69.8543 6.89577 77.5027L0.163995 102.083C-0.0807969 102.982 0.169203 103.94 0.825453 104.602C1.32024 105.102 1.98952 105.375 2.67702 105.375C2.89837 105.375 3.11972 105.346 3.33847 105.289L28.565 98.6746C35.9296 102.497 44.1848 104.516 52.5156 104.518C81.2239 104.518 104.573 81.1772 104.586 52.4871C104.591 38.5834 99.1822 25.5105 89.3567 15.6772C79.526 5.84123 66.4505 0.421956 52.5364 0.416748Z" fill="#FF0099" />
		<path fill-rule="evenodd" clip-rule="evenodd" d="M81.6042 23.4167C73.8437 15.6511 63.5286 11.3725 52.5495 11.3699C29.8828 11.3699 11.4479 29.797 11.4375 52.448C11.4349 60.211 13.6068 67.7683 17.7214 74.3126L18.7005 75.8673L14.5469 91.0261L30.1016 86.948L31.6042 87.8386C37.9115 91.5834 45.1458 93.5626 52.5208 93.5652H52.5365C75.1875 93.5652 93.6224 75.1355 93.6302 52.4819C93.6328 41.5053 89.3646 31.1824 81.6042 23.4167Z" fill="#FF0099" />
		<path fill-rule="evenodd" clip-rule="evenodd" d="M40.1769 31.7837C39.2524 29.7265 38.2785 29.6848 37.3957 29.6483C36.6743 29.6171 35.8514 29.6197 35.0285 29.6197C34.2056 29.6197 32.867 29.9296 31.7342 31.1666C30.6014 32.4035 27.4087 35.3905 27.4087 41.4686C27.4087 47.5468 31.8358 53.4218 32.453 54.2447C33.0701 55.0676 40.9998 67.94 53.5571 72.8931C63.992 77.0077 66.117 76.19 68.3826 75.9843C70.6483 75.7785 75.6925 72.9973 76.7212 70.1119C77.7498 67.2265 77.7498 64.7551 77.4425 64.2395C77.1326 63.7239 76.3097 63.4166 75.0753 62.7968C73.841 62.177 67.7655 59.19 66.6326 58.7785C65.4998 58.3671 64.6769 58.1614 63.8514 59.3983C63.0285 60.6327 60.6613 63.4166 59.9399 64.2395C59.2186 65.065 58.4972 65.1692 57.2629 64.5494C56.0285 63.9296 52.0493 62.6275 47.328 58.4192C43.6561 55.1457 41.1769 51.1015 40.4556 49.8645C39.7342 48.6301 40.3774 47.9608 40.9972 47.3436C41.5519 46.789 42.2316 45.9009 42.8514 45.1796C43.4686 44.4582 43.6743 43.9426 44.0858 43.1197C44.4972 42.2942 44.2915 41.5728 43.9816 40.9556C43.6769 40.3358 41.2759 34.2265 40.1769 31.7837Z" fill="#1D1D42" />
	</symbol>
	<symbol id="site" viewBox="0 0 12 12" fill="#ff0099">
		<path d="M7.95865 8.05491C8.11061 7.52266 8.21114 6.90427 8.24946 6.31057C8.2503 6.29506 8.24795 6.27954 8.24255 6.26497C8.23715 6.25041 8.22882 6.23711 8.21807 6.22589C8.20731 6.21468 8.19437 6.2058 8.18005 6.1998C8.16572 6.1938 8.15031 6.1908 8.13478 6.191H6.30764C6.29268 6.19087 6.27784 6.19368 6.26397 6.19928C6.2501 6.20488 6.23746 6.21315 6.22679 6.22364C6.21612 6.23412 6.20761 6.2466 6.20176 6.26037C6.19592 6.27414 6.19284 6.28892 6.1927 6.30388V7.72579C6.19302 7.75451 6.20416 7.78206 6.22389 7.80293C6.24362 7.8238 6.27049 7.83647 6.29915 7.83841C6.81405 7.88002 7.32281 7.97824 7.8162 8.13128C7.84521 8.14 7.87651 8.13687 7.90321 8.12255C7.92992 8.10823 7.94985 8.08391 7.95865 8.05491ZM7.51716 8.8988C7.12572 8.78452 6.72465 8.70628 6.31895 8.66507C6.30328 8.66332 6.28742 8.66485 6.27237 8.66956C6.25732 8.67427 6.24342 8.68206 6.23154 8.69244C6.21967 8.70281 6.21008 8.71554 6.2034 8.72982C6.19671 8.7441 6.19307 8.75962 6.1927 8.77538V10.4529C6.19332 10.4729 6.19915 10.4924 6.20962 10.5094C6.22009 10.5265 6.23484 10.5405 6.2524 10.5502C6.26996 10.5598 6.28973 10.5646 6.30974 10.5643C6.32976 10.5639 6.34933 10.5583 6.36652 10.548C6.77535 10.3097 7.11219 9.90931 7.41662 9.37988C7.46651 9.29349 7.54236 9.14461 7.58813 9.05359C7.59523 9.03895 7.59901 9.02291 7.59919 9.00664C7.59937 8.99036 7.59595 8.97425 7.58916 8.95945C7.58238 8.94466 7.5724 8.93155 7.55996 8.92106C7.54751 8.91057 7.53289 8.90297 7.51716 8.8988ZM5.24699 8.6697C4.84179 8.70824 4.44103 8.78416 4.04981 8.89649C3.98193 8.91603 3.95339 9.00962 3.98424 9.07108C4.03027 9.16261 4.08709 9.2796 4.13569 9.36703C4.46995 9.95842 4.82582 10.3313 5.19608 10.548C5.21327 10.5583 5.23284 10.5639 5.25285 10.5643C5.27287 10.5646 5.29264 10.5598 5.3102 10.5502C5.32776 10.5405 5.34251 10.5265 5.35298 10.5094C5.36345 10.4924 5.36928 10.4729 5.3699 10.4529V8.77461C5.36977 8.75929 5.36636 8.74417 5.35989 8.73028C5.35341 8.7164 5.34403 8.70406 5.33238 8.69411C5.32073 8.68417 5.30707 8.67684 5.29234 8.67263C5.27761 8.66841 5.26214 8.66742 5.24699 8.6697ZM5.25496 6.191H3.42782C3.41231 6.19081 3.39693 6.19379 3.38262 6.19978C3.36831 6.20577 3.35538 6.21462 3.34463 6.22581C3.33388 6.23699 3.32554 6.25026 3.32013 6.26479C3.31471 6.27933 3.31233 6.29482 3.31314 6.31031C3.3512 6.90324 3.45122 7.52292 3.60267 8.05466C3.60696 8.06921 3.6141 8.08276 3.62367 8.09453C3.63325 8.10631 3.64506 8.11606 3.65843 8.12324C3.6718 8.13041 3.68646 8.13486 3.70156 8.13633C3.71666 8.1378 3.7319 8.13626 3.7464 8.13179C4.23975 7.97874 4.74854 7.88078 5.26345 7.8397C5.29215 7.83782 5.31909 7.82518 5.33887 7.8043C5.35865 7.78342 5.36983 7.75584 5.37015 7.72708V6.30414C5.37005 6.28914 5.36699 6.2743 5.36114 6.26049C5.35529 6.24667 5.34677 6.23415 5.33607 6.22364C5.32536 6.21312 5.31269 6.20483 5.29877 6.19923C5.28485 6.19363 5.26996 6.19083 5.25496 6.191ZM6.31946 2.89413C6.72489 2.85614 7.12546 2.7774 7.5151 2.65911C7.53074 2.65489 7.54526 2.64727 7.55763 2.63681C7.57 2.62636 7.57993 2.6133 7.5867 2.59859C7.59347 2.58387 7.59692 2.56784 7.59681 2.55164C7.5967 2.53544 7.59304 2.51946 7.58607 2.50484C7.54004 2.41304 7.47628 2.28165 7.42742 2.19397C7.11141 1.6283 6.75529 1.23361 6.36703 1.01119C6.34983 1.00101 6.33028 0.995472 6.31029 0.995134C6.2903 0.994795 6.27057 0.999665 6.25303 1.00926C6.2355 1.01886 6.22076 1.03286 6.21027 1.04988C6.19979 1.06689 6.19391 1.08635 6.19322 1.10633V2.78356C6.19359 2.79934 6.19723 2.81486 6.20391 2.82915C6.2106 2.84344 6.22018 2.85619 6.23205 2.86659C6.24392 2.87698 6.25781 2.8848 6.27286 2.88954C6.28791 2.89428 6.30378 2.89584 6.31946 2.89413ZM6.30764 5.3682H8.13478C8.15017 5.36846 8.16546 5.36557 8.17969 5.3597C8.19393 5.35383 8.20681 5.34512 8.21755 5.33409C8.22829 5.32306 8.23667 5.30994 8.24215 5.29556C8.24764 5.28117 8.25012 5.26582 8.24946 5.25043C8.2114 4.66496 8.11395 4.02137 7.9625 3.49632C7.95807 3.48188 7.95084 3.46846 7.94121 3.45683C7.93158 3.4452 7.91975 3.43558 7.90639 3.42854C7.89304 3.42149 7.87842 3.41715 7.86339 3.41576C7.84835 3.41438 7.83319 3.41598 7.81877 3.42047C7.33023 3.56806 6.82138 3.68865 6.29941 3.72902C6.27088 3.73064 6.24403 3.74299 6.22423 3.76359C6.20444 3.7842 6.19318 3.81153 6.1927 3.8401V5.25712C6.19324 5.28708 6.20565 5.3156 6.2272 5.33643C6.24874 5.35725 6.27767 5.36868 6.30764 5.3682ZM5.19608 1.01145C4.79959 1.23181 4.44604 1.63961 4.12978 2.20374C4.08067 2.29142 4.02204 2.41227 3.9755 2.50381C3.96858 2.51844 3.96495 2.53441 3.96487 2.5506C3.96478 2.56679 3.96824 2.58279 3.975 2.5975C3.98177 2.6122 3.99167 2.62525 4.00402 2.63572C4.01636 2.64618 4.03085 2.65382 4.04647 2.65809C4.43595 2.77855 4.83706 2.85758 5.24313 2.89387C5.2588 2.89558 5.27464 2.89403 5.28968 2.8893C5.30471 2.88458 5.31859 2.87678 5.33046 2.86642C5.34232 2.85605 5.35191 2.84333 5.35861 2.82907C5.36531 2.81481 5.36898 2.79931 5.36938 2.78356V1.10659C5.36857 1.08671 5.36264 1.06739 5.35216 1.05048C5.34169 1.03358 5.32702 1.01967 5.30959 1.0101C5.29215 1.00053 5.27254 0.995623 5.25266 0.99586C5.23277 0.996096 5.21328 1.00147 5.19608 1.01145ZM5.26319 3.72927C4.74122 3.68942 4.23186 3.56883 3.74383 3.42072C3.72941 3.41623 3.71425 3.41463 3.69921 3.41602C3.68418 3.4174 3.66956 3.42174 3.65621 3.42879C3.64285 3.43584 3.63102 3.44546 3.62139 3.45709C3.61176 3.46872 3.60453 3.48214 3.6001 3.49658C3.44865 4.02163 3.3512 4.66521 3.31314 5.25069C3.31247 5.26607 3.31496 5.28143 3.32045 5.29582C3.32593 5.3102 3.3343 5.32331 3.34505 5.33434C3.35579 5.34537 3.36867 5.35409 3.38291 5.35996C3.39714 5.36582 3.41243 5.36872 3.42782 5.36846H5.25496C5.26984 5.36869 5.28462 5.36599 5.29845 5.36051C5.31229 5.35503 5.32491 5.34687 5.33558 5.3365C5.34626 5.32614 5.35478 5.31377 5.36067 5.3001C5.36656 5.28644 5.3697 5.27174 5.3699 5.25686V3.84035C5.36942 3.81179 5.35816 3.78446 5.33836 3.76385C5.31857 3.74325 5.29172 3.73089 5.26319 3.72927Z" fill="#ff0099" />
		<path d="M9.8523 1.70705C9.31843 1.1679 8.68329 0.739547 7.98338 0.446599C7.28346 0.153652 6.53256 0.00188492 5.77381 1.74467e-05C5.01506 -0.00185002 4.26342 0.146219 3.56207 0.435717C2.86071 0.725216 2.22347 1.15044 1.68696 1.68696C1.15044 2.22347 0.725216 2.86071 0.435717 3.56207C0.146219 4.26342 -0.00185002 5.01506 1.74467e-05 5.77381C0.00188492 6.53256 0.153652 7.28346 0.446599 7.98338C0.739547 8.68329 1.1679 9.31843 1.70705 9.8523C2.24092 10.3915 2.87606 10.8198 3.57598 11.1128C4.2759 11.4057 5.0268 11.5575 5.78555 11.5593C6.5443 11.5612 7.29594 11.4131 7.99729 11.1236C8.69864 10.8341 9.33588 10.4089 9.8724 9.8724C10.4089 9.33588 10.8341 8.69864 11.1236 7.99729C11.4131 7.29594 11.5612 6.5443 11.5593 5.78555C11.5575 5.0268 11.4057 4.2759 11.1128 3.57598C10.8198 2.87606 10.3915 2.24092 9.8523 1.70705ZM3.7381 10.2755C3.62224 10.1128 3.51513 9.9441 3.4172 9.77002C3.36578 9.67514 3.29275 9.53192 3.24416 9.43242C3.23302 9.40881 3.21707 9.38779 3.19734 9.37071C3.1776 9.35362 3.15452 9.34084 3.12957 9.33319C3.10461 9.32555 3.07833 9.32319 3.05241 9.32629C3.0265 9.32938 3.00151 9.33785 2.97906 9.35116C2.86849 9.41313 2.72193 9.49824 2.61574 9.56792C2.39304 9.39865 2.18979 9.20522 2.00969 8.99119C2.25875 8.8154 2.52006 8.65764 2.79161 8.5191C2.83944 8.49339 2.86284 8.46408 2.84767 8.41162C2.64871 7.72302 2.52719 7.01437 2.48538 6.29882C2.48413 6.2702 2.47198 6.24315 2.45142 6.22321C2.43086 6.20328 2.40345 6.19196 2.37481 6.19159H0.915876C0.903474 6.19173 0.891439 6.18739 0.881989 6.17936C0.872539 6.17132 0.86631 6.16015 0.864451 6.14788C0.848292 6.02584 0.841073 5.90278 0.842852 5.77968C0.841094 5.65682 0.848485 5.534 0.864965 5.41224C0.866824 5.39998 0.873053 5.3888 0.882503 5.38077C0.891953 5.37274 0.903988 5.36839 0.91639 5.36853H2.37533C2.43421 5.36853 2.48255 5.33459 2.48563 5.2752C2.5269 4.56262 2.64764 3.85689 2.84561 3.17113C2.85298 3.1461 2.85139 3.11928 2.84111 3.0953C2.83083 3.07131 2.81251 3.05166 2.7893 3.03974C2.52358 2.90358 2.26725 2.74982 2.02203 2.57948C2.20117 2.3655 2.40042 2.16919 2.61702 1.99324C2.72193 2.06215 2.85872 2.14005 2.96826 2.20176C2.9924 2.21549 3.0191 2.22411 3.0467 2.22709C3.07431 2.23008 3.10223 2.22736 3.12874 2.21912C3.15526 2.21088 3.1798 2.19728 3.20084 2.17917C3.22189 2.16106 3.23899 2.13882 3.2511 2.11383C3.29944 2.01432 3.35395 1.9035 3.40692 1.80836C3.50527 1.63213 3.6129 1.46125 3.72935 1.29642C4.37047 0.994385 5.07098 0.839419 5.77968 0.842852C6.5238 0.842852 7.21702 1.02284 7.85032 1.31751C7.96214 1.47451 8.06515 1.63761 8.15887 1.80605C8.22546 1.92587 8.29618 2.07269 8.35583 2.19997C8.36223 2.21352 8.37134 2.22562 8.38258 2.23554C8.39382 2.24546 8.40696 2.25298 8.42121 2.25765C8.43545 2.26232 8.4505 2.26404 8.46543 2.26269C8.48036 2.26135 8.49486 2.25698 8.50805 2.24985C8.64638 2.17502 8.79629 2.08889 8.92819 2.00223C9.14542 2.17992 9.34517 2.37795 9.52472 2.59363C9.28621 2.75903 9.03655 2.90775 8.77752 3.03871C8.75426 3.05065 8.73592 3.07035 8.72568 3.0944C8.71544 3.11845 8.71395 3.14532 8.72146 3.17036C8.92265 3.85146 9.04219 4.55406 9.07758 5.26337C9.07896 5.29182 9.09119 5.31866 9.11176 5.33836C9.13233 5.35807 9.15966 5.36914 9.18815 5.3693L10.644 5.3675C10.6564 5.36736 10.6684 5.37171 10.6779 5.37974C10.6873 5.38778 10.6936 5.39895 10.6954 5.41122C10.7254 5.6556 10.7254 5.90273 10.6954 6.14711C10.6937 6.15947 10.6875 6.17077 10.678 6.1789C10.6686 6.18704 10.6565 6.19146 10.644 6.19134H9.18686C9.1582 6.19164 9.13076 6.20294 9.11018 6.22289C9.08961 6.24284 9.07748 6.26993 9.0763 6.29856C9.03625 7.00655 8.91662 7.70778 8.71966 8.389C8.71221 8.41432 8.71375 8.44144 8.72401 8.46577C8.73428 8.49009 8.75263 8.51011 8.77597 8.52245C8.90454 8.58904 9.04775 8.66335 9.17118 8.73895C9.2946 8.81454 9.41673 8.89528 9.5345 8.9791C9.35632 9.19377 9.15831 9.39117 8.9431 9.56869C8.88037 9.5273 8.8058 9.48024 8.74152 9.44167C8.69729 9.41596 8.61578 9.37045 8.57053 9.34499C8.47231 9.28997 8.36791 9.33111 8.3188 9.43242C8.26969 9.53372 8.19461 9.679 8.14216 9.77311C8.0455 9.94614 7.93949 10.1138 7.8246 10.2753C7.19156 10.5717 6.5238 10.7165 5.77968 10.7165C5.03555 10.7165 4.3714 10.5717 3.7381 10.2755Z" fill="#ff0099" />
	</symbol>
	<symbol id="location" viewBox="0 0 24 24" fill="#ff0099">
		<path d="M0 0h24v24H0V0z" fill="none" />
		<path d="M12 2C8.13 2 5 5.13 5 9c0 5.25 7 13 7 13s7-7.75 7-13c0-3.87-3.13-7-7-7zM7 9c0-2.76 2.24-5 5-5s5 2.24 5 5c0 2.88-2.88 7.19-5 9.88C9.92 16.21 7 11.85 7 9z" />
		<circle cx="12" cy="9" r="2.5" />
	</symbol>
	<symbol id="phone" viewBox="0 0 24 24" fill="#ff0099">
		<path d="M0 0h24v24H0V0z" fill="none" />
		<path d="M6.54 5c.06.89.21 1.76.45 2.59l-1.2 1.2c-.41-1.2-.67-2.47-.76-3.79h1.51m9.86 12.02c.85.24 1.72.39 2.6.45v1.49c-1.32-.09-2.59-.35-3.8-.75l1.2-1.19M7.5 3H4c-.55 0-1 .45-1 1 0 9.39 7.61 17 17 17 .55 0 1-.45 1-1v-3.49c0-.55-.45-1-1-1-1.24 0-2.45-.2-3.57-.57-.1-.04-.21-.05-.31-.05-.26 0-.51.1-.71.29l-2.2 2.2c-2.83-1.45-5.15-3.76-6.59-6.59l2.2-2.2c.28-.28.36-.67.25-1.02C8.7 6.45 8.5 5.25 8.5 4c0-.55-.45-1-1-1z" />
	</symbol>
</svg>
