<svg dysplay="none" xmlns="http://www.w3.org/2000/svg">
	<symbol id="telegram" viewBox="0 0 50 50" fill="#ff0099">
		<path d="M46.137,6.552c-0.75-0.636-1.928-0.727-3.146-0.238l-0.002,0C41.708,6.828,6.728,21.832,5.304,22.445	c-0.259,0.09-2.521,0.934-2.288,2.814c0.208,1.695,2.026,2.397,2.248,2.478l8.893,3.045c0.59,1.964,2.765,9.21,3.246,10.758	c0.3,0.965,0.789,2.233,1.646,2.494c0.752,0.29,1.5,0.025,1.984-0.355l5.437-5.043l8.777,6.845l0.209,0.125	c0.596,0.264,1.167,0.396,1.712,0.396c0.421,0,0.825-0.079,1.211-0.237c1.315-0.54,1.841-1.793,1.896-1.935l6.556-34.077	C47.231,7.933,46.675,7.007,46.137,6.552z M22,32l-3,8l-3-10l23-17L22,32z" />
	</symbol>
	<symbol id="instagram" viewBox="0 0 50 50" fill="#ff0099">
		<path d="M 16 3 C 8.83 3 3 8.83 3 16 L 3 34 C 3 41.17 8.83 47 16 47 L 34 47 C 41.17 47 47 41.17 47 34 L 47 16 C 47 8.83 41.17 3 34 3 L 16 3 z M 37 11 C 38.1 11 39 11.9 39 13 C 39 14.1 38.1 15 37 15 C 35.9 15 35 14.1 35 13 C 35 11.9 35.9 11 37 11 z M 25 14 C 31.07 14 36 18.93 36 25 C 36 31.07 31.07 36 25 36 C 18.93 36 14 31.07 14 25 C 14 18.93 18.93 14 25 14 z M 25 16 C 20.04 16 16 20.04 16 25 C 16 29.96 20.04 34 25 34 C 29.96 34 34 29.96 34 25 C 34 20.04 29.96 16 25 16 z" />
	</symbol>
	<symbol id="vk" viewBox="0 0 50 50" fill="#ff0099">
		<path d="M41,4H9C6.24,4,4,6.24,4,9v32c0,2.76,2.24,5,5,5h32c2.76,0,5-2.24,5-5V9C46,6.24,43.76,4,41,4z M37.72,33l-3.73-0.01c0,0-0.08,0.01-0.21,0.01c-0.3,0-0.92-0.08-1.65-0.58c-1.31-0.91-2.56-3.17-3.55-3.17c-0.07,0-0.13,0.01-0.19,0.03c-0.86,0.27-1.12,1.13-1.12,2.18c0,0.37-0.26,0.54-0.96,0.54h-1.93c-2.16,0-4.25-0.05-6.6-2.62c-3.46-3.79-6.7-10.53-6.7-10.53s-0.18-0.39,0.01-0.62c0.18-0.21,0.6-0.23,0.76-0.23c0.04,0,0.06,0,0.06,0h4c0,0,0.37,0.07,0.64,0.27c0.23,0.17,0.35,0.48,0.35,0.48s0.68,1.32,1.53,2.81c1.43,2.46,2.2,3.28,2.75,3.28c0.09,0,0.18-0.02,0.27-0.07c0.82-0.45,0.58-4.09,0.58-4.09s0.01-1.32-0.42-1.9c-0.33-0.46-0.96-0.59-1.24-0.63c-0.22-0.03,0.14-0.55,0.62-0.79c0.62-0.3,1.65-0.36,2.89-0.36h0.6c1.17,0.02,1.2,0.14,1.66,0.25c1.38,0.33,0.91,1.62,0.91,4.71c0,0.99-0.18,2.38,0.53,2.85c0.05,0.03,0.12,0.05,0.21,0.05c0.46,0,1.45-0.59,3.03-3.26c0.88-1.52,1.56-3.03,1.56-3.03s0.15-0.27,0.38-0.41c0.22-0.13,0.22-0.13,0.51-0.13h0.03c0.32,0,3.5-0.03,4.2-0.03h0.08c0.67,0,1.28,0.01,1.39,0.42c0.16,0.62-0.49,1.73-2.2,4.03c-2.82,3.77-3.14,3.49-0.8,5.67c2.24,2.08,2.7,3.09,2.78,3.22C39.68,32.88,37.72,33,37.72,33z" />
	</symbol>
</svg>
